<svg width="276" height="57" viewBox="0 0 276 57" fill="none" xmlns="http://www.w3.org/2000/svg">
<path d="M1.31422 15.1419H3.02165L6.4365 20.8894H6.58079L9.99565 15.1419H11.7031L7.25415 22.3804V27.4546H5.76315V22.3804L1.31422 15.1419ZM23.4417 21.2982C23.4417 22.5968 23.2072 23.7191 22.7382 24.665C22.2693 25.6109 21.626 26.3404 20.8084 26.8534C19.9907 27.3664 19.0568 27.6229 18.0067 27.6229C16.9566 27.6229 16.0228 27.3664 15.2051 26.8534C14.3875 26.3404 13.7442 25.6109 13.2752 24.665C12.8063 23.7191 12.5718 22.5968 12.5718 21.2982C12.5718 19.9996 12.8063 18.8774 13.2752 17.9315C13.7442 16.9856 14.3875 16.2561 15.2051 15.7431C16.0228 15.23 16.9566 14.9735 18.0067 14.9735C19.0568 14.9735 19.9907 15.23 20.8084 15.7431C21.626 16.2561 22.2693 16.9856 22.7382 17.9315C23.2072 18.8774 23.4417 19.9996 23.4417 21.2982ZM21.9988 21.2982C21.9988 20.2321 21.8204 19.3323 21.4637 18.5988C21.111 17.8653 20.632 17.3102 20.0268 16.9335C19.4256 16.5567 18.7522 16.3683 18.0067 16.3683C17.2612 16.3683 16.5859 16.5567 15.9807 16.9335C15.3795 17.3102 14.9005 17.8653 14.5438 18.5988C14.1911 19.3323 14.0147 20.2321 14.0147 21.2982C14.0147 22.3644 14.1911 23.2642 14.5438 23.9976C14.9005 24.7311 15.3795 25.2862 15.9807 25.663C16.5859 26.0397 17.2612 26.2281 18.0067 26.2281C18.7522 26.2281 19.4256 26.0397 20.0268 25.663C20.632 25.2862 21.111 24.7311 21.4637 23.9976C21.8204 23.2642 21.9988 22.3644 21.9988 21.2982ZM34.0289 15.1419H35.5199V23.2942C35.5199 24.1359 35.3215 24.8874 34.9247 25.5488C34.5319 26.2061 33.9768 26.7251 33.2594 27.1059C32.5419 27.4826 31.7002 27.671 30.7343 27.671C29.7684 27.671 28.9267 27.4826 28.2092 27.1059C27.4918 26.7251 26.9347 26.2061 26.5379 25.5488C26.1451 24.8874 25.9487 24.1359 25.9487 23.2942V15.1419H27.4397V23.174C27.4397 23.7752 27.5719 24.3103 27.8365 24.7792C28.101 25.2442 28.4778 25.6109 28.9668 25.8794C29.4597 26.144 30.0489 26.2762 30.7343 26.2762C31.4197 26.2762 32.0089 26.144 32.5019 25.8794C32.9948 25.6109 33.3716 25.2442 33.6321 24.7792C33.8967 24.3103 34.0289 23.7752 34.0289 23.174V15.1419ZM38.4974 27.4546V15.1419H42.6577C43.6197 15.1419 44.4093 15.3062 45.0265 15.6349C45.6437 15.9595 46.1007 16.4064 46.3973 16.9755C46.6939 17.5447 46.8422 18.192 46.8422 18.9174C46.8422 19.6429 46.6939 20.2862 46.3973 20.8473C46.1007 21.4084 45.6457 21.8493 45.0325 22.17C44.4193 22.4866 43.6357 22.6449 42.6818 22.6449H39.315V21.2982H42.6337C43.291 21.2982 43.8201 21.202 44.2209 21.0096C44.6257 20.8173 44.9183 20.5447 45.0986 20.192C45.283 19.8353 45.3752 19.4104 45.3752 18.9174C45.3752 18.4245 45.283 17.9936 45.0986 17.6248C44.9143 17.2561 44.6197 16.9715 44.2149 16.7711C43.8101 16.5667 43.275 16.4645 42.6097 16.4645H39.9884V27.4546H38.4974ZM44.293 21.9235L47.3231 27.4546H45.5916L42.6097 21.9235H44.293ZM58.8498 27.4546V15.1419H60.3408V26.1319H66.0643V27.4546H58.8498ZM78.2823 21.2982C78.2823 22.5968 78.0478 23.7191 77.5789 24.665C77.1099 25.6109 76.4666 26.3404 75.649 26.8534C74.8314 27.3664 73.8975 27.6229 72.8474 27.6229C71.7973 27.6229 70.8634 27.3664 70.0458 26.8534C69.2281 26.3404 68.5848 25.6109 68.1159 24.665C67.6469 23.7191 67.4125 22.5968 67.4125 21.2982C67.4125 19.9996 67.6469 18.8774 68.1159 17.9315C68.5848 16.9856 69.2281 16.2561 70.0458 15.7431C70.8634 15.23 71.7973 14.9735 72.8474 14.9735C73.8975 14.9735 74.8314 15.23 75.649 15.7431C76.4666 16.2561 77.1099 16.9856 77.5789 17.9315C78.0478 18.8774 78.2823 19.9996 78.2823 21.2982ZM76.8394 21.2982C76.8394 20.2321 76.661 19.3323 76.3043 18.5988C75.9516 17.8653 75.4727 17.3102 74.8674 16.9335C74.2662 16.5567 73.5929 16.3683 72.8474 16.3683C72.1019 16.3683 71.4265 16.5567 70.8213 16.9335C70.2201 17.3102 69.7411 17.8653 69.3844 18.5988C69.0317 19.3323 68.8554 20.2321 68.8554 21.2982C68.8554 22.3644 69.0317 23.2642 69.3844 23.9976C69.7411 24.7311 70.2201 25.2862 70.8213 25.663C71.4265 26.0397 72.1019 26.2281 72.8474 26.2281C73.5929 26.2281 74.2662 26.0397 74.8674 25.663C75.4727 25.2862 75.9516 24.7311 76.3043 23.9976C76.661 23.2642 76.8394 22.3644 76.8394 21.2982ZM89.2062 18.9896C89.074 18.5848 88.8996 18.222 88.6832 17.9014C88.4708 17.5768 88.2162 17.3002 87.9196 17.0717C87.6271 16.8433 87.2944 16.6689 86.9216 16.5487C86.5489 16.4284 86.1401 16.3683 85.6952 16.3683C84.9657 16.3683 84.3024 16.5567 83.7052 16.9335C83.108 17.3102 82.633 17.8653 82.2803 18.5988C81.9276 19.3323 81.7513 20.2321 81.7513 21.2982C81.7513 22.3644 81.9296 23.2642 82.2863 23.9976C82.643 24.7311 83.126 25.2862 83.7352 25.663C84.3445 26.0397 85.0298 26.2281 85.7914 26.2281C86.4968 26.2281 87.118 26.0778 87.6551 25.7772C88.1962 25.4726 88.617 25.0437 88.9177 24.4906C89.2223 23.9335 89.3746 23.2782 89.3746 22.5247L89.8315 22.6209H86.128V21.2982H90.8175V22.6209C90.8175 23.6349 90.601 24.5167 90.1682 25.2662C89.7393 26.0157 89.1461 26.5969 88.3886 27.0097C87.6351 27.4185 86.7693 27.6229 85.7914 27.6229C84.7012 27.6229 83.7433 27.3664 82.9176 26.8534C82.096 26.3404 81.4547 25.6109 80.9937 24.665C80.5368 23.7191 80.3084 22.5968 80.3084 21.2982C80.3084 20.3243 80.4386 19.4485 80.6991 18.6709C80.9637 17.8894 81.3364 17.224 81.8174 16.6749C82.2984 16.1258 82.8675 15.705 83.5248 15.4124C84.1821 15.1198 84.9056 14.9735 85.6952 14.9735C86.3445 14.9735 86.9497 15.0717 87.5108 15.2681C88.076 15.4605 88.579 15.7351 89.0199 16.0918C89.4647 16.4445 89.8355 16.8673 90.1321 17.3603C90.4287 17.8493 90.6331 18.3924 90.7453 18.9896H89.2062ZM103.76 21.2982C103.76 22.5968 103.525 23.7191 103.057 24.665C102.588 25.6109 101.944 26.3404 101.127 26.8534C100.309 27.3664 99.3751 27.6229 98.325 27.6229C97.2749 27.6229 96.3411 27.3664 95.5234 26.8534C94.7058 26.3404 94.0625 25.6109 93.5935 24.665C93.1246 23.7191 92.8901 22.5968 92.8901 21.2982C92.8901 19.9996 93.1246 18.8774 93.5935 17.9315C94.0625 16.9856 94.7058 16.2561 95.5234 15.7431C96.3411 15.23 97.2749 14.9735 98.325 14.9735C99.3751 14.9735 100.309 15.23 101.127 15.7431C101.944 16.2561 102.588 16.9856 103.057 17.9315C103.525 18.8774 103.76 19.9996 103.76 21.2982ZM102.317 21.2982C102.317 20.2321 102.139 19.3323 101.782 18.5988C101.429 17.8653 100.95 17.3102 100.345 16.9335C99.7439 16.5567 99.0705 16.3683 98.325 16.3683C97.5795 16.3683 96.9042 16.5567 96.299 16.9335C95.6978 17.3102 95.2188 17.8653 94.8621 18.5988C94.5094 19.3323 94.333 20.2321 94.333 21.2982C94.333 22.3644 94.5094 23.2642 94.8621 23.9976C95.2188 24.7311 95.6978 25.2862 96.299 25.663C96.9042 26.0397 97.5795 26.2281 98.325 26.2281C99.0705 26.2281 99.7439 26.0397 100.345 25.663C100.95 25.2862 101.429 24.7311 101.782 23.9976C102.139 23.2642 102.317 22.3644 102.317 21.2982ZM111.029 27.4546V15.1419H118.459V16.4645H112.52V20.6249H118.075V21.9475H112.52V26.1319H118.556V27.4546H111.029ZM121.147 27.4546V15.1419H125.307C126.269 15.1419 127.059 15.3062 127.676 15.6349C128.293 15.9595 128.75 16.4064 129.047 16.9755C129.343 17.5447 129.492 18.192 129.492 18.9174C129.492 19.6429 129.343 20.2862 129.047 20.8473C128.75 21.4084 128.295 21.8493 127.682 22.17C127.069 22.4866 126.285 22.6449 125.331 22.6449H121.965V21.2982H125.283C125.941 21.2982 126.47 21.202 126.87 21.0096C127.275 20.8173 127.568 20.5447 127.748 20.192C127.933 19.8353 128.025 19.4104 128.025 18.9174C128.025 18.4245 127.933 17.9936 127.748 17.6248C127.564 17.2561 127.269 16.9715 126.864 16.7711C126.46 16.5667 125.924 16.4645 125.259 16.4645H122.638V27.4546H121.147ZM126.943 21.9235L129.973 27.4546H128.241L125.259 21.9235H126.943ZM131.976 27.4546V15.1419H139.407V16.4645H133.467V20.6249H139.022V21.9475H133.467V26.1319H139.503V27.4546H131.976Z" fill="#636362"/>
<path d="M260.744 1.6322H12.2559V55.1644H260.744V1.6322Z" stroke="#636362" stroke-width="2" stroke-miterlimit="10"/>
</svg>
