<svg width="1728" height="1117" viewBox="0 0 1728 1117" fill="none" xmlns="http://www.w3.org/2000/svg">
<path d="M415.771 215.829L376.879 249.685L385.593 259.694L424.485 225.838L415.771 215.829Z" fill="#7CDCD8"/>
<path d="M391.288 183.229L384.48 171.859C386.796 170.442 406.598 157.24 393.293 128.521L405.32 122.922C420.284 155.132 402.693 176.455 391.288 183.229Z" fill="#65EF82"/>
<path d="M465.824 145.78L457.235 155.897L496.544 189.268L505.133 179.151L465.824 145.78Z" fill="#7CDCD8"/>
<path d="M285.702 141.583L278.91 159.816L349.771 186.211L356.563 167.978L285.702 141.583Z" fill="#FE5E9A"/>
<path d="M542.316 109.305L563.467 117.289C561.877 121.609 549.366 160.281 597.578 184.542L587.417 204.725C533.331 177.492 534.298 130.387 542.351 109.271L542.316 109.305Z" fill="#7CDCD8"/>
<path d="M377.43 351.64L376.912 338.403C379.607 338.265 403.35 336.157 405.424 304.569L418.66 305.433C416.345 340.857 390.701 351.156 377.465 351.64H377.43Z" fill="#FE5E9A"/>
<path d="M327.054 237.672L314.699 242.517L333.521 290.522L345.877 285.678L327.054 237.672Z" fill="#7CDCD8"/>
<path d="M591.077 -5.92633L531.479 45.9363L544.818 61.2659L604.417 9.40333L591.077 -5.92633Z" fill="#B67DDB"/>
<path d="M446.314 49.9269L433.958 54.7692L452.772 102.778L465.128 97.9355L446.314 49.9269Z" fill="#7CDCD8"/>
<path d="M390.045 71.4275C390.045 78.6851 384.17 84.5949 376.878 84.5949C369.586 84.5949 363.71 78.6851 363.71 71.4275C363.71 64.1699 369.586 58.2602 376.878 58.2602C384.17 58.2602 390.045 64.1699 390.045 71.4275Z" fill="#7CDCD8"/>
<path d="M628.854 87.6707C628.854 96.3107 621.838 103.292 613.233 103.292C604.627 103.292 597.612 96.2761 597.612 87.6707C597.612 79.0653 604.593 72.0496 613.233 72.0496C621.873 72.0496 628.854 79.0653 628.854 87.6707Z" fill="#7CDCD8"/>
<path d="M292.067 277.301C292.067 284.559 286.157 290.469 278.899 290.469C271.642 290.469 265.732 284.559 265.732 277.301C265.732 270.044 271.642 264.134 278.899 264.134C286.157 264.134 292.067 270.044 292.067 277.301Z" fill="#7CDCD8"/>
<path d="M288.82 -22.6909L276.465 -17.8464L295.288 30.1588L307.643 25.3143L288.82 -22.6909Z" fill="#FE5E9A"/>
<path d="M230.482 104.64L223.673 93.2694C225.989 91.8525 245.792 78.6506 232.486 49.9312L244.513 44.3325C259.443 76.5424 241.886 97.866 230.482 104.64Z" fill="#7CDCD8"/>
<path d="M238.74 167.3L199.848 201.156L208.561 211.166L247.453 177.31L238.74 167.3Z" fill="#FFCE45"/>
<path d="M136.207 -19.0644L123.851 -14.2221L142.665 33.7864L155.021 28.9441L136.207 -19.0644Z" fill="#FFCE45"/>
<path d="M29.9749 27.5563L23.1831 45.7897L94.044 72.1848L100.836 53.9514L29.9749 27.5563Z" fill="#FE5E9A"/>
<path d="M21.4968 150.812C21.4968 158.069 15.5871 163.979 8.32946 163.979C1.07186 163.979 -4.83789 158.069 -4.83789 150.812C-4.83789 143.554 1.07186 137.645 8.32946 137.645C15.5871 137.645 21.4968 143.52 21.4968 150.812Z" fill="#B67DDB"/>
<path d="M148.997 278.841L142.206 297.074L213.066 323.47L219.858 305.236L148.997 278.841Z" fill="#65EF82"/>
<path d="M155.383 414.436C155.383 421.693 149.473 427.603 142.216 427.603C134.958 427.603 129.048 421.693 129.048 414.436C129.048 407.178 134.924 401.268 142.216 401.268C149.508 401.268 155.383 407.178 155.383 414.436Z" fill="#7CDCD8"/>
<path d="M93.7956 241.808L86.9873 230.438C89.3028 229.021 109.106 215.819 95.8001 187.1L107.827 181.501C122.757 213.711 105.2 235.035 93.7956 241.808Z" fill="#FE5E9A"/>
<path d="M102.099 304.388L63.207 338.244L71.9206 348.254L110.812 314.398L102.099 304.388Z" fill="#7CDCD8"/>
<path d="M49.629 260.091C49.629 268.731 42.6133 275.712 34.0078 275.712C25.4024 275.712 18.3867 268.696 18.3867 260.091C18.3867 251.485 25.3678 244.469 34.0078 244.469C42.6478 244.469 49.629 251.485 49.629 260.091Z" fill="#FFCE45"/>
<path d="M693.067 119.708L686.259 108.338C688.574 106.921 708.377 93.7188 695.072 64.9994L707.098 59.4007C722.063 91.6106 704.472 112.934 693.067 119.708Z" fill="#65EF82"/>
<path d="M855.313 -56.2152L795.706 -4.36292L809.043 10.9691L868.65 -40.8832L855.313 -56.2152Z" fill="#FE5E9A"/>
<path d="M748.123 -13.6179L735.767 -8.77557L754.581 39.233L766.938 34.3907L748.123 -13.6179Z" fill="#7CDCD8"/>
<path d="M930.666 24.1149C930.666 32.7549 923.65 39.736 915.045 39.736C906.439 39.736 899.424 32.7203 899.424 24.1149C899.424 15.5094 906.439 8.49371 915.045 8.49371C923.65 8.49371 930.666 15.5094 930.666 24.1149Z" fill="#7CDCD8"/>
<path d="M1198.3 20.5207C1198.3 27.7783 1192.39 33.688 1185.13 33.688C1177.88 33.688 1171.97 27.7783 1171.97 20.5207C1171.97 13.2631 1177.88 7.35327 1185.13 7.35327C1192.39 7.35327 1198.3 13.2631 1198.3 20.5207Z" fill="#65EF82"/>
<path d="M1072.23 37.5242L1065.42 26.1539C1067.73 24.737 1087.54 11.5351 1074.23 -17.1843L1086.26 -22.783C1101.19 9.4269 1083.63 30.7504 1072.23 37.5242Z" fill="#FE5E9A"/>
<path d="M1028.06 55.8064C1028.06 64.4464 1021.04 71.4276 1012.44 71.4276C1003.83 71.4276 996.814 64.4119 996.814 55.8064C996.814 47.201 1003.8 40.1853 1012.44 40.1853C1021.08 40.1853 1028.06 47.201 1028.06 55.8064Z" fill="#B67DDB"/>
<path d="M1583.43 -28.0191L1571.07 -23.1746L1589.9 24.8306L1602.25 19.9862L1583.43 -28.0191Z" fill="#7CDCD8"/>
<path d="M1548.46 11.4659C1548.46 18.7235 1542.55 24.6333 1535.29 24.6333C1528.04 24.6333 1522.13 18.7235 1522.13 11.4659C1522.13 4.20834 1528.04 -1.70142 1535.29 -1.70142C1542.55 -1.70142 1548.46 4.20834 1548.46 11.4659Z" fill="#7CDCD8"/>
<path d="M1405.5 13.0281L1398.71 31.2603L1469.57 57.6679L1476.36 39.4356L1405.5 13.0281Z" fill="#65EF82"/>
<path d="M1411.78 148.6C1411.78 155.858 1405.87 161.767 1398.61 161.767C1391.35 161.767 1385.44 155.858 1385.44 148.6C1385.44 141.342 1391.32 135.433 1398.61 135.433C1405.9 135.433 1411.78 141.342 1411.78 148.6Z" fill="#7CDCD8"/>
<path d="M1358.42 38.5536L1319.53 72.4163L1328.25 82.4244L1367.13 48.5617L1358.42 38.5536Z" fill="#FFCE45"/>
<path d="M1306.02 -5.7795C1306.02 2.8605 1299.04 9.84158 1290.4 9.84158C1281.76 9.84158 1274.78 2.82594 1274.78 -5.7795C1274.78 -14.3849 1281.76 -21.4006 1290.4 -21.4006C1299.04 -21.4006 1306.02 -14.3849 1306.02 -5.7795Z" fill="#7CDCD8"/>
<path d="M762.199 116.336L737.065 191.235L756.33 197.7L781.464 122.801L762.199 116.336Z" fill="#FE5E9A"/>
<path d="M867.872 147.46C872.261 154.89 869.739 164.498 862.308 168.852C854.843 173.241 845.27 170.718 840.916 163.288C836.526 155.858 839.015 146.25 846.48 141.895C853.91 137.541 863.518 140.029 867.872 147.46Z" fill="#7CDCD8"/>
<path d="M1744.35 152.831L1705.46 186.686L1714.17 196.696L1753.07 162.84L1744.35 152.831Z" fill="#7CDCD8"/>
<path d="M1691.92 108.51C1691.92 117.15 1684.9 124.132 1676.3 124.132C1667.69 124.132 1660.68 117.116 1660.68 108.51C1660.68 99.905 1667.69 92.8893 1676.3 92.8893C1684.9 92.8893 1691.92 99.905 1691.92 108.51Z" fill="#FE5E9A"/>
<path d="M1527.1 136.4C1527.1 143.658 1521.19 149.568 1513.93 149.568C1506.68 149.568 1500.77 143.658 1500.77 136.4C1500.77 129.143 1506.68 123.233 1513.93 123.233C1521.19 123.233 1527.1 129.143 1527.1 136.4Z" fill="#FFCE45"/>
<path d="M1654.72 264.474L1647.93 282.706L1718.79 309.114L1725.58 290.882L1654.72 264.474Z" fill="#FFCE45"/>
<path d="M1660.99 400.024C1660.99 407.282 1655.08 413.191 1647.82 413.191C1640.56 413.191 1634.65 407.282 1634.65 400.024C1634.65 392.766 1640.53 386.857 1647.82 386.857C1655.11 386.857 1660.99 392.766 1660.99 400.024Z" fill="#7CDCD8"/>
<path d="M1599.4 227.397L1592.6 216.027C1594.91 214.61 1614.71 201.408 1601.41 172.688L1613.44 167.09C1628.37 199.3 1610.81 220.623 1599.4 227.397Z" fill="#B67DDB"/>
<path d="M1607.66 289.945L1568.77 323.801L1577.49 333.81L1616.38 299.954L1607.66 289.945Z" fill="#FE5E9A"/>
<path d="M1555.24 245.679C1555.24 254.319 1548.22 261.3 1539.61 261.3C1531.01 261.3 1523.99 254.284 1523.99 245.679C1523.99 237.074 1530.97 230.058 1539.61 230.058C1548.25 230.058 1555.24 237.074 1555.24 245.679Z" fill="#FFCE45"/>
<path d="M1717.63 -9.20093C1717.63 -1.94333 1711.72 3.96642 1704.46 3.96642C1697.21 3.96642 1691.3 -1.94333 1691.3 -9.20093C1691.3 -16.4585 1697.21 -22.3683 1704.46 -22.3683C1711.72 -22.3683 1717.63 -16.4585 1717.63 -9.20093Z" fill="#B67DDB"/>
<path d="M1134.5 100.285C1130.15 107.75 1120.58 110.273 1113.14 105.953C1105.68 101.598 1103.16 92.0253 1107.48 84.5604C1111.83 77.0954 1121.37 74.5725 1128.83 78.8925C1136.3 83.2471 1138.82 92.7856 1134.5 100.251V100.285Z" fill="#7CDCD8"/>
<path d="M1250.14 183.022L1249.97 169.751C1252.66 169.682 1276.44 168.23 1279.38 136.711L1292.58 137.921C1289.3 173.276 1263.41 182.884 1250.14 182.987V183.022Z" fill="#7CDCD8"/>
<path d="M1202.76 176.628C1198.4 184.093 1188.83 186.616 1181.4 182.296C1173.94 177.941 1171.41 168.403 1175.73 160.903C1180.09 153.438 1189.66 150.916 1197.13 155.236C1204.59 159.556 1207.11 169.129 1202.79 176.594L1202.76 176.628Z" fill="#FFCE45"/>
<path d="M987.726 237.627C987.726 246.267 980.779 253.282 972.174 253.317C963.534 253.351 956.518 246.37 956.484 237.73C956.449 229.09 963.43 222.075 972.036 222.04C980.676 222.005 987.691 228.987 987.726 237.592V237.627Z" fill="#FFCE45"/>
<path d="M1528.01 554.521L1521.22 572.754L1592.08 599.15L1598.87 580.916L1528.01 554.521Z" fill="#FE5E9A"/>
<path d="M1569.23 650.623L1556.88 655.467L1575.7 703.472L1588.05 698.628L1569.23 650.623Z" fill="#FFCE45"/>
<path d="M1534.29 690.086C1534.29 697.344 1528.38 703.253 1521.12 703.253C1513.87 703.253 1507.96 697.344 1507.96 690.086C1507.96 682.828 1513.87 676.919 1521.12 676.919C1528.38 676.919 1534.29 682.828 1534.29 690.086Z" fill="#65EF82"/>
<path d="M1531.08 390.133L1518.72 394.975L1537.54 442.984L1549.9 438.142L1531.08 390.133Z" fill="#7CDCD8"/>
<path d="M1472.71 517.424L1465.9 506.054C1468.21 504.637 1488.02 491.435 1474.71 462.716L1486.74 457.117C1501.7 489.327 1484.11 510.651 1472.71 517.424Z" fill="#FFCE45"/>
<path d="M1480.97 580.032L1442.08 613.887L1450.79 623.897L1489.68 590.041L1480.97 580.032Z" fill="#7CDCD8"/>
<path d="M1428.54 535.707C1428.54 544.347 1421.52 551.328 1412.92 551.328C1404.31 551.328 1397.29 544.312 1397.29 535.707C1397.29 527.101 1404.31 520.085 1412.92 520.085C1421.52 520.085 1428.54 527.101 1428.54 535.707Z" fill="#B67DDB"/>
<path d="M1378.44 393.779L1366.08 398.624L1384.91 446.629L1397.26 441.784L1378.44 393.779Z" fill="#7CDCD8"/>
<path d="M1494.23 341.769L1455.34 375.624L1464.05 385.634L1502.94 351.778L1494.23 341.769Z" fill="#7CDCD8"/>
<path d="M1365.36 248.306L1386.51 256.289C1384.92 260.609 1372.41 299.282 1420.62 323.543L1410.46 343.726C1356.38 316.492 1357.34 269.387 1365.4 248.271L1365.36 248.306Z" fill="#FE5E9A"/>
<path d="M1391.25 691.634L1384.45 709.867L1455.31 736.274L1462.11 718.042L1391.25 691.634Z" fill="#FE5E9A"/>
<path d="M1756.13 801.689L1717.24 835.545L1725.95 845.554L1764.84 811.698L1756.13 801.689Z" fill="#FFCE45"/>
<path d="M1703.67 757.375C1703.67 766.015 1696.65 772.996 1688.05 772.996C1679.44 772.996 1672.43 766.015 1672.43 757.375C1672.43 748.735 1679.41 741.753 1688.05 741.753C1696.69 741.753 1703.67 748.769 1703.67 757.375Z" fill="#B67DDB"/>
<path d="M1653.6 615.167L1641.24 620.014L1660.07 668.016L1672.43 663.169L1653.6 615.167Z" fill="#7CDCD8"/>
<path d="M1640.49 469.939L1661.64 477.922C1660.05 482.242 1647.54 520.915 1695.75 545.176L1685.59 565.359C1631.51 538.126 1632.48 491.02 1640.53 469.904L1640.49 469.939Z" fill="#FE5E9A"/>
<path d="M1666.28 913.112L1659.49 931.345L1730.35 957.741L1737.14 939.507L1666.28 913.112Z" fill="#FFCE45"/>
<path d="M1292.75 275.712C1292.75 282.969 1286.84 288.879 1279.58 288.879C1272.33 288.879 1266.42 282.969 1266.42 275.712C1266.42 268.454 1272.33 262.544 1279.58 262.544C1286.84 262.544 1292.75 268.454 1292.75 275.712Z" fill="#FE5E9A"/>
<path d="M863.552 260.194L856.744 248.824C859.06 247.407 878.863 234.205 865.557 205.486L877.584 199.887C892.548 232.097 874.957 253.42 863.552 260.194Z" fill="#7CDCD8"/>
<path d="M1033.33 135.308L1024.75 145.425L1064.05 178.796L1072.64 168.679L1033.33 135.308Z" fill="#FE5E9A"/>
<path d="M934.357 98.5977L922.001 103.442L940.824 151.447L953.179 146.603L934.357 98.5977Z" fill="#7CDCD8"/>
<path d="M1111.76 267.832L1104.95 256.462C1107.27 255.045 1127.07 241.843 1113.77 213.124L1125.79 207.525C1140.72 239.735 1123.17 261.058 1111.76 267.832Z" fill="#7CDCD8"/>
<path d="M1595.01 953.019L1588.21 941.648C1590.52 940.231 1610.32 927.029 1597.02 898.31L1609.05 892.711C1623.98 924.921 1606.42 946.245 1595.01 953.019Z" fill="#FE5E9A"/>
<path d="M1603.31 1015.52L1564.41 1049.38L1573.13 1059.39L1612.02 1025.53L1603.31 1015.52Z" fill="#B67DDB"/>
<path d="M1550.85 971.301C1550.85 979.941 1543.83 986.956 1535.23 986.956C1526.62 986.956 1519.6 979.941 1519.6 971.301C1519.6 962.661 1526.59 955.68 1535.23 955.68C1543.87 955.68 1550.85 962.695 1550.85 971.301Z" fill="#7CDCD8"/>
<path d="M1500.79 829.116L1488.43 833.957L1507.24 881.968L1519.6 877.128L1500.79 829.116Z" fill="#7CDCD8"/>
<path d="M1616.57 777.366L1577.68 811.229L1586.4 821.237L1625.28 787.374L1616.57 777.366Z" fill="#FE5E9A"/>
<path d="M1394.44 875.807L1387.65 894.041L1458.51 920.436L1465.3 902.202L1394.44 875.807Z" fill="#FFCE45"/>
<path d="M1385.99 999.156C1385.99 1006.41 1380.08 1012.32 1372.83 1012.32C1365.57 1012.32 1359.66 1006.41 1359.66 999.156C1359.66 991.899 1365.57 985.989 1372.83 985.989C1380.08 985.989 1385.99 991.899 1385.99 999.156Z" fill="#7CDCD8"/>
<path d="M1458.33 1090.15L1451.52 1078.78C1453.84 1077.37 1473.64 1064.16 1460.33 1035.44L1472.36 1029.85C1487.29 1062.06 1469.73 1083.38 1458.33 1090.15Z" fill="#65EF82"/>
<path d="M1414.13 1108.43C1414.13 1117.07 1407.15 1124.06 1398.51 1124.06C1389.87 1124.06 1382.88 1117.04 1382.88 1108.43C1382.88 1099.83 1389.87 1092.81 1398.51 1092.81C1407.15 1092.81 1414.13 1099.79 1414.13 1108.43Z" fill="#B67DDB"/>
<path d="M1657.11 1070L1650.32 1088.24L1721.18 1114.64L1727.97 1096.41L1657.11 1070Z" fill="#FE5E9A"/>
<path d="M1240.65 590.697L1233.86 608.932L1304.73 635.315L1311.52 617.08L1240.65 590.697Z" fill="#7CDCD8"/>
<path d="M1322.19 686.523L1309.83 691.364L1328.64 739.375L1340.99 734.535L1322.19 686.523Z" fill="#FFCE45"/>
<path d="M1295.07 961.417L1288.26 950.046C1290.58 948.629 1310.38 935.427 1297.07 906.708L1309.1 901.109C1324.03 933.319 1306.47 954.643 1295.07 961.417Z" fill="#7CDCD8"/>
<path d="M1303.35 1023.99L1264.47 1057.86L1273.18 1067.87L1312.06 1034L1303.35 1023.99Z" fill="#FFCE45"/>
<path d="M1316.64 785.772L1277.75 819.627L1286.46 829.637L1325.35 795.781L1316.64 785.772Z" fill="#FE5E9A"/>
<path d="M253.108 363.43L246.316 381.664L317.177 408.059L323.969 389.826L253.108 363.43Z" fill="#B67DDB"/>
<path d="M294.44 459.397L282.084 464.239L300.898 512.247L313.254 507.405L294.44 459.397Z" fill="#7CDCD8"/>
<path d="M307.585 734.15L300.777 722.78C303.092 721.363 322.895 708.161 309.59 679.442L321.617 673.843C336.546 706.053 318.99 727.376 307.585 734.15Z" fill="#FE5E9A"/>
<path d="M307.127 789.558L268.235 823.414L276.949 833.424L315.841 799.568L307.127 789.558Z" fill="#7CDCD8"/>
<path d="M329.136 558.604L290.25 592.467L298.965 602.475L337.851 568.612L329.136 558.604Z" fill="#FFCE45"/>
<path d="M101.641 448.062L122.792 456.046C121.202 460.366 108.692 499.038 156.903 523.3L146.742 543.483C92.6558 516.249 93.6235 469.144 101.676 448.028L101.641 448.062Z" fill="#FE5E9A"/>
<path d="M49.5148 531.275L37.1587 536.117L55.973 584.126L68.3291 579.283L49.5148 531.275Z" fill="#7CDCD8"/>
<path d="M12.7088 483.072L-26.1831 516.928L-17.4695 526.937L21.4223 493.082L12.7088 483.072Z" fill="#7CDCD8"/>
<path d="M36.1843 427.257L29.376 415.887C31.6915 414.47 51.4944 401.268 38.1888 372.549L50.2157 366.95C65.1456 399.16 47.5891 420.484 36.1843 427.257Z" fill="#FE5E9A"/>
<path d="M238.724 473.915L199.832 507.771L208.546 517.781L247.437 483.925L238.724 473.915Z" fill="#FFCE45"/>
<path d="M413.856 590.622C413.856 597.88 407.946 603.79 400.688 603.79C393.431 603.79 387.521 597.88 387.521 590.622C387.521 583.365 393.431 577.455 400.688 577.455C407.946 577.455 413.856 583.33 413.856 590.622Z" fill="#FE5E9A"/>
<path d="M199.481 635.239C199.481 642.497 193.571 648.407 186.313 648.407C179.056 648.407 173.146 642.497 173.146 635.239C173.146 627.982 179.056 622.072 186.313 622.072C193.571 622.072 199.481 627.947 199.481 635.239Z" fill="#FFCE45"/>
<path d="M151.65 741.753L172.801 749.737C171.211 754.057 158.7 792.729 206.912 816.99L196.751 837.173C142.665 809.94 143.632 762.835 151.685 741.719L151.65 741.753Z" fill="#65EF82"/>
<path d="M69.8872 820.5L57.5303 825.341L76.3362 873.352L88.6931 868.512L69.8872 820.5Z" fill="#FFCE45"/>
<path d="M33.1409 772.222L-5.75098 806.077L2.96259 816.087L41.8545 782.231L33.1409 772.222Z" fill="#FE5E9A"/>
<path d="M56.5402 716.49L49.7319 705.12C52.0475 703.703 71.8503 690.501 58.5447 661.781L70.5716 656.183C85.5015 688.393 67.945 709.716 56.5402 716.49Z" fill="#B67DDB"/>
<path d="M1227.33 771.89L1220.52 760.519C1222.84 759.103 1242.64 745.901 1229.33 717.181L1241.36 711.583C1256.29 743.792 1238.73 765.116 1227.33 771.89Z" fill="#7CDCD8"/>
<path d="M1262.75 920.567C1262.75 929.207 1255.74 936.188 1247.13 936.188C1238.53 936.188 1231.51 929.172 1231.51 920.567C1231.51 911.961 1238.53 904.946 1247.13 904.946C1255.74 904.946 1262.75 911.961 1262.75 920.567Z" fill="#FE5E9A"/>
<path d="M311.605 919.676L272.713 953.532L281.427 963.541L320.319 929.686L311.605 919.676Z" fill="#FFCE45"/>
<path d="M221.815 1031.15L215.023 1049.39L285.884 1075.78L292.676 1057.55L221.815 1031.15Z" fill="#65EF82"/>
<path d="M166.615 994.249L159.807 982.878C162.122 981.461 181.925 968.259 168.619 939.54L180.646 933.941C195.576 966.151 178.02 987.475 166.615 994.249Z" fill="#B67DDB"/>
<path d="M174.891 1056.85L135.999 1090.7L144.713 1100.71L183.604 1066.86L174.891 1056.85Z" fill="#7CDCD8"/>
<path d="M122.447 1012.53C122.447 1021.17 115.466 1028.19 106.826 1028.19C98.1857 1028.19 91.2046 1021.17 91.2046 1012.53C91.2046 1003.89 98.1857 996.91 106.826 996.91C115.466 996.91 122.447 1003.93 122.447 1012.53Z" fill="#FE5E9A"/>
<path d="M521.648 1069.24C521.648 1077.88 514.633 1084.9 506.027 1084.9C497.422 1084.9 490.406 1077.88 490.406 1069.24C490.406 1060.6 497.387 1053.62 506.027 1053.62C514.667 1053.62 521.648 1060.64 521.648 1069.24Z" fill="#7CDCD8"/>
<path d="M471.545 927.25L459.189 932.092L478.003 980.1L490.359 975.258L471.545 927.25Z" fill="#7CDCD8"/>
<path d="M365.332 974.018L358.537 992.25L429.393 1018.66L436.188 1000.43L365.332 974.018Z" fill="#FE5E9A"/>
<path d="M356.832 1097.13C356.832 1104.39 350.922 1110.3 343.664 1110.3C336.407 1110.3 330.497 1104.39 330.497 1097.13C330.497 1089.88 336.372 1083.97 343.664 1083.97C350.957 1083.97 356.832 1089.88 356.832 1097.13Z" fill="#7CDCD8"/>
<path d="M11.5696 928.171L-27.3223 962.027L-18.6087 972.036L20.2832 938.18L11.5696 928.171Z" fill="#7CDCD8"/>
<path d="M-10.7825 1125.99L-17.5908 1114.62C-15.2753 1113.2 4.52758 1100 -8.77802 1071.28L3.24886 1065.68C18.1788 1097.89 0.622297 1119.22 -10.7825 1125.99Z" fill="#FFCE45"/>
<path d="M819.936 1095.16C819.936 1103.8 812.954 1110.82 804.314 1110.82C795.674 1110.82 788.693 1103.8 788.693 1095.16C788.693 1086.52 795.674 1079.54 804.314 1079.54C812.954 1079.54 819.936 1086.52 819.936 1095.16Z" fill="#7CDCD8"/>
<path d="M709.17 1010.71L670.278 1044.56L678.992 1054.57L717.884 1020.72L709.17 1010.71Z" fill="#FE5E9A"/>
<path d="M515.153 787.511L508.345 776.14C510.66 774.723 530.463 761.522 517.158 732.802L529.184 727.203C544.114 759.413 526.558 780.737 515.153 787.511Z" fill="#B67DDB"/>
<path d="M479.075 811.519L440.183 845.375L448.897 855.385L487.789 821.529L479.075 811.519Z" fill="#FFCE45"/>
<path d="M438.498 707.988C438.498 716.628 431.482 723.609 422.877 723.609C414.272 723.609 407.256 716.593 407.256 707.988C407.256 699.383 414.237 692.367 422.877 692.367C431.517 692.367 438.498 699.383 438.498 707.988Z" fill="#7CDCD8"/>
<path d="M1126.83 890.154L1120.02 878.784C1122.34 877.367 1142.14 864.165 1128.83 835.445L1140.86 829.847C1155.79 862.057 1138.23 883.38 1126.83 890.154Z" fill="#FFCE45"/>
<path d="M1135.12 952.717L1096.22 986.573L1104.94 996.582L1143.83 962.726L1135.12 952.717Z" fill="#7CDCD8"/>
<path d="M1094.52 849.338C1094.52 857.978 1087.5 864.96 1078.89 864.96C1070.29 864.96 1063.27 857.944 1063.27 849.338C1063.27 840.733 1070.29 833.717 1078.89 833.717C1087.5 833.717 1094.52 840.733 1094.52 849.338Z" fill="#7CDCD8"/>
<path d="M560.012 928.239L582.614 928.101C582.683 932.697 584.895 973.271 638.601 978.628L636.355 1001.13C576.117 995.147 560.046 950.841 559.977 928.239H560.012Z" fill="#FFCE45"/>
<path d="M951.299 914.173L972.45 922.157C970.86 926.477 958.349 965.149 1006.56 989.41L996.4 1009.59C942.314 982.36 943.281 935.255 951.334 914.139L951.299 914.173Z" fill="#B67DDB"/>
<path d="M899.212 997.264L886.857 1002.11L905.68 1050.11L918.035 1045.27L899.212 997.264Z" fill="#FFCE45"/>
<path d="M862.358 949.204L823.46 983.053L832.172 993.064L871.07 959.215L862.358 949.204Z" fill="#7CDCD8"/>
<path d="M885.808 893.368L879 881.998C881.316 880.581 901.118 867.379 887.813 838.659L899.84 833.061C914.77 865.271 897.213 886.594 885.808 893.368Z" fill="#65EF82"/>
<path d="M995.537 1139.85L988.729 1128.48C991.044 1127.06 1010.85 1113.86 997.541 1085.14L1009.57 1079.54C1024.5 1111.75 1006.94 1133.08 995.537 1139.85Z" fill="#7CDCD8"/>
<path d="M273.957 718.425C273.957 738.401 257.748 754.575 237.773 754.575C217.797 754.575 201.588 738.366 201.588 718.425C201.588 698.484 217.797 682.241 237.773 682.241C257.748 682.241 273.957 698.45 273.957 718.425Z" fill="#CFFCF7"/>
<path d="M137.1 922.226C137.1 937.19 124.969 949.286 110.039 949.286C95.1096 949.286 82.979 937.156 82.979 922.226C82.979 907.296 95.1096 895.131 110.039 895.131C124.969 895.131 137.1 907.261 137.1 922.226Z" fill="#CFFCF7"/>
<path d="M749.4 912.653C749.4 927.617 737.269 939.713 722.339 939.713C707.409 939.713 695.279 927.582 695.279 912.653C695.279 897.723 707.409 885.557 722.339 885.557C737.269 885.557 749.4 897.688 749.4 912.653Z" fill="#CFFCF7"/>
<path d="M403.8 868.07C403.8 883.035 391.669 895.131 376.739 895.131C361.809 895.131 349.679 883 349.679 868.07C349.679 853.14 361.809 841.01 376.739 841.01C391.669 841.01 403.8 853.14 403.8 868.07Z" fill="#CFFCF7"/>
<path d="M1172.52 1095.75C1172.52 1115.73 1156.31 1131.9 1136.37 1131.9C1116.43 1131.9 1100.22 1115.69 1100.22 1095.75C1100.22 1075.81 1116.43 1059.57 1136.37 1059.57C1156.31 1059.57 1172.52 1075.78 1172.52 1095.75Z" fill="#CFFCF7"/>
<path d="M1441.74 798.605C1441.74 813.569 1429.61 825.665 1414.68 825.665C1399.75 825.665 1387.62 813.534 1387.62 798.605C1387.62 783.675 1399.75 771.51 1414.68 771.51C1429.61 771.51 1441.74 783.64 1441.74 798.605Z" fill="#CFFCF7"/>
<path d="M1363.74 520.431C1363.74 540.407 1347.53 556.581 1327.59 556.581C1307.65 556.581 1291.44 540.372 1291.44 520.431C1291.44 500.49 1307.65 484.247 1327.59 484.247C1347.53 484.247 1363.74 500.455 1363.74 520.431Z" fill="#CFFCF7"/>
<path d="M1495.9 221.453C1495.9 236.417 1483.76 248.513 1468.83 248.513C1453.9 248.513 1441.77 236.382 1441.77 221.453C1441.77 206.523 1453.9 194.357 1468.83 194.357C1483.76 194.357 1495.9 206.488 1495.9 221.453Z" fill="#CFFCF7"/>
<path d="M1636.42 78.616C1636.42 93.5805 1624.29 105.677 1609.36 105.677C1594.43 105.677 1582.3 93.5459 1582.3 78.616C1582.3 63.6861 1594.43 51.521 1609.36 51.521C1624.29 51.521 1636.42 63.6515 1636.42 78.616Z" fill="#CFFCF7"/>
<path d="M430.861 437.798C430.861 452.763 418.73 464.859 403.8 464.859C388.87 464.859 376.74 452.728 376.74 437.798C376.74 422.868 388.87 410.703 403.8 410.703C418.73 410.703 430.861 422.834 430.861 437.798Z" fill="#CFFCF7"/>
<path d="M177.985 140.236C177.985 155.201 165.854 167.297 150.924 167.297C135.994 167.297 123.864 155.166 123.864 140.236C123.864 125.307 135.994 113.141 150.924 113.141C165.854 113.141 177.985 125.272 177.985 140.236Z" fill="#CFFCF7"/>
</svg>
