<svg width="722" height="868" viewBox="0 0 722 868" fill="none" xmlns="http://www.w3.org/2000/svg">
<path d="M626.145 425.033C679.084 296.53 617.827 149.441 489.324 96.5022C360.82 43.5631 213.732 104.82 160.793 233.324C107.854 361.827 169.111 508.916 297.614 561.855C426.118 614.794 573.206 553.537 626.145 425.033Z" fill="#EEE2D1" fill-opacity="0.04"/>
<g style="mix-blend-mode:multiply">
<path d="M393.486 825.518C563.365 825.518 701.08 809.166 701.08 788.995C701.08 768.824 563.365 752.472 393.486 752.472C223.607 752.472 85.8921 768.824 85.8921 788.995C85.8921 809.166 223.607 825.518 393.486 825.518Z" fill="#EEE2D1"/>
</g>
<path d="M481.771 673.744C481.771 673.744 498.267 761.943 499.352 767.625C500.437 773.308 502.865 774.668 505.844 774.668H513.61C516.589 774.668 519.017 773.308 520.102 767.625C521.187 761.943 537.683 673.744 537.683 673.744H481.754H481.771Z" fill="#C19663"/>
<path d="M266.853 767.625C267.938 773.308 270.366 774.668 273.345 774.668H281.111C284.09 774.668 286.518 773.308 287.602 767.625C288.687 761.943 305.184 673.744 305.184 673.744H249.254C249.254 673.744 265.751 761.943 266.836 767.625H266.853Z" fill="#C19663"/>
<path d="M596.229 795.332C595.816 792.232 573.034 651.014 573.034 651.014C564.976 647.932 527.781 650.36 520.291 660.485C520.291 660.485 572.621 795.125 573.74 797.037C574.86 798.931 575.721 801.135 581.3 801.135H591.27C594.111 801.135 596.642 798.431 596.229 795.315V795.332Z" fill="#C19663"/>
<path d="M213.92 651.031C213.92 651.031 191.138 792.232 190.725 795.349C190.312 798.449 192.843 801.169 195.684 801.169H205.654C211.233 801.169 212.077 798.965 213.214 797.071C214.333 795.16 266.663 660.519 266.663 660.519C259.156 650.394 221.961 647.966 213.902 651.049L213.92 651.031Z" fill="#C19663"/>
<path d="M547.963 654.544C547.963 654.544 571.227 531.458 580.973 432.497C590.72 333.536 566.371 299.872 527.954 283.479C489.537 267.086 457.078 266.225 394.037 266.225H392.935C329.894 266.225 297.435 267.086 259.018 283.479C220.601 299.872 196.253 333.536 205.999 432.497C215.745 531.458 239.009 654.544 239.009 654.544H547.98H547.963Z" fill="#728761"/>
<path d="M582.712 407.546C502.366 466.386 441.908 449.751 427.925 445.86C413.943 441.968 329.24 409.905 323.368 405.669L204.914 419.944C205.207 424.008 205.568 428.192 205.982 432.497C215.728 531.458 238.992 654.544 238.992 654.544H547.963C547.963 654.544 571.227 531.458 580.973 432.497C581.851 423.646 582.437 415.347 582.781 407.512C582.764 407.512 582.747 407.529 582.712 407.546Z" fill="#58694B"/>
<path d="M316.807 350.429C313.053 380.666 310.005 383.714 279.768 387.468C310.005 391.222 313.053 394.27 316.807 424.507C320.561 394.27 323.609 391.222 353.846 387.468C323.609 383.714 320.561 380.666 316.807 350.429Z" fill="#58694B"/>
<path d="M470.165 350.429C466.411 380.666 463.363 383.714 433.125 387.468C463.363 391.222 466.411 394.27 470.165 424.507C473.919 394.27 476.967 391.222 507.204 387.468C476.967 383.714 473.919 380.666 470.165 350.429Z" fill="#58694B"/>
<path d="M537.132 637.772C536.392 645.745 536.047 654.544 544.709 654.544H587.448C592.579 654.544 595.558 654.269 598.262 644.54C600.965 634.793 630.72 512.241 632.615 502.099C634.509 491.957 628.826 477.337 615.567 477.337H575.256C567.68 477.337 559.827 480.85 556.056 493.3C552.268 505.75 541.988 584.736 537.115 637.772H537.132Z" fill="#728761"/>
<path d="M615.585 477.337H575.273C567.697 477.337 559.845 480.85 556.074 493.3C553.611 501.376 548.428 537.434 543.761 576.264C551.545 562.282 575.377 519.25 575.583 517.166C578.356 512.81 610.401 494.591 628.792 484.363C625.899 480.247 621.508 477.337 615.585 477.337Z" fill="#58694B"/>
<path d="M249.823 637.772C250.563 645.745 250.907 654.544 242.246 654.544H199.507C194.376 654.544 191.396 654.269 188.676 644.54C185.972 634.793 156.217 512.241 154.323 502.099C152.429 491.957 158.111 477.337 171.37 477.337H211.681C219.258 477.337 227.11 480.85 230.881 493.3C234.669 505.75 244.95 584.736 249.823 637.772Z" fill="#728761"/>
<path d="M393.486 654.544H268.23C255.109 654.544 253.008 647.157 252.388 643.007C251.579 637.635 250.098 619.64 248.48 606.106C246.861 592.571 262.823 583.841 278.786 583.841H508.203C524.165 583.841 540.128 592.588 538.509 606.106C536.891 619.64 535.41 637.635 534.601 643.007C533.963 647.157 531.88 654.544 518.758 654.544H393.503H393.486Z" fill="#728761"/>
<path d="M584.778 676.809C583.866 680.27 580.198 683.094 576.634 683.094H210.338C206.774 683.094 203.106 680.27 202.193 676.809L197.992 660.83C197.079 657.368 199.266 654.544 202.83 654.544H584.141C587.706 654.544 589.893 657.368 588.98 660.83L584.778 676.809Z" fill="#93664C"/>
<path d="M434.607 359.366C434.607 359.366 435.02 341.543 435.416 337.479C435.829 333.416 437.947 332.382 440.789 330.454C443.63 328.525 448.744 324.358 450.948 319.399C453.152 314.422 452.446 312.098 456.2 307.121C459.954 302.145 461.883 299.924 460.97 298.202C460.057 296.48 458.129 295.36 452.033 298.202C445.937 301.043 444.835 304.797 444.835 304.797L438.653 305.95L406.487 311.891L398.48 319.192C398.48 319.192 403.456 334.414 403.25 337.152C403.043 339.89 401.528 382.405 401.528 382.405L435.003 379.771L434.59 359.383L434.607 359.366Z" fill="#F6CAB8"/>
<path d="M501.97 367.373L452.911 409.165C449.829 410.387 442.321 413.022 442.321 413.022C442.321 413.022 436.638 354.183 435.829 353.769C435.02 353.356 390.989 373.245 390.989 373.245L399.1 398.196C399.513 415.037 401.132 443.948 401.734 448.357C402.337 452.782 414.718 470.622 416.75 471.035C418.782 471.448 501.97 454.194 501.97 454.194V367.356V367.373Z" fill="#93664C"/>
<g style="mix-blend-mode:multiply" opacity="0.3">
<path d="M438.05 444.603C435.622 446.721 429.94 456.347 429.527 458.223C429.113 460.1 432.575 461.926 435.416 461.926C436.811 461.926 445.334 462.993 453.686 464.095C476.708 459.463 501.97 454.228 501.97 454.228V367.39L452.911 409.182C449.829 410.405 442.321 413.039 442.321 413.039C444.749 418.722 440.496 442.502 438.068 444.603H438.05Z" fill="#7A524C"/>
</g>
<g opacity="0.3">
<path d="M410.246 279.188C411.792 278.487 412.161 276.336 411.431 274.812C410.701 273.296 409.212 272.286 407.761 271.407C406.31 270.528 404.774 269.658 403.826 268.265C401.91 265.468 403.504 261.035 406.785 260.044C408.235 259.604 409.8 259.782 411.279 259.473C412.759 259.165 414.304 258.08 414.257 256.584C414.2 254.797 412.123 253.918 410.673 252.843C407.524 250.495 407.05 245.379 409.715 242.508C411.848 240.198 415.414 239.422 417.225 236.85C418.126 236.204 419.473 237.215 419.51 238.309C419.548 239.403 418.79 240.357 418.003 241.143C417.225 241.928 416.353 242.723 416.078 243.789C415.575 245.772 417.415 247.605 419.311 248.438C421.767 249.513 424.517 249.7 427.163 250.205C429.809 250.71 432.549 251.673 434.142 253.806C435.736 255.938 435.546 259.501 433.185 260.764C431.838 261.475 430.217 261.307 428.699 261.484C427.182 261.671 425.475 262.55 425.38 264.056C425.333 264.851 425.769 265.599 426.3 266.198C428.111 268.209 430.985 268.835 433.668 269.331C436.352 269.827 439.216 270.378 441.122 272.296C443.028 274.213 444.052 279.647 441.378 280.17C441.065 280.236 436.181 278.749 426.291 278.721C416.4 278.693 409.155 280.647 409.155 280.647L410.255 279.179L410.246 279.188Z" fill="white"/>
</g>
<path d="M402.595 278.365C398.652 278.365 398.446 281.877 398.48 286.217C398.514 290.539 399.737 309.756 413.272 320.983H442.579C456.114 309.756 457.319 290.556 457.371 286.217C457.405 281.895 457.199 278.365 453.256 278.365H402.613H402.595Z" fill="#382E31"/>
<path d="M397.344 309.412C397.344 309.412 396.276 302.265 396.018 299.924C395.759 297.582 396.018 296.29 396.982 294.448C397.946 292.605 401.08 289.316 402.613 286.888C404.128 284.46 404.49 283.186 406.16 283.548C407.83 283.909 409.397 286.492 408.691 289.936C407.985 293.38 406.453 294.396 406.057 295.515C405.661 296.635 404.886 299.924 404.886 299.924L397.326 309.412H397.344Z" fill="#F6CAB8"/>
<path d="M398.824 320.225C398.084 316.747 397.223 314.267 396.964 312.993C396.706 311.719 396.258 309.033 397.67 306.897C399.083 304.762 401.631 301.077 402.44 300.354C403.25 299.648 406.349 297.151 407.107 295.223C407.865 293.294 410.206 294.964 410.912 298.718C411.618 302.472 410.103 304.659 408.433 307.087C406.762 309.515 405.798 310.841 405.798 310.841L406.315 313.079L398.824 320.191V320.225Z" fill="#F6CAB8"/>
<path d="M215.125 427.745L97.9805 437.835L100.77 471.465L228.212 477.923L215.125 427.745Z" fill="#EA9485"/>
<path d="M138.636 436.372C138.705 434.237 138.033 433.358 136.328 433.186C134.624 432.997 114.976 433.066 111.601 432.842C108.226 432.618 104.489 431.206 102.199 430.207C99.9089 429.191 48.4739 398.558 47.0275 397.3C45.581 396.043 41.741 388.484 40.6046 385.557C39.4508 382.629 35.6625 382.164 32.718 384.558C29.7734 386.952 27.8276 392.858 29.033 399.522C30.2383 406.186 30.445 406.771 30.9444 410.215C31.4265 413.659 31.7709 427.194 42.1715 436.768C52.5722 446.342 55.9128 449.665 58.8057 459.877C61.6986 470.088 62.9728 475.805 64.8153 478.887C66.6578 481.969 70.4806 486.395 79.9169 484.811C89.3705 483.226 114.287 471.93 116.302 472.326C118.334 472.722 133.229 475.822 134.331 476.115C135.416 476.407 137.31 475.495 137.499 473.79C137.671 472.068 138.653 436.372 138.653 436.372H138.636Z" fill="#FFA90D"/>
<path opacity="0.5" d="M138.636 436.372C138.705 434.237 138.033 433.358 136.328 433.186C134.624 432.997 114.976 433.066 111.601 432.842C108.226 432.618 104.489 431.206 102.199 430.207C99.9089 429.191 48.4739 398.558 47.0275 397.3C45.581 396.043 41.741 388.484 40.6046 385.557C39.4508 382.629 35.6625 382.164 32.718 384.558C29.7734 386.952 27.8276 392.858 29.033 399.522C30.2383 406.186 30.445 406.771 30.9444 410.215C31.4265 413.659 31.7709 427.194 42.1715 436.768C52.5722 446.342 55.9128 449.665 58.8057 459.877C61.6986 470.088 62.9728 475.805 64.8153 478.887C66.6578 481.969 70.4806 486.395 79.9169 484.811C89.3705 483.226 114.287 471.93 116.302 472.326C118.334 472.722 133.229 475.822 134.331 476.115C135.416 476.407 137.31 475.495 137.499 473.79C137.671 472.068 138.653 436.372 138.653 436.372H138.636Z" fill="#F78C1B"/>
<g style="mix-blend-mode:multiply" opacity="0.4">
<path d="M134.916 439.454C134.985 439.265 134.899 439.041 134.71 438.972C134.71 438.972 133.763 438.593 132.333 438.283C130.904 437.956 128.976 437.663 127.047 437.508C125.118 437.353 123.155 437.336 121.692 437.422C120.228 437.491 119.229 437.68 119.229 437.68C119.126 437.698 119.023 437.784 118.988 437.887C118.919 438.059 119.005 438.249 119.178 438.3C119.178 438.3 120.125 438.662 121.554 438.972C122.983 439.299 124.912 439.643 126.84 439.816C128.769 440.005 130.715 440.04 132.178 439.971C133.642 439.902 134.641 439.712 134.641 439.712C134.761 439.678 134.865 439.609 134.916 439.489V439.454Z" fill="#F78C1B"/>
<path d="M134.486 445.584C134.555 445.395 134.469 445.171 134.279 445.102C134.279 445.102 133.332 444.741 131.903 444.413C130.474 444.086 128.545 443.793 126.616 443.638C124.688 443.484 122.725 443.484 121.261 443.552C119.797 443.638 118.799 443.811 118.799 443.811C118.695 443.811 118.592 443.897 118.558 444.017C118.489 444.19 118.558 444.362 118.747 444.431C118.747 444.431 119.694 444.775 121.123 445.102C122.553 445.429 124.481 445.756 126.41 445.946C128.338 446.135 130.284 446.17 131.765 446.101C133.229 446.032 134.227 445.825 134.227 445.825C134.348 445.791 134.451 445.722 134.503 445.602L134.486 445.584Z" fill="#F78C1B"/>
<path d="M134.055 451.732C134.124 451.525 134.038 451.318 133.849 451.249C133.849 451.249 132.902 450.888 131.472 450.561C130.043 450.234 128.115 449.941 126.169 449.786C124.24 449.631 122.294 449.614 120.813 449.7C119.35 449.769 118.351 449.958 118.351 449.958C118.248 449.975 118.144 450.061 118.11 450.165C118.041 450.337 118.127 450.526 118.299 450.578C118.299 450.578 119.246 450.922 120.676 451.249C122.105 451.577 124.034 451.904 125.962 452.093C127.891 452.283 129.837 452.317 131.317 452.248C132.781 452.179 133.78 451.973 133.78 451.973C133.9 451.956 134.004 451.869 134.055 451.749V451.732Z" fill="#F78C1B"/>
<path d="M133.625 457.862C133.694 457.672 133.608 457.449 133.418 457.38C133.418 457.38 132.471 457.018 131.042 456.691C129.613 456.364 127.684 456.071 125.755 455.916C123.827 455.761 121.864 455.761 120.4 455.83C118.936 455.899 117.938 456.088 117.938 456.088C117.834 456.088 117.731 456.174 117.697 456.295C117.628 456.467 117.714 456.657 117.886 456.708C117.886 456.708 118.833 457.053 120.262 457.38C121.692 457.707 123.62 458.034 125.549 458.206C127.477 458.378 129.423 458.43 130.904 458.344C132.385 458.275 133.366 458.069 133.366 458.069C133.487 458.051 133.59 457.965 133.642 457.845L133.625 457.862Z" fill="#F78C1B"/>
<path d="M133.194 464.009C133.263 463.82 133.177 463.596 132.988 463.527C132.988 463.527 132.041 463.165 130.611 462.838C129.182 462.511 127.253 462.218 125.308 462.063C123.379 461.908 121.416 461.891 119.952 461.977C118.489 462.046 117.49 462.236 117.49 462.236C117.387 462.253 117.283 462.339 117.249 462.442C117.18 462.614 117.266 462.804 117.438 462.856C117.438 462.856 118.385 463.2 119.815 463.527C121.244 463.854 123.172 464.181 125.101 464.371C127.03 464.543 128.975 464.595 130.439 464.526C131.92 464.457 132.901 464.25 132.901 464.25C133.022 464.233 133.125 464.147 133.177 464.026L133.194 464.009Z" fill="#F78C1B"/>
<path d="M132.764 470.139C132.85 469.95 132.764 469.726 132.557 469.657C132.557 469.657 131.61 469.296 130.181 468.969C128.752 468.624 126.823 468.331 124.894 468.194C122.966 468.039 121.003 468.021 119.539 468.108C118.076 468.176 117.077 468.366 117.077 468.366C116.973 468.366 116.87 468.452 116.836 468.572C116.767 468.745 116.87 468.934 117.025 468.986C117.025 468.986 117.972 469.33 119.401 469.657C120.831 469.984 122.759 470.312 124.688 470.501C126.616 470.691 128.562 470.725 130.043 470.639C131.507 470.57 132.506 470.381 132.506 470.381C132.626 470.346 132.729 470.26 132.781 470.139H132.764Z" fill="#F78C1B"/>
</g>
<path d="M195.03 416.087L97.498 481.763L116.25 509.796L230.829 453.609L195.03 416.087Z" fill="#F6CAB8"/>
<path d="M132.333 460.738C131.369 458.843 130.353 458.396 128.769 459.067C127.202 459.739 110.034 469.313 106.986 470.759C103.938 472.206 99.9777 472.791 97.4809 473.015C94.984 473.239 35.1459 471.414 33.269 471.018C31.392 470.622 24.3836 465.869 21.9557 463.872C19.5277 461.857 15.9805 463.303 14.5685 466.816C13.1565 470.329 14.3274 476.442 18.6151 481.694C22.9027 486.946 23.3677 487.342 25.4685 490.114C27.5693 492.887 34.4399 504.544 48.1639 507.885C61.9052 511.208 66.4339 512.5 73.9244 520.025C81.415 527.567 85.3066 531.941 88.4061 533.731C91.5057 535.54 96.9815 537.537 104.472 531.579C111.963 525.621 128.27 503.649 130.233 503.012C132.196 502.375 146.729 497.863 147.831 497.587C148.933 497.312 150.156 495.607 149.467 494.006C148.795 492.422 132.316 460.72 132.316 460.72L132.333 460.738Z" fill="#FFA90D"/>
<path opacity="0.5" d="M40.9834 505.147C43.1358 506.283 45.5122 507.23 48.164 507.885C61.9052 511.208 66.434 512.5 73.9245 520.025C77.2307 523.348 79.8308 526.069 81.9833 528.204C77.7473 519.99 74.7166 512.121 69.4818 507.093C62.594 500.463 48.8872 505.164 40.9834 505.147Z" fill="#F78C1B"/>
<path d="M130.577 465.249C130.543 465.042 130.353 464.905 130.164 464.939C130.164 464.939 129.165 465.077 127.753 465.49C126.341 465.903 124.516 466.575 122.742 467.384C120.968 468.176 119.264 469.123 118.024 469.898C116.767 470.673 115.992 471.31 115.992 471.31C115.906 471.379 115.854 471.5 115.871 471.603C115.889 471.775 116.061 471.896 116.233 471.879C116.233 471.879 117.232 471.724 118.644 471.31C120.056 470.897 121.898 470.26 123.672 469.468C125.446 468.693 127.185 467.78 128.425 467.005C129.682 466.231 130.456 465.576 130.456 465.576C130.543 465.49 130.594 465.37 130.577 465.232V465.249Z" fill="#F78C1B"/>
<path d="M133.177 470.828C133.143 470.622 132.953 470.484 132.764 470.501C132.764 470.501 131.765 470.639 130.353 471.052C128.941 471.465 127.116 472.137 125.342 472.946C123.569 473.756 121.864 474.685 120.624 475.46C119.384 476.235 118.592 476.872 118.592 476.872C118.506 476.941 118.454 477.045 118.489 477.165C118.506 477.337 118.678 477.458 118.85 477.441C118.85 477.441 119.849 477.286 121.261 476.872C122.673 476.459 124.516 475.822 126.289 475.03C128.08 474.255 129.802 473.342 131.042 472.567C132.299 471.793 133.057 471.138 133.057 471.138C133.143 471.052 133.194 470.932 133.177 470.794V470.828Z" fill="#F78C1B"/>
<path d="M135.777 476.407C135.743 476.201 135.571 476.063 135.364 476.08C135.364 476.08 134.365 476.218 132.953 476.631C131.541 477.044 129.716 477.716 127.942 478.525C126.169 479.317 124.464 480.265 123.224 481.039C121.984 481.814 121.192 482.451 121.192 482.451C121.106 482.52 121.054 482.641 121.072 482.744C121.106 482.916 121.261 483.054 121.433 483.02C121.433 483.02 122.432 482.865 123.844 482.451C125.256 482.038 127.099 481.401 128.872 480.609C130.646 479.834 132.368 478.921 133.625 478.147C134.882 477.372 135.657 476.717 135.657 476.717C135.743 476.631 135.794 476.511 135.777 476.39V476.407Z" fill="#F78C1B"/>
<path d="M138.378 481.969C138.343 481.763 138.171 481.625 137.964 481.659C137.964 481.659 136.966 481.797 135.554 482.21C134.142 482.624 132.316 483.295 130.543 484.105C128.769 484.914 127.064 485.844 125.824 486.619C124.585 487.393 123.793 488.031 123.793 488.031C123.706 488.099 123.655 488.22 123.672 488.323C123.689 488.496 123.861 488.616 124.034 488.599C124.034 488.599 125.032 488.444 126.444 488.031C127.856 487.617 129.699 486.98 131.472 486.188C133.263 485.413 134.985 484.501 136.225 483.726C137.482 482.951 138.257 482.296 138.257 482.296C138.343 482.228 138.395 482.09 138.378 481.969Z" fill="#F78C1B"/>
<path d="M140.995 487.548C140.96 487.342 140.788 487.204 140.582 487.221C140.582 487.221 139.583 487.359 138.171 487.772C136.759 488.186 134.934 488.857 133.16 489.666C131.386 490.459 129.682 491.406 128.442 492.181C127.202 492.955 126.41 493.593 126.41 493.593C126.324 493.661 126.289 493.782 126.289 493.885C126.324 494.057 126.479 494.178 126.668 494.161C126.668 494.161 127.667 494.006 129.062 493.593C130.474 493.179 132.316 492.542 134.09 491.75C135.863 490.975 137.585 490.063 138.842 489.288C140.099 488.513 140.874 487.858 140.874 487.858C140.96 487.79 141.012 487.652 140.995 487.531V487.548Z" fill="#F78C1B"/>
<path d="M143.595 493.128C143.578 492.921 143.388 492.783 143.182 492.8C143.182 492.8 142.183 492.938 140.771 493.351C139.359 493.747 137.534 494.436 135.76 495.246C133.987 496.038 132.282 496.985 131.042 497.76C129.785 498.535 129.01 499.172 129.01 499.172C128.924 499.241 128.872 499.361 128.89 499.464C128.924 499.637 129.079 499.757 129.251 499.74C129.251 499.74 130.25 499.585 131.662 499.172C133.074 498.758 134.916 498.121 136.69 497.346C138.464 496.572 140.203 495.659 141.443 494.884C142.7 494.109 143.475 493.455 143.475 493.455C143.561 493.369 143.612 493.248 143.595 493.11V493.128Z" fill="#F78C1B"/>
<path d="M175.865 429.002L188.349 474.444L230.829 453.609L195.03 416.087L175.865 429.002Z" fill="#EA9485"/>
<path d="M458.335 457.466C458.335 457.466 440.478 474.513 431.559 483.226C408.829 468.624 290.134 380.356 282.833 377.515C275.532 374.674 262.135 372.849 252.595 377.515C243.056 382.182 179.343 422.958 179.343 422.958C179.343 422.958 193.343 451.766 201.66 466.179L194.462 471.345C194.462 471.345 195.788 488.289 196.184 491.526C196.58 494.781 198.216 496.795 203.485 495.779C208.754 494.763 287.689 481.367 287.689 481.367C287.689 481.367 350.799 554.808 364.988 567.602C379.194 580.379 388.527 583.84 407.796 583.84H488.349C488.349 583.84 511.475 582.411 520.412 550.365C529.349 518.303 541.316 457.845 541.316 457.845L458.335 457.431V457.466Z" fill="#C19663"/>
<g style="mix-blend-mode:multiply" opacity="0.4">
<path d="M301.499 409.578C301.499 409.578 290.134 421.546 284.245 427.435C278.356 433.324 225.612 478.37 220.946 481.608C216.279 484.862 213.231 484.036 212.215 482.624C211.199 481.194 201.66 466.196 201.66 466.196L194.462 471.362C194.462 471.362 195.788 488.306 196.184 491.543C196.58 494.798 198.216 496.813 203.485 495.797C207.342 495.056 250.667 487.686 273.603 483.777C278.976 467.074 291.856 427.59 293.767 425.988C296.195 423.956 302.498 422.751 308.576 425.386C314.672 428.02 425.032 486.653 430.922 489.494C433.16 490.923 467.031 522.969 468.874 522.366C470.699 521.764 451.62 499.24 440.461 489.701C440.461 489.701 450.414 493.954 457.095 496.399C463.794 498.827 482.047 504.303 472.92 499.034C463.794 493.765 443.303 484.828 438.636 483.846C433.969 482.865 431.542 483.209 431.542 483.209C416.509 473.549 359.495 431.671 320.492 403.586C308.352 402.552 301.482 409.561 301.482 409.561L301.499 409.578Z" fill="#7A524C"/>
</g>
<path d="M487.058 298.012C495.392 295.963 503.313 297.048 507.91 306.915C512.508 316.782 513.042 329.231 513.042 329.231H563.495V305.158L535.72 265.002H487.04V298.012H487.058Z" fill="#F6CAB8"/>
<path d="M529.004 264.985H487.075V297.995C495.116 296.015 502.779 296.979 507.428 305.933C517.157 293.173 525.406 282.084 528.763 266.225C528.849 265.812 528.936 265.398 529.022 264.985H529.004Z" fill="#EA9485"/>
<path d="M491.087 194.763C478.534 200.101 466.618 217.493 464.862 230.322C463.932 237.089 465.085 242.513 464.552 245.423C464.018 248.334 458.817 254.825 456.958 257.494C455.098 260.163 455.356 261.817 457.819 263.676C460.281 265.536 462.038 266.38 462.485 267.482C462.933 268.567 462.503 270.151 461.314 271.614C461.59 273.423 464.018 276.212 465.137 277.09C464.552 278.106 463.932 281.12 464.362 281.74C464.793 282.36 467.686 284.96 467.892 286.131C468.099 287.302 469.373 294.465 470.854 296.256C472.352 298.047 474.505 299.803 480.583 299.045C486.679 298.288 500.627 295.808 509.977 289.402C519.327 283.014 521.359 279.363 524.855 273.543C531.123 273.095 562.841 268.084 565.665 235.109C568.472 202.133 536.977 175.288 491.104 194.746L491.087 194.763Z" fill="#F6CAB8"/>
<path d="M556.607 188.96C543.899 173.669 512.232 168.538 491.948 177.199C469.631 177.871 448.933 190.045 451.912 225.363C460.298 231.786 464.155 233.077 474.022 233.749C474.022 233.749 471.37 226.293 472.335 217.614C472.989 222.039 474.849 229.668 480.083 233.852C483.011 235.488 499.938 235.712 499.938 235.712C499.524 231.458 500.437 223.021 500.437 223.021C500.437 223.021 507.118 243.133 526.301 247.059C526.301 247.059 525.767 252.019 526.335 255.221L535.1 271.959C535.1 271.959 564.442 266.5 568.713 246.129C572.966 225.759 569.315 204.251 556.607 188.96Z" fill="#FFA90D"/>
<path d="M526.353 255.221C527.971 250.624 533.774 243.116 538.234 244.166C542.694 245.217 547.963 252.001 546.327 258.407C544.691 264.813 537.184 275.145 524.854 273.543L526.353 255.221Z" fill="#F6CAB8"/>
<path d="M530.21 262.023C532.173 261.317 532.38 260.25 532.121 259.251C531.863 258.252 530.933 257.15 531.295 256.203C531.656 255.256 533.309 253.31 534.188 252.811C535.066 252.311 536.581 253.224 537.528 254.464C538.458 255.686 538.837 258.562 538.424 258.459C538.01 258.355 536.219 255.221 535.479 255.153C534.739 255.084 534.101 255.945 534.291 256.272C534.48 256.582 536.288 258.493 536.409 259.94C536.529 261.386 534.532 262.591 533.189 262.953C531.863 263.315 532.569 263.969 533.086 264.176C533.585 264.399 535.255 264.554 535.324 264.847C535.393 265.14 530.778 265.932 530.02 265.863C527.747 265.657 527.076 263.711 530.21 262.023Z" fill="#EA9485"/>
<path d="M538.837 253.586C538.578 254.998 537.855 250.469 538.751 250.417C539.646 250.365 541.85 252.948 541.179 253C540.507 253.052 539.112 252.036 538.837 253.586Z" fill="#EA9485"/>
<path d="M476.175 246.043C476.14 248.471 474.728 250.469 473.041 250.503C471.336 250.555 469.975 248.626 470.01 246.216C470.044 243.788 471.456 241.79 473.161 241.756C474.866 241.704 476.209 243.633 476.192 246.043H476.175Z" fill="#7A524C"/>
<path d="M468.288 243.288C468.012 244.029 468.236 245.01 469.063 244.786C469.889 244.563 470.819 243.925 472.765 243.839C474.694 243.753 478.361 245.475 478.637 245.251C479.515 244.545 476.932 240.791 473.127 240.688C470.01 240.602 468.615 242.427 468.305 243.305L468.288 243.288Z" fill="#7A524C"/>
<path d="M468.236 237.64C471.095 236.452 476.399 235.815 479.154 236.039C483.045 236.349 483.149 235.763 483.011 235.488C482.856 235.212 478.74 232.405 473.678 232.715C468.254 233.043 466.738 236.004 468.236 237.657V237.64Z" fill="#FFA90D"/>
<path d="M476.881 274.18H476.846C476.846 274.18 476.175 274.249 475.245 274.456C474.78 274.576 474.246 274.68 473.66 274.852C473.092 275.024 472.49 275.196 471.87 275.317C471.25 275.454 470.647 275.592 470.079 275.782C469.511 275.971 468.994 276.023 468.529 276.178C468.081 276.281 467.702 276.453 467.41 276.488C467.134 276.556 466.979 276.608 466.979 276.608C466.876 276.643 466.773 276.729 466.755 276.849C466.704 277.039 466.824 277.228 467.014 277.28C467.014 277.28 467.651 277.452 468.667 277.435C469.166 277.417 469.786 277.452 470.389 277.314C471.009 277.211 471.646 277.073 472.3 276.918C472.627 276.832 472.937 276.746 473.247 276.677C473.54 276.539 473.85 276.419 474.125 276.298C474.694 276.04 475.21 275.782 475.658 275.575C476.536 275.127 477.087 274.748 477.087 274.748C477.173 274.68 477.225 274.576 477.225 274.473C477.208 274.301 477.053 274.197 476.898 274.215L476.881 274.18Z" fill="#914A3F"/>
<path d="M464.913 265.898C464 265.398 463.707 264.4 464.086 263.986C464.465 263.556 465.498 263.711 466.445 264.21C467.392 264.709 468.098 266.053 467.892 266.208C467.685 266.363 466.6 265.536 466.273 265.57C465.912 266.208 465.447 266.173 464.913 265.898Z" fill="#914A3F"/>
<path d="M524.854 243.719C513.386 248.299 506.033 264.985 506.429 274.197C510.493 275.971 519.413 277.435 524.854 275.816C525.956 255.945 529.693 245.269 529.693 245.269L524.854 243.719Z" fill="#FFA90D"/>
<path d="M558.502 300.957C558.502 300.957 535.496 316.351 511.905 320.019C511.905 320.019 506.808 328.68 506.412 330.178C506.016 331.659 506.412 333.02 506.412 333.02C506.412 333.02 486.816 357.093 475.055 372.918C463.294 388.742 467.341 397.128 466.945 404.705C466.532 412.282 468.701 424.594 468.701 424.594C468.701 424.594 461.262 445.292 460.315 446.514C459.368 447.737 455.442 449.631 454.908 452.197C454.375 454.762 454.908 460.72 454.908 460.72C454.908 460.72 483.114 489.133 531.398 502.116C542.143 499.482 546.827 495.624 547.636 492.577C548.445 489.529 549.065 484.656 549.065 484.656C549.065 484.656 559.621 477.148 568.747 463.751C577.874 450.354 592.286 356.025 587.827 343.644C583.367 331.263 563.547 301.852 563.547 301.852C563.547 301.852 561.274 299.252 558.536 300.974L558.502 300.957Z" fill="white"/>
<path d="M565.82 305.331C543.761 328.009 525.491 357.024 500.54 411.61C475.589 466.196 457.732 520.162 453.462 543.288C449.208 566.414 448.589 583.875 466.049 583.875H530.778C537.872 583.875 541.729 583.668 543.159 575.351C544.571 567.034 561.033 473.532 561.033 473.532C561.033 473.532 571.089 467.023 575.583 452.92C580.078 438.817 595.472 362.603 594.215 358.729C593.681 353.58 580.577 325.874 565.82 305.331Z" fill="#93664C"/>
<g style="mix-blend-mode:multiply" opacity="0.3">
<path d="M559.225 368.561C559.225 368.561 545.242 391.859 544.709 421.339L549.582 444.585C549.582 444.585 493.583 481.125 491.138 482.744C489.52 483.829 476.295 489.942 467.616 493.937C460.384 515.031 455.459 532.509 453.462 543.288C453.255 544.373 453.083 545.441 452.894 546.508L454.667 545.682L454.219 546.508L458.507 547.817C458.507 547.817 481.409 547.542 486.42 544.7C490.828 542.203 500.867 532.182 505.344 525.931C508.668 527.756 513.093 530.064 517.157 528.187C520.257 526.757 537.218 520.025 554.007 513.412C557.761 492.077 561.016 473.497 561.016 473.497C561.016 473.497 571.072 466.988 575.566 452.885C578.614 443.363 586.604 405.549 591.098 380.787L559.225 368.544V368.561Z" fill="#7A524C"/>
</g>
<g style="mix-blend-mode:multiply" opacity="0.3">
<path d="M570.986 312.907C551.562 335.138 534.67 363.98 513.042 411.266C488.194 465.593 470.217 519.766 465.912 543.133C463.191 557.856 460.746 573.853 463.777 583.737C464.328 583.789 464.913 583.823 465.516 583.84C462.279 574.49 464.775 558.321 467.513 543.426C471.801 520.145 489.744 466.144 514.523 411.937C535.961 365.031 552.716 336.377 571.899 314.319C571.589 313.837 571.296 313.372 570.986 312.89V312.907Z" fill="#7A524C"/>
</g>
<path d="M618.426 311.099C615.584 274.18 574.74 266.242 570.4 230.89L544.433 264.985C536.323 273.629 529.142 286.2 534.015 304.194C538.888 322.188 565.389 332.331 579.199 329.214C579.199 329.214 591.098 346.933 594.215 358.694C608.146 354.096 620.802 341.974 618.426 311.082V311.099Z" fill="#FFA90D"/>
<path d="M503.278 483.967C503.278 483.967 463.036 501.875 461.176 502.943C459.334 503.993 457.233 505.44 456.647 508.109C456.062 510.778 450.534 527.859 449.914 529.616C449.277 531.372 448.847 533.559 449.26 537.244C449.673 540.929 450.19 551.209 450.293 552.845C450.414 554.481 450.586 558.235 451.86 558.321C453.135 558.407 457.715 556.72 457.939 552.501C458.145 548.282 458.955 538.656 458.955 538.656C458.955 538.656 459.971 541.463 461.245 541.842C462.519 542.221 464.086 542.617 465.774 542.41C467.461 542.203 469.183 540.103 469.183 540.103C469.183 540.103 470.974 541.704 473.264 541.807C475.537 541.911 478.74 540.55 479.791 540.12C481.254 540.86 484.095 541.515 485.886 540.774C487.677 540.034 489.761 538.45 490.398 537.02C491.052 535.591 494.066 529.254 494.066 529.254C494.066 529.254 499.145 528.324 503.399 524.02C507.652 519.715 516.417 509.314 516.417 509.314L503.261 484.001L503.278 483.967Z" fill="#F6CAB8"/>
<path d="M458.507 536.435C458.507 536.435 458.593 535.143 459.041 533.266C459.248 532.319 459.506 531.235 459.85 530.081C460.195 528.927 460.643 527.722 461.073 526.516C461.538 525.311 461.968 524.106 462.502 523.021C463.036 521.936 463.57 520.937 464.035 520.093C464.965 518.406 465.688 517.338 465.688 517.338C465.826 517.132 466.101 517.08 466.308 517.218C466.463 517.321 466.532 517.511 466.497 517.683V517.717C466.497 517.717 466.204 518.991 465.619 520.782C465.326 521.695 464.965 522.728 464.551 523.83C464.328 524.364 464.155 524.967 463.966 525.552C463.759 526.138 463.553 526.74 463.346 527.326C462.916 528.514 462.468 529.685 462.02 530.787C461.624 531.889 461.194 532.922 460.815 533.783C460.436 534.644 460.091 535.384 459.868 535.884C459.609 536.383 459.472 536.676 459.472 536.676C459.351 536.934 459.041 537.038 458.8 536.9C458.611 536.814 458.507 536.607 458.525 536.418L458.507 536.435Z" fill="#EA9485"/>
<path d="M469.149 539.293C469.149 539.293 469.252 538.157 469.597 536.504C469.941 534.851 470.475 532.698 471.25 530.58C471.99 528.462 472.886 526.379 473.609 524.863C474.332 523.331 474.935 522.366 474.935 522.366C475.055 522.16 475.331 522.091 475.537 522.229C475.692 522.315 475.761 522.487 475.744 522.659V522.711C475.744 522.711 475.606 523.847 475.227 525.483C474.866 527.119 474.28 529.254 473.557 531.355C472.834 533.439 472.076 535.557 471.37 537.089C470.699 538.622 470.096 539.603 470.096 539.603C469.958 539.844 469.631 539.93 469.39 539.775C469.218 539.672 469.132 539.483 469.149 539.293Z" fill="#EA9485"/>
<path d="M480.256 538.484C480.256 538.484 480.204 537.709 480.359 536.59C480.497 535.471 480.807 534.024 481.237 532.612C481.668 531.2 482.219 529.823 482.718 528.807C483.2 527.791 483.648 527.153 483.648 527.153C483.786 526.947 484.078 526.895 484.285 527.033C484.406 527.119 484.474 527.257 484.492 527.395C484.492 527.395 484.526 528.169 484.388 529.289C484.251 530.408 483.992 531.872 483.579 533.284C483.183 534.713 482.649 536.09 482.167 537.106C481.685 538.122 481.237 538.759 481.237 538.759C481.065 539.001 480.738 539.052 480.497 538.88C480.359 538.794 480.29 538.639 480.273 538.484H480.256Z" fill="#EA9485"/>
<path d="M594.215 358.711C601.792 376.844 615.051 422.562 619.924 438.645C624.797 454.745 623.575 466.368 623.161 469.485C622.765 472.602 614.362 482.744 607.199 485.172C600.035 487.6 551.2 501.806 549.84 502.891C537.666 510.864 511.836 522.384 511.836 522.384C505.878 519.267 493.566 490.045 493.842 485.981C510.889 475.564 559.586 451.491 559.586 451.491L548.359 420.237C548.497 396.836 556.831 349.172 587.224 342.577C587.224 342.577 591.494 349.223 594.215 358.694V358.711Z" fill="#A07055"/>
<g style="mix-blend-mode:multiply" opacity="0.3">
<path d="M559.586 451.508C559.586 451.508 575.273 452.403 579.75 452.903C584.21 453.402 608.025 458.637 607.353 458.189C606.682 457.724 580.439 445.55 576.651 445.825C572.862 446.101 564.27 448.374 564.27 448.374C564.27 448.374 578.941 440.814 581.386 440.694C583.814 440.556 598.967 442.054 597.762 440.694C596.539 439.334 583.28 432.446 579.234 433.668C575.17 434.891 558.501 448.391 558.501 448.391L559.621 451.525L559.586 451.508Z" fill="#7A524C"/>
</g>
<path fill-rule="evenodd" clip-rule="evenodd" d="M18.2106 759.309C17.2308 770.451 10.7416 759.937 13.785 751.995C15.0403 748.71 16.881 751.254 17.48 753.223C18.0789 755.181 18.3602 757.266 18.2106 759.309ZM19.3662 764.637C21.9757 768.627 31.3375 756.999 28.4851 754.885C26.5768 753.473 18.9104 759.796 19.3662 764.637ZM12.4674 764.764C12.4543 759.553 3.19432 753.075 2.41889 755.841C1.42874 759.381 10.5378 768.343 12.4674 764.764Z" fill="#8D9737"/>
<path fill-rule="evenodd" clip-rule="evenodd" d="M424.83 758.794C423.85 769.936 417.361 759.422 420.404 751.48C421.66 748.195 423.5 750.749 424.099 752.708C424.698 754.666 424.98 756.751 424.83 758.794ZM425.976 764.123C428.585 768.112 437.947 756.484 435.094 754.37C433.186 752.958 425.52 759.281 425.976 764.123ZM419.077 764.249C419.064 759.038 409.804 752.56 409.028 755.326C408.038 758.867 417.147 767.828 419.077 764.249Z" fill="#8D9737"/>
<path fill-rule="evenodd" clip-rule="evenodd" d="M428.193 821.08C426.942 835.188 418.737 821.867 422.578 811.809C424.176 807.637 426.501 810.871 427.26 813.367C428.019 815.852 428.372 818.496 428.193 821.08ZM429.647 827.833C432.947 832.888 444.808 818.151 441.195 815.482C438.779 813.699 429.065 821.703 429.647 827.833ZM420.908 827.995C420.898 821.394 409.163 813.185 408.182 816.695C406.921 821.181 418.478 832.534 420.908 827.995Z" fill="#8D9737"/>
<path fill-rule="evenodd" clip-rule="evenodd" d="M109.371 799.894C108.391 811.025 101.902 800.522 104.946 792.58C106.201 789.294 108.042 791.848 108.641 793.807C109.24 795.765 109.521 797.85 109.371 799.894ZM110.527 805.222C113.137 809.211 122.498 797.583 119.646 795.469C117.738 794.057 110.071 800.38 110.527 805.222ZM103.628 805.348C103.615 800.138 94.3552 793.659 93.5797 796.425C92.5896 799.966 101.699 808.927 103.628 805.348Z" fill="#8D9737"/>
<path fill-rule="evenodd" clip-rule="evenodd" d="M18 861.383C17.0203 872.525 10.531 862.011 13.5745 854.069C14.8297 850.784 16.6706 853.338 17.2695 855.297C17.8683 857.255 18.1496 859.34 18 861.383ZM19.1559 866.722C21.7653 870.711 31.1271 859.083 28.2747 856.969C26.3664 855.557 18.7 861.88 19.1559 866.722ZM12.2568 866.838C12.2437 861.627 2.98374 855.149 2.20831 857.915C1.21816 861.455 10.3372 870.417 12.2568 866.838Z" fill="#8D9737"/>
<path fill-rule="evenodd" clip-rule="evenodd" d="M353.621 853.072C352.641 864.213 346.152 853.7 349.196 845.758C350.451 842.472 352.292 845.026 352.891 846.985C353.489 848.943 353.771 851.028 353.621 853.072ZM354.777 858.4C357.386 862.389 366.748 850.761 363.896 848.647C361.987 847.235 354.321 853.558 354.777 858.4ZM347.868 858.527C347.855 853.316 338.595 846.838 337.819 849.604C336.829 853.144 345.938 862.105 347.868 858.527Z" fill="#8D9737"/>
<path fill-rule="evenodd" clip-rule="evenodd" d="M160.037 756.953C158.837 768.073 152.557 757.433 155.757 749.553C157.077 746.293 158.867 748.873 159.427 750.853C159.987 752.823 160.227 754.913 160.037 756.953ZM161.087 762.303C163.617 766.343 173.207 754.903 170.397 752.733C168.517 751.283 160.727 757.453 161.087 762.303ZM154.187 762.293C154.277 757.083 145.147 750.423 144.317 753.173C143.257 756.693 152.187 765.833 154.187 762.293Z" fill="#8D9737"/>
<path fill-rule="evenodd" clip-rule="evenodd" d="M568.717 826.823C567.187 840.903 559.247 827.423 563.287 817.443C564.967 813.303 567.227 816.583 567.937 819.093C568.647 821.593 568.947 824.243 568.717 826.823ZM570.037 833.603C573.237 838.723 585.387 824.223 581.827 821.483C579.447 819.653 569.577 827.463 570.037 833.603ZM561.297 833.593C561.417 826.993 549.847 818.553 548.797 822.043C547.447 826.503 558.777 838.083 561.297 833.593Z" fill="#8D9737"/>
<path fill-rule="evenodd" clip-rule="evenodd" d="M250.377 799.333C249.177 810.443 242.897 799.813 246.097 791.933C247.417 788.673 249.207 791.263 249.767 793.233C250.327 795.203 250.567 797.293 250.377 799.333ZM251.427 804.683C253.957 808.723 263.547 797.283 260.737 795.113C258.857 793.663 251.067 799.833 251.427 804.683ZM244.527 804.673C244.617 799.463 235.487 792.803 234.657 795.553C233.597 799.073 242.527 808.213 244.527 804.673Z" fill="#8D9737"/>
<path fill-rule="evenodd" clip-rule="evenodd" d="M157.807 859.003C156.607 870.123 150.327 859.483 153.527 851.603C154.847 848.343 156.637 850.933 157.197 852.903C157.757 854.873 157.997 856.963 157.807 859.003ZM158.857 864.363C161.387 868.403 170.977 856.963 168.167 854.793C166.287 853.343 158.497 859.513 158.857 864.363ZM151.957 864.343C152.047 859.133 142.917 852.473 142.087 855.223C141.027 858.743 149.967 867.883 151.957 864.343Z" fill="#8D9737"/>
<path fill-rule="evenodd" clip-rule="evenodd" d="M493.527 857.333C492.327 868.453 486.047 857.813 489.247 849.933C490.567 846.673 492.357 849.263 492.917 851.233C493.477 853.203 493.717 855.293 493.527 857.333ZM494.577 862.683C497.107 866.723 506.697 855.283 503.887 853.113C502.007 851.663 494.217 857.833 494.577 862.683ZM487.667 862.673C487.757 857.463 478.627 850.803 477.797 853.553C476.737 857.073 485.667 866.213 487.667 862.673Z" fill="#8D9737"/>
</svg>
