<svg width="773" height="631" viewBox="0 0 773 631" fill="none" xmlns="http://www.w3.org/2000/svg">
<path d="M31.5984 551.741C25.7649 555.242 20.4105 559.242 15.0769 563.471C10.0559 567.45 4.03483 571.326 0.409688 576.659C-0.944533 578.659 1.30556 581.472 3.55565 580.763C9.72257 578.805 15.1811 574.055 20.4105 570.367C25.9732 566.45 31.3068 562.429 36.307 557.804C39.5571 554.804 35.3694 549.471 31.6193 551.721L31.5984 551.741Z" fill="#728761"/>
<path d="M58.4538 570.242C51.9952 572.45 47.62 578.055 43.349 583.138C38.7863 588.555 34.6612 594.264 31.1819 600.431C29.0359 604.243 34.3278 608.702 37.4321 605.243C42.0573 600.076 46.5158 594.785 51.1202 589.597C55.3287 584.847 60.4122 580.472 62.5998 574.346C63.4332 571.992 60.8081 569.429 58.4746 570.221L58.4538 570.242Z" fill="#728761"/>
<path d="M89.1422 588.597C86.6212 592.785 85.2045 597.639 83.4961 602.202C81.6627 607.056 79.8918 611.869 78.6418 616.911C77.9542 619.64 81.6002 621.098 83.1003 618.786C85.9546 614.431 88.288 609.848 90.6422 605.202C92.8298 600.847 95.4341 596.514 96.7883 591.805C98.1217 587.201 91.5798 584.534 89.1422 588.576V588.597Z" fill="#728761"/>
<path d="M137.311 588.014C134.998 599.264 132.144 610.723 131.394 622.223C131.103 626.828 137.499 627.036 138.936 623.244C142.874 612.848 144.874 601.598 147.332 590.785C148.812 584.243 138.644 581.493 137.311 588.014Z" fill="#728761"/>
<path d="M186.229 592.451C184.729 598.493 184.125 604.597 183.959 610.827C183.792 616.619 183.729 623.327 185.584 628.848C186.459 631.453 190.625 631.869 191.292 628.848C192.459 623.64 192.355 618.056 192.959 612.744C193.646 606.827 194.813 600.972 195.771 595.076C196.772 588.93 187.771 586.118 186.209 592.451H186.229Z" fill="#728761"/>
<path d="M242.419 586.805C241.461 584.389 237.982 582.597 235.94 585.097C232.44 589.368 232.482 594.743 232.315 600.077C232.148 605.723 232.211 611.765 233.648 617.244C234.898 621.994 241.315 620.578 241.732 616.14C242.211 611.14 241.94 606.035 242.294 600.993C242.628 596.347 244.17 591.243 242.399 586.784L242.419 586.805Z" fill="#728761"/>
<path d="M289.38 605.785C289.359 601.014 290.525 595.868 289.296 591.243C288.4 587.889 283.234 586.93 281.588 590.243C279.171 595.077 279.858 600.868 280.567 606.098C281.275 611.285 282.338 617.723 285.609 621.953C287.067 623.849 289.755 623.203 290.025 620.765C290.567 615.932 289.38 610.702 289.359 605.806L289.38 605.785Z" fill="#728761"/>
<path d="M337.194 583.68C335.861 579.305 329.652 579.305 328.319 583.68C326.486 589.68 327.569 596.597 328.048 602.764C328.506 608.744 328.236 615.64 330.319 621.307C331.194 623.723 334.34 623.723 335.236 621.307C337.319 615.64 337.048 608.764 337.507 602.764C337.965 596.618 339.069 589.659 337.236 583.68H337.194Z" fill="#728761"/>
<path d="M381.134 598.701C380.571 593.222 381.05 587.784 380.821 582.305C380.613 576.951 372.925 575.7 371.383 581.034C368.05 592.493 369.196 606.535 373.946 617.327C375.883 621.702 383.488 619.556 383.05 614.869C382.55 609.452 381.675 604.097 381.113 598.701H381.134Z" fill="#728761"/>
<path d="M419.947 597.368C419.072 592.368 419.531 587.326 418.697 582.368C418.135 579.034 412.634 578.284 411.238 581.388C407.363 590.014 407.28 606.223 414.572 613.119C416.572 615.015 420.76 614.473 421.281 611.348C422.072 606.494 420.801 602.16 419.968 597.368H419.947Z" fill="#728761"/>
<path d="M459.491 610.223C458.949 605.223 457.532 600.618 456.553 595.702C455.553 590.764 455.782 585.618 454.532 580.784C453.366 576.284 447.678 577.097 446.199 580.784C442.511 589.91 444.886 604.848 450.657 612.619C453.095 615.911 460.074 615.452 459.491 610.223Z" fill="#728761"/>
<path d="M499.18 580.826C496.763 577.763 492.763 581.222 493.284 584.263C494.221 589.597 495.888 594.805 497.096 600.097C498.305 605.473 499.555 610.598 501.492 615.765C503.138 620.161 508.805 619.181 509.368 614.702C510.826 603.035 506.451 590.014 499.18 580.847V580.826Z" fill="#728761"/>
<path d="M547.14 599.431C546.265 594.306 547.411 588.618 545.494 583.763C544.078 580.18 539.723 579.43 537.452 582.722C533.952 587.784 534.91 594.972 535.702 600.764C536.556 606.973 537.89 613.223 542.827 617.494C545.473 619.786 549.515 618.244 549.682 614.66C549.911 609.369 548.015 604.577 547.161 599.452L547.14 599.431Z" fill="#728761"/>
<path d="M599.6 604.389C598.934 599.66 597.371 595.285 595.892 590.764C594.517 586.597 593.538 581.993 591.142 578.284C588.975 574.93 583.579 576.18 583.537 580.347C583.496 585.076 585.246 589.805 586.392 594.368C587.6 599.118 588.788 603.639 590.808 608.119C593.267 613.556 600.288 609.285 599.6 604.41V604.389Z" fill="#728761"/>
<path d="M639.061 594.222C637.665 589.222 635.206 584.638 633.685 579.68C632.394 575.492 632.29 570.429 629.206 567.138C627.748 565.575 625.914 566.367 625.185 567.804C625.143 567.763 625.102 567.7 625.081 567.658C622.06 571.804 623.685 578.388 624.643 583.076C625.831 588.909 627.664 594.035 631.477 598.639C634.456 602.243 640.207 598.347 639.061 594.222Z" fill="#728761"/>
<path d="M683.396 591.41C681.833 586.222 679.375 581.513 676.979 576.68C674.541 571.763 672.708 566.575 670.374 561.617C667.791 556.116 660.79 560.429 661.457 565.388C662.874 575.971 668.02 588.534 676.166 595.639C679.25 598.327 684.729 595.826 683.396 591.43V591.41Z" fill="#728761"/>
<path d="M724.939 566.304C720.564 562.616 716.459 558.637 712.792 554.241C709.251 550.012 706.5 544.949 702.709 540.991C700.834 539.053 697.396 540.511 697.417 543.178C697.5 555.845 708.667 568.033 718.501 574.679C723.46 578.034 729.626 570.221 724.96 566.304H724.939Z" fill="#728761"/>
<path d="M758.252 532.532C749.106 529.74 742.022 524.699 734.085 519.678C730.001 517.094 724.751 522.261 727.397 526.365C733.418 535.657 744.752 541.241 755.461 542.699C761.982 543.595 764.961 534.574 758.252 532.532Z" fill="#728761"/>
<path d="M762.649 488.051C758.461 486.364 754.044 485.926 749.544 486.384C745.961 486.739 741.44 487.405 739.523 490.739C738.773 492.01 739.231 493.718 740.502 494.468C743.211 496.072 746.481 495.26 749.544 495.406C753.148 495.572 756.649 496.302 760.149 497.072C766.149 498.427 768.107 490.26 762.628 488.051H762.649Z" fill="#728761"/>
<path d="M769.941 451.383C760.253 448.404 748.857 452.633 739.94 456.216C737.252 457.3 738.231 461.133 741.148 460.592C750.752 458.779 760.44 460.925 769.961 459.592C774.399 458.967 773.607 452.508 769.961 451.383H769.941Z" fill="#728761"/>
<path d="M739.189 412.715C733.522 413.798 728.376 417.403 724.147 421.236C719.813 425.174 725.335 431.466 730.147 429.007C735.21 426.445 740.189 422.799 743.189 417.924C744.94 415.09 742.064 412.132 739.168 412.694L739.189 412.715Z" fill="#728761"/>
<path d="M716.688 392.985C708.48 393.923 700.792 396.548 694.208 401.673C690.646 404.444 694.521 410.757 698.625 409.256C705.105 406.881 711.438 403.944 717.834 401.339C721.834 399.714 721.918 392.381 716.709 392.985H716.688Z" fill="#728761"/>
<path d="M661.853 374.797C655.832 375.88 650.103 379.005 646.269 383.839C644.832 385.651 644.415 387.922 645.915 389.86C647.207 391.526 649.957 392.381 651.832 391.047C655.769 388.235 659.853 385.839 664.499 384.359C670.645 382.401 668.082 373.692 661.874 374.797H661.853Z" fill="#728761"/>
<path d="M664.124 387.443C691.187 395.943 717.626 409.215 735.981 430.82C754.336 452.446 763.19 483.572 753.065 510.073C741.898 539.282 711.48 556.241 681.937 566.554C592.85 597.66 495.721 589.847 401.384 591.701C297.484 593.743 192.876 607.91 90.1841 591.951C65.8081 588.159 38.4529 580.284 27.7649 558.054C21.9939 546.074 22.3689 532.053 24.4315 518.927C26.9107 503.031 31.8901 487.134 41.7447 474.426C57.1203 454.55 82.0588 444.987 105.997 437.362C249.92 391.485 404.509 380.318 554.661 374.588C591.475 373.192 628.852 376.38 664.124 387.464V387.443Z" fill="#728761"/>
<path d="M705.063 458.946C688.708 416.819 640.415 400.61 599.33 395.047C590.85 393.901 582.371 393.193 573.85 392.922C573.391 392.735 572.891 392.631 572.308 392.61C522.493 391.443 473.408 401.652 424.864 411.735C400.593 416.777 376.321 421.84 351.82 425.632C326.486 429.569 300.984 432.278 275.483 434.736C249.92 437.195 224.294 439.132 198.814 442.174C176.084 444.883 153.354 448.904 132.207 458.029C114.081 465.842 97.3096 477.426 85.2258 493.197C72.7878 509.427 64.7458 531.782 74.9962 551.137C84.5591 569.2 104.893 577.471 124.186 579.742C135.644 581.096 147.228 580.721 158.75 580.43C171.729 580.076 184.709 579.492 197.668 578.7C248.587 575.638 299.297 569.825 350.07 564.908C400.843 559.991 451.678 556.22 502.722 556.304C528.056 556.345 553.411 556.887 578.746 556.095C602.455 555.345 627.06 554.283 649.957 547.574C669.416 541.866 687.688 531.157 699.23 514.094C710.334 497.697 712.189 477.321 705.063 458.946ZM698.896 496.406C692.875 515.094 676.208 528.719 658.52 535.928C637.686 544.407 614.622 546.116 592.392 547.303C568.391 548.574 544.328 548.345 520.306 548.178C472.137 547.845 424.281 549.949 376.321 554.22C328.736 558.45 281.296 564.033 233.669 567.7C209.731 569.533 185.73 570.95 161.708 571.534C140.853 572.034 117.394 573.679 98.7888 562.492C90.8927 557.741 83.9549 550.637 81.1423 541.699C77.9755 531.615 80.3089 520.74 84.8299 511.469C93.3928 493.968 108.873 480.697 125.79 471.55C144.77 461.3 166.062 456.237 187.272 453.091C210.689 449.591 234.419 447.924 257.983 445.716C305.443 441.278 352.57 435.799 399.343 426.382C445.407 417.132 491.325 405.985 538.306 402.485C549.64 401.631 560.953 401.089 572.329 401.11C574.579 401.11 575.891 399.672 576.266 397.985C595.288 400.318 614.08 404.277 632.352 410.09C652.103 416.381 671.687 425.569 685.396 441.632C698.084 456.487 705.042 477.301 698.896 496.426V496.406Z" fill="#58694B"/>
<path d="M206.064 452.091C203.835 454.633 200.543 455.904 197.355 457.071C192.647 458.779 187.896 460.383 183.105 461.883C180.271 462.779 177.438 463.634 174.583 464.467C158.916 469.009 142.978 472.488 126.852 474.905C125.311 475.134 123.769 475.363 122.227 475.571C120.748 475.78 119.248 475.967 117.748 476.134C111.122 476.842 104.414 476.947 98.2053 474.676C86.3298 470.342 79.142 458.404 74.1627 446.82C72.8709 443.82 71.7042 440.174 73.496 437.445C74.9544 435.216 77.7878 434.486 80.3921 434.028C84.0172 433.382 87.6632 432.945 91.33 432.632C93.6426 432.424 95.9552 432.278 98.2886 432.174C109.435 431.611 120.685 431.778 131.79 430.466C137.207 429.82 142.624 428.757 147.853 427.111C149.853 426.486 151.832 425.778 153.77 424.965C155.624 424.194 157.458 423.34 159.229 422.382C166.5 418.486 172.604 411.715 180.229 408.59C197.105 401.714 207.793 425.174 209.043 438.695C209.46 443.383 209.147 448.57 206.043 452.112L206.064 452.091Z" fill="#FFBE4A"/>
<path d="M126.852 474.884C125.31 475.113 123.769 475.342 122.227 475.551C120.748 475.759 119.248 475.947 117.748 476.113C110.601 469.821 104.705 462.279 99.9969 453.862C96.4342 447.487 93.0591 440.112 91.3298 432.611C93.6424 432.403 95.955 432.257 98.2885 432.153C100.434 438.341 102.747 444.424 106.185 450.258C111.643 459.571 118.873 467.655 126.852 474.884Z" fill="#FFFACD"/>
<path d="M183.105 461.883C180.271 462.779 177.438 463.633 174.583 464.467C168.729 458.717 163.208 452.654 158.333 445.987C154.374 440.591 151.082 434.799 148.52 428.632C148.312 428.153 148.103 427.632 147.874 427.09C149.874 426.465 151.853 425.757 153.791 424.944C154.083 425.653 154.395 426.34 154.708 426.924C157.666 432.528 161.291 437.82 165.229 442.799C170.646 449.633 176.813 455.862 183.125 461.904L183.105 461.883Z" fill="#FFFACD"/>
<path d="M484.763 362.421C484.763 362.421 415.281 313.273 314.131 295.71C311.151 295.189 308.11 295.689 305.401 297.085C286.067 307.065 204.71 351.4 155.187 414.027C155.187 414.027 176.854 447.758 206.043 467.613C206.043 467.613 282.796 417.507 322.339 376.818C322.339 376.818 393.905 415.507 431.573 439.32L561.286 419.194L484.783 362.421H484.763Z" fill="#C19663"/>
<path d="M153.916 523.136C150.166 527.886 137.228 529.553 131.811 531.241C118.123 535.449 104.227 538.991 90.1847 541.824C86.5387 542.553 82.8927 543.241 79.2467 543.887C76.6842 544.324 74.1216 544.762 71.5381 545.158C61.5586 546.72 50.2456 547.575 42.4953 541.137C35.3492 535.199 33.6824 525.136 31.1823 516.198C27.0572 501.364 19.4735 487.593 13.8066 473.322C12.3899 469.738 11.0982 466.134 9.99397 462.467C8.76476 458.404 7.80639 454.258 7.2022 450.029C6.11883 442.383 7.11886 433.028 13.9316 429.361C21.4319 425.32 30.4115 430.966 36.4742 436.945C37.4117 437.883 38.3493 438.82 39.266 439.799C41.5369 442.174 43.6828 444.675 45.7454 447.237C48.7247 450.966 51.4957 454.862 54.0166 458.925C58.1418 465.55 61.7252 472.717 67.4755 477.988C70.8923 481.114 74.8508 483.405 79.1426 485.051C81.601 486.03 84.1636 486.78 86.7887 487.364C92.0181 488.593 97.4975 489.176 102.81 489.531C114.373 490.301 125.999 490.26 137.562 489.426C140.749 489.197 144.166 488.947 146.937 490.551C150.229 492.447 151.687 496.385 152.625 500.073C154.041 505.615 157.917 518.115 153.937 523.136H153.916Z" fill="#FFBE4A"/>
<path d="M45.7666 447.237C41.7872 452.675 37.2871 457.716 32.1202 462.071C27.12 466.258 20.6822 470.613 13.8278 473.321C12.4111 469.738 11.1193 466.133 10.0151 462.467C10.4318 462.321 10.8277 462.175 11.2235 462.029C16.9529 459.737 22.3698 456.258 27.0783 452.279C31.516 448.529 35.537 444.237 39.308 439.799C41.5789 442.174 43.7248 444.674 45.7874 447.237H45.7666Z" fill="#FFFACD"/>
<path d="M90.1851 541.824C86.5392 542.554 82.8932 543.241 79.2472 543.887C79.0389 543.054 78.8305 542.241 78.643 541.449C76.7471 533.595 75.6012 525.532 75.3512 517.428C75.1012 509.406 75.5804 501.323 77.0805 493.427C77.6221 490.531 78.3305 487.76 79.143 485.031C81.6015 486.01 84.1641 486.76 86.7892 487.343C85.3516 497.343 85.0599 507.615 85.81 517.407C86.4142 525.074 87.685 532.699 89.706 540.116C89.8518 540.679 90.0185 541.241 90.1851 541.783V541.824Z" fill="#FFFACD"/>
<path d="M481.846 406.069C481.846 406.069 267.192 427.903 99.3306 457.675C99.3306 457.675 91.0803 503.323 99.3306 554.908C99.3306 554.908 260.775 536.053 345.174 507.281C345.174 507.281 454.345 518.198 541.473 511.261C541.473 511.261 638.706 503.323 629.539 406.09H481.846V406.069Z" fill="#C19663"/>
<path d="M517.139 11.7198C509.659 18.4701 505.596 28.5746 505.388 38.6376C505.18 48.3879 508.117 58.9925 503.117 67.347C498.221 75.5349 487.429 78.3683 481.72 85.9936C470.366 101.161 485.158 123.933 477.908 141.433C474.449 149.809 466.511 155.434 461.511 162.997C455.49 172.101 454.073 183.831 456.574 194.477C459.074 205.103 465.241 214.645 473.053 222.291C476.304 225.478 479.991 228.562 481.47 232.875C483.72 239.437 480.158 246.771 481.616 253.563C482.554 258.001 485.554 261.709 488.846 264.834C504.659 279.751 530.118 283.335 549.432 273.334C555.39 270.251 560.869 265.98 567.37 264.292C575.453 262.188 583.975 264.334 591.954 266.73C616.267 274.043 642.519 283.835 666.145 274.522C671.52 272.397 676.687 269.147 679.645 264.188C682.437 259.501 682.937 253.75 682.333 248.333C680.958 236.083 674.457 225.103 669.561 213.79C664.644 202.477 661.311 189.289 666.332 178.018C669.728 170.414 676.645 164.413 678.291 156.246C680.666 144.433 671.332 133.933 664.019 124.349C653.998 111.224 646.498 95.0356 648.435 78.6391C649.144 72.6597 651.081 66.6178 649.79 60.7426C647.331 49.513 634.831 44.0753 627.372 35.3249C622.664 29.783 619.997 22.8453 616.268 16.6158C612.538 10.3864 607.163 4.40702 600.017 3.13614C592.308 1.76108 584.683 6.11543 576.849 5.90709C565.328 5.61541 556.223 -2.40575 544.327 1.11522C534.993 3.88616 524.701 4.92787 517.159 11.7198H517.139Z" fill="#FFBE4A"/>
<path d="M602.746 91.3896C605.017 91.2646 607.392 91.4937 609.33 92.6604C611.538 93.973 612.955 96.3689 613.455 98.869C613.955 101.369 613.58 103.973 612.851 106.411C611.601 110.515 609.267 114.307 606.142 117.286C603.663 119.662 600.6 121.537 597.204 122.12C593.808 122.703 590.058 121.828 587.662 119.37C585.558 117.203 584.683 114.078 584.87 111.078C585.495 100.702 591.516 92.0563 602.767 91.3896H602.746Z" fill="#FFAE90"/>
<path d="M586.891 114.412C586.266 124.474 585.037 134.475 583.537 144.434C582.225 153.205 580.704 161.913 579.183 170.643C579.058 171.372 578.912 172.143 578.37 172.643C577.849 173.143 577.079 173.247 576.37 173.31C565.828 174.331 555.161 173.997 544.681 172.289C544.869 172.289 547.411 160.955 548.557 155.851C548.827 154.663 549.015 153.809 549.077 153.517C550.39 147.892 551.723 142.267 553.036 136.662C554.244 131.558 554.661 124.412 556.994 119.787C558.807 116.182 566.911 115.87 570.807 115.307C576.12 114.516 581.516 114.224 586.891 114.412Z" fill="#FFAE90"/>
<path d="M586.892 114.412C586.267 124.474 585.038 134.475 583.538 144.434C582.183 145.913 580.725 147.309 579.142 148.517C575.121 151.559 570.37 153.496 565.537 154.892C561.599 156.038 557.516 156.872 553.411 156.663C551.786 156.58 550.161 156.309 548.578 155.851C548.849 154.663 549.036 153.809 549.099 153.517C550.411 147.892 551.745 142.267 553.057 136.662C554.266 131.558 554.682 124.412 557.016 119.787C558.828 116.182 566.933 115.87 570.829 115.307C576.141 114.516 581.538 114.224 586.913 114.412H586.892Z" fill="#FC987A"/>
<path d="M514.618 100.265C514.451 107.265 514.514 114.349 516.305 121.12C518.076 127.891 521.743 134.392 527.493 138.371C533.16 142.288 540.265 143.413 547.14 143.954C555.557 144.6 564.411 144.392 571.891 140.496C576.724 137.975 580.725 134.058 584.037 129.725C593.85 116.974 598.246 100.89 600.996 85.0353C603.246 72.0348 604.496 58.3676 600.142 45.9296C594.433 29.6581 578.724 17.366 561.557 15.7826C517.305 11.6574 515.347 69.5139 514.597 100.265H514.618Z" fill="#FFAE90"/>
<path d="M547.265 52.2424C555.641 59.451 569.183 60.8886 574.162 70.764C576.516 75.4517 576.287 81.0352 577.912 86.0354C580.225 93.0982 586.517 98.6818 593.809 100.119C601.101 101.557 609.059 98.786 613.872 93.1399C610.768 85.9729 611.684 77.8059 611.247 69.9931C610.434 55.7842 604.788 41.9087 595.413 31.1999C586.058 20.4912 573.058 12.9908 559.099 10.2824C554.703 9.42819 549.974 9.07402 545.911 10.9491C532.473 17.1577 538.39 44.5754 547.265 52.2216V52.2424Z" fill="#FFBE4A"/>
<path d="M535.723 94.3273C533.514 94.8064 530.306 95.2023 528.348 93.5981C523.306 89.4521 527.306 91.7647 528.118 90.6813C527.743 91.1813 531.139 88.4937 530.764 88.8479C531.389 88.2437 532.389 86.7436 532.827 86.0144C535.473 81.7226 537.285 76.0349 536.056 71.0138C535.89 70.368 534.952 70.4096 534.785 71.0138C533.327 75.9724 532.806 81.3476 529.285 85.4727C527.535 87.5353 523.764 87.7436 523.181 90.7854C521.951 97.244 532.452 98.9524 536.598 97.494C538.598 96.7857 537.806 93.8481 535.723 94.3064V94.3273Z" fill="#F7886D"/>
<path d="M605.309 104.286C600.371 100.765 594.684 104.578 590.559 107.495C589.1 108.536 589.913 111.078 591.829 110.516C595.996 109.307 599.371 110.641 602.142 113.849C603.392 115.287 605.559 113.453 604.705 111.87C603.184 109.099 600.434 107.37 597.434 106.765C599.663 105.64 602.059 105.078 604.768 105.536C605.559 105.661 605.976 104.724 605.309 104.265V104.286Z" fill="#F7886D"/>
<path d="M526.16 73.889C526.16 73.889 526.16 73.8265 526.16 73.8057C526.119 73.639 526.056 73.4932 525.973 73.3474C524.848 70.7639 522.785 68.9722 519.973 70.1597C519.368 70.4097 519.348 71.5348 520.139 71.4306C520.889 71.3473 521.535 71.4723 522.077 71.7431C522.035 71.8056 521.973 71.8473 521.952 71.9306C520.368 74.9516 519.139 78.5767 521.098 81.7643C522.493 84.0353 524.869 83.8686 526.202 81.5977C527.264 79.7643 527.202 76.535 526.202 73.9099L526.16 73.889Z" fill="#120902"/>
<path d="M555.161 76.9518C553.578 76.056 551.849 76.4518 550.807 77.8685C550.39 78.4311 551.078 79.3269 551.744 79.0769C552.057 78.9728 552.307 78.9311 552.536 78.9102C549.598 80.8687 548.828 86.1605 550.932 88.8482C552.224 90.4941 554.432 90.4316 555.724 88.8482C557.161 87.0773 557.703 84.2855 557.661 82.0562C557.62 80.0978 556.974 77.9935 555.161 76.9518Z" fill="#120902"/>
<path d="M529.285 63.722C527.097 61.2219 523.535 59.1177 520.097 59.326C517.972 59.451 516.659 62.6178 518.91 63.6804C520.18 64.2846 521.576 64.5762 522.847 65.2012C524.139 65.8054 525.452 66.3888 526.681 67.0763C528.868 68.2847 530.868 65.5346 529.264 63.722H529.285Z" fill="#120902"/>
<path d="M563.828 71.3683C561.12 68.3474 556.245 65.8681 552.12 66.2223C550.432 66.3681 549.411 68.764 551.182 69.6807C552.828 70.5349 554.62 71.0975 556.286 71.9308C557.974 72.785 559.516 73.8892 561.099 74.8893C563.328 76.306 565.474 73.2017 563.828 71.3683Z" fill="#120902"/>
<path d="M538.89 104.994C538.535 104.578 537.994 104.244 537.264 104.015C536.223 103.682 535.098 103.682 533.993 103.64C528.972 103.453 521.014 98.9941 520.347 106.286C520.014 109.89 520.805 115.828 523.264 118.682C526.514 122.433 532.431 118.995 535.035 116.161C536.681 114.37 537.869 112.224 538.806 109.974C539.535 108.203 539.994 106.265 538.89 105.015V104.994Z" fill="#FFFACD"/>
<path d="M469.637 54.9089L447.553 139.933C447.032 142.392 444.72 144.058 442.219 143.746C441.99 143.725 441.782 143.683 441.553 143.663C433.261 142.6 419.323 140.204 402.364 136.85C399.759 136.329 398.051 133.808 398.551 131.204C401.509 115.328 411.364 63.4926 416.843 43.4501C417.135 42.3876 417.76 41.4917 418.593 40.8667C419.677 40.0542 421.094 39.7 422.51 39.9917L465.887 49.1587C468.491 49.7212 470.179 52.2838 469.616 54.9089H469.637Z" fill="#36474F"/>
<path d="M465.512 55.7423L443.428 140.767C443.178 141.975 442.49 142.975 441.553 143.662C433.261 142.6 419.323 140.204 402.364 136.85C399.759 136.329 398.051 133.808 398.551 131.204C401.509 115.328 411.364 63.4926 416.843 43.4501C417.135 42.3876 417.76 41.4917 418.593 40.8667L461.783 49.992C464.387 50.5546 466.075 53.1172 465.512 55.7214V55.7423Z" fill="#455660"/>
<path d="M436.344 61.0965L438.448 51.117C438.573 50.5128 439.157 50.1378 439.761 50.2628L459.303 54.3879C459.866 54.5129 460.241 55.0338 460.178 55.6172C459.949 57.5131 459.387 61.7216 458.595 65.7217C458.47 66.3259 457.908 66.7218 457.303 66.5967C453.657 65.9092 441.74 63.6592 437.136 62.3883C436.573 62.2424 436.219 61.6591 436.344 61.0757V61.0965Z" fill="#5D707A"/>
<path d="M445.928 61.6591L447.449 54.513C447.532 54.0755 447.845 53.7838 448.116 53.8463L457.095 55.7422C457.345 55.8047 457.512 56.1589 457.45 56.5548C457.241 57.8881 456.762 60.9091 456.179 63.7634C456.095 64.2009 455.804 64.4926 455.533 64.4509C453.845 64.1592 448.366 63.18 446.262 62.5342C446.012 62.4508 445.866 62.0758 445.949 61.6591H445.928Z" fill="#36474F"/>
<path d="M430.823 66.3468C431.886 66.3885 432.74 67.3052 432.573 68.3677C432.198 70.6387 430.136 72.7012 428.177 74.2221C423.781 77.6181 419.115 80.6599 414.218 83.2641C423.865 84.7642 433.948 86.4518 441.532 92.702C442.157 93.2229 442.553 94.0146 442.49 94.8271C442.324 96.5147 440.386 96.848 438.845 96.8689C432.823 96.9314 426.802 96.4522 420.885 95.4313C424.156 97.3272 428.032 97.8273 431.573 99.2023C434.053 100.161 436.511 101.827 437.845 104.036C438.657 105.39 437.678 107.119 436.094 107.078C430.552 106.89 425.011 106.265 419.573 105.161C423.177 106.598 426.719 108.14 430.198 109.807C431.719 110.536 433.323 111.369 433.99 113.036C434.303 113.828 434.282 114.745 433.803 115.432C432.948 116.724 431.386 116.599 430.032 116.391C425.427 115.724 420.802 115.057 416.198 114.39C420.969 115.078 424.365 119.911 424.802 124.703C425.24 129.495 421.781 138.371 417.031 137.641C415.302 146.183 413.198 149.704 410.76 158.08C399.76 154.788 389.28 149.788 379.821 143.287C382.926 136.62 386.051 129.954 388.863 123.162C391.759 116.161 394.364 108.807 394.322 101.223C394.301 97.3897 393.572 93.5562 393.572 89.7228C393.572 80.0974 398.822 77.1806 406.51 73.1387C414.01 69.2219 422.26 66.0135 430.823 66.326V66.3468Z" fill="#FFAE90"/>
<path d="M698.521 283.501C691.521 255.75 675.875 231.041 659.061 207.894C651.061 196.873 642.686 186.039 632.873 176.601C630.373 174.184 626.373 169.997 622.247 167.768C619.476 165.476 616.247 163.663 612.768 162.267C600.788 157.413 585.579 157.142 573.808 156.434C550.453 155.038 528.056 159.059 505.513 163.684C500.847 164.642 496.18 165.622 491.513 166.601C480.637 168.851 469.866 171.434 459.157 174.372C437.761 180.247 416.739 187.498 396.28 196.06C407.26 183.685 415.927 169.247 421.656 153.725C422.01 152.788 422.343 151.788 422.093 150.809C421.864 149.829 421.073 149.079 420.302 148.413C409.905 139.225 397.697 132.099 384.571 127.62C364.341 158.746 343.715 190.768 335.882 227.062C334.923 231.458 334.194 236.124 335.611 240.395C338.194 248.208 346.965 252.021 354.966 253.979C378.008 259.605 402.28 257.542 425.531 252.896C445.532 248.896 465.116 243 484.971 238.375C486.429 252.396 489.346 266.251 493.68 279.668C495.596 285.585 497.805 291.877 496.18 297.877C494.951 302.419 491.7 306.086 488.534 309.586C477.408 321.92 466.262 334.253 455.116 346.566C453.886 347.921 452.595 349.442 452.449 351.254C452.324 352.838 453.095 354.338 453.907 355.713C465.074 375.234 483.533 389.839 503.701 399.819C523.868 409.819 545.828 415.548 567.724 420.757C589.392 425.903 611.164 430.57 633.039 434.757C633.56 411.486 631.998 388.151 628.393 365.15C626.956 356.004 625.497 346.9 624.122 337.795C628.227 339.399 632.352 340.837 636.498 342.066C652.644 346.837 671.395 349.712 685.229 340.129C693.729 334.253 698.896 324.378 700.667 314.211C702.438 304.023 701.084 293.543 698.563 283.522L698.521 283.501ZM616.455 270.667C616.06 263.376 615.851 256.042 615.851 248.708C616.539 249.875 617.185 251.063 617.831 252.25C622.893 261.75 626.56 272.626 635.04 279.251C628.498 276.689 622.372 273.793 616.455 270.688V270.667Z" fill="#F7EDEC"/>
<path d="M612.768 162.247C592.663 180.122 566.995 191.685 540.265 194.831C534.577 195.498 528.619 195.769 523.327 193.602C516.722 190.894 512.055 184.706 509.534 178.039C508.451 175.122 506.284 168.955 505.513 163.684C528.077 159.059 550.453 155.038 573.808 156.434C585.579 157.142 600.788 157.413 612.768 162.267V162.247Z" fill="#FFAE90"/>
<path d="M421.51 150.371C416.947 155.767 413.801 162.33 410.155 168.351C406.218 174.872 402.134 181.31 397.863 187.623C393.384 194.248 388.675 200.727 383.717 207.019C379.342 212.582 373.737 217.791 370.154 223.874C369.216 225.457 371.216 227.853 372.862 226.583C378.862 221.978 383.55 214.936 388.155 208.978C392.592 203.269 396.842 197.415 400.905 191.414C405.176 185.102 409.218 178.643 412.989 172.018C416.739 165.434 420.947 158.455 422.677 151.017C422.823 150.392 421.989 149.767 421.51 150.329V150.371Z" fill="#E2D1D0"/>
<path d="M499.721 196.164C494.242 202.665 489.929 211.478 486.846 219.374C483.658 227.562 483.491 236.458 484.387 245.104C486.283 263.48 493.013 280.939 495.929 299.148C496.409 302.065 500.721 300.794 500.325 297.939C497.95 280.668 491.471 264.23 489.367 246.896C488.304 238.145 488.158 228.957 491.346 220.603C494.367 212.686 499.388 205.394 501.325 197.081C501.534 196.206 500.367 195.373 499.721 196.144V196.164Z" fill="#E2D1D0"/>
<path d="M668.479 286.397C655.124 282.064 641.707 278.293 628.602 273.147C621.998 270.543 615.497 267.709 609.039 264.751C602.83 261.896 596.767 258.438 590.267 256.292C589.371 256 588.496 256.75 588.288 257.584C582.809 261.855 577.746 266.542 571.996 270.501C565.808 274.751 559.391 278.522 552.578 281.71C551.328 282.293 550.974 284.147 551.641 285.251C559.724 298.606 570.35 310.336 582.642 319.961C594.392 329.17 608.393 337.691 622.956 341.462C626.185 342.295 627.185 337.837 624.289 336.608C610.31 330.774 597.163 324.732 585.225 315.211C574.454 306.606 565.329 296.356 557.683 284.96C569.662 278.939 582.079 270.772 590.1 259.938C600.476 267.626 613.747 272.522 625.56 277.334C638.957 282.793 652.999 288.106 667.166 291.148C670.27 291.814 671.5 287.377 668.479 286.397Z" fill="#E2D1D0"/>
<g opacity="0.3">
<path d="M505.057 189.176C506.989 188.299 507.452 185.611 506.539 183.705C505.626 181.811 503.765 180.549 501.952 179.45C500.138 178.351 498.218 177.264 497.032 175.522C494.638 172.026 496.629 166.485 500.731 165.246C502.544 164.696 504.5 164.918 506.349 164.532C508.198 164.147 510.131 162.791 510.071 160.92C510 158.687 507.404 157.588 505.591 156.244C501.655 153.309 501.063 146.915 504.393 143.326C507.061 140.438 511.517 139.468 513.781 136.253C514.908 135.446 516.591 136.709 516.638 138.077C516.686 139.444 515.737 140.637 514.753 141.619C513.781 142.601 512.691 143.595 512.347 144.927C511.719 147.406 514.018 149.697 516.389 150.738C519.459 152.082 522.897 152.316 526.204 152.947C529.511 153.578 532.937 154.782 534.928 157.448C536.919 160.113 536.682 164.568 533.731 166.146C532.048 167.034 530.021 166.824 528.124 167.046C526.228 167.28 524.094 168.379 523.975 170.261C523.916 171.255 524.461 172.19 525.125 172.938C527.389 175.451 530.981 176.235 534.335 176.854C537.69 177.474 541.27 178.164 543.652 180.56C546.035 182.957 547.315 189.749 543.972 190.404C543.581 190.486 537.477 188.627 525.113 188.592C512.75 188.557 503.694 191 503.694 191L505.069 189.165L505.057 189.176Z" fill="white"/>
</g>
<path d="M489.07 186.894C483.63 186.894 483.344 191.874 483.392 198.025C483.439 204.153 485.126 231.396 503.798 247.313H544.231C562.903 231.396 564.566 204.177 564.637 198.025C564.685 191.898 564.4 186.894 558.959 186.894H489.093H489.07Z" fill="#382E31"/>
<path d="M527.577 191.102C525.618 191.436 524.723 193.811 525.993 195.352C527.098 196.707 528.764 197.79 530.348 198.623C535.265 201.207 540.411 203.353 545.682 205.061C536.452 208.249 526.827 211.686 520.452 219.166C519.931 219.791 519.66 220.645 519.889 221.437C520.347 223.062 522.327 223.062 523.827 222.812C529.764 221.833 535.598 220.291 541.244 218.228C538.348 220.666 534.619 221.853 531.389 223.812C529.369 225.041 527.452 226.812 526.41 228.895C525.535 230.645 527.118 232.604 529.035 232.187C534.223 231.041 539.306 229.5 544.244 227.541C540.952 229.583 537.744 231.729 534.598 234C533.223 234.979 531.785 236.083 531.431 237.854C531.264 238.687 531.431 239.583 532.035 240.187C533.098 241.312 534.619 240.896 535.91 240.479C540.327 239 544.765 237.542 549.182 236.062C544.619 237.583 543.932 244.125 544.348 248.917C544.765 253.709 549.015 263.709 553.557 262.147C556.765 270.251 558.349 270.293 562.224 278.106C572.474 272.939 581.912 266.147 590.079 258.084C585.85 252.063 581.6 246.063 577.641 239.854C573.558 233.458 569.683 226.708 568.412 219.228C567.766 215.436 567.787 211.561 567.12 207.769C565.412 198.29 559.745 196.332 551.453 193.727C543.765 191.31 535.535 189.665 527.535 191.06L527.577 191.102Z" fill="#FFAE90"/>
</svg>
