<svg width="104" height="89" viewBox="0 0 104 89" fill="none" xmlns="http://www.w3.org/2000/svg">
<path d="M57.971 88.6666C10.8265 82.986 27.702 50.0805 34.8109 26.9887C39.4799 11.8065 54.9245 4.59881 64.9492 1.42907C72.9482 -1.08766 81.7192 -0.312309 88.8981 4.00991C107.738 15.3407 103.419 41.9127 103.072 48.0995C100.46 89.9077 68.9609 89.8933 57.971 88.6666Z" fill="#58694B"/>
<path d="M6.6255 17.7699C6.69131 18.5411 6.74756 19.423 6.79424 20.4157C6.84092 21.4085 6.86905 22.4299 6.87861 23.48C6.88648 24.5307 6.86595 25.5603 6.81702 26.5688C6.76809 27.5773 6.68934 28.4839 6.58079 29.2888C6.46829 30.0926 6.31643 30.7447 6.12519 31.2453C5.93396 31.7459 5.70025 32.0125 5.42409 32.0451C5.24354 32.062 5.0748 31.9062 4.91787 31.5777C4.73094 31.1654 4.58157 30.737 4.47156 30.2979C4.33151 29.7731 4.20411 29.1825 4.08937 28.5261C3.97463 27.8697 3.87704 27.2215 3.79661 26.5814C3.71393 25.9413 3.63996 25.3465 3.57472 24.797C3.50891 24.2469 3.45998 23.8091 3.42707 23.48C3.37814 23.12 3.33708 22.6934 3.30389 22.2001C3.27071 21.7069 3.25018 21.1981 3.2423 20.6739C3.2333 20.1491 3.22121 19.6412 3.20602 19.1502C3.19084 18.6592 3.17453 18.2325 3.15709 17.8703C3.14022 17.7713 3.05416 17.7097 2.89892 17.6856C2.74368 17.6614 2.53838 17.6366 2.28303 17.6113C1.9924 17.5806 1.70409 17.531 1.41993 17.4628C1.07981 17.3804 0.758339 17.2344 0.472467 17.0325C0.0787445 16.7862 -0.0689014 16.5809 0.0295292 16.4166C0.128241 16.253 0.367005 16.118 0.755947 16.0108C1.22429 15.89 1.70172 15.8076 2.18347 15.7645C2.74987 15.7082 3.30755 15.6674 3.85651 15.6421C4.40547 15.6168 4.88975 15.605 5.30934 15.6067C5.55962 15.5996 5.8101 15.6078 6.05939 15.6312C6.27615 15.6514 6.49388 15.6596 6.71156 15.6556C7.01529 15.6556 7.36007 15.6638 7.74592 15.6801C8.13177 15.6964 8.53365 15.7169 8.95156 15.7417C9.37003 15.7664 9.75166 15.8036 10.0964 15.8531C10.3842 15.8896 10.6682 15.9511 10.9452 16.037C11.1674 16.1112 11.2782 16.1976 11.2776 16.296C11.2776 16.4597 11.1342 16.6284 10.8473 16.8022C10.4968 17.0022 10.1253 17.1629 9.73956 17.2814C9.24863 17.4363 8.74658 17.5533 8.23779 17.6316C7.70502 17.7214 7.1658 17.7677 6.6255 17.7699Z" fill="#58694B"/>
<path d="M8.9427 29.8556C8.92695 29.3139 8.91064 28.5591 8.89377 27.5911C8.87689 26.6231 8.87267 25.5648 8.88111 24.4163C8.88955 23.2677 8.91008 22.0902 8.9427 20.8838C8.97532 19.6773 9.03691 18.5737 9.12747 17.5731C9.19379 16.7284 9.32124 15.8895 9.50882 15.0631C9.67249 14.3882 9.88594 14.0026 10.1492 13.9064C10.5884 13.743 11.0703 13.7343 11.5151 13.882C11.961 14.0262 12.3747 14.2554 12.7334 14.5569C13.0861 14.8513 13.3894 15.2002 13.6319 15.5905C13.8693 15.9757 14.0046 16.3245 14.0377 16.6366C14.2183 17.6541 14.2225 18.5729 14.0504 19.393C13.8913 20.1719 13.6477 20.9313 13.324 21.6574C13.0325 22.3078 12.7038 22.9407 12.3394 23.5532C12.0168 24.0741 11.767 24.6367 11.5969 25.2254C11.9671 24.5405 12.4311 23.9106 12.9755 23.3541C13.1898 23.1401 13.4199 22.9427 13.664 22.7635C13.9044 22.5849 14.17 22.4427 14.452 22.3417C14.7287 22.2439 15.02 22.194 15.3134 22.194C15.6324 22.2005 15.945 22.2851 16.2237 22.4404C16.7168 22.6881 17.1242 23.0781 17.3931 23.5599C17.6725 24.068 17.8717 24.6161 17.9837 25.1849C18.1093 25.8055 18.1877 26.4347 18.2182 27.0672C18.2503 27.7236 18.2871 28.3555 18.3287 28.9629C18.3641 29.5291 18.4339 30.0926 18.538 30.6503C18.637 31.1672 18.8175 31.5815 19.0796 31.8931C19.457 32.3414 19.7852 32.6499 20.0642 32.8186C20.2824 32.9649 20.5237 33.0733 20.778 33.1392C20.935 33.1758 21.096 33.1922 21.2572 33.1881C21.3077 33.1805 21.3593 33.1841 21.4083 33.1987C21.4573 33.2132 21.5025 33.2385 21.5407 33.2725C21.5875 33.3183 21.6251 33.3727 21.6512 33.4328C21.6628 33.4594 21.6688 33.4881 21.6688 33.5172C21.6688 33.5462 21.6628 33.5749 21.6512 33.6015C21.6006 33.6849 21.5283 33.7528 21.442 33.7981C21.2789 33.8946 21.1057 33.9729 20.9256 34.0318C20.4818 34.1798 19.9115 34.2003 19.2146 34.0934C18.5177 33.9865 17.7753 33.6463 16.9873 33.0726C16.5788 32.775 16.2665 32.3644 16.0887 31.8914C15.8754 31.3567 15.7143 30.8026 15.6078 30.2369C15.4954 29.6379 15.4093 29.0307 15.3497 28.4154C15.2901 27.8001 15.2203 27.2376 15.1404 26.728C15.0812 26.2989 14.961 25.8804 14.7836 25.4852C14.6272 25.1646 14.4022 24.9959 14.1086 24.979C13.9608 24.9718 13.8133 24.9979 13.6769 25.0553C13.5405 25.1126 13.4188 25.1999 13.3206 25.3106C13.0647 25.5904 12.8643 25.9162 12.73 26.2707C12.5538 26.7129 12.418 27.17 12.3242 27.6367C12.2173 28.1462 12.131 28.6468 12.0652 29.1384C11.9994 29.63 11.9502 30.0977 11.9175 30.5415C11.8849 30.9847 11.8605 31.3374 11.8441 31.5995C11.8273 32.0106 11.7288 32.2978 11.5489 32.4609C11.3789 32.6203 11.1542 32.7085 10.9212 32.7072C10.6628 32.7031 10.4078 32.6487 10.1703 32.5469C9.94531 32.4602 9.73057 32.349 9.52991 32.2154C9.33779 32.0668 9.19969 31.8593 9.13675 31.6248C9.05547 31.3679 8.99758 31.1041 8.96379 30.8368C8.93162 30.5107 8.92457 30.1827 8.9427 29.8556ZM11.9454 21.0685C12.1091 20.4622 12.257 19.8306 12.3892 19.1736C12.5102 18.6075 12.5668 18.0296 12.5579 17.4508C12.5346 17.0234 12.4685 16.5994 12.3605 16.1853C12.2626 15.8326 12.147 15.5947 12.0163 15.4715C11.8855 15.3483 11.7539 15.3694 11.6223 15.5331C11.4906 15.6968 11.3843 16.0503 11.3025 16.5919C11.2116 17.2403 11.1623 17.8938 11.1549 18.5484C11.138 19.3111 11.1419 20.0423 11.1667 20.742C11.1914 21.4417 11.2285 22.2747 11.278 23.241C11.5559 22.4002 11.7769 21.676 11.9412 21.0685H11.9454Z" fill="#58694B"/>
<path d="M20.3331 23.0613C20.5743 22.6239 20.8957 22.2358 21.2806 21.9173C21.6599 21.6007 22.0823 21.3396 22.5351 21.1419C22.9917 20.9419 23.4716 20.8002 23.9635 20.7201C24.447 20.6394 24.9373 20.6063 25.4273 20.6214C25.8911 20.6429 26.3338 20.8214 26.6827 21.1276C27.0303 21.4359 27.2824 21.8373 27.4091 22.2843C27.5494 22.7855 27.5662 23.3132 27.4581 23.8223C27.3506 24.3809 27.0922 24.9388 26.6827 25.4962C26.2237 26.1206 25.7521 26.5762 25.2678 26.863C24.8455 27.1214 24.3955 27.3316 23.9264 27.4899C23.4655 27.6359 22.9813 27.6946 22.4989 27.6628C22.4587 28.2017 22.5086 28.7434 22.6465 29.2658C22.6952 29.4617 22.7654 29.6515 22.8557 29.832C22.9431 30.0095 23.0643 30.1683 23.2126 30.2994C23.3659 30.4343 23.5463 30.535 23.7416 30.5946C23.9774 30.663 24.2251 30.6799 24.468 30.6444C25.0586 30.5617 25.5426 30.3728 25.92 30.0775C26.2731 29.806 26.5913 29.492 26.8675 29.1427C27.1212 28.8142 27.3304 28.5228 27.4952 28.2686C27.6589 28.0155 27.8234 27.8872 27.9871 27.8872C28.0995 27.8872 28.1735 28.0391 28.2089 28.3428C28.2372 28.7142 28.2088 29.0878 28.1246 29.4506C28.0197 29.9272 27.8586 30.3897 27.6445 30.8284C27.4128 31.3137 27.0817 31.7448 26.6726 32.0939C26.2199 32.472 25.6842 32.7377 25.1092 32.8692C24.486 33.0245 23.7394 32.9874 22.8692 32.7579C22.0818 32.5616 21.4501 32.1884 20.9743 31.6383C20.524 31.1296 20.1582 30.5519 19.891 29.9273C19.585 29.214 19.386 28.4595 19.3004 27.6881C19.2346 27.2064 19.2346 26.7179 19.3004 26.2361C19.3472 25.7357 19.4421 25.241 19.5839 24.7588C19.7562 24.1619 20.0082 23.5909 20.3331 23.0613ZM24.911 17.3023C24.6951 17.457 24.4696 17.5979 24.236 17.7242C23.9732 17.8693 23.6972 17.9891 23.4117 18.0819C23.1619 18.167 22.9003 18.2126 22.6364 18.2169C22.3985 18.2169 22.2384 18.1432 22.1563 17.9958C22.0742 17.831 22.1563 17.552 22.4027 17.1589C22.6761 16.7334 23.0075 16.348 23.3873 16.014C23.776 15.6592 24.2156 15.3646 24.6916 15.1399C25.1506 14.9273 25.5443 14.9192 25.8728 15.1155C25.9497 15.1788 26.0092 15.2606 26.0457 15.3534C26.0822 15.4461 26.0944 15.5466 26.0812 15.6453C26.0521 15.8637 25.9767 16.0734 25.8601 16.2604C25.7306 16.4735 25.5778 16.6716 25.4045 16.8509C25.2519 17.013 25.0878 17.1638 24.9135 17.3023H24.911ZM22.5503 25.8151C22.824 25.8138 23.0967 25.7807 23.3628 25.7164C23.6291 25.6334 23.8841 25.5178 24.1221 25.3722C24.4311 25.1804 24.699 24.9292 24.9101 24.6331C25.1098 24.3591 25.275 24.0616 25.402 23.7473C25.4867 23.5317 25.5527 23.3093 25.5994 23.0824C25.6477 22.9062 25.656 22.7215 25.6239 22.5416C25.3056 22.572 24.9918 22.638 24.6882 22.7382C24.4095 22.8283 24.1445 22.9566 23.9011 23.1196C23.6284 23.3023 23.4078 23.5525 23.2607 23.846C23.096 24.1408 22.9481 24.4447 22.8178 24.7563C22.7337 24.9552 22.6679 25.1614 22.6212 25.3722C22.5786 25.5162 22.5547 25.6651 22.5503 25.8151Z" fill="#58694B"/>
<path d="M50.6751 44.7635C50.6751 44.7635 45.3413 45.9826 44.2935 42.1709C44.1779 41.6604 44.1517 40.0928 44.1619 38.3565C43.3643 38.3782 42.5661 38.3475 41.7725 38.2646C41.7725 38.2646 41.9151 36.9231 41.5726 35.8516C42.45 35.8933 43.3293 35.8586 44.2007 35.7478C44.2395 33.8875 44.2935 32.3596 44.2935 32.3596L46.9502 32.2524C46.9502 32.2524 46.9165 33.5956 46.8853 35.2155C47.741 34.9756 48.573 34.6579 49.3708 34.2663L49.5277 37.8098C49.5277 37.8098 48.026 37.4318 46.8482 37.7044C46.8313 39.1968 46.8347 40.4801 46.8853 40.7374C46.9502 41.0639 47.6994 44.0582 51.0413 40.9737C51.043 40.972 50.2263 42.6003 50.6751 44.7635Z" fill="#F9EEBB"/>
<path d="M50.6751 58.9007C50.6751 58.9007 45.3413 60.1224 44.2935 56.3089C44.1779 55.7976 44.1517 54.2301 44.1619 52.4937C43.3643 52.5159 42.5661 52.4855 41.7725 52.4026C41.7725 52.4026 41.9151 51.0603 41.5726 49.9897C42.45 50.0313 43.3293 49.9963 44.2007 49.8851C44.2395 48.0289 44.2935 46.4968 44.2935 46.4968L46.9502 46.3896C46.9502 46.3896 46.9165 47.7328 46.8853 49.3535C47.741 49.1133 48.573 48.7953 49.3708 48.4035L49.5277 51.947C49.5277 51.947 48.026 51.5691 46.8482 51.8424C46.8313 53.3341 46.8347 54.6173 46.8853 54.8746C46.9502 55.202 47.6994 58.1962 51.0413 55.1109C51.043 55.1092 50.2263 56.7375 50.6751 58.9007Z" fill="#F9EEBB"/>
<path d="M59.5225 43.8825C58.0393 44.6418 56.654 45.2687 54.0908 43.5973C53.4378 44.0276 52.4878 44.6562 52.0887 44.9472C51.0831 43.7661 51.6416 41.8905 52.0887 41.591C54.0385 40.5406 52.303 34.0291 52.303 34.0291C52.303 34.0291 54.0174 34.9495 55.9242 34.6711C55.9242 34.6711 55.1319 38.849 55.7554 39.8345C56.227 40.4343 57.0842 41.4628 59.9114 39.8345C60.1224 39.9619 61.0648 43.0903 59.5225 43.8825Z" fill="#F9EEBB"/>
<path d="M55.2704 60.1315C49.7518 59.4667 51.7269 55.6144 52.5596 52.9121C53.1063 51.1344 54.9135 50.2907 56.0871 49.9195C56.549 49.7693 57.0374 49.7185 57.5203 49.7706C58.0033 49.8226 58.4697 49.9763 58.889 50.2215C61.0944 51.5487 60.589 54.6585 60.5476 55.3824C60.2439 60.2766 56.557 60.2749 55.2704 60.1315Z" fill="#F9EEBB"/>
<path d="M54.6473 33.5436C55.9501 33.5436 57.0062 32.4875 57.0062 31.1846C57.0062 29.8818 55.9501 28.8257 54.6473 28.8257C53.3445 28.8257 52.2883 29.8818 52.2883 31.1846C52.2883 32.4875 53.3445 33.5436 54.6473 33.5436Z" fill="#F9EEBB"/>
<path d="M57.9301 69.4918C57.7507 69.4922 57.5732 69.4554 57.4087 69.3838C57.2355 69.3106 57.0821 69.1974 56.9611 69.0535C56.8401 68.9095 56.755 68.7389 56.7128 68.5557C56.6705 68.3725 56.6724 68.1819 56.7181 67.9995C56.7638 67.8171 56.8522 67.6482 56.9759 67.5066C61.3876 62.4647 66.4252 54.1029 65.3951 42.8961L65.3866 42.7755C65.3862 42.7682 65.3862 42.7608 65.3866 42.7535C64.991 37.2822 63.3905 32.7896 60.7582 29.7607C58.789 27.4971 56.9084 26.823 56.8898 26.8171C56.7027 26.7551 56.534 26.6472 56.3991 26.5033C56.2643 26.3594 56.1677 26.1841 56.118 25.9932C56.0684 25.8024 56.0673 25.6022 56.1148 25.4108C56.1624 25.2195 56.2571 25.043 56.3904 24.8977C56.495 24.7813 57.4644 23.7418 59.1602 23.1841C60.732 22.6661 63.2352 22.4788 66.2388 24.5239C66.4992 24.7013 66.6786 24.9748 66.7374 25.2844C66.7961 25.5939 66.7295 25.9141 66.5522 26.1746C66.3749 26.4351 66.1013 26.6144 65.7918 26.6732C65.4822 26.732 65.162 26.6654 64.9015 26.488C63.1694 25.3069 61.5192 24.9458 59.998 25.4106C59.8461 25.457 59.7027 25.5094 59.5677 25.5659C60.6244 26.2687 61.5848 27.1066 62.4245 28.0581C64.5497 30.4449 67.1989 34.8996 67.7557 42.5696L67.7659 42.6801C68.0884 45.9543 67.9077 49.2585 67.2301 52.4779C66.2506 57.2026 64.2772 61.6682 61.358 65.7871C64.4476 64.5764 68.7656 63.0088 72.8204 62.5997C72.4222 60.1909 71.7818 54.615 72.3007 45.5158C72.3125 45.3092 72.3781 45.1094 72.4909 44.936C72.6037 44.7625 72.7599 44.6216 72.9439 44.5271C73.1279 44.4325 73.3334 44.3877 73.5401 44.397C73.7468 44.4063 73.9474 44.4694 74.1222 44.5801C75.2308 45.2821 80.6397 47.722 84.935 45.8904C87.7714 44.6814 89.6731 41.7959 90.5877 37.3151C90.7783 36.0099 91.1209 32.7043 90.3455 29.473C89.4478 25.7329 87.3496 23.3377 84.109 22.3531C79.9091 21.0775 75.2578 22.51 72.5437 25.9185C72.1794 26.3726 71.8577 26.8592 71.5827 27.3722C71.693 27.3609 71.8043 27.3652 71.9134 27.3849C74.3011 27.8143 76.0965 28.9255 77.2498 30.6854C79.4299 34.0129 78.4174 38.4271 78.3727 38.6161C78.3366 38.7687 78.2706 38.9126 78.1785 39.0396C78.0865 39.1665 77.9702 39.274 77.8363 39.3557C77.7025 39.4374 77.5538 39.4919 77.3988 39.5158C77.2438 39.5398 77.0856 39.5327 76.9334 39.4952C74.318 38.8523 68.8677 37.5142 68.4121 30.9647C68.2577 28.7584 69.0449 26.5024 70.6901 24.4404C72.3313 22.3802 74.5588 20.8663 77.0785 20.0988C79.5941 19.3207 82.2853 19.3151 84.8042 20.0827C88.8539 21.312 91.568 24.3678 92.6606 28.9212C93.5397 32.582 93.1483 36.2765 92.939 37.6956C92.939 37.7167 92.9323 37.7378 92.9281 37.758C91.8498 43.0691 89.4757 46.5417 85.8714 48.0789C83.5623 49.0626 80.7393 49.2019 77.7079 48.4797C76.641 48.2244 75.597 47.8818 74.5862 47.4554C74.134 58.1762 75.3852 63.3539 75.3987 63.4071C75.4409 63.5792 75.4441 63.7585 75.4081 63.932C75.3721 64.1055 75.2979 64.2688 75.1908 64.41C75.0836 64.5511 74.9464 64.6666 74.7889 64.7479C74.6315 64.8293 74.4579 64.8744 74.2808 64.8801C69.6903 65.0227 64.2409 67.1944 60.9775 68.4928C59.2319 69.1889 58.4684 69.4918 57.9301 69.4918ZM70.8605 29.392C70.7738 29.8546 70.7455 30.3263 70.7761 30.7959C71.047 34.6592 73.476 36.0327 76.2281 36.8469C76.3327 35.5737 76.2863 33.5472 75.2528 31.9779C74.4597 30.774 73.2279 30.0374 71.4891 29.7236C71.2505 29.6802 71.031 29.5644 70.8605 29.392Z" fill="#F9EEBB"/>
</svg>
