<svg width="413" height="570" viewBox="0 0 413 570" fill="none" xmlns="http://www.w3.org/2000/svg">
<g filter="url(#filter0_d_139_175)">
<path d="M134.592 167.158L166.927 169.56L156.789 122.151L126.082 123.031L134.592 167.158Z" fill="#FFA90D"/>
<path d="M151.173 114.641L159.697 172.601L120.159 187.461C120.159 187.461 157.029 211.979 199.862 206.71C242.696 201.428 230.183 180.525 230.183 180.525L199.329 169.026L193.286 143.054L151.173 114.627V114.641Z" fill="#F4ACA8"/>
<path opacity="0.6" d="M199.315 168.973L193.286 143.067L151.173 114.641L158.576 164.957C163.979 164.397 191.285 167.732 199.315 168.973Z" fill="#99665E"/>
<path d="M222.726 16.8885C195.86 -7.78966 176.011 7.8176 176.011 7.8176L197.795 173.401C215.243 175.029 224.42 172.388 233.198 168.906C234.745 161.983 238.253 146.149 238.147 125.913C238.147 125.913 239.787 152.191 236.973 166.838C245.657 162.956 252.086 158.288 252.086 158.288C259.663 107.717 244.643 37.0179 222.739 16.8885H222.726Z" fill="#FFA90D"/>
<path d="M169.662 22.4512C169.662 22.4512 214.322 21.2906 225.434 52.6786C236.546 84.0665 244.963 125.046 219.818 146.922C194.673 168.799 153.934 158.288 133.725 132.729C113.516 107.171 99.8958 40.793 169.662 22.4512Z" fill="#F4ACA8"/>
<path opacity="0.1" d="M169.662 22.4511C169.662 22.4511 175.051 22.3177 182.548 23.4515C129.59 36.1241 131.338 92.9772 144.397 118.242C158.217 145.015 192.66 161.636 219.432 147.229C194.26 168.666 153.842 158.154 133.726 132.716C113.516 107.157 99.8965 40.7796 169.662 22.4377V22.4511Z" fill="black"/>
<path d="M190.298 25.6126C190.298 25.6126 195.167 78.3305 133.418 97.6461C133.418 97.6461 132.191 151.378 145.81 174.895C145.81 174.895 135.926 174.482 119.612 168.559C119.612 168.559 113.822 141.467 113.089 126.046C113.089 126.046 113.422 156.634 115.81 167.145C115.81 167.145 104.805 166.491 97.9482 160.289C91.0917 154.086 90.8782 74.8088 97.7881 54.0258C104.698 33.2428 120.372 12.6199 136.7 5.04305C155.108 -3.48092 186.79 -3.92113 190.298 25.5993V25.6126Z" fill="#FFA90D"/>
<path opacity="0.1" d="M97.7885 54.0259C101.524 42.7806 107.82 31.6021 115.41 22.4912C119.852 47.3961 143.383 69.7799 167.461 79.0509C159.31 86.3876 148.305 92.9907 133.418 97.6462C133.418 97.6462 132.191 151.378 145.811 174.895C145.811 174.895 135.926 174.482 119.612 168.559C119.612 168.559 113.823 141.467 113.089 126.046C113.089 126.046 113.422 156.634 115.81 167.145C115.81 167.145 104.805 166.492 97.9486 160.289C91.0921 154.086 90.8786 74.8089 97.7885 54.0259Z" fill="black"/>
<path d="M219.244 87.0945C219.244 87.0945 219.057 86.681 218.644 86.0274C218.23 85.3737 217.59 84.4666 216.683 83.4929C215.789 82.5057 214.629 81.4519 213.161 80.5315C212.414 80.078 211.627 79.6511 210.707 79.3309C209.8 79.0108 208.813 78.7707 207.719 78.7573C206.638 78.7573 205.491 79.0108 204.504 79.5444C203.517 80.0779 202.77 80.8783 202.21 81.6653C201.943 82.0655 201.729 82.4791 201.529 82.8792C201.369 83.2794 201.222 83.6796 201.076 84.0665C200.862 84.8402 200.702 85.5872 200.649 86.2541C200.542 86.9211 200.555 87.5481 200.555 88.0817C200.542 88.6152 200.595 89.0955 200.649 89.4823C200.742 90.256 200.836 90.6829 200.836 90.6829C200.836 90.6829 201.036 90.2827 201.329 89.5757C201.609 88.882 202.036 87.8816 202.556 86.7877C202.796 86.2275 203.143 85.6806 203.45 85.0936C203.624 84.8268 203.81 84.56 203.997 84.2799C204.21 84.0398 204.397 83.773 204.611 83.5462C205.051 83.106 205.518 82.7458 206.025 82.5191C206.532 82.319 207.078 82.1989 207.705 82.1989C208.946 82.1989 210.4 82.6658 211.734 83.2261C213.081 83.7997 214.349 84.4667 215.456 85.0536C216.576 85.6672 217.51 86.1741 218.164 86.5343C218.844 86.8945 219.231 87.1079 219.231 87.1079L219.244 87.0945Z" fill="#05111B"/>
<path d="M173.57 94.6847C173.57 94.6847 173.384 94.2712 172.97 93.6176C172.556 92.9639 171.916 92.0568 171.009 91.0831C170.115 90.0959 168.955 89.0421 167.487 88.1217C166.74 87.6681 165.953 87.2413 165.033 86.9211C164.126 86.601 163.139 86.3609 162.045 86.3475C160.964 86.3475 159.817 86.601 158.83 87.1346C157.843 87.6681 157.096 88.4685 156.536 89.2555C156.269 89.6557 156.055 90.0693 155.855 90.4694C155.695 90.8696 155.549 91.2698 155.402 91.6567C155.188 92.4304 155.028 93.1774 154.975 93.8443C154.868 94.5113 154.882 95.1383 154.882 95.6719C154.868 96.2054 154.922 96.6857 154.975 97.0725C155.068 97.8462 155.162 98.2731 155.162 98.2731C155.162 98.2731 155.362 97.8729 155.655 97.1659C155.935 96.4722 156.362 95.4718 156.883 94.3779C157.123 93.8177 157.469 93.2708 157.776 92.6838C157.95 92.417 158.136 92.1502 158.323 91.8701C158.537 91.63 158.723 91.3632 158.937 91.1364C159.377 90.6962 159.844 90.336 160.351 90.1093C160.858 89.9092 161.405 89.7891 162.032 89.7891C163.272 89.7891 164.726 90.256 166.06 90.8163C167.407 91.3899 168.675 92.0568 169.782 92.6438C170.902 93.2574 171.836 93.7643 172.49 94.1245C173.17 94.4846 173.557 94.6981 173.557 94.6981L173.57 94.6847Z" fill="#05111B"/>
<path d="M195.14 91.8168C195.34 92.6038 195.607 93.3375 195.954 94.0578C196.3 94.7782 196.634 95.5118 197.021 96.2188C197.208 96.579 197.434 96.8858 197.634 97.2326L198.288 98.2198C198.742 98.8734 199.195 99.5137 199.675 100.154L200.396 101.101C200.636 101.421 200.916 101.688 201.183 101.981C201.73 102.542 202.277 103.115 202.837 103.662C203.944 104.783 205.105 105.85 206.278 106.89L206.158 104.543C204.944 105.983 203.771 107.464 202.677 109.025C202.143 109.812 201.596 110.586 201.089 111.413C200.569 112.226 200.102 113.067 199.662 113.947C200.502 113.44 201.316 112.907 202.076 112.333C202.863 111.773 203.597 111.172 204.344 110.572C205.812 109.372 207.212 108.091 208.559 106.77L209.653 105.69L208.439 104.423C207.399 103.329 206.332 102.248 205.225 101.221C204.678 100.701 204.104 100.194 203.544 99.6871C203.264 99.4337 202.957 99.2069 202.703 98.9267L201.903 98.1264C201.369 97.5928 200.823 97.0726 200.262 96.5523L199.409 95.7786C199.128 95.5252 198.808 95.2851 198.541 95.0183C198.021 94.4714 197.448 93.9644 196.887 93.4309C196.287 92.924 195.714 92.3637 195.127 91.8301L195.14 91.8168Z" fill="#99665E"/>
<path d="M166.513 124.899L209.6 121.097C209.6 121.097 193.406 143.161 166.513 124.899Z" fill="white"/>
<path d="M248.005 349.176C248.005 349.176 292.719 391.116 295.08 437.698C297.428 484.293 259.784 576.309 259.784 576.309L137.407 577.469C137.407 577.469 56.7959 440.019 145.637 352.658C145.637 352.658 97.3881 218.702 123.28 201.228C149.172 183.753 251.54 175.602 255.075 212.873C258.61 250.144 248.018 349.15 248.018 349.15L248.005 349.176Z" fill="#F4ACA8"/>
<path d="M212.108 486.627C216.55 459.041 217.711 453.518 217.804 425.625C220.992 425.065 224.194 424.558 227.409 424.131C248.445 421.33 269.161 416.821 289.851 412.219C292.706 420.383 294.627 428.96 295.08 437.711C297.428 484.306 259.784 576.322 259.784 576.322L202.13 576.989C209.774 537.891 208.413 509.785 212.135 486.64L212.108 486.627Z" fill="#DD9F9E"/>
<path d="M249.178 341.026C249.178 341.026 326.841 400.427 291.545 501.767C291.545 501.767 251.54 514.587 213.882 513.413C213.882 513.413 166.807 518.068 104.444 500.594C104.444 500.594 71.4958 410.899 145.624 352.658L249.178 341.013V341.026Z" fill="#58694B"/>
<path opacity="0.1" d="M207.479 465.631C241.028 454.892 274.23 437.351 294.36 408.591C302.27 433.522 304.404 464.857 291.545 501.767C291.545 501.767 251.54 514.587 213.882 513.413C213.882 513.413 210.681 513.733 204.851 513.893C207.96 498.232 207.933 478.237 207.493 465.631H207.479Z" fill="#05111B"/>
<path d="M298.602 481.972C298.602 481.972 248.592 497.699 208.586 502.354L209.173 519.242C209.173 519.242 266.827 519.242 296.254 505.262L298.602 481.972Z" fill="#728761"/>
<path opacity="0.1" d="M298.602 481.972C298.602 481.972 248.592 497.699 208.586 502.354L209.173 519.242C209.173 519.242 266.827 519.242 296.254 505.262L298.602 481.972Z" fill="#05111B"/>
<path d="M100.91 490.709L106.792 514.587C106.792 514.587 169.155 526.232 209.173 519.242V500.02C209.173 500.02 141.515 502.928 100.91 490.696V490.709Z" fill="#728761"/>
<path d="M287.023 378.67C287.023 378.67 212.468 418.609 108.606 396.425C108.606 396.425 60.6774 230.441 104.164 190.489C104.164 190.489 110.38 183.393 141.448 177.176C141.448 177.176 164.526 210.912 216.897 174.509C216.897 174.509 257.729 172.734 272.816 199.36C287.903 225.986 287.023 378.657 287.023 378.657V378.67Z" fill="#93664C"/>
<path opacity="0.1" d="M271.629 197.439C272.043 198.066 272.443 198.706 272.83 199.373C287.917 225.999 287.036 378.67 287.036 378.67C287.036 378.67 212.482 418.609 108.62 396.425C108.62 396.425 78.3659 291.643 87.7436 228.547L271.629 197.439Z" fill="black"/>
<path d="M360.147 180.821L407 406.271L36.8527 483.194L-10 257.744L360.147 180.821Z" fill="#93664C"/>
<path d="M387.603 308.024C387.603 308.024 396.954 299.033 396.167 292.417C395.38 285.8 393.552 265.818 388.123 262.83C382.694 259.855 340.021 252.331 371.742 265.324C371.742 265.324 341.875 262.63 373.663 273.888C373.663 273.888 339.967 271.727 375.957 281.772C375.957 281.772 348.585 281.772 382.694 291.216L387.59 308.037L387.603 308.024Z" fill="#F4ACA8"/>
<path d="M8.28012 417.928C6.83945 411.432 0.956696 398.546 5.09195 393.944C9.22721 389.342 47.0048 368.119 21.3662 390.876C21.3662 390.876 48.6589 378.443 22.38 399.587C22.38 399.587 53.4611 386.394 22.8202 407.79C22.8202 407.79 48.6456 398.72 19.5787 418.929C19.5787 418.929 9.70744 424.425 8.26677 417.928H8.28012Z" fill="#F4ACA8"/>
<path d="M223.728 64.3239C223.728 64.3239 223.514 63.8037 222.954 63.0033C222.42 62.1896 221.526 61.1091 220.273 59.9886C219.632 59.455 218.925 58.8547 218.098 58.3612C217.298 57.8142 216.364 57.3474 215.377 56.9071C214.897 56.6537 214.35 56.5203 213.816 56.3469C213.269 56.1868 212.736 55.9867 212.162 55.8933C211.015 55.7066 209.841 55.4932 208.627 55.5598C208.027 55.5865 207.427 55.5865 206.826 55.6532C206.239 55.7466 205.652 55.8933 205.066 56.0134L204.198 56.2002C203.918 56.2802 203.652 56.4136 203.385 56.5203C202.851 56.7471 202.331 56.9605 201.824 57.2006C201.304 57.4141 200.85 57.7075 200.423 58.0277C199.996 58.3345 199.57 58.6279 199.169 58.9348C198.329 59.4817 197.782 60.2687 197.195 60.869C196.648 61.5226 196.128 62.0695 195.808 62.6965C195.461 63.2834 195.194 63.8304 194.981 64.2572C194.554 65.1243 194.367 65.6445 194.367 65.6445C194.367 65.6445 194.914 65.4178 195.755 64.9909C196.168 64.7775 196.675 64.524 197.222 64.2039C197.742 63.857 198.422 63.6303 199.089 63.3101C199.423 63.1501 199.77 62.99 200.117 62.8166C200.45 62.6298 200.824 62.4831 201.224 62.3764C201.611 62.2563 201.997 62.1096 202.384 61.9628C202.771 61.8294 203.158 61.6427 203.585 61.5893C204.425 61.4559 205.212 61.1091 206.093 61.0824C206.52 61.0291 206.946 60.989 207.373 60.909C207.8 60.869 208.24 60.909 208.681 60.8823C209.548 60.789 210.441 60.9624 211.322 60.9757C212.189 61.1091 213.083 61.2025 213.936 61.3892C214.79 61.576 215.644 61.7361 216.431 61.9762C217.245 62.1629 218.005 62.4297 218.725 62.6298C220.153 63.0967 221.406 63.4969 222.3 63.817C223.207 64.1372 223.728 64.3106 223.728 64.3106V64.3239Z" fill="#FFA90D"/>
<path d="M173.197 70.2334C173.197 70.2334 172.93 69.7265 172.303 68.9928C171.689 68.2324 170.702 67.2453 169.355 66.2449C168.661 65.778 167.914 65.2444 167.034 64.8309C166.18 64.364 165.206 63.9905 164.179 63.657C163.672 63.4569 163.125 63.3635 162.578 63.2435C162.018 63.1367 161.471 62.9767 160.884 62.95C159.724 62.8833 158.537 62.7632 157.336 62.95C156.736 63.03 156.135 63.0834 155.549 63.2168C154.962 63.3769 154.401 63.5636 153.828 63.7504L152.987 64.0305C152.721 64.1372 152.467 64.2973 152.214 64.4307C151.707 64.7108 151.2 64.9776 150.72 65.2577C150.226 65.5112 149.799 65.858 149.399 66.2182C148.999 66.565 148.599 66.8985 148.238 67.232C147.465 67.8589 146.985 68.686 146.464 69.353C145.984 70.06 145.517 70.6602 145.264 71.3139C144.984 71.9408 144.77 72.5011 144.597 72.9546C144.25 73.8617 144.117 74.3953 144.117 74.3953C144.117 74.3953 144.637 74.1152 145.424 73.6083C145.824 73.3548 146.304 73.048 146.798 72.6879C147.278 72.2877 147.932 71.9942 148.572 71.6207C148.892 71.4339 149.212 71.2338 149.546 71.0337C149.866 70.807 150.226 70.6336 150.6 70.4868C150.973 70.3268 151.347 70.14 151.72 69.9666C152.094 69.7932 152.454 69.5664 152.881 69.473C153.694 69.2596 154.455 68.8327 155.322 68.726C155.749 68.6326 156.162 68.5526 156.576 68.4325C157.003 68.3525 157.443 68.3392 157.883 68.2858C158.737 68.0991 159.644 68.1924 160.511 68.1257C161.391 68.1791 162.285 68.1791 163.152 68.2858C164.019 68.3925 164.886 68.4726 165.7 68.6326C166.527 68.7394 167.301 68.9394 168.048 69.0595C169.515 69.3797 170.809 69.6731 171.716 69.8999C172.65 70.1267 173.183 70.2601 173.183 70.2601L173.197 70.2334Z" fill="#E6980C"/>
</g>
<path d="M54.5107 364.878L53.9712 360.504L50.8127 363.612L48.8174 361.261L52.3544 358.625L48.0982 357.465L49.0951 354.546L53.1716 356.284L52.0739 352.016L55.0773 351.447L55.6056 355.823L58.7641 352.715L60.7594 355.066L57.2335 357.7L61.4786 358.862L60.4817 361.781L56.4052 360.043L57.5141 364.309L54.5107 364.878ZM72.2575 361.516L71.718 357.142L68.5596 360.25L66.5642 357.899L70.1012 355.262L65.845 354.103L66.842 351.184L70.9184 352.922L69.8207 348.654L72.8241 348.085L73.3524 352.461L76.5109 349.352L78.5062 351.704L74.9804 354.338L79.2254 355.5L78.2285 358.418L74.152 356.681L75.2609 360.947L72.2575 361.516ZM93.5827 344.152L102.401 360.478L102.613 360.437L104.859 342.015L110.219 341L106.668 365.359L100.438 366.54L88.2123 345.169L93.5827 344.152ZM123.091 362.595C121.357 362.924 119.787 362.839 118.382 362.342C116.983 361.836 115.816 360.986 114.88 359.79C113.943 358.588 113.308 357.108 112.975 355.351C112.639 353.58 112.689 351.967 113.122 350.512C113.555 349.05 114.33 347.831 115.448 346.856C116.573 345.872 118.002 345.216 119.736 344.887C121.471 344.559 123.037 344.647 124.436 345.153C125.841 345.651 127.012 346.501 127.949 347.703C128.885 348.898 129.521 350.382 129.857 352.153C130.189 353.91 130.14 355.519 129.707 356.981C129.273 358.436 128.494 359.655 127.37 360.639C126.252 361.615 124.825 362.266 123.091 362.595ZM122.415 358.906C123.204 358.757 123.821 358.409 124.265 357.862C124.707 357.308 124.988 356.615 125.108 355.782C125.236 354.949 125.205 354.033 125.016 353.036C124.827 352.038 124.521 351.175 124.097 350.445C123.681 349.715 123.166 349.172 122.551 348.818C121.937 348.464 121.235 348.362 120.446 348.512C119.65 348.663 119.023 349.017 118.565 349.574C118.116 350.129 117.827 350.824 117.7 351.657C117.58 352.49 117.614 353.405 117.803 354.402C117.992 355.399 118.295 356.264 118.711 356.994C119.134 357.724 119.657 358.265 120.279 358.617C120.907 358.961 121.619 359.057 122.415 358.906ZM140.434 341.197L141.111 344.77L130.783 346.727L130.106 343.154L140.434 341.197ZM131.673 338.601L136.429 337.7L139.458 353.688C139.541 354.127 139.673 354.457 139.853 354.677C140.033 354.89 140.25 355.022 140.507 355.074C140.771 355.124 141.063 355.119 141.383 355.058C141.606 355.016 141.826 354.955 142.042 354.876C142.257 354.789 142.422 354.723 142.537 354.678L143.955 358.075C143.731 358.195 143.413 358.344 142.999 358.523C142.587 358.709 142.074 358.871 141.461 359.011C140.323 359.273 139.289 359.31 138.36 359.124C137.437 358.936 136.668 358.519 136.052 357.873C135.436 357.226 135.026 356.34 134.82 355.215L131.673 338.601ZM146.781 357.76L143.532 340.61L148.143 339.737L148.71 342.729L148.889 342.695C149 341.572 149.372 340.668 150.006 339.985C150.639 339.295 151.435 338.859 152.395 338.677C152.634 338.632 152.893 338.598 153.174 338.575C153.455 338.553 153.705 338.548 153.923 338.561L154.723 342.781C154.487 342.757 154.167 342.755 153.762 342.778C153.358 342.801 152.992 342.843 152.664 342.905C151.965 343.038 151.368 343.309 150.875 343.718C150.388 344.119 150.036 344.618 149.817 345.214C149.606 345.809 149.567 346.457 149.699 347.156L151.538 356.859L146.781 357.76ZM166.727 354.328C164.963 354.662 163.377 354.593 161.968 354.119C160.566 353.637 159.398 352.802 158.464 351.614C157.528 350.419 156.889 348.917 156.546 347.108C156.212 345.344 156.261 343.731 156.693 342.269C157.126 340.807 157.893 339.586 158.995 338.606C160.104 337.625 161.5 336.975 163.182 336.656C164.314 336.442 165.401 336.425 166.446 336.605C167.496 336.776 168.454 337.153 169.32 337.737C170.194 338.32 170.939 339.119 171.556 340.136C172.171 341.145 172.617 342.379 172.893 343.838L173.141 345.144L158.66 347.888L158.101 344.94L168.105 343.045C167.975 342.36 167.712 341.782 167.314 341.309C166.916 340.837 166.425 340.503 165.84 340.305C165.261 340.098 164.625 340.061 163.933 340.192C163.211 340.329 162.603 340.618 162.108 341.058C161.619 341.49 161.271 342.015 161.064 342.632C160.856 343.242 160.812 343.887 160.933 344.565L161.464 347.368C161.625 348.216 161.92 348.92 162.35 349.479C162.787 350.036 163.328 350.427 163.972 350.652C164.616 350.877 165.336 350.914 166.132 350.763C166.661 350.663 167.131 350.497 167.542 350.264C167.952 350.032 168.286 349.738 168.542 349.381C168.798 349.024 168.968 348.614 169.05 348.151L173.504 347.608C173.48 348.708 173.198 349.717 172.655 350.637C172.118 351.549 171.348 352.327 170.344 352.972C169.347 353.608 168.141 354.06 166.727 354.328ZM202.365 331.835L197.474 332.762C197.265 332.146 196.976 331.619 196.608 331.18C196.238 330.733 195.804 330.376 195.306 330.108C194.808 329.84 194.258 329.666 193.658 329.587C193.064 329.507 192.44 329.529 191.785 329.653C190.601 329.877 189.626 330.366 188.859 331.121C188.091 331.868 187.571 332.845 187.298 334.054C187.025 335.254 187.038 336.647 187.338 338.233C187.647 339.863 188.148 341.187 188.842 342.204C189.544 343.22 190.387 343.928 191.373 344.327C192.358 344.726 193.428 344.817 194.581 344.598C195.229 344.475 195.812 344.276 196.33 344.001C196.856 343.724 197.304 343.381 197.674 342.971C198.042 342.555 198.322 342.081 198.515 341.551C198.715 341.02 198.813 340.438 198.809 339.807L203.704 338.903C203.776 339.976 203.651 341.049 203.33 342.119C203.014 343.182 202.505 344.176 201.802 345.104C201.105 346.022 200.214 346.816 199.13 347.484C198.052 348.143 196.78 348.611 195.313 348.889C193.274 349.275 191.363 349.159 189.58 348.541C187.805 347.921 186.287 346.825 185.025 345.252C183.77 343.678 182.908 341.648 182.437 339.161C181.964 336.668 182.031 334.458 182.638 332.531C183.244 330.604 184.265 329.03 185.699 327.81C187.132 326.583 188.853 325.779 190.863 325.398C192.188 325.147 193.451 325.1 194.653 325.258C195.863 325.414 196.974 325.767 197.988 326.315C199 326.856 199.879 327.587 200.624 328.51C201.377 329.432 201.957 330.54 202.365 331.835ZM213.509 345.453C212.415 345.661 211.404 345.656 210.476 345.438C209.547 345.213 208.761 344.772 208.12 344.115C207.485 343.449 207.06 342.55 206.846 341.419C206.666 340.466 206.689 339.633 206.916 338.919C207.143 338.205 207.521 337.594 208.049 337.085C208.577 336.576 209.206 336.149 209.934 335.802C210.67 335.455 211.455 335.16 212.288 334.917C213.265 334.624 214.051 334.375 214.644 334.17C215.236 333.957 215.653 333.732 215.893 333.494C216.133 333.256 216.218 332.954 216.149 332.589L216.137 332.522C216.003 331.815 215.676 331.311 215.156 331.008C214.643 330.704 213.981 330.629 213.17 330.783C212.314 330.945 211.669 331.264 211.235 331.739C210.799 332.207 210.553 332.74 210.496 333.337L206.03 333.813C206.056 332.728 206.324 331.744 206.835 330.861C207.345 329.97 208.078 329.222 209.035 328.617C209.999 328.003 211.165 327.566 212.534 327.306C213.487 327.126 214.42 327.065 215.333 327.123C216.254 327.18 217.097 327.379 217.864 327.719C218.637 328.058 219.291 328.559 219.825 329.221C220.358 329.876 220.721 330.713 220.914 331.733L223.105 343.3L218.595 344.155L218.144 341.776L218.01 341.802C217.836 342.39 217.557 342.932 217.174 343.429C216.788 343.918 216.294 344.34 215.69 344.693C215.084 345.039 214.358 345.293 213.509 345.453ZM214.249 341.913C214.949 341.78 215.541 341.526 216.024 341.149C216.507 340.764 216.855 340.305 217.07 339.771C217.285 339.237 217.336 338.668 217.221 338.065L216.877 336.245C216.746 336.37 216.558 336.498 216.313 336.629C216.074 336.752 215.801 336.877 215.494 337.005C215.185 337.125 214.875 337.241 214.565 337.354C214.254 337.459 213.971 337.555 213.718 337.642C213.175 337.829 212.712 338.052 212.329 338.31C211.946 338.567 211.668 338.87 211.495 339.219C211.321 339.561 211.276 339.955 211.361 340.401C211.483 341.049 211.812 341.5 212.345 341.753C212.885 341.998 213.52 342.051 214.249 341.913ZM233.168 341.683C231.865 341.93 230.622 341.818 229.438 341.348C228.26 340.87 227.238 340.034 226.372 338.841C225.512 337.639 224.901 336.082 224.539 334.169C224.166 332.204 224.173 330.51 224.559 329.088C224.944 327.658 225.599 326.52 226.526 325.673C227.459 324.818 228.554 324.271 229.812 324.033C230.773 323.851 231.604 323.863 232.306 324.069C233.014 324.267 233.611 324.57 234.097 324.979C234.59 325.379 234.984 325.79 235.28 326.212L235.425 326.185L233.796 317.588L238.541 316.689L242.873 339.555L238.184 340.443L237.663 337.697L237.462 337.735C237.329 338.253 237.103 338.786 236.782 339.333C236.468 339.87 236.015 340.353 235.426 340.781C234.843 341.207 234.091 341.508 233.168 341.683ZM233.958 337.612C234.725 337.467 235.333 337.136 235.782 336.619C236.238 336.093 236.535 335.424 236.674 334.611C236.821 333.797 236.797 332.88 236.604 331.86C236.411 330.84 236.102 329.981 235.676 329.283C235.251 328.585 234.732 328.082 234.118 327.774C233.505 327.466 232.815 327.385 232.048 327.53C231.266 327.678 230.648 328.015 230.192 328.541C229.737 329.067 229.442 329.732 229.309 330.536C229.176 331.34 229.204 332.237 229.391 333.227C229.58 334.224 229.885 335.08 230.306 335.794C230.732 336.5 231.251 337.019 231.861 337.35C232.477 337.673 233.176 337.76 233.958 337.612ZM254.663 337.668C252.899 338.002 251.312 337.933 249.904 337.459C248.502 336.977 247.334 336.142 246.399 334.954C245.464 333.759 244.824 332.257 244.482 330.449C244.148 328.684 244.197 327.071 244.629 325.609C245.061 324.147 245.829 322.926 246.931 321.946C248.04 320.965 249.436 320.315 251.118 319.996C252.249 319.782 253.337 319.765 254.381 319.945C255.432 320.116 256.39 320.494 257.256 321.077C258.13 321.66 258.875 322.459 259.492 323.476C260.107 324.485 260.553 325.719 260.829 327.178L261.077 328.484L246.596 331.228L246.037 328.28L256.041 326.385C255.911 325.7 255.647 325.122 255.25 324.65C254.852 324.178 254.36 323.843 253.775 323.645C253.197 323.439 252.561 323.401 251.869 323.532C251.147 323.669 250.538 323.958 250.044 324.398C249.555 324.83 249.207 325.355 249 325.972C248.792 326.582 248.748 327.227 248.869 327.906L249.4 330.708C249.561 331.557 249.856 332.26 250.286 332.819C250.723 333.376 251.263 333.767 251.907 333.992C252.551 334.217 253.272 334.254 254.068 334.103C254.597 334.003 255.066 333.837 255.477 333.605C255.888 333.373 256.222 333.078 256.478 332.721C256.734 332.364 256.903 331.954 256.985 331.492L261.439 330.948C261.416 332.048 261.133 333.057 260.591 333.978C260.054 334.889 259.284 335.667 258.28 336.312C257.283 336.948 256.077 337.4 254.663 337.668ZM270.526 334.651C269.432 334.859 268.421 334.854 267.493 334.636C266.564 334.411 265.778 333.97 265.137 333.313C264.502 332.647 264.077 331.748 263.863 330.617C263.683 329.664 263.706 328.83 263.933 328.117C264.16 327.403 264.538 326.791 265.066 326.283C265.594 325.774 266.223 325.347 266.951 325C267.687 324.653 268.472 324.358 269.305 324.115C270.282 323.822 271.068 323.573 271.661 323.368C272.253 323.155 272.67 322.93 272.91 322.692C273.15 322.454 273.235 322.152 273.166 321.787L273.154 321.72C273.02 321.013 272.693 320.508 272.173 320.206C271.66 319.902 270.998 319.827 270.187 319.981C269.331 320.143 268.686 320.462 268.252 320.937C267.816 321.405 267.57 321.938 267.513 322.534L263.047 323.011C263.073 321.926 263.341 320.942 263.852 320.059C264.362 319.168 265.095 318.42 266.052 317.815C267.016 317.201 268.182 316.764 269.551 316.504C270.504 316.324 271.437 316.263 272.35 316.321C273.271 316.378 274.114 316.577 274.881 316.917C275.654 317.256 276.308 317.757 276.842 318.419C277.375 319.074 277.738 319.911 277.931 320.931L280.122 332.498L275.612 333.352L275.161 330.974L275.027 331C274.853 331.588 274.574 332.13 274.191 332.627C273.805 333.116 273.311 333.538 272.707 333.891C272.101 334.237 271.375 334.491 270.526 334.651ZM271.266 331.111C271.966 330.978 272.558 330.723 273.041 330.346C273.524 329.962 273.872 329.503 274.087 328.969C274.302 328.434 274.353 327.866 274.238 327.263L273.894 325.443C273.763 325.568 273.575 325.696 273.33 325.827C273.091 325.95 272.818 326.075 272.511 326.202C272.202 326.323 271.892 326.439 271.582 326.552C271.271 326.657 270.988 326.753 270.735 326.84C270.192 327.027 269.729 327.25 269.346 327.507C268.963 327.765 268.685 328.068 268.512 328.417C268.338 328.759 268.293 329.153 268.378 329.599C268.5 330.247 268.829 330.697 269.362 330.951C269.902 331.196 270.537 331.249 271.266 331.111ZM293.427 322.413L291.561 312.566L296.317 311.665L299.566 328.814L295 329.679L294.41 326.564L294.231 326.598C294.034 327.676 293.544 328.606 292.759 329.387C291.981 330.166 290.948 330.678 289.661 330.922C288.514 331.139 287.456 331.07 286.487 330.714C285.517 330.358 284.696 329.746 284.023 328.879C283.357 328.01 282.893 326.907 282.632 325.569L280.563 314.649L285.32 313.748L287.228 323.819C287.427 324.83 287.85 325.579 288.498 326.065C289.145 326.552 289.919 326.709 290.819 326.539C291.393 326.43 291.904 326.198 292.353 325.843C292.801 325.481 293.128 325.01 293.335 324.432C293.549 323.851 293.579 323.179 293.427 322.413ZM314.234 315.672L313.695 311.298L310.536 314.407L308.541 312.055L312.078 309.419L307.822 308.259L308.819 305.341L312.895 307.078L311.798 302.81L314.801 302.241L315.329 306.617L318.488 303.509L320.483 305.86L316.957 308.494L321.202 309.656L320.205 312.575L316.129 310.837L317.238 315.103L314.234 315.672ZM331.981 312.31L331.442 307.936L328.283 311.044L326.288 308.693L329.825 306.057L325.569 304.897L326.566 301.978L330.642 303.716L329.544 299.448L332.548 298.879L333.076 303.255L336.235 300.147L338.23 302.498L334.704 305.132L338.949 306.294L337.952 309.213L333.876 307.475L334.985 311.741L331.981 312.31Z" fill="#C19663"/>
<defs>
<filter id="filter0_d_139_175" x="-10" y="0" width="423" height="580.469" filterUnits="userSpaceOnUse" color-interpolation-filters="sRGB">
<feFlood flood-opacity="0" result="BackgroundImageFix"/>
<feColorMatrix in="SourceAlpha" type="matrix" values="0 0 0 0 0 0 0 0 0 0 0 0 0 0 0 0 0 0 127 0" result="hardAlpha"/>
<feOffset dx="6" dy="3"/>
<feColorMatrix type="matrix" values="0 0 0 0 0 0 0 0 0 0 0 0 0 0 0 0 0 0 0.14 0"/>
<feBlend mode="normal" in2="BackgroundImageFix" result="effect1_dropShadow_139_175"/>
<feBlend mode="normal" in="SourceGraphic" in2="effect1_dropShadow_139_175" result="shape"/>
</filter>
</defs>
</svg>
