<svg width="553" height="704" viewBox="0 0 553 704" fill="none" xmlns="http://www.w3.org/2000/svg">
<path d="M542.914 115.807H10.0665C4.99808 115.807 0.853027 111.662 0.853027 106.593C0.853027 101.525 4.99808 97.3798 10.0665 97.3798H542.933C548.002 97.3798 552.147 101.525 552.147 106.593C552.147 111.662 548.002 115.807 542.933 115.807H542.914Z" fill="#58694B"/>
<path d="M40.7915 0.0198559C40.7915 0.0198559 12.0903 -0.824874 12.0903 106.593H40.7915V0.0198559Z" fill="#CCCBCA"/>
<path d="M512.169 0.0198559C512.169 0.0198559 540.87 -0.824874 540.87 106.593H512.169V0.0198559Z" fill="#CCCBCA"/>
<g style="mix-blend-mode:multiply" opacity="0.1">
<path d="M524.447 9.54762C518.023 -0.176585 512.169 0.000217666 512.169 0.000217666V106.574H526.922C517.925 106.574 512.169 9.54762 524.447 9.54762Z" fill="black"/>
</g>
<g style="mix-blend-mode:multiply" opacity="0.1">
<path d="M28.5128 9.54762C34.9367 -0.176585 40.7909 0.000217666 40.7909 0.000217666V106.574H26.0376C35.0349 106.574 40.7909 9.54762 28.5128 9.54762Z" fill="black"/>
</g>
<path d="M524.447 9.54762C512.955 -3.12331 512.169 35.6556 512.169 35.6556V0.000217666C512.169 0.000217666 518.023 -0.176585 524.447 9.54762Z" fill="#FFFDFC"/>
<path d="M42.6774 701.125L50.6335 693.542C53.2463 691.047 57.3717 691.047 59.9845 693.542L65.3672 698.67C67.9799 701.164 72.1054 701.164 74.7181 698.67L80.1008 693.542C82.7136 691.047 86.839 691.047 89.4518 693.542L94.8345 698.67C97.4472 701.164 101.573 701.164 104.185 698.67L109.568 693.542C112.181 691.047 116.306 691.047 118.919 693.542L124.302 698.67C126.915 701.164 131.04 701.164 133.653 698.67L139.035 693.542C141.648 691.047 145.774 691.047 148.386 693.542L153.769 698.67C156.382 701.164 160.507 701.164 163.12 698.67L168.503 693.542C171.115 691.047 175.241 691.047 177.854 693.542L183.236 698.67C185.849 701.164 189.974 701.164 192.587 698.67L197.97 693.542C200.583 691.047 204.708 691.047 207.321 693.542L212.704 698.67C215.316 701.164 219.442 701.164 222.055 698.67L227.437 693.542C230.05 691.047 234.175 691.047 236.788 693.542L242.171 698.67C244.784 701.164 248.909 701.164 251.522 698.67L256.905 693.542C259.517 691.047 263.643 691.047 266.255 693.542L271.638 698.67C274.251 701.164 278.376 701.164 280.989 698.67L286.372 693.542C288.985 691.047 293.11 691.047 295.723 693.542L301.105 698.67C303.718 701.164 307.844 701.164 310.456 698.67L315.839 693.542C318.452 691.047 322.577 691.047 325.19 693.542L330.573 698.67C333.185 701.164 337.311 701.164 339.924 698.67L345.306 693.542C347.919 691.047 352.045 691.047 354.657 693.542L360.04 698.67C362.653 701.164 366.778 701.164 369.391 698.67L374.774 693.542C377.386 691.047 381.512 691.047 384.125 693.542L389.507 698.67C392.12 701.164 396.245 701.164 398.858 698.67L404.241 693.542C406.854 691.047 410.979 691.047 413.592 693.542L418.975 698.67C421.587 701.164 425.713 701.164 428.326 698.67L433.708 693.542C436.321 691.047 440.446 691.047 443.059 693.542L448.442 698.67C451.055 701.164 455.18 701.164 457.793 698.67L463.175 693.542C465.788 691.047 469.914 691.047 472.526 693.542L477.909 698.67C480.522 701.164 484.647 701.164 487.26 698.67L492.643 693.542C495.256 691.047 499.381 691.047 501.994 693.542L509.95 701.125C510.578 701.734 511.089 702.461 511.443 703.247H511.836V0.0198975H40.4575V703.247H40.8504C41.204 702.461 41.6951 701.734 42.3434 701.125H42.6774Z" fill="#FFFDFC"/>
</svg>
