<svg width="500" height="501" viewBox="0 0 500 501" fill="none" xmlns="http://www.w3.org/2000/svg">
<g clip-path="url(#clip0_11_1275)">
<path fill-rule="evenodd" clip-rule="evenodd" d="M90.2499 423.394C88.7199 437.474 80.7799 423.994 84.8199 414.014C86.4999 409.874 88.7599 413.154 89.4699 415.664C90.1799 418.164 90.4799 420.814 90.2499 423.394ZM91.5799 430.174C94.7799 435.294 106.93 420.794 103.37 418.054C100.99 416.224 91.1199 424.034 91.5799 430.174ZM82.8299 430.164C82.9499 423.554 71.3799 415.124 70.3299 418.614C68.9799 423.074 80.3099 434.654 82.8299 430.164Z" fill="#8D9737"/>
<path fill-rule="evenodd" clip-rule="evenodd" d="M49.0799 357.984C47.8799 369.104 41.5999 358.464 44.7999 350.584C46.1199 347.324 47.9099 349.904 48.4699 351.884C49.0299 353.854 49.2699 355.944 49.0799 357.984ZM50.1299 363.334C52.6599 367.374 62.2499 355.934 59.4399 353.764C57.5599 352.314 49.7699 358.484 50.1299 363.334ZM43.2299 363.324C43.3199 358.114 34.1899 351.454 33.3599 354.204C32.2999 357.724 41.2299 366.864 43.2299 363.324Z" fill="#8D9737"/>
<path fill-rule="evenodd" clip-rule="evenodd" d="M455.63 365.514C454.43 376.634 448.15 365.994 451.35 358.114C452.67 354.854 454.46 357.444 455.02 359.414C455.58 361.384 455.82 363.474 455.63 365.514ZM456.67 370.864C459.2 374.904 468.79 363.464 465.98 361.294C464.1 359.844 456.31 366.014 456.67 370.864ZM449.77 370.854C449.86 365.644 440.73 358.984 439.9 361.734C438.84 365.254 447.77 374.394 449.77 370.854Z" fill="#8D9737"/>
<path fill-rule="evenodd" clip-rule="evenodd" d="M457.76 427.854C456.23 441.934 448.29 428.454 452.33 418.474C454.01 414.334 456.27 417.614 456.98 420.124C457.69 422.624 457.99 425.274 457.76 427.854ZM459.08 434.634C462.28 439.754 474.43 425.254 470.87 422.514C468.49 420.684 458.62 428.494 459.08 434.634ZM450.34 434.624C450.46 428.024 438.89 419.584 437.84 423.074C436.49 427.534 447.82 439.114 450.34 434.624Z" fill="#8D9737"/>
<path fill-rule="evenodd" clip-rule="evenodd" d="M375.88 412.634C374.68 423.754 368.4 413.114 371.6 405.234C372.92 401.974 374.71 404.564 375.27 406.534C375.83 408.504 376.07 410.594 375.88 412.634ZM376.92 417.984C379.45 422.024 389.04 410.584 386.23 408.414C384.35 406.964 376.56 413.134 376.92 417.984ZM370.02 417.974C370.11 412.764 360.98 406.104 360.15 408.854C359.09 412.374 368.02 421.514 370.02 417.974Z" fill="#8D9737"/>
<path fill-rule="evenodd" clip-rule="evenodd" d="M139.42 400.364C138.22 411.474 131.94 400.844 135.14 392.964C136.46 389.704 138.25 392.294 138.81 394.264C139.37 396.234 139.61 398.324 139.42 400.364ZM140.47 405.714C143 409.754 152.59 398.314 149.78 396.144C147.9 394.694 140.11 400.864 140.47 405.714ZM133.57 405.704C133.66 400.494 124.53 393.834 123.7 396.584C122.64 400.104 131.57 409.244 133.57 405.704Z" fill="#8D9737"/>
<path fill-rule="evenodd" clip-rule="evenodd" d="M46.8499 460.034C45.6499 471.154 39.37 460.514 42.57 452.634C43.8899 449.374 45.68 451.964 46.24 453.934C46.8 455.904 47.0399 457.994 46.8499 460.034ZM47.9 465.394C50.43 469.434 60.0199 457.994 57.2099 455.824C55.33 454.374 47.54 460.544 47.9 465.394ZM41 465.374C41.09 460.164 31.9599 453.504 31.1299 456.254C30.0699 459.774 39.01 468.914 41 465.374Z" fill="#8D9737"/>
<path fill-rule="evenodd" clip-rule="evenodd" d="M382.57 458.364C381.37 469.484 375.09 458.844 378.29 450.964C379.61 447.704 381.4 450.294 381.96 452.264C382.52 454.234 382.76 456.324 382.57 458.364ZM383.62 463.714C386.15 467.754 395.74 456.314 392.93 454.144C391.05 452.694 383.26 458.864 383.62 463.714ZM376.71 463.704C376.8 458.494 367.67 451.834 366.84 454.584C365.78 458.104 374.71 467.244 376.71 463.704Z" fill="#8D9737"/>
<path d="M246.53 401.114C335.023 401.114 406.76 379.319 406.76 352.434C406.76 325.549 335.023 303.754 246.53 303.754C158.037 303.754 86.3 325.549 86.3 352.434C86.3 379.319 158.037 401.114 246.53 401.114Z" fill="#596636"/>
<path fill-rule="evenodd" clip-rule="evenodd" d="M246.53 389.444C214.33 389.444 86.75 381.454 86.75 329.614C86.75 355.344 158.29 376.194 246.53 376.194C334.77 376.194 406.31 355.334 406.31 329.614C406.31 381.454 278.74 389.444 246.53 389.444Z" fill="#CDCCC2"/>
<path fill-rule="evenodd" clip-rule="evenodd" d="M246.53 283.034C334.77 283.034 406.31 303.894 406.31 329.614C406.31 355.334 334.77 376.194 246.53 376.194C158.29 376.194 86.75 355.334 86.75 329.614C86.75 303.894 158.29 283.034 246.53 283.034Z" fill="#ABABAB"/>
<path fill-rule="evenodd" clip-rule="evenodd" d="M87.17 329.804C87.17 329.354 87.54 328.984 87.99 328.984C88.44 328.984 88.81 329.354 88.81 329.804C88.81 342.154 106.33 353.444 134.65 361.694C163.26 370.034 202.81 375.194 246.52 375.194C290.23 375.194 329.78 370.034 358.39 361.694C386.71 353.434 404.23 342.154 404.23 329.804C404.23 329.354 404.6 328.984 405.05 328.984C405.5 328.984 405.87 329.354 405.87 329.804C405.87 342.974 387.9 354.804 358.84 363.274C330.08 371.664 290.36 376.844 246.51 376.844C202.66 376.844 162.95 371.654 134.18 363.274C105.12 354.804 87.15 342.974 87.15 329.804H87.17Z" fill="white"/>
<path fill-rule="evenodd" clip-rule="evenodd" d="M242.23 306.514C289.36 306.514 327.57 318.364 327.57 332.984C327.57 347.604 289.36 359.454 242.23 359.454C195.1 359.454 156.89 347.604 156.89 332.984C156.89 318.364 195.1 306.514 242.23 306.514Z" fill="#9D9D9D"/>
<path fill-rule="evenodd" clip-rule="evenodd" d="M242.06 180.904C304.35 180.904 354.84 192.544 354.84 206.894C354.84 221.244 304.34 232.894 242.06 232.894C179.78 232.894 129.28 221.254 129.28 206.894C129.28 192.534 179.78 180.904 242.06 180.904Z" fill="#DBDBDB"/>
<path fill-rule="evenodd" clip-rule="evenodd" d="M157.21 173.124C158.65 182.304 174.29 188.814 174.6 176.694C174.72 172.124 173.77 169.134 172.42 167.204C168.11 161.024 155.75 163.784 157.21 173.114V173.124Z" fill="#A07055"/>
<path fill-rule="evenodd" clip-rule="evenodd" d="M366.16 166.694C366.16 166.694 364.77 161.334 355.65 163.084C346.54 164.834 341.66 174.874 353.73 174.164C365.8 173.454 366.63 168.194 366.16 166.704V166.694Z" fill="#93664C"/>
<path fill-rule="evenodd" clip-rule="evenodd" d="M153.69 160.904C147.03 159.084 148.24 169.724 153.76 167.064C156.6 165.694 156.66 162.744 153.69 160.904Z" fill="#A07055"/>
<path fill-rule="evenodd" clip-rule="evenodd" d="M234.7 183.414C223.63 180.394 225.64 198.074 234.81 193.654C239.53 191.384 239.62 186.484 234.7 183.414Z" fill="#A07055"/>
<path fill-rule="evenodd" clip-rule="evenodd" d="M349.01 153.044C342.35 151.224 343.56 161.864 349.08 159.204C351.92 157.834 351.98 154.884 349.01 153.044Z" fill="#93664C"/>
<path fill-rule="evenodd" clip-rule="evenodd" d="M208.63 191.364C235.74 222.214 257.57 177.714 268.73 169.574C279.84 161.464 297.65 157.544 297.32 166.674C297.23 169.284 293.85 172.354 296.13 174.534C299.87 178.124 306 167.804 324.55 162.714C343.1 157.624 345.34 166.904 337.86 169.744C330.38 172.584 327.69 178.424 336.51 180.964C341.63 182.444 348.72 180.334 355.93 180.124C370.16 179.704 382.1 194.774 364.51 196.034C344.95 197.434 362.39 229.824 318.64 233.694C284.83 236.684 291.41 220.834 243.54 227.114C195.67 233.394 198.22 198.474 208.62 191.364H208.63Z" fill="#93664C"/>
<path fill-rule="evenodd" clip-rule="evenodd" d="M366.39 189.804C366.65 190.064 366.65 190.474 366.39 190.734C366.13 190.994 365.72 190.994 365.46 190.734C361.29 186.564 356.25 187.244 347.54 188.424C345.48 188.704 343.22 189.004 340.77 189.284C326.77 190.844 326.77 179.984 326.77 179.954C326.77 179.594 327.06 179.294 327.42 179.294C327.78 179.294 328.08 179.584 328.08 179.944C328.08 179.974 328.08 189.374 340.62 187.984C343.11 187.704 345.34 187.404 347.36 187.134C356.48 185.894 361.76 185.184 366.39 189.814V189.804Z" fill="#C19663"/>
<path fill-rule="evenodd" clip-rule="evenodd" d="M281.13 71.0338C286.26 90.0338 296.8 77.2538 294.64 70.6638C293.51 67.2338 289.54 60.3938 286.02 58.3038C282.61 56.2838 278.95 62.9538 281.13 71.0338Z" fill="#A07055"/>
<path fill-rule="evenodd" clip-rule="evenodd" d="M242.73 56.3438C242.73 56.3438 236.29 57.5638 237.03 64.0138C237.77 70.4638 248.78 73.5338 249.66 64.9238C250.54 56.3238 244.53 55.9438 242.73 56.3438Z" fill="#A07055"/>
<path fill-rule="evenodd" clip-rule="evenodd" d="M293.67 0.793823C277.17 10.7638 249.93 29.7738 246.42 39.9338C242.26 51.9538 250.97 53.3338 254.68 48.7738C255.33 47.9738 256.15 47.9438 256.01 49.2838C254.79 60.8938 255.85 75.3638 259.82 93.8638C274.42 161.914 275.07 180.564 245.11 209.134C225.12 228.184 270.13 223.224 287.31 204.464C296.29 194.654 304.98 173.884 286.24 118.994C266.26 60.4538 278.01 45.7538 311.56 7.27382C312.15 6.60382 316.71 3.05382 319.48 0.793823H293.68L293.67 0.793823Z" fill="#A07055"/>
<path fill-rule="evenodd" clip-rule="evenodd" d="M290.46 84.6638C282.23 85.0238 287.48 96.6738 292.78 91.6438C295.51 89.0538 294.5 85.6838 290.46 84.6638Z" fill="#A07055"/>
<path fill-rule="evenodd" clip-rule="evenodd" d="M306.86 2.46382C307.15 2.24382 307.56 2.29382 307.78 2.58382C308 2.87382 307.95 3.28382 307.66 3.50382C259.29 40.9938 270.03 80.7938 280.26 118.724C286.45 141.684 292.46 163.954 285.26 184.754C285.14 185.094 284.77 185.274 284.43 185.164C284.09 185.044 283.91 184.674 284.02 184.334C291.09 163.914 285.13 141.834 278.99 119.064C268.65 80.7338 257.79 40.4938 306.86 2.47382V2.46382Z" fill="#65422E"/>
<path fill-rule="evenodd" clip-rule="evenodd" d="M300.18 0.793823C292.17 7.83382 285.37 14.1038 279.92 20.1338C274.42 26.2038 270.29 32.0438 267.64 38.2038C257.74 61.2138 263.37 82.7538 269.44 105.954C274.06 123.634 278.93 142.264 277.45 163.284C275.79 186.824 265.79 195.494 265.76 195.524C265.49 195.764 265.07 195.744 264.83 195.474C264.59 195.204 264.61 194.784 264.88 194.544C264.91 194.524 274.51 186.194 276.13 163.204C277.6 142.384 272.75 123.864 268.16 106.294C262.04 82.8738 256.35 61.1138 266.43 37.6938C269.14 31.4038 273.35 25.4438 278.95 19.2638C284.19 13.4738 290.64 7.48382 298.2 0.803823H300.19L300.18 0.793823Z" fill="#65422E"/>
<path fill-rule="evenodd" clip-rule="evenodd" d="M229.41 208.214C220.51 198.884 196.46 169.714 178.95 186.814C172.9 192.724 175.12 202.464 171.83 204.254C161.43 209.894 153.85 185.264 140.23 171.264C127.9 158.594 102.73 160.034 118.48 185.664C124.27 195.074 130.43 202.394 134.13 213.904C141.54 236.914 166.86 268.634 230.6 272.224C272.68 274.594 315.24 248.954 305.05 231.344C293.67 211.674 279.66 195.414 272.03 204.994C255.8 225.354 237.32 216.504 229.41 208.224V208.214Z" fill="#C19663"/>
<path fill-rule="evenodd" clip-rule="evenodd" d="M119.32 187.014C124.85 195.794 130.6 202.944 134.13 213.894C141.54 236.904 166.86 268.624 230.6 272.214C272.68 274.584 315.24 248.944 305.05 231.334C301.32 224.894 297.32 218.824 293.34 213.904C289.37 213.924 285.65 215.464 283.56 218.094C267.33 238.454 237.31 235.374 229.4 227.084C220.5 217.754 196.45 192.784 178.94 209.874C172.89 215.784 175.11 225.524 171.82 227.314C161.42 232.954 153.84 208.324 140.22 194.324C134.23 188.164 125.2 185.344 119.32 187.004V187.014Z" fill="#A07055"/>
<path fill-rule="evenodd" clip-rule="evenodd" d="M216.66 219.674C216.66 219.674 249.11 236.714 270.07 206.664C291.03 176.624 329.14 178.644 315.67 201.084C302.21 223.524 339.46 194.664 346.21 213.094C352.96 231.524 295.05 256.174 245.68 258.874C196.31 261.564 153.68 244.644 216.66 219.684V219.674Z" fill="#C19663"/>
<path fill-rule="evenodd" clip-rule="evenodd" d="M123.8 171.424C123.44 171.454 123.12 171.194 123.09 170.834C123.06 170.474 123.32 170.154 123.68 170.124C127.5 169.774 131.02 171.394 134.82 175.234C138.51 178.964 142.47 184.824 147.25 193.064C151.95 201.174 155.66 205.694 158.87 208.064C161.97 210.344 164.59 210.584 167.22 210.114C167.58 210.054 167.92 210.294 167.98 210.654C168.04 211.014 167.8 211.354 167.44 211.414C164.49 211.934 161.55 211.674 158.09 209.124C154.74 206.654 150.91 202.004 146.11 193.724C141.39 185.584 137.49 179.804 133.88 176.164C130.38 172.624 127.19 171.134 123.8 171.434V171.424Z" fill="#93664C"/>
<path fill-rule="evenodd" clip-rule="evenodd" d="M189.88 186.334C189.52 186.304 189.25 185.984 189.28 185.624C189.31 185.264 189.63 184.994 189.99 185.024C194.35 185.384 199.46 188.234 204.65 192.264C211.48 197.564 218.48 204.914 224.02 211.304C228.26 216.184 232.87 219.244 237.29 220.954C242.75 223.064 247.91 223.134 251.7 222.084C252.05 221.984 252.41 222.194 252.51 222.544C252.61 222.894 252.4 223.254 252.05 223.354C248.03 224.474 242.57 224.414 236.82 222.184C232.22 220.404 227.42 217.234 223.03 212.174C217.53 205.834 210.6 198.544 203.85 193.314C198.84 189.434 193.96 186.694 189.88 186.354V186.334Z" fill="#93664C"/>
<path fill-rule="evenodd" clip-rule="evenodd" d="M314.47 193.304C314.51 193.664 314.26 193.994 313.89 194.034C313.53 194.074 313.2 193.824 313.16 193.454C313.1 192.984 312.91 192.584 312.6 192.244C312.04 191.624 311.09 191.184 309.86 190.944C308.56 190.694 306.97 190.664 305.2 190.884C300.16 191.494 293.76 194.034 288.52 198.774C284.34 202.554 281.42 205.594 279.15 207.954C275.78 211.464 273.82 213.494 271.24 214.324C270.9 214.434 270.53 214.244 270.41 213.904C270.3 213.554 270.49 213.184 270.83 213.074C273.1 212.344 274.97 210.404 278.2 207.044C280.47 204.684 283.4 201.634 287.63 197.804C293.09 192.864 299.77 190.214 305.03 189.574C306.93 189.344 308.66 189.374 310.1 189.654C311.6 189.944 312.8 190.524 313.56 191.364C314.05 191.904 314.36 192.554 314.45 193.294L314.47 193.304Z" fill="#93664C"/>
<path fill-rule="evenodd" clip-rule="evenodd" d="M216.66 219.674C216.66 219.674 220.01 221.434 225.24 222.824C226.85 224.424 228.25 225.894 229.4 227.094C237.31 235.384 267.32 238.464 283.56 218.104C290.61 209.264 316.08 212.624 307.81 245.634C289.33 252.584 266.73 257.724 245.68 258.874C196.31 261.564 153.68 244.644 216.66 219.684V219.674Z" fill="#A07055"/>
<path fill-rule="evenodd" clip-rule="evenodd" d="M216.68 219.654C216.68 219.654 220.03 221.404 225.26 222.794C226.06 223.594 226.82 224.364 227.51 225.084C228.21 225.804 228.84 226.474 229.42 227.074C229.77 227.434 230.15 227.794 230.58 228.134C234.91 231.584 243.26 233.854 252.53 233.364C261.8 232.874 271.97 229.624 279.94 222.024C281.2 220.824 282.4 219.514 283.54 218.084C285.53 215.584 288.98 214.064 292.73 213.894C295.3 213.784 298.01 214.304 300.48 215.604C302.95 216.894 305.19 218.954 306.81 221.904C309.6 226.974 310.57 234.674 307.83 245.644L307.82 245.664C298.34 249.224 287.78 252.314 276.9 254.634C266.56 256.834 255.94 258.344 245.68 258.904C224.58 260.054 204.71 257.624 193.79 252.514C189.83 250.664 187.04 248.454 185.79 245.934C184.55 243.414 184.85 240.584 187.07 237.484C190.83 232.244 200.09 226.234 216.65 219.664H216.66H216.67L216.68 219.654ZM225.24 222.844C220.16 221.494 216.87 219.804 216.67 219.704C200.13 226.264 190.88 232.264 187.12 237.504C184.91 240.584 184.61 243.394 185.85 245.904C187.09 248.414 189.87 250.614 193.82 252.464C204.74 257.574 224.6 260.004 245.69 258.854C255.94 258.294 266.56 256.784 276.9 254.584C287.77 252.264 298.33 249.184 307.8 245.614C310.54 234.664 309.57 226.984 306.79 221.924C305.17 218.984 302.94 216.934 300.48 215.644C298.02 214.354 295.32 213.834 292.75 213.944C289.01 214.104 285.57 215.624 283.59 218.114C282.45 219.544 281.24 220.854 279.98 222.064C272.01 229.674 261.82 232.934 252.54 233.424C243.26 233.914 234.89 231.634 230.56 228.184C230.13 227.844 229.74 227.484 229.39 227.124C228.81 226.524 228.18 225.854 227.48 225.134C226.79 224.414 226.04 223.654 225.23 222.854L225.24 222.844Z" fill="#A07055"/>
<path fill-rule="evenodd" clip-rule="evenodd" d="M259.06 200.884C249.75 198.344 251.44 213.214 259.16 209.504C263.13 207.594 263.21 203.474 259.06 200.884Z" fill="#C19663"/>
<path fill-rule="evenodd" clip-rule="evenodd" d="M315.44 314.444C310.46 314.684 306.23 310.824 305.99 305.844C305.75 300.864 309.61 296.634 314.59 296.394C320.13 296.134 325.76 295.474 331.23 294.604C338.25 293.494 345.28 291.994 352.09 289.954C363.56 286.524 380.25 279.794 385.26 267.904C387.07 263.614 387.13 259.174 385.99 254.704C381.56 237.264 361.87 238.074 349.36 246.204C345.19 248.914 339.58 247.724 336.87 243.554C334.16 239.374 335.35 233.774 339.52 231.064C353.13 222.214 371.81 219.244 386.47 227.354C395.38 232.294 401.04 240.454 403.53 250.244C405.82 259.274 405.42 268.314 401.22 276.724C388.04 303.164 342.36 313.144 315.43 314.424L315.44 314.444Z" fill="#CDCCC2"/>
<path fill-rule="evenodd" clip-rule="evenodd" d="M242.06 311.884C278.01 311.884 307.15 320.524 307.15 331.184C307.15 341.844 278.01 350.484 242.06 350.484C206.11 350.484 176.97 341.844 176.97 331.184C176.97 320.524 206.11 311.884 242.06 311.884Z" fill="#F3F3F4"/>
<path fill-rule="evenodd" clip-rule="evenodd" d="M277.71 315.044C295.43 318.494 307.14 324.434 307.14 331.194C307.14 341.854 278 350.494 242.05 350.494C235.07 350.494 228.34 350.164 222.03 349.564C222.19 349.514 229.41 347.364 229.31 339.574C229.26 335.484 253.72 321.604 277.7 315.044H277.71Z" fill="#EAEAEB"/>
<path fill-rule="evenodd" clip-rule="evenodd" d="M242.06 340.084C304.35 340.084 354.84 304.404 354.84 206.904C354.84 221.264 304.34 232.904 242.06 232.904C179.78 232.904 129.28 221.264 129.28 206.904C129.28 304.404 179.78 340.084 242.06 340.084Z" fill="#CDCCC2"/>
<path fill-rule="evenodd" clip-rule="evenodd" d="M313.97 226.934C294.45 230.664 269.39 232.904 242.06 232.904C179.77 232.904 129.28 221.264 129.28 206.904C129.28 296.484 171.9 333.874 227.13 339.364C277.58 334.304 314.85 302.114 313.97 226.934Z" fill="#E1E1DB"/>
<path fill-rule="evenodd" clip-rule="evenodd" d="M180.32 325.434C179.93 325.204 179.81 324.694 180.04 324.304C180.27 323.914 180.78 323.794 181.17 324.024C198.07 334.224 219.96 339.334 241.88 339.364C263.81 339.394 285.74 334.334 302.68 324.194C303.07 323.964 303.57 324.084 303.81 324.474C304.04 324.864 303.92 325.364 303.53 325.604C286.33 335.904 264.1 341.044 241.88 341.014C219.68 340.984 197.48 335.794 180.33 325.444L180.32 325.434Z" fill="#9D9D9D"/>
<path fill-rule="evenodd" clip-rule="evenodd" d="M129.29 221.194C129 221.004 128.93 220.624 129.12 220.334C129.31 220.054 129.69 219.974 129.98 220.164C149.12 232.894 194.12 239.334 239.92 239.354C285.49 239.374 331.8 233.044 354.18 220.244C354.48 220.074 354.85 220.174 355.02 220.474C355.19 220.774 355.09 221.144 354.79 221.314C332.23 234.214 285.68 240.604 239.92 240.584C193.91 240.564 148.64 234.064 129.3 221.194H129.29Z" fill="#9D9D9D"/>
<path fill-rule="evenodd" clip-rule="evenodd" d="M353.47 221.564C353.47 221.204 353.76 220.904 354.13 220.904C354.5 220.904 354.79 221.194 354.79 221.564C354.85 246.634 348.5 269.494 338.28 287.974C327.26 307.884 311.74 322.734 294.83 329.824C294.5 329.964 294.11 329.804 293.97 329.474C293.83 329.134 293.99 328.754 294.32 328.614C310.96 321.634 326.25 306.994 337.12 287.344C347.25 269.034 353.53 246.394 353.47 221.564Z" fill="#9D9D9D"/>
<path d="M247.243 317.123C265.112 314.254 277.273 297.442 274.404 279.573C271.535 261.703 254.724 249.543 236.854 252.411C218.985 255.28 206.824 272.092 209.693 289.961C212.561 307.831 229.373 319.991 247.243 317.123Z" fill="#CDCCC2"/>
<path fill-rule="evenodd" clip-rule="evenodd" d="M241.89 296.794C239.78 290.714 232.8 279.604 222.8 278.784C212.79 277.964 207 282.404 203.18 283.344L199.36 284.284C199.36 284.284 206.73 286.034 209.63 288.964C212.53 291.884 221.61 295.634 229.65 296.094C237.68 296.564 243.48 299.254 245.19 301.354C246.9 303.454 241.9 296.794 241.9 296.794H241.89Z" fill="#6F7A39"/>
<path fill-rule="evenodd" clip-rule="evenodd" d="M241.66 250.454C239.06 258.504 235.19 257.334 232.62 265.304C230.06 273.274 234.64 280.604 238.41 285.084C242.18 289.564 242.93 290.534 242.93 290.534C242.93 290.534 241.98 272.594 243.08 264.914C244.18 257.234 241.65 250.454 241.65 250.454H241.66Z" fill="#6F7A39"/>
<path fill-rule="evenodd" clip-rule="evenodd" d="M246.84 300.414C244.24 291.084 243.25 285.004 252.04 278.744C260.84 272.494 261.9 266.154 261.9 266.154C261.9 266.154 266.15 275.154 261.3 283.404C256.45 291.654 250.86 290.274 246.84 300.414Z" fill="#6F7A39"/>
<path fill-rule="evenodd" clip-rule="evenodd" d="M207.77 285.014C207.43 285.044 207.13 284.794 207.1 284.454C207.07 284.114 207.32 283.814 207.66 283.784C211.84 283.394 216.84 284.614 221.76 286.514C228.56 289.144 235.22 293.104 239.21 295.944C242.01 297.934 244.24 299.814 245.89 301.354C244.11 297.424 242.69 292.744 241.61 287.874C239.67 279.084 238.86 269.634 239.22 262.744C239.24 262.404 239.53 262.144 239.87 262.164C240.21 262.184 240.47 262.474 240.45 262.814C240.1 269.604 240.89 278.934 242.81 287.614C243.84 292.274 245.19 296.744 246.86 300.524C245.97 296.544 245.5 291.104 248.09 287.344C250.28 284.154 252.76 282.354 254.9 280.784C257 279.254 258.76 277.964 259.49 275.854C259.6 275.534 259.95 275.364 260.27 275.474C260.59 275.584 260.76 275.934 260.65 276.254C259.79 278.734 257.89 280.124 255.63 281.774C253.56 283.284 251.18 285.024 249.11 288.034C244.96 294.064 249.57 305.194 249.58 305.234C249.63 305.354 249.64 305.484 249.61 305.604C249.74 305.794 249.87 305.984 250 306.174C256.97 315.904 261.77 318.784 261.78 318.784C262.07 318.964 262.16 319.344 261.99 319.634C261.81 319.924 261.43 320.014 261.14 319.844C261.13 319.844 256.11 316.824 249 306.894C248.57 306.284 248.14 305.634 247.74 304.954C246.39 303.484 243.33 300.404 238.5 296.964C234.57 294.174 228.02 290.274 221.33 287.684C216.57 285.844 211.75 284.664 207.79 285.034L207.77 285.014Z" fill="#425330"/>
<path fill-rule="evenodd" clip-rule="evenodd" d="M119.35 272.624C129.53 261.514 154.29 267.634 174.66 286.304C195.03 304.964 202.48 329.944 193.1 340.214C183.81 350.384 155.98 357.214 129.87 343.324C127.61 342.124 124 343.114 122.29 341.684C120.96 340.564 121.38 338.774 121.23 336.194C120.8 328.704 96.62 295.094 119.34 272.634L119.35 272.624Z" fill="#EABE1C"/>
<path fill-rule="evenodd" clip-rule="evenodd" d="M196.84 324.114C197.71 330.754 196.53 336.464 193.11 340.214C183.82 350.384 155.99 357.214 129.88 343.324C133.14 343.884 151.38 343.304 160.04 334.644C168.69 325.994 186.44 326.514 196.84 324.114Z" fill="#CFA221"/>
<path fill-rule="evenodd" clip-rule="evenodd" d="M123.74 275.264C132.81 265.364 154.87 270.824 173.02 287.454C191.17 304.084 198.52 325.584 189.45 335.484C180.38 345.384 158.32 339.924 140.17 323.294C122.02 306.664 114.67 285.164 123.74 275.264Z" fill="#FAE865"/>
<path fill-rule="evenodd" clip-rule="evenodd" d="M122.76 274.124C122.37 273.744 122.36 273.124 122.73 272.734C123.11 272.344 123.73 272.334 124.12 272.704L190.42 336.624C190.81 337.004 190.82 337.624 190.45 338.014C190.07 338.404 189.45 338.414 189.06 338.044L122.76 274.124Z" fill="#FFFACD"/>
<path fill-rule="evenodd" clip-rule="evenodd" d="M147.76 273.164C147.63 272.634 147.96 272.104 148.49 271.974C149.02 271.844 149.55 272.174 149.68 272.704L165.43 337.584C165.56 338.114 165.23 338.644 164.7 338.774C164.17 338.904 163.64 338.574 163.51 338.044L147.76 273.164Z" fill="#FFFACD"/>
<path fill-rule="evenodd" clip-rule="evenodd" d="M174.62 287.984C175.03 287.624 175.65 287.654 176.01 288.064C176.37 288.474 176.34 289.094 175.93 289.454L138.28 322.954C137.87 323.314 137.25 323.284 136.89 322.874C136.53 322.464 136.56 321.844 136.97 321.484L174.62 287.984Z" fill="#FFFACD"/>
<path fill-rule="evenodd" clip-rule="evenodd" d="M191.52 313.014C192.05 313.144 192.37 313.674 192.24 314.204C192.11 314.734 191.58 315.054 191.05 314.924L121.66 297.724C121.13 297.594 120.81 297.064 120.94 296.534C121.07 296.004 121.6 295.684 122.13 295.814L191.52 313.014Z" fill="#FFFACD"/>
<path fill-rule="evenodd" clip-rule="evenodd" d="M119.35 272.624C129.53 261.514 154.29 267.634 174.66 286.304C195.03 304.964 203.28 329.104 193.1 340.214C182.92 351.324 158.16 345.194 137.79 326.534C117.42 307.874 109.17 283.734 119.35 272.624ZM123.74 275.264C114.67 285.164 122.03 306.664 140.17 323.294C158.32 339.924 180.38 345.374 189.45 335.484C198.52 325.584 191.16 304.084 173.02 287.454C154.88 270.824 132.81 265.374 123.74 275.264Z" fill="#F5D900"/>
<path fill-rule="evenodd" clip-rule="evenodd" d="M119.51 271.154C119.72 270.854 120.13 270.784 120.42 270.994C120.72 271.204 120.79 271.614 120.58 271.904C115.17 279.664 114.91 288.524 117.93 297.324C120.92 306.034 127.11 314.694 134.71 322.194C142.33 329.714 151.35 336.074 160 340.174C170.5 345.144 180.38 346.784 186.38 343.074C186.69 342.884 187.09 342.974 187.28 343.284C187.47 343.594 187.37 343.994 187.07 344.184C180.65 348.144 170.32 346.514 159.44 341.354C150.67 337.194 141.51 330.754 133.79 323.124C126.05 315.484 119.74 306.654 116.68 297.744C113.53 288.564 113.81 279.294 119.5 271.144L119.51 271.154Z" fill="#94683D"/>
<path fill-rule="evenodd" clip-rule="evenodd" d="M311.17 344.114C319.48 337.634 338.47 328.494 351.4 336.014C364.33 343.534 367.17 354.594 370.92 359.164L374.67 363.734C374.67 363.734 364.05 359.764 357.77 361.254C351.48 362.744 336.91 360.004 326.71 353.714C316.51 347.424 306.93 346.094 302.85 347.484C298.78 348.884 311.16 344.104 311.16 344.104L311.17 344.114Z" fill="#6F7A39"/>
<path fill-rule="evenodd" clip-rule="evenodd" d="M355.29 281.094C350.83 294.334 356.65 296.064 352.22 309.154C347.79 322.244 335.3 328.284 326.47 331.144C317.65 334.004 315.82 334.674 315.82 334.674C315.82 334.674 333.95 311.024 339.88 299.594C345.81 288.164 355.29 281.094 355.29 281.094Z" fill="#6F7A39"/>
<path fill-rule="evenodd" clip-rule="evenodd" d="M301.74 344.794C313.72 334.304 320.69 326.864 315.92 310.744C311.15 294.624 315.85 285.064 315.85 285.064C315.85 285.064 302.17 293.674 300.26 309.114C298.34 324.554 306.44 327.504 301.74 344.804V344.794Z" fill="#6F7A39"/>
<path fill-rule="evenodd" clip-rule="evenodd" d="M363.76 357.494C364.14 357.824 364.74 357.744 365.1 357.304C365.46 356.864 365.44 356.244 365.06 355.904C360.35 351.774 353.12 349.104 345.35 347.464C334.6 345.184 322.77 344.844 315.24 345.274C309.95 345.574 305.47 346.224 302.01 346.894C307.89 343.064 314.05 337.914 319.96 332.194C330.63 321.874 340.55 309.674 346.64 299.974C346.94 299.494 346.84 298.884 346.41 298.614C345.98 298.344 345.39 298.514 345.09 298.994C339.09 308.564 329.3 320.604 318.76 330.794C313.1 336.264 307.22 341.194 301.62 344.904C306.46 340.234 312.19 333.224 312.6 325.854C312.95 319.614 311.65 315.014 310.53 311.034C309.43 307.134 308.51 303.854 309.62 300.354C309.79 299.814 309.53 299.284 309.03 299.154C308.53 299.024 307.99 299.354 307.82 299.894C306.51 304.014 307.51 307.554 308.7 311.764C309.78 315.604 311.03 320.044 310.7 325.934C310.04 337.744 293.9 348.954 293.85 348.984C293.68 349.104 293.55 349.274 293.46 349.464C293.12 349.614 292.78 349.764 292.45 349.894C274.77 357.154 266.23 356.944 266.21 356.944C265.69 356.944 265.22 357.374 265.16 357.924C265.1 358.474 265.48 358.924 266 358.934C266.03 358.934 274.96 359.154 293 351.744C294.1 351.294 295.23 350.764 296.37 350.184C299.39 349.344 306.03 347.774 315.16 347.254C322.58 346.834 334.22 347.164 344.8 349.414C352.32 351.004 359.29 353.564 363.76 357.484V357.494Z" fill="#425330"/>
<path fill-rule="evenodd" clip-rule="evenodd" d="M440.49 175.934C440.11 167.284 433.08 151.254 421.99 145.964C406.94 138.784 397.19 141.844 390.22 143.624C390.22 143.624 393.13 145.614 395.92 148.104C401.31 152.914 409.22 165.234 426.21 171.334C435.48 174.664 441.52 179.644 442.81 182.934C444.11 186.224 440.5 175.934 440.5 175.934H440.49Z" fill="#6F7A39"/>
<path fill-rule="evenodd" clip-rule="evenodd" d="M404.1 150.174C403.69 150.114 403.42 149.694 403.5 149.234C403.58 148.774 403.98 148.454 404.4 148.514C409.49 149.254 415.01 152.364 420.18 156.344C427.33 161.854 433.85 169.064 437.59 174.004C439.56 176.604 441.17 179.024 442.45 181.134C442.62 181.414 443.13 182.224 443.47 182.814C443.94 183.644 443.87 186.664 441.61 182.854C440.29 180.624 438.57 177.984 436.39 175.114C432.7 170.254 426.29 163.144 419.25 157.724C414.25 153.874 408.94 150.874 404.1 150.164V150.174Z" fill="#425330"/>
<path fill-rule="evenodd" clip-rule="evenodd" d="M324.98 101.774C333.63 101.314 349.58 94.1138 354.76 82.9638C361.78 67.8338 358.63 58.1238 356.77 51.1738C356.77 51.1738 354.81 54.1038 352.35 56.9138C347.59 62.3538 335.36 70.3938 329.43 87.4338C326.2 96.7338 321.28 102.824 318 104.154C314.72 105.484 324.98 101.764 324.98 101.764V101.774Z" fill="#6F7A39"/>
<path fill-rule="evenodd" clip-rule="evenodd" d="M350.37 65.1338C350.43 64.7238 350.84 64.4438 351.3 64.5238C351.76 64.6038 352.08 65.0038 352.02 65.4138C351.33 70.5138 348.28 76.0638 344.36 81.2738C338.92 88.4838 331.78 95.0738 326.88 98.8638C324.3 100.864 321.9 102.494 319.8 103.794C319.52 103.974 318.72 104.484 318.13 104.834C317.31 105.314 314.28 105.274 318.07 102.974C320.29 101.634 322.91 99.8838 325.76 97.6738C330.59 93.9338 337.62 87.4538 342.97 80.3538C346.77 75.3138 349.72 69.9738 350.37 65.1338Z" fill="#425330"/>
<path fill-rule="evenodd" clip-rule="evenodd" d="M129.65 99.0938C129.04 90.4538 121.57 74.6238 110.34 69.6438C95.0999 62.8838 85.4399 66.2038 78.5199 68.1738C78.5199 68.1738 81.4799 70.0838 84.3399 72.4938C89.8599 77.1538 98.0999 89.2538 115.25 94.8838C124.6 97.9538 130.78 102.774 132.16 106.024C133.55 109.274 129.66 99.0938 129.66 99.0938H129.65Z" fill="#6F7A39"/>
<path fill-rule="evenodd" clip-rule="evenodd" d="M92.58 74.3338C92.17 74.2838 91.8899 73.8738 91.9599 73.4138C92.0299 72.9538 92.4199 72.6238 92.8399 72.6738C97.9499 73.2738 103.55 76.2238 108.83 80.0638C116.13 85.3738 122.84 92.4138 126.72 97.2438C128.76 99.7838 130.43 102.164 131.77 104.234C131.95 104.514 132.48 105.304 132.84 105.884C133.33 106.694 133.34 109.724 130.98 105.974C129.6 103.784 127.8 101.184 125.55 98.3738C121.73 93.6138 115.13 86.6838 107.94 81.4638C102.83 77.7438 97.4399 74.8938 92.5899 74.3238L92.58 74.3338Z" fill="#425330"/>
<path fill-rule="evenodd" clip-rule="evenodd" d="M51.3799 211.004C59.9799 212.024 76.9299 207.674 83.9399 197.574C93.4499 183.874 92.0099 173.764 91.3699 166.594C91.3699 166.594 88.9399 169.144 86.0299 171.494C80.4099 176.044 66.9799 181.854 58.2199 197.634C53.4399 206.244 47.5499 211.394 44.0899 212.144C40.6399 212.894 51.3699 210.994 51.3699 210.994L51.3799 211.004Z" fill="#6F7A39"/>
<path fill-rule="evenodd" clip-rule="evenodd" d="M82.6699 179.254C82.7999 178.854 83.2499 178.654 83.6899 178.814C84.1299 178.964 84.3799 179.414 84.2499 179.814C82.6999 184.714 78.7399 189.664 73.9799 194.124C67.3899 200.294 59.2199 205.554 53.7399 208.454C50.8599 209.984 48.2099 211.174 45.9199 212.104C45.6099 212.224 44.7299 212.604 44.0899 212.834C43.1999 213.164 40.2199 212.604 44.3499 210.994C46.7599 210.054 49.6499 208.774 52.8399 207.094C58.2299 204.234 66.2799 199.054 72.7699 192.984C77.3799 188.664 81.1999 183.914 82.6699 179.254Z" fill="#425330"/>
<path fill-rule="evenodd" clip-rule="evenodd" d="M390.72 60.3438C391.35 68.9738 398.86 84.7938 410.11 89.7438C425.37 96.4638 435.02 93.1238 441.94 91.1338C441.94 91.1338 438.97 89.2338 436.11 86.8238C430.57 82.1738 422.31 70.1038 405.14 64.5138C395.78 61.4638 389.59 56.6638 388.2 53.4138C386.81 50.1638 390.72 60.3438 390.72 60.3438Z" fill="#6F7A39"/>
<path fill-rule="evenodd" clip-rule="evenodd" d="M427.86 85.0038C428.28 85.0538 428.56 85.4638 428.49 85.9238C428.42 86.3838 428.03 86.7138 427.61 86.6638C422.5 86.0738 416.89 83.1338 411.6 79.3138C404.29 74.0138 397.56 67.0038 393.67 62.1838C391.62 59.6438 389.94 57.2738 388.6 55.2038C388.42 54.9238 387.89 54.1338 387.53 53.5538C387.03 52.7438 387.02 49.7138 389.39 53.4538C390.78 55.6438 392.58 58.2338 394.84 61.0338C398.67 65.7838 405.29 72.6938 412.49 77.9038C417.61 81.6038 423 84.4438 427.86 85.0038Z" fill="#425330"/>
<path fill-rule="evenodd" clip-rule="evenodd" d="M169.44 99.0538C175.8 93.1738 183.48 77.4438 180.35 65.5638C176.1 49.4438 167.47 43.9738 161.6 39.8138C161.6 39.8138 161.96 43.3238 161.87 47.0538C161.68 54.2838 157.39 68.2738 163.72 85.1738C167.17 94.3938 167.27 102.224 165.6 105.344C163.93 108.464 169.45 99.0538 169.45 99.0538H169.44Z" fill="#6F7A39"/>
<path fill-rule="evenodd" clip-rule="evenodd" d="M165.58 54.6438C165.36 54.2938 165.51 53.8138 165.91 53.5838C166.31 53.3538 166.82 53.4538 167.04 53.8038C169.76 58.1738 170.96 64.3838 171.27 70.9038C171.69 79.9238 170.39 89.5538 169.05 95.6038C168.34 98.7838 167.53 101.584 166.75 103.924C166.64 104.244 166.36 105.154 166.12 105.794C165.79 106.684 163.44 108.584 164.88 104.404C165.73 101.954 166.63 98.9338 167.42 95.4138C168.75 89.4538 170.02 79.9738 169.61 71.0938C169.32 64.7838 168.17 58.7938 165.59 54.6538L165.58 54.6438Z" fill="#425330"/>
<path fill-rule="evenodd" clip-rule="evenodd" d="M190.76 405.014C187.11 408.434 183.62 411.914 180.1 415.474C224.93 415.474 269.78 415.434 314.61 415.554C310.44 411.504 306.39 407.874 301.88 404.194C305.09 401.464 308.08 398.754 311.13 395.854C268.38 395.734 225.6 395.794 182.85 395.794C184.96 397.874 187.56 400.714 189.85 402.484L190.93 403.314L191.38 404.164L190.76 405.034V405.014Z" fill="#CFA221"/>
<path d="M222.254 400.931L222.137 400.403L226.613 400.145C226.809 400.153 226.973 400.224 227.105 400.356C227.238 400.489 227.305 400.634 227.305 400.79C227.305 400.891 227.266 400.981 227.188 401.059C227.109 401.138 226.992 401.184 226.836 401.2L224.867 401.095C225.062 403.852 225.207 406.36 225.301 408.618C225.23 408.852 225.098 408.97 224.902 408.97C224.762 408.97 224.625 408.911 224.492 408.794C224.359 408.684 224.277 408.548 224.246 408.384C224.262 407.962 224.27 407.321 224.27 406.462C224.27 406.141 224.266 405.661 224.258 405.02C224.258 404.38 224.258 403.899 224.258 403.579C224.258 402.649 224.273 401.809 224.305 401.059C223.422 400.997 222.738 400.954 222.254 400.931ZM227.844 400.356L228.453 400.497C228.477 400.817 228.492 401.329 228.5 402.032C228.516 402.735 228.531 403.22 228.547 403.485C228.969 403.04 229.477 402.817 230.07 402.817C230.602 402.817 231.059 403.005 231.441 403.38C231.832 403.755 232.027 404.255 232.027 404.88V408.735C231.926 408.782 231.797 408.806 231.641 408.806C231.469 408.806 231.312 408.79 231.172 408.759C231.172 408.696 231.172 408.602 231.172 408.477C231.18 408.345 231.184 408.247 231.184 408.184C231.184 407.88 231.172 407.356 231.148 406.614C231.125 405.864 231.113 405.239 231.113 404.739C230.996 404.02 230.633 403.661 230.023 403.661C229.758 403.661 229.496 403.735 229.238 403.884C228.98 404.024 228.793 404.192 228.676 404.388C228.699 404.88 228.715 405.622 228.723 406.614C228.73 407.606 228.742 408.321 228.758 408.759C228.57 408.79 228.41 408.806 228.277 408.806C228.082 408.806 227.918 408.782 227.785 408.735C227.801 408.352 227.809 407.747 227.809 406.919C227.809 406.552 227.805 405.88 227.797 404.903C227.789 403.919 227.785 403.075 227.785 402.372C227.793 401.661 227.812 400.989 227.844 400.356ZM237.711 407.657L237.828 408.173C237.484 408.298 236.973 408.438 236.293 408.595C235.621 408.743 235.121 408.817 234.793 408.817C234.457 408.817 234.164 408.708 233.914 408.489C233.664 408.263 233.477 407.977 233.352 407.634C233.227 407.282 233.133 406.938 233.07 406.602C233.016 406.259 232.988 405.923 232.988 405.595C232.988 403.641 233.871 402.665 235.637 402.665C236.059 402.665 236.43 402.802 236.75 403.075C237.07 403.341 237.23 403.688 237.23 404.118C237.23 404.352 237.164 404.559 237.031 404.739C236.906 404.919 236.75 405.063 236.562 405.173C236.383 405.274 236.148 405.368 235.859 405.454C235.578 405.54 235.328 405.602 235.109 405.641C234.891 405.681 234.629 405.724 234.324 405.77C234.02 405.817 233.809 405.852 233.691 405.876C233.699 406.102 233.711 406.302 233.727 406.474C233.75 406.645 233.789 406.833 233.844 407.036C233.906 407.231 233.984 407.395 234.078 407.528C234.18 407.653 234.316 407.759 234.488 407.845C234.66 407.931 234.863 407.974 235.098 407.974C235.379 407.974 235.723 407.95 236.129 407.903C236.535 407.849 236.895 407.794 237.207 407.739C237.527 407.684 237.695 407.657 237.711 407.657ZM233.738 405.149C234.801 404.845 235.672 404.524 236.352 404.188C236.297 403.931 236.223 403.743 236.129 403.626C236.035 403.509 235.895 403.45 235.707 403.45C235.23 403.45 234.797 403.614 234.406 403.942C234.023 404.27 233.801 404.673 233.738 405.149ZM236.422 400.204L236.586 400.263L235.648 402.056L234.711 402.161L235.25 401.165C235.281 401.102 235.32 401.024 235.367 400.931C235.414 400.837 235.453 400.759 235.484 400.696C235.516 400.634 235.555 400.563 235.602 400.485C235.648 400.407 235.695 400.349 235.742 400.309C235.797 400.263 235.855 400.224 235.918 400.192C235.98 400.153 236.055 400.138 236.141 400.145C236.227 400.145 236.32 400.165 236.422 400.204ZM244.848 403.122L244.977 403.649C244.766 403.665 244.441 403.708 244.004 403.778C243.566 403.841 243.238 403.88 243.02 403.895C243.059 404.169 243.082 404.528 243.09 404.974C243.098 405.419 243.105 405.806 243.113 406.134C243.129 406.454 243.164 406.778 243.219 407.106C243.281 407.427 243.402 407.673 243.582 407.845C243.77 408.016 244.02 408.102 244.332 408.102C244.566 408.102 244.859 408.048 245.211 407.938C245.359 408.227 245.469 408.438 245.539 408.571C244.922 408.79 244.297 408.899 243.664 408.899C243.43 408.899 243.227 408.829 243.055 408.688C242.883 408.548 242.75 408.372 242.656 408.161C242.562 407.95 242.484 407.684 242.422 407.364C242.367 407.036 242.332 406.727 242.316 406.438C242.301 406.149 242.293 405.817 242.293 405.442C242.293 405.239 242.293 404.958 242.293 404.599C242.301 404.239 242.305 403.993 242.305 403.86C242.227 403.868 242.043 403.876 241.754 403.884C241.465 403.884 241.297 403.884 241.25 403.884C241.195 403.36 241.168 403.091 241.168 403.075C241.223 403.091 241.312 403.099 241.438 403.099C241.508 403.099 241.621 403.095 241.777 403.087C241.934 403.071 242.051 403.063 242.129 403.063C242.16 403.063 242.199 403.067 242.246 403.075C242.301 403.075 242.336 403.075 242.352 403.075C242.383 402.216 242.418 401.516 242.457 400.977L242.984 401.106C242.992 401.294 242.996 401.497 242.996 401.716C243.004 401.927 243.008 402.165 243.008 402.431C243.016 402.688 243.02 402.888 243.02 403.028C243.223 403.044 243.527 403.059 243.934 403.075C244.34 403.091 244.645 403.106 244.848 403.122ZM246.266 402.77L246.805 402.888C246.867 403.528 246.922 404.536 246.969 405.911C247.016 407.278 247.047 408.126 247.062 408.454C246.992 408.696 246.855 408.817 246.652 408.817C246.512 408.817 246.375 408.763 246.242 408.653C246.117 408.536 246.039 408.395 246.008 408.231C246.023 407.911 246.055 407.079 246.102 405.735C246.148 404.384 246.203 403.395 246.266 402.77ZM246.43 400.673C246.641 400.673 246.816 400.766 246.957 400.954C247.098 401.134 247.168 401.341 247.168 401.575C247.168 401.747 247.125 401.888 247.039 401.997C246.961 402.099 246.852 402.149 246.711 402.149C246.492 402.149 246.32 402.059 246.195 401.88C246.07 401.7 246.008 401.489 246.008 401.247C246.008 401.075 246.043 400.938 246.113 400.837C246.191 400.727 246.297 400.673 246.43 400.673ZM248.27 402.63L248.926 402.747C248.926 402.911 248.93 403.032 248.938 403.11C249.367 402.837 249.801 402.7 250.238 402.7C250.949 402.7 251.504 403.005 251.902 403.614C252.301 404.224 252.5 404.915 252.5 405.688C252.5 406.079 252.469 406.454 252.406 406.813C252.352 407.165 252.25 407.528 252.102 407.903C251.953 408.27 251.723 408.567 251.41 408.794C251.105 409.013 250.734 409.122 250.297 409.122C249.883 409.122 249.484 409.013 249.102 408.794C249.133 410.161 249.16 411.177 249.184 411.841C249.113 412.083 248.977 412.204 248.773 412.204C248.633 412.204 248.496 412.145 248.363 412.028C248.238 411.919 248.16 411.782 248.129 411.618L248.27 402.63ZM249.031 403.872L249.066 407.657C249.16 407.845 249.305 407.997 249.5 408.114C249.695 408.224 249.91 408.278 250.145 408.278C250.449 408.278 250.707 408.181 250.918 407.985C251.137 407.79 251.289 407.532 251.375 407.212C251.469 406.884 251.531 406.579 251.562 406.298C251.602 406.016 251.621 405.72 251.621 405.407C251.621 404.079 251.172 403.415 250.273 403.415C249.984 403.415 249.715 403.458 249.465 403.544C249.223 403.622 249.078 403.731 249.031 403.872ZM260 403.122L260.129 403.649C259.918 403.665 259.594 403.708 259.156 403.778C258.719 403.841 258.391 403.88 258.172 403.895C258.211 404.169 258.234 404.528 258.242 404.974C258.25 405.419 258.258 405.806 258.266 406.134C258.281 406.454 258.316 406.778 258.371 407.106C258.434 407.427 258.555 407.673 258.734 407.845C258.922 408.016 259.172 408.102 259.484 408.102C259.719 408.102 260.012 408.048 260.363 407.938C260.512 408.227 260.621 408.438 260.691 408.571C260.074 408.79 259.449 408.899 258.816 408.899C258.582 408.899 258.379 408.829 258.207 408.688C258.035 408.548 257.902 408.372 257.809 408.161C257.715 407.95 257.637 407.684 257.574 407.364C257.52 407.036 257.484 406.727 257.469 406.438C257.453 406.149 257.445 405.817 257.445 405.442C257.445 405.239 257.445 404.958 257.445 404.599C257.453 404.239 257.457 403.993 257.457 403.86C257.379 403.868 257.195 403.876 256.906 403.884C256.617 403.884 256.449 403.884 256.402 403.884C256.348 403.36 256.32 403.091 256.32 403.075C256.375 403.091 256.465 403.099 256.59 403.099C256.66 403.099 256.773 403.095 256.93 403.087C257.086 403.071 257.203 403.063 257.281 403.063C257.312 403.063 257.352 403.067 257.398 403.075C257.453 403.075 257.488 403.075 257.504 403.075C257.535 402.216 257.57 401.516 257.609 400.977L258.137 401.106C258.145 401.294 258.148 401.497 258.148 401.716C258.156 401.927 258.16 402.165 258.16 402.431C258.168 402.688 258.172 402.888 258.172 403.028C258.375 403.044 258.68 403.059 259.086 403.075C259.492 403.091 259.797 403.106 260 403.122ZM260.668 406.298C260.668 405.985 260.699 405.638 260.762 405.255C260.832 404.872 260.934 404.47 261.066 404.048C261.199 403.626 261.398 403.274 261.664 402.993C261.93 402.712 262.238 402.571 262.59 402.571C263.34 402.571 263.941 402.911 264.395 403.591C264.848 404.263 265.074 405.013 265.074 405.841C265.074 406.192 265.035 406.544 264.957 406.895C264.887 407.239 264.773 407.579 264.617 407.915C264.461 408.251 264.234 408.532 263.938 408.759C263.648 408.977 263.309 409.102 262.918 409.134C262.199 409.04 261.645 408.735 261.254 408.22C260.863 407.696 260.668 407.056 260.668 406.298ZM262.66 403.181C262.387 403.212 262.156 403.462 261.969 403.931C261.781 404.399 261.66 404.856 261.605 405.302C261.551 405.739 261.523 406.126 261.523 406.462C261.523 406.899 261.656 407.306 261.922 407.681C262.195 408.048 262.5 408.231 262.836 408.231C263.078 408.231 263.297 408.138 263.492 407.95C263.688 407.763 263.84 407.532 263.949 407.259C264.066 406.977 264.152 406.696 264.207 406.415C264.27 406.134 264.301 405.884 264.301 405.665C264.301 405.024 264.156 404.466 263.867 403.989C263.578 403.513 263.176 403.243 262.66 403.181ZM266.164 402.63L266.82 402.747C266.82 402.911 266.824 403.032 266.832 403.11C267.262 402.837 267.695 402.7 268.133 402.7C268.844 402.7 269.398 403.005 269.797 403.614C270.195 404.224 270.395 404.915 270.395 405.688C270.395 406.079 270.363 406.454 270.301 406.813C270.246 407.165 270.145 407.528 269.996 407.903C269.848 408.27 269.617 408.567 269.305 408.794C269 409.013 268.629 409.122 268.191 409.122C267.777 409.122 267.379 409.013 266.996 408.794C267.027 410.161 267.055 411.177 267.078 411.841C267.008 412.083 266.871 412.204 266.668 412.204C266.527 412.204 266.391 412.145 266.258 412.028C266.133 411.919 266.055 411.782 266.023 411.618L266.164 402.63ZM266.926 403.872L266.961 407.657C267.055 407.845 267.199 407.997 267.395 408.114C267.59 408.224 267.805 408.278 268.039 408.278C268.344 408.278 268.602 408.181 268.812 407.985C269.031 407.79 269.184 407.532 269.27 407.212C269.363 406.884 269.426 406.579 269.457 406.298C269.496 406.016 269.516 405.72 269.516 405.407C269.516 404.079 269.066 403.415 268.168 403.415C267.879 403.415 267.609 403.458 267.359 403.544C267.117 403.622 266.973 403.731 266.926 403.872Z" fill="#44512E"/>
<path d="M170.512 429.25C170.512 429.89 170.373 430.37 170.096 430.69C169.84 431.01 169.413 431.17 168.816 431.17C168.773 431.618 168.677 432.396 168.528 433.506C168.315 434.999 168.197 435.831 168.176 436.002C166.277 450.146 162.32 457.218 156.304 457.218C154.533 457.218 153.147 456.716 152.144 455.714C151.163 454.711 150.672 453.452 150.672 451.938C150.672 449.228 151.824 446.839 154.128 444.77C156.432 442.679 159.461 440.951 163.216 439.586C163.451 438.071 163.632 436.716 163.76 435.522L164.336 430.69C163.056 430.562 161.861 430.498 160.752 430.498C157.787 430.498 155.6 430.786 154.192 431.362C152.784 431.938 152.08 432.876 152.08 434.178C152.08 434.818 152.293 435.511 152.72 436.258C152.848 436.471 152.912 436.695 152.912 436.93C152.912 437.378 152.677 437.783 152.208 438.146C151.76 438.487 151.269 438.658 150.736 438.658C150.053 438.658 149.531 438.37 149.168 437.794C148.571 436.812 148.272 435.671 148.272 434.37C148.272 429.25 152.752 426.69 161.712 426.69C164.315 426.69 166.64 426.946 168.688 427.458C169.904 427.756 170.512 428.354 170.512 429.25ZM156.72 453.794C157.765 453.794 158.811 453.004 159.856 451.426C160.901 449.847 161.819 447.084 162.608 443.138C157.403 445.42 154.8 448.215 154.8 451.522C154.8 452.247 154.971 452.812 155.312 453.218C155.653 453.602 156.123 453.794 156.72 453.794ZM184.152 446.658C184.429 446.658 184.642 446.786 184.792 447.042C184.962 447.298 185.048 447.65 185.048 448.098C185.048 448.951 184.845 449.612 184.44 450.082C183.65 451.042 182.53 451.927 181.08 452.738C179.65 453.548 178.114 453.954 176.472 453.954C174.232 453.954 172.493 453.346 171.256 452.13C170.018 450.914 169.4 449.25 169.4 447.138C169.4 445.666 169.709 444.3 170.328 443.042C170.946 441.762 171.8 440.748 172.888 440.002C173.997 439.255 175.245 438.882 176.632 438.882C177.869 438.882 178.861 439.255 179.608 440.002C180.354 440.727 180.728 441.719 180.728 442.978C180.728 444.45 180.194 445.719 179.128 446.786C178.082 447.831 176.301 448.663 173.784 449.282C174.317 450.263 175.33 450.754 176.824 450.754C177.784 450.754 178.872 450.423 180.088 449.762C181.325 449.079 182.392 448.194 183.288 447.106C183.544 446.807 183.832 446.658 184.152 446.658ZM176.088 442.018C175.298 442.018 174.626 442.476 174.072 443.394C173.538 444.311 173.272 445.42 173.272 446.722V446.786C174.53 446.487 175.522 446.039 176.248 445.442C176.973 444.844 177.336 444.151 177.336 443.362C177.336 442.956 177.218 442.636 176.984 442.402C176.77 442.146 176.472 442.018 176.088 442.018ZM185.706 453.954C184.746 453.954 183.957 453.516 183.338 452.642C182.741 451.746 182.442 450.636 182.442 449.314C182.442 447.714 182.549 446.252 182.762 444.93C182.976 443.586 183.328 442.167 183.818 440.674C184.032 440.034 184.33 439.575 184.714 439.298C185.098 439.02 185.706 438.882 186.538 438.882C187.008 438.882 187.328 438.956 187.498 439.106C187.69 439.255 187.786 439.479 187.786 439.778C187.786 439.948 187.669 440.524 187.434 441.506C187.221 442.295 187.05 443.01 186.922 443.65C186.496 445.89 186.282 447.383 186.282 448.13C186.282 448.578 186.336 448.898 186.442 449.09C186.549 449.26 186.72 449.346 186.954 449.346C187.274 449.346 187.669 449.026 188.138 448.386C188.629 447.746 189.141 446.775 189.674 445.474C190.229 444.172 190.762 442.572 191.274 440.674C191.445 440.034 191.701 439.575 192.042 439.298C192.405 439.02 192.938 438.882 193.642 438.882C194.133 438.882 194.474 438.946 194.666 439.074C194.858 439.18 194.954 439.394 194.954 439.714C194.954 440.247 194.688 441.708 194.154 444.098C193.557 446.828 193.258 448.514 193.258 449.154C193.258 449.559 193.344 449.879 193.514 450.114C193.685 450.327 193.909 450.434 194.186 450.434C194.613 450.434 195.114 450.178 195.69 449.666C196.288 449.132 197.077 448.279 198.058 447.106C198.314 446.807 198.602 446.658 198.922 446.658C199.2 446.658 199.413 446.786 199.562 447.042C199.733 447.298 199.818 447.65 199.818 448.098C199.818 448.951 199.616 449.612 199.21 450.082C198.293 451.212 197.301 452.14 196.234 452.866C195.189 453.591 193.994 453.954 192.65 453.954C191.626 453.954 190.869 453.559 190.378 452.77C189.909 451.98 189.674 450.871 189.674 449.442C189.312 450.892 188.768 452.012 188.042 452.802C187.317 453.57 186.538 453.954 185.706 453.954ZM213.96 447.618C214.237 447.618 214.45 447.746 214.6 448.002C214.77 448.258 214.856 448.61 214.856 449.058C214.856 449.826 214.674 450.487 214.312 451.042C213.053 452.983 211.261 453.954 208.936 453.954C207.933 453.954 207.037 453.762 206.248 453.378C205.48 452.972 204.85 452.396 204.36 451.65C203.122 453.164 201.682 453.922 200.04 453.922C198.866 453.922 197.938 453.58 197.256 452.898C196.573 452.215 196.232 451.308 196.232 450.178C196.232 449.111 196.477 448.247 196.968 447.586C197.458 446.924 198.152 446.594 199.048 446.594C199.816 446.594 200.2 446.882 200.2 447.458C200.2 447.628 200.178 447.927 200.136 448.354L200.04 449.57C200.04 450.21 200.317 450.53 200.872 450.53C201.277 450.53 201.661 450.295 202.024 449.826C202.408 449.335 202.717 448.674 202.952 447.842C203.208 447.01 203.336 446.092 203.336 445.09C203.336 444.322 203.24 443.682 203.048 443.17C202.856 442.636 202.621 442.37 202.344 442.37C202.109 442.37 201.938 442.434 201.832 442.562C201.725 442.668 201.618 442.86 201.512 443.138C201.384 443.479 201.213 443.756 201 443.97C200.786 444.162 200.413 444.258 199.88 444.258C199.41 444.258 199.037 444.098 198.76 443.778C198.482 443.436 198.344 442.924 198.344 442.242C198.344 441.154 198.674 440.3 199.336 439.682C199.997 439.063 200.85 438.754 201.896 438.754C202.792 438.754 203.602 438.978 204.328 439.426C205.053 439.852 205.608 440.482 205.992 441.314C206.632 440.46 207.346 439.82 208.136 439.394C208.946 438.967 209.736 438.754 210.504 438.754C211.336 438.754 211.965 438.946 212.392 439.33C212.84 439.714 213.064 440.332 213.064 441.186C213.064 442.146 212.882 442.903 212.52 443.458C212.157 443.991 211.72 444.258 211.208 444.258C210.738 444.258 210.418 444.162 210.248 443.97C210.077 443.778 209.949 443.5 209.864 443.138C209.821 442.882 209.757 442.69 209.672 442.562C209.586 442.434 209.437 442.37 209.224 442.37C208.968 442.37 208.69 442.615 208.392 443.106C208.114 443.575 207.869 444.204 207.656 444.994C207.464 445.783 207.368 446.604 207.368 447.458C207.368 448.418 207.581 449.186 208.008 449.762C208.456 450.338 208.989 450.626 209.608 450.626C210.781 450.626 211.944 449.783 213.096 448.098C213.309 447.778 213.597 447.618 213.96 447.618ZM230.367 453.954C228.276 453.954 226.644 453.367 225.471 452.194C224.319 450.999 223.743 449.431 223.743 447.49C223.743 445.762 224.084 444.247 224.767 442.946C225.449 441.644 226.335 440.642 227.423 439.938C228.511 439.234 229.652 438.882 230.847 438.882C232.02 438.882 232.927 439.234 233.567 439.938C234.228 440.62 234.559 441.506 234.559 442.594C234.559 443.49 234.356 444.247 233.951 444.866C233.567 445.484 233.055 445.794 232.415 445.794C232.009 445.794 231.679 445.698 231.423 445.506C231.188 445.314 231.071 445.047 231.071 444.706C231.071 444.556 231.092 444.386 231.135 444.194C231.177 444.002 231.209 443.863 231.231 443.778C231.337 443.458 231.391 443.159 231.391 442.882C231.391 442.604 231.316 442.391 231.167 442.242C231.039 442.092 230.847 442.018 230.591 442.018C230.1 442.018 229.641 442.242 229.215 442.69C228.788 443.116 228.447 443.703 228.191 444.45C227.935 445.196 227.807 446.018 227.807 446.914C227.807 449.388 228.884 450.626 231.039 450.626C231.913 450.626 232.852 450.338 233.855 449.762C234.879 449.164 235.881 448.279 236.863 447.106C237.119 446.807 237.407 446.658 237.727 446.658C238.004 446.658 238.217 446.786 238.367 447.042C238.537 447.298 238.623 447.65 238.623 448.098C238.623 448.908 238.42 449.57 238.015 450.082C237.012 451.319 235.807 452.279 234.399 452.962C233.012 453.623 231.668 453.954 230.367 453.954ZM252.356 443.97C252.633 443.97 252.847 444.108 252.996 444.386C253.145 444.663 253.22 445.015 253.22 445.442C253.22 446.466 252.911 447.074 252.292 447.266C251.012 447.714 249.604 447.97 248.068 448.034C247.663 449.826 246.863 451.266 245.668 452.354C244.473 453.42 243.119 453.954 241.604 453.954C240.324 453.954 239.225 453.644 238.308 453.026C237.412 452.407 236.729 451.586 236.26 450.562C235.791 449.538 235.556 448.428 235.556 447.234C235.556 445.612 235.865 444.172 236.484 442.914C237.103 441.634 237.956 440.642 239.044 439.938C240.132 439.212 241.337 438.85 242.66 438.85C244.281 438.85 245.583 439.415 246.564 440.546C247.567 441.655 248.153 443.031 248.324 444.674C249.327 444.61 250.521 444.396 251.908 444.034C252.079 443.991 252.228 443.97 252.356 443.97ZM241.86 450.562C242.543 450.562 243.129 450.284 243.62 449.73C244.132 449.175 244.473 448.375 244.644 447.33C243.983 446.882 243.471 446.295 243.108 445.57C242.767 444.844 242.596 444.076 242.596 443.266C242.596 442.924 242.628 442.583 242.692 442.242H242.532C241.679 442.242 240.964 442.658 240.388 443.49C239.833 444.3 239.556 445.452 239.556 446.946C239.556 448.119 239.78 449.015 240.228 449.634C240.697 450.252 241.241 450.562 241.86 450.562ZM252.746 453.954C251.935 453.954 251.359 453.527 251.018 452.674C250.698 451.82 250.538 450.455 250.538 448.578C250.538 445.804 250.932 443.17 251.722 440.674C251.914 440.055 252.223 439.607 252.65 439.33C253.098 439.031 253.716 438.882 254.506 438.882C254.932 438.882 255.231 438.935 255.402 439.042C255.572 439.148 255.658 439.351 255.658 439.65C255.658 439.991 255.498 440.759 255.178 441.954C254.964 442.807 254.794 443.554 254.666 444.194C254.538 444.834 254.431 445.623 254.346 446.562C255.05 444.727 255.839 443.234 256.714 442.082C257.588 440.93 258.442 440.108 259.274 439.618C260.127 439.127 260.906 438.882 261.61 438.882C262.996 438.882 263.69 439.575 263.69 440.962C263.69 441.794 263.455 443.298 262.986 445.474C262.58 447.33 262.378 448.556 262.378 449.154C262.378 450.007 262.687 450.434 263.306 450.434C263.732 450.434 264.234 450.178 264.81 449.666C265.407 449.132 266.196 448.279 267.178 447.106C267.434 446.807 267.722 446.658 268.042 446.658C268.319 446.658 268.532 446.786 268.682 447.042C268.852 447.298 268.938 447.65 268.938 448.098C268.938 448.951 268.735 449.612 268.33 450.082C267.412 451.212 266.42 452.14 265.354 452.866C264.308 453.591 263.114 453.954 261.77 453.954C260.682 453.954 259.86 453.644 259.306 453.026C258.751 452.386 258.474 451.468 258.474 450.274C258.474 449.676 258.623 448.61 258.922 447.074C259.199 445.73 259.338 444.802 259.338 444.29C259.338 443.948 259.22 443.778 258.986 443.778C258.708 443.778 258.314 444.14 257.802 444.866C257.311 445.57 256.799 446.508 256.266 447.682C255.754 448.855 255.338 450.092 255.018 451.394C254.783 452.396 254.506 453.079 254.186 453.442C253.887 453.783 253.407 453.954 252.746 453.954ZM272.461 453.954C270.37 453.954 268.738 453.367 267.565 452.194C266.413 450.999 265.837 449.431 265.837 447.49C265.837 445.762 266.178 444.247 266.861 442.946C267.543 441.644 268.429 440.642 269.516 439.938C270.605 439.234 271.746 438.882 272.941 438.882C274.114 438.882 275.021 439.234 275.661 439.938C276.322 440.62 276.653 441.506 276.653 442.594C276.653 443.49 276.45 444.247 276.045 444.866C275.661 445.484 275.149 445.794 274.509 445.794C274.103 445.794 273.773 445.698 273.517 445.506C273.282 445.314 273.165 445.047 273.165 444.706C273.165 444.556 273.186 444.386 273.229 444.194C273.271 444.002 273.303 443.863 273.325 443.778C273.431 443.458 273.485 443.159 273.485 442.882C273.485 442.604 273.41 442.391 273.26 442.242C273.133 442.092 272.941 442.018 272.685 442.018C272.194 442.018 271.735 442.242 271.309 442.69C270.882 443.116 270.541 443.703 270.285 444.45C270.029 445.196 269.901 446.018 269.901 446.914C269.901 449.388 270.978 450.626 273.133 450.626C274.007 450.626 274.946 450.338 275.949 449.762C276.973 449.164 277.975 448.279 278.957 447.106C279.213 446.807 279.501 446.658 279.821 446.658C280.098 446.658 280.311 446.786 280.461 447.042C280.631 447.298 280.717 447.65 280.717 448.098C280.717 448.908 280.514 449.57 280.109 450.082C279.106 451.319 277.901 452.279 276.493 452.962C275.106 453.623 273.762 453.954 272.461 453.954ZM294.45 443.97C294.727 443.97 294.94 444.108 295.09 444.386C295.239 444.663 295.314 445.015 295.314 445.442C295.314 446.466 295.004 447.074 294.386 447.266C293.106 447.714 291.698 447.97 290.162 448.034C289.756 449.826 288.956 451.266 287.762 452.354C286.567 453.42 285.212 453.954 283.698 453.954C282.418 453.954 281.319 453.644 280.402 453.026C279.506 452.407 278.823 451.586 278.354 450.562C277.884 449.538 277.65 448.428 277.65 447.234C277.65 445.612 277.959 444.172 278.578 442.914C279.196 441.634 280.05 440.642 281.138 439.938C282.226 439.212 283.431 438.85 284.754 438.85C286.375 438.85 287.676 439.415 288.658 440.546C289.66 441.655 290.247 443.031 290.418 444.674C291.42 444.61 292.615 444.396 294.002 444.034C294.172 443.991 294.322 443.97 294.45 443.97ZM283.954 450.562C284.636 450.562 285.223 450.284 285.714 449.73C286.226 449.175 286.567 448.375 286.738 447.33C286.076 446.882 285.564 446.295 285.202 445.57C284.86 444.844 284.69 444.076 284.69 443.266C284.69 442.924 284.722 442.583 284.786 442.242H284.626C283.772 442.242 283.058 442.658 282.482 443.49C281.927 444.3 281.65 445.452 281.65 446.946C281.65 448.119 281.874 449.015 282.322 449.634C282.791 450.252 283.335 450.562 283.954 450.562ZM295.831 453.954C294.871 453.954 294.082 453.516 293.463 452.642C292.866 451.746 292.567 450.636 292.567 449.314C292.567 447.714 292.674 446.252 292.887 444.93C293.101 443.586 293.453 442.167 293.943 440.674C294.157 440.034 294.455 439.575 294.839 439.298C295.223 439.02 295.831 438.882 296.663 438.882C297.133 438.882 297.453 438.956 297.623 439.106C297.815 439.255 297.911 439.479 297.911 439.778C297.911 439.948 297.794 440.524 297.559 441.506C297.346 442.295 297.175 443.01 297.047 443.65C296.621 445.89 296.407 447.383 296.407 448.13C296.407 448.578 296.461 448.898 296.567 449.09C296.674 449.26 296.845 449.346 297.079 449.346C297.399 449.346 297.794 449.026 298.263 448.386C298.754 447.746 299.266 446.775 299.799 445.474C300.354 444.172 300.887 442.572 301.399 440.674C301.57 440.034 301.826 439.575 302.167 439.298C302.53 439.02 303.063 438.882 303.767 438.882C304.258 438.882 304.599 438.946 304.791 439.074C304.983 439.18 305.079 439.394 305.079 439.714C305.079 440.247 304.813 441.708 304.279 444.098C303.682 446.828 303.383 448.514 303.383 449.154C303.383 449.559 303.469 449.879 303.639 450.114C303.81 450.327 304.034 450.434 304.311 450.434C304.738 450.434 305.239 450.178 305.815 449.666C306.413 449.132 307.202 448.279 308.183 447.106C308.439 446.807 308.727 446.658 309.047 446.658C309.325 446.658 309.538 446.786 309.687 447.042C309.858 447.298 309.943 447.65 309.943 448.098C309.943 448.951 309.741 449.612 309.335 450.082C308.418 451.212 307.426 452.14 306.359 452.866C305.314 453.591 304.119 453.954 302.775 453.954C301.751 453.954 300.994 453.559 300.503 452.77C300.034 451.98 299.799 450.871 299.799 449.442C299.437 450.892 298.893 452.012 298.167 452.802C297.442 453.57 296.663 453.954 295.831 453.954ZM320.277 443.266C320.746 443.266 321.141 443.436 321.461 443.778C321.802 444.098 321.972 444.503 321.972 444.994C321.972 445.271 321.909 445.57 321.781 445.89C321.439 446.679 320.959 447.34 320.341 447.874C319.722 448.407 319.039 448.674 318.293 448.674C317.695 448.674 317.183 448.46 316.757 448.034C316.351 447.607 316.149 447.031 316.149 446.306C316.149 445.9 316.17 445.463 316.213 444.994C316.255 444.652 316.277 444.418 316.277 444.29C316.277 444.119 316.234 443.991 316.149 443.906C316.085 443.82 315.999 443.778 315.893 443.778C315.594 443.778 315.189 444.14 314.677 444.866C314.165 445.57 313.653 446.508 313.141 447.682C312.629 448.855 312.213 450.092 311.893 451.394C311.658 452.418 311.391 453.1 311.093 453.442C310.794 453.783 310.303 453.954 309.621 453.954C308.81 453.954 308.234 453.527 307.893 452.674C307.573 451.82 307.413 450.455 307.413 448.578C307.413 445.804 307.807 443.17 308.597 440.674C308.789 440.055 309.098 439.607 309.525 439.33C309.973 439.031 310.591 438.882 311.381 438.882C311.807 438.882 312.106 438.935 312.277 439.042C312.447 439.148 312.533 439.351 312.533 439.65C312.533 439.991 312.373 440.759 312.053 441.954C311.839 442.807 311.669 443.554 311.541 444.194C311.413 444.834 311.306 445.623 311.221 446.562C311.925 444.727 312.714 443.234 313.589 442.082C314.463 440.93 315.317 440.108 316.149 439.618C316.981 439.127 317.738 438.882 318.421 438.882C319.039 438.882 319.509 439.063 319.829 439.426C320.17 439.767 320.341 440.279 320.341 440.962C320.341 441.367 320.223 442.135 319.989 443.266H320.277ZM328.332 454.658C327.222 454.658 326.369 454.402 325.772 453.89C325.196 453.378 324.908 452.802 324.908 452.162C324.908 451.607 325.11 451.127 325.516 450.722C325.921 450.316 326.518 450.114 327.308 450.114C327.585 450.114 327.905 450.146 328.268 450.21C328.652 450.252 328.94 450.284 329.132 450.306C329.11 449.751 328.982 449.228 328.748 448.738C328.534 448.247 328.257 447.778 327.916 447.33C327.574 446.86 327.254 446.455 326.956 446.114C326.294 447.372 325.633 448.418 324.972 449.25C324.332 450.082 323.628 450.871 322.86 451.618C322.476 452.002 322.07 452.194 321.644 452.194C321.302 452.194 321.025 452.076 320.812 451.842C320.598 451.586 320.492 451.276 320.492 450.914C320.492 450.487 320.641 450.092 320.94 449.73L321.356 449.218C322.529 447.767 323.414 446.572 324.012 445.634C324.396 445.015 324.78 444.279 325.164 443.426C325.569 442.572 326.092 441.41 326.732 439.938C327.137 438.999 327.98 438.53 329.26 438.53C329.857 438.53 330.273 438.583 330.508 438.69C330.742 438.796 330.86 438.967 330.86 439.202C330.86 439.33 330.817 439.532 330.732 439.81C330.646 440.087 330.529 440.364 330.38 440.642C329.996 441.41 329.804 442.06 329.804 442.594C329.804 442.914 329.91 443.266 330.124 443.65C330.358 444.034 330.71 444.514 331.18 445.09C331.862 445.986 332.374 446.754 332.716 447.394C333.078 448.012 333.26 448.695 333.26 449.442C333.26 450.338 333.046 451.191 332.62 452.002C332.214 452.791 331.638 453.431 330.892 453.922C330.145 454.412 329.292 454.658 328.332 454.658Z" fill="#6F7A39"/>
</g>
<defs>
<clipPath id="clip0_11_1275">
<rect width="500" height="500" fill="white" transform="translate(0 0.793823)"/>
</clipPath>
</defs>
</svg>
