<svg width="820" height="677" viewBox="0 0 820 677" fill="none" xmlns="http://www.w3.org/2000/svg">
<path d="M829.745 674.778L829.816 674.572C829.816 674.572 829.89 674.367 829.89 674.272C830.173 673.466 944.427 446.6 766.806 288.675C697.307 226.877 771.156 186.089 715.886 117.297C652.375 38.2486 583.063 125.699 512.437 89.851C499.958 83.5187 487.437 73.3336 474.903 57.7079C445.426 21.0112 405.262 4.70837 364.765 0.989098C285.852 -6.17288 197.045 34.1001 151.213 92.9552C141.991 104.809 100.032 166.129 133.103 250.423C153.985 303.642 66.5095 354.467 35.4196 415.244C-17.2446 518.201 -0.267761 598.914 17.1363 641.9C19.3466 647.369 21.5641 652.219 23.6438 656.429C29.77 668.812 34.7275 675.664 34.9041 676.165L829.738 674.773L829.745 674.778Z" fill="#DEDDC0" fill-opacity="0.16"/>
<path opacity="0.5" d="M168.136 315.161C169.453 282.724 209.318 281.295 209.318 281.295C209.318 281.295 234.707 322.881 242.485 321.984C250.263 321.086 232.346 278.116 232.346 278.116C246.722 271.983 283.421 286.73 283.421 286.73C283.421 286.73 290.928 350.028 298.302 346.575C305.676 343.122 289.536 290.985 289.536 290.985C304.648 292.656 321.429 311.213 321.429 311.213C343.742 342.877 312.465 379.909 312.465 379.909C312.465 379.909 312.687 402.684 308.86 400.981C308.86 400.981 309.159 400.046 309.309 398.346C309.165 399.186 309.017 400.062 308.86 400.981C305.254 422.052 272.617 434.768 253.345 434.959C234.073 435.15 241.013 425.809 249.157 411.548C257.301 397.287 278.608 394.307 284.058 388.07C289.508 381.829 279.806 379.942 267.699 384.754C255.589 389.566 252.055 407.949 232.571 416.214C213.089 424.479 189.978 378.355 189.978 378.355C204.616 380.163 227.623 362.868 227.564 356.207C227.502 349.546 191.148 360.653 185.163 360.367C179.18 360.08 166.818 347.601 168.139 315.165L168.136 315.161Z" fill="#596636"/>
<path opacity="0.5" d="M676.328 326.7C675.121 297.027 638.656 295.718 638.656 295.718C638.656 295.718 615.431 333.76 608.315 332.941C601.202 332.119 617.592 292.809 617.592 292.809C604.441 287.2 570.868 300.692 570.868 300.692C570.868 300.692 564.001 358.596 557.255 355.434C550.509 352.276 565.273 304.581 565.273 304.581C551.451 306.11 536.099 323.085 536.099 323.085C515.688 352.047 544.299 385.926 544.299 385.926C544.299 385.926 544.095 406.761 547.596 405.202C547.596 405.202 547.322 404.346 547.184 402.792C547.316 403.561 547.452 404.363 547.596 405.202C550.894 424.479 580.751 436.11 598.379 436.284C616.006 436.459 609.657 427.915 602.209 414.868C594.758 401.82 575.268 399.098 570.283 393.389C565.298 387.679 574.171 385.951 585.247 390.355C596.322 394.756 599.558 411.572 617.38 419.135C635.201 426.698 656.342 384.501 656.342 384.501C642.951 386.154 621.906 370.335 621.961 364.239C622.017 358.143 655.273 368.307 660.748 368.045C666.222 367.784 677.529 356.369 676.322 326.696L676.328 326.7Z" fill="#596636"/>
<path opacity="0.3" d="M293.529 206.786C299.263 189.176 321.58 199.572 321.58 199.572C321.58 199.572 329.243 229.757 333.692 231.44C338.142 233.127 334.835 204.272 334.835 204.272C343.749 204.908 361.823 223.391 361.823 223.391C361.823 223.391 356.225 260.589 360.846 260.743C365.465 260.901 364.557 227.467 364.557 227.467C372.676 232.636 379.117 247.637 379.117 247.637C386.606 271.455 363.559 283.202 363.559 283.202C363.559 283.202 360.172 295.893 358.312 293.873C358.312 293.873 358.623 293.437 358.968 292.539C358.759 292.963 358.54 293.408 358.312 293.873C353.066 304.544 333.012 302.425 322.3 297.123C311.588 291.816 316.875 288.588 323.587 282.97C330.299 277.348 342.572 281.682 346.554 279.753C350.538 277.825 345.451 274.052 337.997 273.321C330.543 272.59 325.749 281.785 313.676 280.9C301.6 280.015 295.9 247.953 295.9 247.953C303.736 253.064 319.156 249.939 320.151 246.228C321.145 242.518 299.278 238.47 296.005 236.63C292.732 234.793 287.802 224.405 293.536 206.79L293.529 206.786Z" fill="#6F7A39"/>
<path d="M226.462 337.691C253.126 367.958 248.295 387.077 260.836 446.153C270.122 489.905 303.779 510.615 303.779 510.615C303.779 510.615 345.057 416.04 319.529 375.446C315.908 369.691 312.096 364.422 308.179 359.606C292.824 340.737 275.862 328.79 262.64 321.548C262.61 321.531 262.582 321.514 262.557 321.498C262.511 321.473 262.465 321.448 262.425 321.423L262.154 321.278C257.554 318.776 253.425 316.852 249.992 315.402C243.156 312.514 235.686 314.912 230.554 321.66C228.223 324.731 226.668 327.311 225.64 329.339C224.291 332.002 224.633 335.613 226.465 337.691H226.462Z" fill="#E1E1DB"/>
<path d="M281.549 363.865C279.735 395.766 304.475 406.918 312.742 401.039C317.109 397.93 313.013 377.856 308.176 359.606C292.821 340.737 275.859 328.79 262.637 321.547C265.815 323.396 283.193 334.869 281.546 363.865H281.549Z" fill="#CDCCC2"/>
<path d="M595.087 315.053C611.92 315.053 626.607 330.473 630.746 352.496L646.43 435.985C650.544 457.875 638.283 479.142 621.546 479.142H557.114V315.049H595.087V315.053ZM570.104 351.349L583.732 446.752C584.751 452.656 588.677 456.812 593.166 456.737L616.477 456.354C624.544 456.226 630.542 446.245 628.972 435.565L617.182 355.442C615.317 344.634 610.033 339.843 599.235 340.367L577.146 339.989C572.663 339.914 569.257 345.403 570.107 351.345L570.104 351.349Z" fill="#CDCCC2"/>
<path d="M290.139 426.582C289.964 501.232 320.723 566.545 366.075 600.34C386.917 615.873 410.847 624.753 436.271 624.815C517.268 625.027 582.978 536.473 582.978 427.217C582.978 380.341 570.877 337.288 550.672 303.405C549.247 301.008 547.775 298.652 546.26 296.35H326.851C325.339 298.652 323.867 301.004 322.439 303.405C302.323 337.13 290.247 379.955 290.136 426.582H290.139Z" fill="#CDCCC2"/>
<path d="M290.139 426.582C289.964 501.232 320.723 566.545 366.075 600.34C440.239 590.035 498.218 500.284 498.218 391.099C498.218 357.009 492.565 324.822 482.533 296.35H326.854C325.342 298.652 323.87 301.004 322.441 303.405C302.326 337.13 290.25 379.955 290.139 426.582Z" fill="#E1E1DB"/>
<path d="M501.543 630.076H362.971C357.786 630.076 354.032 623.755 355.427 617.369L358.931 601.325H505.878L509.136 617.572C510.404 623.905 506.663 630.072 501.549 630.072L501.543 630.076Z" fill="#ABABAB"/>
<path d="M322.441 303.405H550.672C549.243 301.008 547.775 298.652 546.263 296.35H326.854C325.342 298.652 323.87 301.004 322.445 303.405H322.441Z" fill="#ABABAB"/>
<path d="M318.922 296.354H554.191C559.296 296.354 561.667 287.802 557.815 283.277C539.375 261.624 517.092 244.865 492.352 234.689C477.366 228.518 461.478 224.766 444.993 223.81C442.198 223.644 439.386 223.565 436.554 223.565C433.721 223.565 430.91 223.648 428.114 223.81C384.419 226.349 344.906 248.509 315.295 283.281C311.443 287.806 313.814 296.358 318.919 296.358L318.922 296.354Z" fill="#E1E1DB"/>
<path d="M419.745 204.181C419.745 207.542 420.287 210.733 421.257 213.601C423.908 221.429 429.761 226.869 436.557 226.869C445.84 226.869 453.368 216.713 453.368 204.181C453.368 195.01 449.338 187.115 443.537 183.537C441.409 182.224 439.045 181.497 436.557 181.497C427.273 181.497 419.745 191.652 419.745 204.181Z" fill="#CDCCC2"/>
<path d="M419.745 204.181C419.745 207.542 420.287 210.733 421.257 213.601C423.385 214.914 425.749 215.641 428.237 215.641C437.521 215.641 445.049 205.485 445.049 192.953C445.049 189.595 444.51 186.404 443.537 183.537C441.409 182.224 439.045 181.497 436.557 181.497C427.274 181.497 419.745 191.652 419.745 204.181Z" fill="#E1E1DB"/>
<path opacity="0.8" d="M426.88 192.795C427.04 189.5 429.087 186.038 432.302 185.536C434.734 185.153 437.339 186.205 437.182 189.5C437.022 192.795 434.968 190.792 432.083 195.442C430.642 197.765 426.722 196.09 426.88 192.795Z" fill="#EBF3FA"/>
<path d="M408.199 296.354H554.191C559.296 296.354 561.667 287.802 557.815 283.277C539.375 261.624 517.092 244.865 492.352 234.689C492.352 234.689 487.589 282.55 408.196 296.358L408.199 296.354Z" fill="#CDCCC2"/>
<path d="M579.396 267.308C579.396 267.308 609.891 270.022 610.375 253.405C610.858 236.792 579.396 267.308 579.396 267.308Z" fill="#A7AD91"/>
<path d="M596.479 236.567C589.579 225.443 579.378 267.3 579.378 267.3C579.378 267.3 603.379 247.687 596.479 236.567Z" fill="#A7AD91"/>
<path d="M387.006 190.177C387.006 190.177 347.508 180.001 350.972 158.63C354.436 137.259 387.006 190.177 387.006 190.177Z" fill="#A7AD91"/>
<path d="M372.796 143.396C384.312 132.318 387.031 190.177 387.031 190.177C387.031 190.177 361.281 154.475 372.796 143.396Z" fill="#A7AD91"/>
<path d="M173.838 518.356C173.838 518.356 155.044 540.819 148.538 530.356C142.031 519.893 173.838 518.356 173.838 518.356Z" fill="#A7AD91"/>
<path d="M151.284 509.991C151.62 498.082 173.847 518.339 173.847 518.339C173.847 518.339 150.948 521.896 151.284 509.991Z" fill="#A7AD91"/>
<path d="M248.868 200.802C246.746 204.048 236.813 209.262 236.127 208.444C235.44 207.625 238.045 193.676 240.166 190.435C242.288 187.194 245.955 186.882 248.36 189.745C250.765 192.608 250.992 197.557 248.871 200.802H248.868Z" fill="white"/>
<path d="M233.645 189.496C235.56 192.965 237.3 207.156 236.567 207.895C235.834 208.635 226.252 202.327 224.337 198.858C222.422 195.388 222.952 190.481 225.523 187.896C228.094 185.311 231.73 186.026 233.645 189.496Z" fill="white"/>
<path d="M222.219 204.584C225.31 203.445 235.736 206.449 235.976 207.642C236.216 208.835 228.365 218.562 225.27 219.697C222.179 220.835 218.986 218.371 218.145 214.199C217.302 210.027 219.127 205.718 222.219 204.584Z" fill="white"/>
<path d="M229.264 223.399C229.572 219.094 235.351 207.002 236.259 207.122C237.171 207.243 241.124 220.598 240.816 224.907C240.508 229.212 237.673 232.366 234.48 231.95C231.29 231.535 228.953 227.704 229.261 223.399H229.264Z" fill="white"/>
<path d="M245.074 222.477C242.236 220.465 236.124 208.681 236.549 207.588C236.973 206.495 247.633 206.595 250.472 208.606C253.311 210.617 254.404 215.354 252.914 219.181C251.423 223.013 247.913 224.488 245.077 222.477H245.074Z" fill="white"/>
<path d="M238.436 207.181C238.27 205.772 237.291 204.816 236.247 205.041C235.203 205.265 234.495 206.586 234.661 207.995C234.827 209.4 235.807 210.36 236.85 210.135C237.894 209.911 238.602 208.589 238.436 207.181Z" fill="#F78248"/>
<path d="M710.758 424.13C708.636 427.371 698.703 432.59 698.016 431.772C697.33 430.953 699.935 417.004 702.053 413.762C704.175 410.517 707.842 410.21 710.246 413.073C712.651 415.936 712.879 420.885 710.758 424.13Z" fill="white"/>
<path d="M695.535 412.823C697.45 416.293 699.19 430.483 698.457 431.223C697.724 431.963 688.142 425.655 686.227 422.185C684.312 418.716 684.841 413.808 687.412 411.223C689.983 408.639 693.62 409.354 695.535 412.823Z" fill="white"/>
<path d="M684.109 427.911C687.2 426.772 697.626 429.781 697.866 430.969C698.106 432.162 690.254 441.889 687.16 443.024C684.069 444.162 680.876 441.698 680.035 437.526C679.191 433.354 681.017 429.05 684.109 427.911Z" fill="white"/>
<path d="M691.153 446.727C691.461 442.422 697.24 430.334 698.149 430.45C699.06 430.571 703.014 443.926 702.706 448.235C702.398 452.54 699.562 455.694 696.369 455.278C693.179 454.863 690.842 451.036 691.15 446.727H691.153Z" fill="white"/>
<path d="M706.964 445.804C704.125 443.793 698.013 432.009 698.438 430.916C698.863 429.823 709.523 429.923 712.362 431.934C715.201 433.945 716.294 438.678 714.803 442.509C713.313 446.34 709.806 447.816 706.967 445.804H706.964Z" fill="white"/>
<path d="M700.326 430.509C700.16 429.1 699.18 428.144 698.137 428.369C697.093 428.593 696.385 429.914 696.551 431.323C696.717 432.732 697.696 433.687 698.74 433.463C699.784 433.239 700.492 431.917 700.326 430.509Z" fill="#F78248"/>
<g opacity="0.5">
<path d="M542.439 349.068C540.641 351.819 532.217 356.244 531.635 355.551C531.053 354.857 533.26 343.026 535.059 340.276C536.857 337.525 539.967 337.263 542.005 339.69C544.043 342.116 544.237 346.313 542.439 349.064V349.068Z" fill="white"/>
<path d="M529.529 339.482C531.154 342.424 532.629 354.458 532.007 355.085C531.385 355.713 523.26 350.365 521.637 347.423C520.011 344.481 520.464 340.321 522.644 338.127C524.824 335.933 527.906 336.544 529.532 339.482H529.529Z" fill="white"/>
<path d="M519.839 352.28C522.462 351.316 531.302 353.864 531.505 354.873C531.709 355.883 525.049 364.131 522.428 365.095C519.805 366.059 517.099 363.973 516.384 360.433C515.67 356.893 517.216 353.244 519.839 352.276V352.28Z" fill="white"/>
<path d="M525.812 368.232C526.074 364.58 530.973 354.329 531.745 354.428C532.518 354.528 535.871 365.86 535.61 369.508C535.348 373.161 532.943 375.832 530.237 375.479C527.53 375.126 525.55 371.881 525.812 368.228V368.232Z" fill="white"/>
<path d="M539.222 367.451C536.814 365.748 531.632 355.754 531.992 354.828C532.352 353.901 541.392 353.984 543.8 355.692C546.208 357.396 547.135 361.414 545.869 364.659C544.607 367.909 541.629 369.159 539.225 367.451H539.222Z" fill="white"/>
<path d="M533.59 354.478C533.448 353.286 532.617 352.471 531.733 352.662C530.849 352.854 530.246 353.976 530.388 355.168C530.529 356.361 531.361 357.175 532.244 356.984C533.128 356.793 533.731 355.671 533.59 354.478Z" fill="#F78248"/>
<path d="M516.603 390.331C514.805 393.082 506.381 397.507 505.799 396.813C505.217 396.119 507.424 384.289 509.223 381.538C511.021 378.787 514.131 378.526 516.169 380.952C518.207 383.379 518.401 387.576 516.603 390.327V390.331Z" fill="white"/>
<path d="M503.692 380.744C505.318 383.686 506.793 395.72 506.171 396.348C505.549 396.975 497.424 391.623 495.801 388.681C494.175 385.739 494.628 381.58 496.808 379.386C498.988 377.192 502.07 377.802 503.696 380.74L503.692 380.744Z" fill="white"/>
<path d="M494.003 393.538C496.626 392.574 505.466 395.122 505.669 396.131C505.872 397.141 499.212 405.389 496.589 406.353C493.966 407.317 491.259 405.232 490.545 401.691C489.831 398.151 491.376 394.502 494 393.534L494.003 393.538Z" fill="white"/>
<path d="M499.976 409.495C500.238 405.842 505.136 395.591 505.909 395.691C506.682 395.791 510.035 407.122 509.773 410.771C509.512 414.423 507.107 417.095 504.4 416.742C501.694 416.389 499.714 413.143 499.976 409.491V409.495Z" fill="white"/>
<path d="M513.385 408.709C510.977 407.006 505.792 397.012 506.156 396.086C506.516 395.159 515.556 395.242 517.964 396.95C520.372 398.654 521.298 402.672 520.033 405.917C518.77 409.167 515.793 410.417 513.385 408.709Z" fill="white"/>
<path d="M507.754 395.741C507.612 394.548 506.781 393.734 505.897 393.925C505.013 394.116 504.41 395.238 504.551 396.431C504.693 397.623 505.524 398.438 506.408 398.246C507.292 398.055 507.895 396.933 507.754 395.741Z" fill="#F78248"/>
<path d="M565.981 390.331C564.183 393.082 555.759 397.507 555.177 396.813C554.595 396.119 556.803 384.289 558.601 381.538C560.399 378.787 563.512 378.526 565.547 380.952C567.586 383.379 567.78 387.576 565.981 390.327V390.331Z" fill="white"/>
<path d="M553.071 380.744C554.697 383.686 556.172 395.72 555.55 396.348C554.928 396.975 546.802 391.623 545.179 388.681C543.554 385.739 544.006 381.58 546.183 379.386C548.363 377.192 551.445 377.802 553.071 380.74V380.744Z" fill="white"/>
<path d="M543.381 393.538C546.005 392.574 554.844 395.122 555.048 396.131C555.251 397.141 548.591 405.389 545.971 406.353C543.347 407.317 540.641 405.232 539.927 401.691C539.212 398.151 540.758 394.502 543.381 393.534V393.538Z" fill="white"/>
<path d="M549.352 409.495C549.613 405.842 554.512 395.591 555.285 395.691C556.058 395.791 559.411 407.122 559.149 410.771C558.887 414.423 556.483 417.095 553.776 416.742C551.07 416.389 549.09 413.143 549.352 409.491V409.495Z" fill="white"/>
<path d="M562.761 408.709C560.353 407.006 555.171 397.012 555.531 396.086C555.891 395.159 564.931 395.242 567.339 396.95C569.747 398.654 570.674 402.672 569.408 405.917C568.146 409.167 565.169 410.417 562.764 408.709H562.761Z" fill="white"/>
<path d="M557.132 395.741C556.991 394.548 556.159 393.734 555.276 393.925C554.392 394.116 553.788 395.238 553.93 396.431C554.072 397.623 554.903 398.438 555.787 398.246C556.67 398.055 557.274 396.933 557.132 395.741Z" fill="#F78248"/>
<path d="M495.961 349.068C494.163 351.819 485.739 356.244 485.157 355.551C484.575 354.857 486.782 343.026 488.581 340.276C490.379 337.525 493.492 337.263 495.527 339.69C497.565 342.116 497.759 346.313 495.961 349.064V349.068Z" fill="white"/>
<path d="M483.051 339.482C484.676 342.424 486.151 354.458 485.529 355.085C484.907 355.713 476.782 350.365 475.159 347.423C473.533 344.481 473.986 340.321 476.163 338.127C478.343 335.933 481.425 336.544 483.051 339.482Z" fill="white"/>
<path d="M473.361 352.28C475.984 351.316 484.824 353.864 485.027 354.873C485.23 355.883 478.57 364.131 475.947 365.095C473.324 366.059 470.617 363.973 469.903 360.433C469.189 356.893 470.734 353.244 473.358 352.276L473.361 352.28Z" fill="white"/>
<path d="M479.334 368.232C479.596 364.58 484.495 354.329 485.267 354.428C486.04 354.528 489.393 365.86 489.132 369.508C488.87 373.161 486.465 375.832 483.759 375.479C481.052 375.126 479.072 371.881 479.334 368.228V368.232Z" fill="white"/>
<path d="M492.743 367.451C490.336 365.748 485.15 355.754 485.514 354.828C485.874 353.901 494.914 353.984 497.319 355.692C499.727 357.396 500.653 361.414 499.388 364.659C498.126 367.909 495.148 369.159 492.74 367.451H492.743Z" fill="white"/>
<path d="M487.112 354.478C486.97 353.286 486.139 352.471 485.255 352.662C484.371 352.854 483.768 353.976 483.91 355.168C484.051 356.361 484.883 357.175 485.766 356.984C486.65 356.793 487.253 355.671 487.112 354.478Z" fill="#F78248"/>
<path d="M470.125 390.331C468.327 393.082 459.902 397.507 459.32 396.813C458.738 396.119 460.946 384.289 462.744 381.538C464.542 378.787 467.652 378.526 469.691 380.952C471.729 383.379 471.923 387.576 470.125 390.327V390.331Z" fill="white"/>
<path d="M457.214 380.744C458.84 383.686 460.315 395.72 459.693 396.348C459.071 396.975 450.945 391.623 449.323 388.681C447.697 385.739 448.15 381.58 450.33 379.386C452.509 377.192 455.592 377.802 457.217 380.74L457.214 380.744Z" fill="white"/>
<path d="M447.525 393.538C450.148 392.574 458.988 395.122 459.191 396.131C459.394 397.141 452.734 405.389 450.114 406.353C447.491 407.317 444.784 405.232 444.07 401.691C443.356 398.151 444.901 394.502 447.525 393.534V393.538Z" fill="white"/>
<path d="M453.498 409.495C453.76 405.842 458.658 395.591 459.431 395.691C460.204 395.791 463.557 407.122 463.295 410.771C463.034 414.423 460.629 417.095 457.923 416.742C455.216 416.389 453.236 413.143 453.498 409.491V409.495Z" fill="white"/>
<path d="M466.907 408.709C464.499 407.006 459.314 397.012 459.678 396.086C460.038 395.159 469.078 395.242 471.486 396.95C473.893 398.654 474.82 402.672 473.555 405.917C472.292 409.167 469.315 410.417 466.91 408.709H466.907Z" fill="white"/>
<path d="M461.276 395.741C461.134 394.548 460.303 393.734 459.419 393.925C458.535 394.116 457.932 395.238 458.073 396.431C458.215 397.623 459.046 398.438 459.93 398.246C460.814 398.055 461.417 396.933 461.276 395.741Z" fill="#F78248"/>
<path d="M450.099 349.068C448.3 351.819 439.876 356.244 439.294 355.551C438.712 354.857 440.92 343.026 442.718 340.276C444.516 337.525 447.626 337.263 449.664 339.69C451.703 342.116 451.897 346.313 450.099 349.064V349.068Z" fill="white"/>
<path d="M437.188 339.482C438.811 342.424 440.289 354.458 439.667 355.085C439.045 355.713 430.919 350.365 429.297 347.423C427.671 344.481 428.12 340.321 430.3 338.127C432.48 335.933 435.562 336.544 437.188 339.482Z" fill="white"/>
<path d="M427.499 352.28C430.122 351.316 438.962 353.864 439.165 354.873C439.368 355.883 432.708 364.131 430.088 365.095C427.465 366.059 424.758 363.973 424.044 360.433C423.33 356.893 424.875 353.244 427.499 352.276V352.28Z" fill="white"/>
<path d="M433.472 368.232C433.734 364.58 438.632 354.329 439.405 354.428C440.178 354.528 443.531 365.86 443.269 369.508C443.008 373.161 440.603 375.832 437.896 375.479C435.19 375.126 433.21 371.881 433.472 368.228V368.232Z" fill="white"/>
<path d="M446.881 367.451C444.473 365.748 439.291 355.754 439.652 354.828C440.012 353.901 449.052 353.984 451.46 355.692C453.867 357.396 454.794 361.414 453.529 364.659C452.266 367.909 449.289 369.159 446.881 367.451Z" fill="white"/>
<path d="M441.249 354.478C441.108 353.286 440.276 352.471 439.393 352.662C438.509 352.854 437.906 353.976 438.047 355.168C438.189 356.361 439.02 357.175 439.904 356.984C440.788 356.793 441.391 355.671 441.249 354.478Z" fill="#F78248"/>
<path d="M424.263 390.331C422.464 393.082 414.04 397.507 413.458 396.813C412.876 396.119 415.084 384.289 416.882 381.538C418.68 378.787 421.79 378.526 423.828 380.952C425.867 383.379 426.061 387.576 424.263 390.327V390.331Z" fill="white"/>
<path d="M411.352 380.744C412.978 383.686 414.453 395.72 413.831 396.348C413.209 396.975 405.083 391.623 403.461 388.681C401.835 385.739 402.287 381.58 404.464 379.386C406.644 377.192 409.726 377.802 411.352 380.74V380.744Z" fill="white"/>
<path d="M401.662 393.538C404.286 392.574 413.126 395.122 413.329 396.131C413.532 397.141 406.872 405.389 404.249 406.353C401.625 407.317 398.922 405.232 398.205 401.691C397.49 398.151 399.036 394.502 401.659 393.534L401.662 393.538Z" fill="white"/>
<path d="M407.636 409.495C407.897 405.842 412.796 395.591 413.569 395.691C414.342 395.791 417.695 407.122 417.433 410.771C417.171 414.423 414.767 417.095 412.06 416.742C409.354 416.389 407.374 413.143 407.636 409.491V409.495Z" fill="white"/>
<path d="M421.045 408.709C418.637 407.006 413.452 397.012 413.815 396.086C414.175 395.159 423.216 395.242 425.623 396.95C428.031 398.654 428.958 402.672 427.692 405.917C426.43 409.167 423.453 410.417 421.048 408.709H421.045Z" fill="white"/>
<path d="M415.413 395.741C415.272 394.548 414.44 393.734 413.557 393.925C412.673 394.116 412.07 395.238 412.211 396.431C412.353 397.623 413.184 398.438 414.068 398.246C414.951 398.055 415.555 396.933 415.413 395.741Z" fill="#F78248"/>
<path d="M404.236 349.068C402.438 351.819 394.014 356.244 393.432 355.551C392.85 354.857 395.058 343.026 396.856 340.276C398.654 337.525 401.764 337.263 403.802 339.69C405.841 342.116 406.035 346.313 404.236 349.064V349.068Z" fill="white"/>
<path d="M391.329 339.482C392.955 342.424 394.43 354.458 393.808 355.085C393.186 355.713 385.06 350.365 383.438 347.423C381.812 344.481 382.264 340.321 384.444 338.127C386.624 335.933 389.706 336.544 391.332 339.482H391.329Z" fill="white"/>
<path d="M381.639 352.28C384.263 351.316 393.103 353.864 393.306 354.873C393.509 355.883 386.849 364.131 384.226 365.095C381.602 366.059 378.896 363.973 378.182 360.433C377.467 356.893 379.013 353.244 381.636 352.276L381.639 352.28Z" fill="white"/>
<path d="M387.61 368.232C387.871 364.58 392.77 354.329 393.543 354.428C394.316 354.528 397.669 365.86 397.407 369.508C397.145 373.161 394.741 375.832 392.034 375.479C389.328 375.126 387.348 371.881 387.61 368.228V368.232Z" fill="white"/>
<path d="M401.019 367.451C398.611 365.748 393.426 355.754 393.789 354.828C394.149 353.901 403.189 353.984 405.597 355.692C408.005 357.396 408.932 361.414 407.666 364.659C406.401 367.904 403.427 369.159 401.019 367.451Z" fill="white"/>
<path d="M395.39 354.478C395.249 353.286 394.417 352.471 393.534 352.662C392.65 352.854 392.047 353.976 392.188 355.168C392.33 356.361 393.161 357.175 394.045 356.984C394.929 356.793 395.532 355.671 395.39 354.478Z" fill="#F78248"/>
<path d="M378.403 390.331C376.605 393.082 368.181 397.507 367.599 396.813C367.017 396.119 369.225 384.289 371.023 381.538C372.821 378.787 375.931 378.526 377.969 380.952C380.007 383.379 380.201 387.576 378.403 390.327V390.331Z" fill="white"/>
<path d="M365.493 380.744C367.119 383.686 368.593 395.72 367.971 396.348C367.349 396.975 359.224 391.623 357.601 388.681C355.976 385.739 356.428 381.58 358.608 379.386C360.788 377.192 363.87 377.802 365.496 380.74L365.493 380.744Z" fill="white"/>
<path d="M355.803 393.538C358.426 392.574 367.266 395.122 367.47 396.131C367.673 397.141 361.013 405.389 358.389 406.353C355.766 407.317 353.063 405.232 352.345 401.691C351.631 398.151 353.177 394.502 355.8 393.534L355.803 393.538Z" fill="white"/>
<path d="M361.773 409.495C362.035 405.842 366.934 395.591 367.707 395.691C368.479 395.791 371.833 407.122 371.571 410.771C371.309 414.423 368.904 417.095 366.198 416.742C363.491 416.389 361.512 413.143 361.773 409.491V409.495Z" fill="white"/>
<path d="M375.183 408.709C372.775 407.006 367.59 397.012 367.953 396.086C368.313 395.159 377.353 395.242 379.761 396.95C382.169 398.654 383.096 402.672 381.83 405.917C380.568 409.167 377.59 410.417 375.186 408.709H375.183Z" fill="white"/>
<path d="M369.554 395.741C369.413 394.548 368.581 393.734 367.698 393.925C366.814 394.116 366.21 395.238 366.352 396.431C366.494 397.623 367.325 398.438 368.209 398.246C369.092 398.055 369.696 396.933 369.554 395.741Z" fill="#F78248"/>
<path d="M360.357 349.068C358.559 351.819 350.135 356.244 349.553 355.551C348.971 354.857 351.178 343.026 352.977 340.276C354.775 337.525 357.885 337.263 359.923 339.69C361.961 342.116 362.155 346.313 360.357 349.064V349.068Z" fill="white"/>
<path d="M347.447 339.482C349.072 342.424 350.547 354.458 349.925 355.085C349.303 355.713 341.178 350.365 339.555 347.423C337.929 344.481 338.382 340.321 340.562 338.127C342.742 335.933 345.824 336.544 347.45 339.482H347.447Z" fill="white"/>
<path d="M337.757 352.28C340.38 351.316 349.22 353.864 349.423 354.873C349.627 355.883 342.967 364.131 340.343 365.095C337.72 366.059 335.014 363.973 334.299 360.433C333.585 356.893 335.131 353.244 337.754 352.276L337.757 352.28Z" fill="white"/>
<path d="M343.73 368.232C343.992 364.58 348.891 354.329 349.663 354.428C350.436 354.528 353.789 365.86 353.528 369.508C353.266 373.161 350.861 375.832 348.155 375.479C345.448 375.126 343.468 371.881 343.73 368.228V368.232Z" fill="white"/>
<path d="M357.139 367.451C354.732 365.748 349.546 355.754 349.91 354.828C350.27 353.901 359.31 353.984 361.718 355.692C364.126 357.396 365.052 361.414 363.787 364.659C362.525 367.909 359.547 369.159 357.142 367.451H357.139Z" fill="white"/>
<path d="M351.508 354.478C351.366 353.286 350.535 352.471 349.651 352.662C348.767 352.854 348.164 353.976 348.306 355.168C348.447 356.361 349.279 357.175 350.162 356.984C351.046 356.793 351.649 355.671 351.508 354.478Z" fill="#F78248"/>
<path d="M334.521 390.331C332.723 393.082 324.298 397.507 323.716 396.813C323.135 396.119 325.342 384.289 327.14 381.538C328.939 378.787 332.048 378.526 334.087 380.952C336.125 383.379 336.319 387.576 334.521 390.327V390.331Z" fill="white"/>
<path d="M321.613 380.744C323.239 383.686 324.714 395.72 324.092 396.348C323.47 396.975 315.345 391.623 313.722 388.681C312.096 385.739 312.546 381.58 314.726 379.386C316.906 377.192 319.991 377.802 321.613 380.74V380.744Z" fill="white"/>
<path d="M311.921 393.538C314.544 392.574 323.384 395.122 323.587 396.131C323.79 397.141 317.13 405.389 314.51 406.353C311.887 407.317 309.183 405.232 308.466 401.691C307.752 398.151 309.297 394.502 311.921 393.534V393.538Z" fill="white"/>
<path d="M317.894 409.495C318.156 405.842 323.054 395.591 323.827 395.691C324.6 395.791 327.953 407.122 327.692 410.771C327.43 414.423 325.025 417.095 322.319 416.742C319.612 416.389 317.632 413.143 317.894 409.491V409.495Z" fill="white"/>
<path d="M331.303 408.709C328.895 407.006 323.71 397.012 324.074 396.086C324.434 395.159 333.474 395.242 335.882 396.95C338.289 398.654 339.216 402.672 337.951 405.917C336.688 409.167 333.711 410.417 331.306 408.709H331.303Z" fill="white"/>
<path d="M325.675 395.741C325.533 394.548 324.702 393.734 323.818 393.925C322.934 394.116 322.331 395.238 322.472 396.431C322.614 397.623 323.445 398.438 324.329 398.246C325.213 398.055 325.816 396.933 325.675 395.741Z" fill="#F78248"/>
</g>
<path d="M211.122 608.419C210.842 617.249 221.72 630.085 263.333 630.085C288.689 630.085 359.642 630.085 359.642 630.085C373.055 628.036 381.153 622.351 381.282 618.283C381.562 609.453 343.699 600.091 296.713 597.366C249.727 594.644 211.405 599.593 211.125 608.419H211.122Z" fill="#C46423"/>
<path d="M151.232 588.93C150.751 604.027 215.494 620.041 295.839 624.695C376.183 629.353 441.705 620.889 442.185 605.793C442.666 590.696 377.923 574.682 297.578 570.028C217.234 565.37 151.712 573.834 151.232 588.93Z" fill="#F99746"/>
<path d="M198.606 589.022C198.329 597.748 242.063 607.367 296.291 610.509C350.519 613.65 394.704 609.129 394.981 600.403C395.258 591.677 351.523 582.057 297.295 578.916C243.067 575.775 198.883 580.296 198.603 589.022H198.606Z" fill="#C46423"/>
<path d="M210.91 395.375L200.521 446.532C187.444 510.931 213.915 579.714 261.634 597.361C261.634 597.361 288.874 604.168 295.118 604.704C338.782 608.489 380.186 570.418 392.179 511.367L400.991 465.775C401.548 463.028 400.775 460.223 398.74 459.471L215.627 391.744C213.591 390.992 211.47 392.625 210.913 395.371L210.91 395.375Z" fill="#ED7D2B"/>
<path d="M259.857 413.48L249.468 464.64C238.066 520.787 254.222 601.33 295.115 604.712C338.779 608.498 380.183 570.427 392.175 511.375L400.985 466.631C401.542 463.884 400.769 460.232 398.734 459.475L264.571 409.853C262.536 409.1 260.414 410.733 259.857 413.48Z" fill="#F99746"/>
<path d="M221.24 411.996C224.279 414.818 227.937 417.752 232.133 420.752C232.906 421.304 233.698 421.857 234.507 422.414C234.763 422.588 235.019 422.763 235.277 422.942C235.637 423.187 236.001 423.432 236.367 423.677C236.734 423.922 237.103 424.167 237.476 424.413C237.525 424.446 237.574 424.479 237.626 424.516C237.95 424.724 238.273 424.936 238.603 425.152C238.984 425.397 239.363 425.642 239.751 425.892C240.133 426.133 240.518 426.378 240.903 426.623C240.909 426.623 240.912 426.623 240.918 426.631C241.358 426.914 241.808 427.188 242.257 427.467L243.169 428.028C245.672 429.557 248.295 431.094 251.026 432.628C265.212 440.598 282.34 448.509 301.024 455.428L301.113 455.461C336.368 468.5 368.208 474.684 386.249 473.038C386.864 472.98 387.468 472.918 388.05 472.843C389.86 472.61 391.517 472.29 392.995 471.879C394.251 471.53 395.384 471.122 396.382 470.649C396.911 470.395 397.404 470.125 397.857 469.843C398.925 469.169 399.784 468.392 400.424 467.52C401.019 466.705 401.425 465.804 401.625 464.811C403.867 453.778 380.377 434.963 345.353 418.005C334.995 412.99 323.63 408.136 311.625 403.694C299.558 399.235 287.892 395.57 277.044 392.753C240.585 383.291 213.351 383.329 211.113 394.345C210.158 399.061 213.899 405.198 221.234 412.005L221.24 411.996Z" fill="#F9DDBF"/>
<path d="M232.13 420.752C232.903 421.305 233.694 421.858 234.504 422.414C234.76 422.589 235.015 422.763 235.274 422.942C235.634 423.187 235.997 423.432 236.364 423.678C236.73 423.923 237.103 424.168 237.472 424.413C237.522 424.446 237.571 424.48 237.623 424.517C237.947 424.725 238.27 424.937 238.599 425.153C238.981 425.398 239.36 425.643 239.748 425.892C240.13 426.133 240.514 426.379 240.899 426.624C240.905 426.624 240.909 426.624 240.915 426.632C241.355 426.915 241.805 427.189 242.254 427.467L243.165 428.028C245.669 429.557 248.292 431.095 251.023 432.628C265.208 440.598 282.337 448.51 301.021 455.428L301.11 455.462C316.126 461.017 330.524 465.326 343.496 468.318C360.985 472.349 375.887 473.982 386.245 473.039C386.861 472.981 387.465 472.918 388.047 472.843C389.857 472.611 391.514 472.291 392.992 471.879C393.577 467.624 387.24 462.181 378.437 456.825C378.428 456.816 378.422 456.812 378.422 456.812C368.036 450.5 354.229 444.305 344.315 440.332C344.315 440.332 344.303 440.332 344.278 440.32C329.443 434.378 313.506 429.508 296.873 426.042C273.845 421.234 251.885 419.605 232.118 420.756L232.13 420.752Z" fill="#A07055"/>
<path d="M203.07 517.849L205.115 510.711C194.086 504.96 182.887 493.013 174.392 477.938C166.094 463.211 164.465 447.849 164.647 435.271C164.819 423.42 168.179 415.537 176.985 413.11C180.793 412.059 186.52 413.651 191.819 417.257C204.856 426.133 207.292 452.756 207.35 453.01L217.939 435.911C217.668 434.751 211.279 414.423 196.136 404.114C189.424 399.543 179.897 399.144 172.188 402.701C161.5 407.634 156.173 419.85 155.955 434.822C155.749 449.091 160.823 466.494 169.878 482.562C178.992 498.735 191.09 511.596 203.07 517.841V517.849Z" fill="#ED7D2B"/>
<path d="M337.307 550.514C337.307 550.514 350.682 535.065 356.428 514.537C362.173 494.01 369.363 484.336 374.388 489.788C379.413 495.24 367.58 531.965 360.643 545.844C353.706 559.718 328.467 563.138 337.307 550.514Z" fill="#F9DDBF"/>
<path d="M386.673 457.821C386.673 457.821 406.924 469.024 414.628 449.827C422.332 430.629 408.344 416.995 402.207 426.278C393.644 439.231 400.843 450.35 386.673 457.821Z" fill="#A07055"/>
<path opacity="0.4" d="M232.13 420.752C234.843 422.684 237.78 424.65 240.918 426.624C245.007 425.024 250.321 423.615 254.352 424.928C261.911 427.388 270.076 434.095 273.1 426.545C276.083 419.098 342.523 439.763 344.287 440.315C329.452 434.373 313.515 429.503 296.882 426.038C273.854 421.23 251.895 419.601 232.127 420.752H232.13Z" fill="#F9DDBF"/>
<path opacity="0.4" d="M343.508 468.31C360.997 472.34 375.9 473.973 386.258 473.03C386.874 472.972 387.477 472.91 388.059 472.835C389.869 472.602 391.526 472.282 393.004 471.871C393.589 467.616 387.252 462.172 378.449 456.816C378.794 457.09 384.804 461.919 383.628 464.395C382.418 466.947 368.886 457.356 365.108 462.762C361.619 467.753 348.533 460.398 343.508 468.31Z" fill="#F9DDBF"/>
<path d="M105.252 335.227C105.252 335.227 111.46 340.159 107.651 349.721C107.651 349.721 113.086 348.378 114.259 346.189C114.259 346.189 114.12 347.099 113.92 347.56C113.92 347.56 118.914 346.031 120.549 343.218C122.184 340.404 114.169 306.705 101.182 315.435C101.182 315.435 89.3091 318.41 93.9585 336.199C98.6078 353.988 94.214 355.559 94.214 355.559C94.214 355.559 95.5965 355.937 96.1846 355.725C96.1846 355.725 96.9606 354.973 97.0037 354.267C97.0037 354.267 97.0313 355.339 96.8743 355.738C96.8743 355.738 101.736 354.649 103.633 351.387C105.526 348.125 106.663 338.734 105.249 335.223L105.252 335.227Z" fill="#596636"/>
<path d="M114.214 363.87C114.214 363.87 114.226 363.876 114.235 363.88C114.273 363.873 114.264 363.87 114.214 363.87Z" fill="#FFB27D"/>
<path d="M99.1282 358.006C98.9465 360.213 98.728 362.191 98.6294 363.134C98.4108 365.245 113.264 363.869 114.212 363.869C113.553 363.483 111.537 354.857 110.899 351.566C110.127 347.576 109.52 343.263 109.52 343.263L99.0327 344.157L98.4077 344.206C98.7957 346.139 99.0697 347.959 99.2606 349.65C99.2852 349.878 99.3099 350.107 99.3315 350.331C99.5224 352.21 99.353 355.28 99.1282 358.002V358.006Z" fill="#FFB27D"/>
<path d="M110.964 341.838C110.964 341.838 112.664 334.562 112.322 328.982C112.075 324.997 107.873 311.409 97.7702 317.189C97.7702 317.189 94.799 318.685 92.4466 322.321C90.5745 325.213 88.1636 330.876 94.257 341.867L96.0275 345.682L110.967 341.834L110.964 341.838Z" fill="#596636"/>
<path d="M99.1281 358.007C106.465 355.106 109.578 343.671 109.578 343.671C106.475 343.795 102.432 346.7 99.2605 349.654C99.2851 349.883 99.3098 350.111 99.3314 350.336C99.5223 352.214 99.3529 355.285 99.1281 358.007Z" fill="#ED975D"/>
<path d="M98.6078 353.988C98.6078 353.988 111.863 349.567 109.695 338.472C107.528 327.373 107.78 319.333 99.2267 321.685C90.6731 324.037 89.8633 328.857 89.9188 332.796C89.9742 336.735 95.1069 354.853 98.6109 353.988H98.6078Z" fill="#FFB27D"/>
<path d="M89.0997 326.488C93.0439 318.065 97.7488 317.189 97.7703 317.189C101.139 314.143 105.594 321.622 105.594 321.622C108.039 329.268 113.187 332.306 113.187 332.306C113.187 332.306 111.176 335.169 105.252 335.227C103.442 335.244 101.613 334.159 99.941 332.646C103.18 336.922 106.952 339.486 106.952 339.486C99.8456 337.799 94.8729 327.232 93.9923 325.238C93.0347 327.315 92.0864 329.725 92.034 331.221C91.9293 334.279 92.7761 340.201 91.4799 340.454C91.4799 340.454 86.4425 332.156 89.0997 326.484V326.488Z" fill="#596636"/>
<path d="M100.677 346.875C100.677 346.875 100.511 348.566 99.7132 348.965C98.9157 349.364 96.7942 350.087 96.5787 349.908C96.3631 349.729 95.5687 348.412 95.5687 348.412C95.5687 348.412 98.9095 346.684 100.677 346.875Z" fill="white"/>
<path d="M105.625 516.624C105.794 517.575 105.96 518.514 106.127 519.445C107.127 525.051 108.057 530.245 108.642 534.595C109.406 540.255 109.584 544.464 108.584 546.234C104.467 553.519 108.584 611.319 108.584 611.319L113.27 617.831C113.27 617.831 121.414 560.766 123.622 551.823C124.626 547.759 126.088 530.399 127.381 512.676C127.446 511.791 127.511 510.902 127.575 510.017C127.8 506.917 128.016 503.829 128.222 500.813C129.383 484.042 130.248 469.685 130.248 469.685C130.248 469.685 121.611 461.487 113.763 460.577C109.138 460.032 104.79 462.019 102.644 469.685C99.516 480.838 102.684 500.102 105.628 516.628L105.625 516.624Z" fill="#FFB27D"/>
<path d="M106.943 520.463C112.99 511.567 116.971 498.826 124.352 480.992C124.98 471.921 119.678 463.298 113.763 460.577C109.138 460.032 104.79 462.019 102.644 469.685C99.5161 480.838 104.002 503.937 106.946 520.463H106.943Z" fill="#ED975D"/>
<path d="M82.2212 406.403L50.6795 417.398V422.368C50.6795 422.368 82.0703 421.869 84.0932 417.153C86.1192 412.433 82.2212 406.403 82.2212 406.403Z" fill="#FFB27D"/>
<path d="M66.7396 406.408C69.7355 400.669 77.2699 404.305 82.4088 384.925C82.4088 384.904 82.415 384.896 82.415 384.896C85.1523 374.566 85.9867 369.11 87.557 366.184C89.4752 362.611 95.7965 362.478 97.2036 362.386C98.2259 362.312 96.3199 356.457 98.1242 355.792C99.5991 355.248 101.527 357.62 103.048 358.165C106.102 359.27 110.44 356.374 111.974 355.709C112.768 355.368 113.713 357.238 113.584 358.352C113.427 359.665 116.029 360.936 127.517 361.19C139.017 361.447 145.535 364.684 148.553 361.572C151.57 358.46 166.223 342.113 166.223 342.113L171.03 348.4C171.03 348.4 166.251 361.306 159.48 371.358C156.37 375.974 152.842 379.993 149.162 381.879C138.093 387.559 132.2 385.49 127.477 387.011C127.471 387.011 127.464 387.015 127.461 387.019C127.923 402.357 124.73 425.053 124.73 425.053C111.9 435.483 96.3785 426.324 96.3785 426.324C96.3785 426.324 96.6679 424.309 96.6186 423.761C96.5755 423.308 96.2953 419.992 96.2399 419.618C96.1198 418.787 92.8683 414.399 92.8683 414.399C92.8683 414.399 91.9754 417.191 91.6244 418.143C89.2751 424.513 84.7736 428.369 82.218 428.876C76.3586 430.039 72.7591 427.8 70.1019 424.006C65.8221 417.902 64.6982 410.314 66.7396 406.404V406.408Z" fill="#F9DDBF"/>
<path d="M50.6795 570.24L52.1543 578.455C52.1543 578.455 94.8236 548.711 100.341 543.002C102.558 540.708 105.486 528.246 108.202 514.147C112.245 493.134 115.804 468.488 115.804 468.488C115.804 468.488 109.822 437.444 93.8106 456.442C84.2287 467.811 85.719 489.722 86.7689 506.763C87.4679 518.198 87.9697 527.44 84.7921 529.838C78.594 534.504 60.4062 556.012 54.6514 570.805L50.6826 570.24H50.6795Z" fill="#FFB27D"/>
<path d="M92.8684 414.398C92.8684 414.398 94.4325 409.474 95.5687 401.247C95.8889 398.924 109.12 416.763 105.806 424.006C102.493 431.248 92.8684 414.394 92.8684 414.394V414.398Z" fill="#EFC59E"/>
<path d="M73.8029 488.708C73.8029 488.708 77.9596 490.316 84.2039 492.091C97.1051 495.764 118.923 500.164 131.418 492.647C131.418 492.647 130.62 467.844 128.447 449.096C126.71 434.095 125.1 424.251 125.1 424.251C125.1 424.251 113.482 428.178 101.687 425.132C101.573 425.103 101.465 425.074 101.351 425.045C99.8054 424.629 98.2597 424.089 96.7387 423.407C96.7387 423.407 87.8341 440.635 83.2402 452.619C80.0626 460.909 73.8029 488.712 73.8029 488.712V488.708Z" fill="#F77D48"/>
<path d="M50.6764 417.403C50.6764 417.403 44.8909 413.555 42.5878 413.181C40.2877 412.807 36.4235 412.687 36.4235 413.181C36.4235 413.676 40.5648 417.149 41.6702 417.403C42.7756 417.652 44.8908 419.767 44.2473 420.012C43.6038 420.262 40.1984 419.206 40.1522 420.012C40.106 420.819 42.2213 421.317 42.5908 421.936C42.9603 422.555 44.2473 423.303 46.3164 422.929C48.3855 422.555 50.6764 422.373 50.6764 422.373V417.403Z" fill="#FFB27D"/>
<path d="M42.2428 573.427C42.2428 573.427 42.2551 573.427 42.2798 573.414C42.4707 573.348 43.3481 572.957 43.9301 571.075C44.3119 569.832 44.4289 568.814 44.7799 567.589L46.2209 564.231C47.7296 561.555 48.2561 562.178 48.2561 562.178C48.2561 562.178 48.6502 562.86 49.2322 563.757C50.1928 565.241 51.6677 567.31 52.7115 567.842C53.4535 568.216 53.9185 568.839 54.2018 569.417C54.5651 570.144 54.6451 570.796 54.6451 570.796C54.6451 570.796 51.5507 571.524 51.8217 573.581C52.3482 577.561 52.2219 578.289 52.1696 578.417L52.1511 578.446C52.1511 578.446 46.8737 582.174 45.1863 582.905C42.1843 584.201 40.614 586.956 39.641 588.216C39.2469 588.727 38.7019 588.959 38.163 588.843C37.3717 588.673 36.3434 588.332 36.1186 587.675L42.2397 573.418L42.2428 573.427Z" fill="#596636"/>
<path d="M103.876 620.727L106.404 622.572C107.324 623.012 108.082 623.137 109.012 623.619C110.425 624.35 111.416 625.784 111.466 626.041C112.18 629.951 113.221 629.835 113.221 629.835H123.345C123.822 629.511 123.012 626.748 122.624 626.228C121.664 624.953 118.791 625.592 117.744 621.583C117.153 619.326 114.24 612.316 114.24 612.316L114.218 612.291C114.12 612.221 113.581 612.075 110.647 612.898C109.132 613.322 108.501 609.171 108.501 609.171C108.501 609.171 108.017 609.299 107.491 609.811C107.072 610.209 106.622 610.858 106.367 611.867C106.004 613.289 104.513 615.337 103.442 616.679C102.792 617.49 102.299 618.042 102.299 618.042C102.299 618.042 101.85 618.774 103.876 620.731V620.727Z" fill="#596636"/>
<path d="M112.765 428.876C121.371 428.876 124.915 424.878 125.18 424.608L125.568 418.371C125.485 418.454 114.108 428.581 96.24 419.618L96.6187 423.76C103.491 427.205 108.297 428.876 112.765 428.876Z" fill="#596636"/>
<path d="M127.474 387.007H127.48C132.206 385.486 138.096 387.551 149.166 381.875C152.845 379.988 160.056 373.518 165.605 360.699C159.176 369.492 153.442 375.301 149.954 377.67C146.471 380.038 131.587 379.884 129.324 380.075C127.061 380.267 127.471 387.007 127.471 387.007H127.474Z" fill="#EFC59E"/>
<path d="M137.345 250.363C137.829 255.636 138.752 260.614 140.027 265.164C144.753 282.064 154.341 293.134 164.256 291.484C176.846 289.386 185.218 267.57 182.949 242.763C181.585 227.849 176.689 215.25 170.257 208.029C165.992 203.233 161.054 200.807 156.038 201.642C143.448 203.74 135.076 225.556 137.345 250.363Z" fill="#ED7D2B"/>
<path d="M137.345 250.363C137.829 255.636 138.752 260.614 140.027 265.164C144.292 269.959 149.23 272.386 154.246 271.551C166.836 269.452 175.211 247.645 172.939 222.83C172.455 217.557 171.532 212.579 170.257 208.029C165.993 203.233 161.054 200.807 156.038 201.642C143.448 203.74 135.076 225.556 137.345 250.363Z" fill="#F99746"/>
<path d="M170.599 450.238C170.968 456.255 174.965 460.639 179.402 459.899L180.375 459.737C184.842 458.993 187.946 453.367 187.192 447.392L171.849 325.645C171.827 325.466 171.803 325.279 171.778 325.088C171.775 325.042 171.763 324.993 171.76 324.947L167.23 289.016L160.758 289.56L161.389 299.915V299.924L170.602 450.238H170.599Z" fill="#ED7D2B"/>
<path d="M161.383 299.915V299.924L161.392 299.932C161.392 299.932 168.647 300.526 171.753 324.947L167.224 289.016L160.752 289.56L161.383 299.915Z" fill="#F99746"/>
<path d="M174.371 330.577C174.371 330.577 169.426 326.417 168.4 328.749C167.375 331.08 172.012 341.264 173.724 339.532C175.439 337.803 175.772 332.06 174.371 330.577Z" fill="#FFB27D"/>
<path d="M714.32 548.532C713.486 540.869 711.783 533.668 709.372 527.082C708.174 523.812 705.194 522.549 702.814 524.281L667.232 550.198C666.111 551.017 664.791 549.724 665.012 548.037L671.885 495.784C672.424 491.691 670.293 487.81 667.232 487.37C662.654 486.709 657.93 486.838 653.158 487.856C624.153 494.035 604.395 530.319 608.672 569.525C612.967 608.896 640.1 636.118 669.274 630.325C698.448 624.528 718.618 587.912 714.326 548.536L714.32 548.532Z" fill="#FFFACD"/>
<path d="M623.116 588.739C621.909 589.699 620.224 589.545 619.433 588.419C615.646 583.013 613.999 576.373 613.195 569.201C612.53 563.254 612.234 557.537 613.832 551.881C614.448 549.696 616.847 548.304 618.996 548.865L655.258 558.343C657.228 558.858 657.576 561.347 655.867 562.706L623.113 588.739H623.116Z" fill="#FAE865"/>
<path d="M619.408 543.949C618.069 543.487 616.893 541.863 616.834 540.412C616.551 533.448 618.432 527.045 621.179 521.618C623.457 517.118 625.899 513.665 629.717 511.404C631.192 510.532 633.615 511.782 634.942 514.093L657.355 553.082C658.574 555.201 657.669 557.146 655.772 556.494L619.405 543.949H619.408Z" fill="#FAE865"/>
<path d="M640.488 507.685C639.826 506.048 639.903 503.779 640.651 502.732C644.235 497.704 648.989 495.199 653.801 494.214C657.795 493.399 661.33 493.458 665.16 495.685C666.638 496.545 667.611 499.79 667.263 502.678L661.394 551.383C661.074 554.03 659.405 554.466 658.466 552.147L640.485 507.681L640.488 507.685Z" fill="#FAE865"/>
<path d="M625.271 592.437C624.123 593.488 623.448 595.574 623.79 596.983C625.434 603.752 628.941 608.726 633.052 612.64C636.457 615.89 639.776 618.333 644.035 618.748C645.679 618.906 647.643 616.613 648.271 613.804L658.9 566.429C659.479 563.853 658.084 562.411 656.456 563.898L625.268 592.441L625.271 592.437Z" fill="#FAE865"/>
<path d="M702.94 572.882C704.298 573.331 705.88 572.529 706.398 571.145C708.87 564.497 709.03 557.499 708.267 550.319C707.635 544.364 706.696 538.776 703.959 533.98C702.903 532.127 700.31 531.724 698.371 533.099L665.671 556.278C663.895 557.537 664.092 560.059 666.019 560.695L702.943 572.887L702.94 572.882Z" fill="#FAE865"/>
<path d="M703.029 575.65C704.369 576.14 705.508 577.815 705.523 579.302C705.594 586.425 703.476 592.666 700.532 598.172C698.09 602.738 695.541 606.503 691.612 608.759C690.094 609.632 687.686 608.319 686.415 605.938L664.96 565.789C663.793 563.608 664.766 561.63 666.663 562.328L703.029 575.654V575.65Z" fill="#FAE865"/>
<path d="M681.22 610.192C681.888 611.834 681.784 614.103 681.005 615.15C677.254 620.161 672.454 622.434 667.475 623.394C663.346 624.192 659.568 624.325 655.636 622.077C654.119 621.208 653.146 617.955 653.533 615.067L660.067 566.358C660.421 563.711 662.152 563.283 663.097 565.61L681.223 610.192H681.22Z" fill="#FAE865"/>
<path d="M278.904 502.931C280.447 502.362 282.023 503.662 282.353 505.769C290.712 558.812 266.896 612.104 227.506 626.606C188.119 641.108 147.546 611.522 134.787 560.1C134.282 558.06 135.147 555.862 136.69 555.292L278.901 502.931H278.904Z" fill="#FFFACD"/>
<path d="M244.856 598.229C246.042 600.344 246.162 603.54 245.124 605.21C240.155 613.222 233.562 617.402 226.28 620.082C220.246 622.305 214.383 623.793 208.277 621.707C205.919 620.901 204.087 616.621 204.318 612.482L208.206 542.685C208.419 538.891 210.935 537.832 212.616 540.823L244.856 598.229Z" fill="#FAE865"/>
<path d="M201.639 614.493C201.457 617.098 200.044 619.658 198.566 620.086C191.469 622.135 184.479 620.015 178.303 616.055C173.182 612.773 169.099 608.954 165.94 602.301C164.721 599.733 165.478 594.926 167.563 591.934L202.744 541.467C204.656 538.725 206.855 539.992 206.596 543.682L201.639 614.497V614.493Z" fill="#FAE865"/>
<path d="M247.544 596.837C248.76 598.89 250.996 599.937 252.421 599.139C259.26 595.292 264.039 588.124 267.653 579.934C270.649 573.144 272.823 566.607 272.789 558.517C272.777 555.392 270.178 551.935 267.195 551.05L216.889 536.141C214.155 535.33 212.809 538.123 214.531 541.036L247.544 596.842V596.837Z" fill="#FAE865"/>
<path d="M164.623 591.522C163.274 593.38 160.955 594.39 159.675 593.442C153.957 589.208 150.203 585.277 146.438 578.209C142.481 570.779 140.215 565.672 142.503 558.745C144.664 552.197 199.376 536.415 199.376 536.415C202.11 535.783 203.206 538.442 201.294 541.073L164.623 591.518V591.522Z" fill="#FAE865"/>
<path d="M270.403 549.093C272.29 549.616 274.677 548.735 275.302 546.953C278.384 538.164 279.72 530.14 278.892 521.505C278.205 514.35 279.351 505.566 267.21 510.037L218.764 529.604C216.233 531.142 216.427 534.175 219.103 534.915L270.403 549.093Z" fill="#FAE865"/>
<path d="M504.985 403.179C504.985 403.179 504.653 395.412 511.926 394.045C511.926 394.045 516.033 392.574 520.045 398.097C525.356 405.406 522.256 421.018 524.032 424.126C525.809 427.238 538.941 420.693 536.663 438.05C535.354 448.019 524.824 464.349 511.285 465.97C511.285 465.97 500.053 463.726 506.229 450.716C507.883 447.238 511.781 442.899 508.4 436.646C507.689 435.333 504.982 403.179 504.982 403.179H504.985Z" fill="#A07055"/>
<path d="M572.352 513.636C572.296 513.769 572.238 513.91 572.179 514.047C570.803 517.271 567.647 525.179 564.174 533.83C562.53 537.936 560.808 542.208 559.173 546.23C556.359 553.169 553.8 559.348 552.307 562.614C550.789 565.934 549.668 568.27 549.219 569.2H549.216C549.08 569.496 549.049 569.832 549.068 570.169C549.225 573.098 549.182 576.007 548.969 578.87C546.873 607.018 532.808 622.102 532.808 622.102L528.626 622.937C528.626 622.937 534.544 593.347 536.287 576.622C536.582 573.788 536.709 571.49 536.607 569.99C536.299 565.631 536.872 559.236 537.956 551.889C539.886 538.833 543.427 522.81 546.506 509.987C546.7 509.169 552.581 480.459 552.581 480.459C557.517 486.281 575.52 488.683 575.52 488.683C575.52 488.683 578.574 498.697 572.349 513.636H572.352Z" fill="#F99746"/>
<path d="M515.06 447.832C515.06 447.832 523.601 447.491 524.035 457.638C524.47 467.786 515.309 507.049 513.422 510.61C509.986 517.093 495.628 534.237 495.628 534.237L491.856 531.366C491.856 531.366 504.32 502.341 506.466 499.74C509.835 495.659 511.005 450.973 515.06 447.832Z" fill="#FFB27D"/>
<path d="M519.845 630.084H537.3C537.3 630.084 537.719 626.494 536.807 623.772C535.933 621.159 534.689 621.075 536.647 616.978C535.539 618.52 531.973 619.156 529.448 618.699C529.14 619.376 527.456 623.914 526.422 624.915C525.282 626.02 520.196 625.626 519.845 630.084Z" fill="#A07055"/>
<path d="M572.352 513.635C572.296 513.768 572.238 513.909 572.179 514.047C570.803 517.271 563.364 535.816 559.888 544.468C563.915 522.108 561.113 499.744 561.113 499.744L572.352 513.631V513.635Z" fill="#ED7D2B"/>
<path d="M507.366 401.749C507.252 401.13 517.335 407.899 517.847 408.664C522.576 415.745 521.227 424.982 518.521 425.069C516.784 425.127 517.123 429.021 517.123 429.021L497.79 417.984C497.79 417.984 500.118 399.668 507.366 401.749Z" fill="#A07055"/>
<path d="M513.862 446.706C513.862 446.706 511.288 450.304 511.288 461.075C511.288 461.075 514.835 468.633 524.035 470.545C524.035 470.545 516.125 446.702 513.862 446.706Z" fill="#EFC59E"/>
<path d="M558.745 490.436L558.687 486.032C565.19 487.137 581.112 475.544 581.112 475.544C581.112 475.544 587.916 481.652 588.846 499.092C589.302 507.606 592.178 543.608 592.495 554.358C592.612 558.255 592.649 561.035 592.661 562.145C592.661 562.149 592.661 562.153 592.661 562.157C592.664 562.498 592.784 562.797 592.938 563.063C594.284 565.369 595.451 567.817 596.464 570.351C606.387 595.271 601.267 628.651 601.267 628.651L598.976 627.824C598.976 627.824 590.503 593.239 585.019 578.055C584.089 575.479 583.242 573.476 582.534 572.317C580.471 568.939 578.297 563.196 576.154 556.29C572.102 543.23 558.745 490.432 558.745 490.432V490.436Z" fill="#F99746"/>
<path d="M587.319 630.084H604.771C604.771 630.084 605.19 626.494 604.278 623.772C603.404 621.158 602.037 619.97 602.363 616.808C601.255 618.349 599.447 620.074 596.922 619.617C596.615 620.294 594.927 623.913 593.893 624.915C592.75 626.02 587.667 625.625 587.316 630.084H587.319Z" fill="#A07055"/>
<path d="M525.215 475.602C527.558 476.142 524.833 478.656 528.057 479.13C532.647 479.807 537.383 480.268 539.868 481.606C540.773 482.092 542.38 484.299 542.762 484.922C545.117 488.766 548.11 496.403 548.11 496.403C578.504 494.538 581.111 475.544 581.111 475.544C561.387 449.689 543.252 434.443 529.402 432.428C527.031 432.083 524.035 434.111 521.902 435.395C517.052 438.308 513.862 446.706 513.862 446.706C513.862 446.706 516.304 473.553 525.215 475.602Z" fill="#F9DDBF"/>
<path d="M528.057 479.13C532.647 479.807 537.383 480.268 539.868 481.606C540.881 461.15 533.728 445.762 533.728 445.762C533.728 445.762 529.06 471.388 528.057 479.13Z" fill="#EFC59E"/>
<path d="M521.902 435.391C521.902 435.391 518.693 451.547 513.862 446.702C513.998 445.92 513.157 443.652 512.163 441.35C510.894 438.408 509.382 435.399 509.382 435.399L515.913 427.674L516.304 427.213C518.305 431.929 520.267 433.779 521.899 435.387L521.902 435.391Z" fill="#FFB27D"/>
<path d="M509.382 435.407C509.382 435.407 510.891 438.407 512.163 441.357C516.224 437.979 516.227 431.198 515.913 427.682L509.382 435.411V435.407Z" fill="#ED985F"/>
<path d="M509.203 439.276C509.203 439.276 519.063 431.871 515.552 423.66C512.042 415.445 510.949 408.958 504.508 413.338C498.067 417.718 498.193 421.794 498.87 424.923C499.548 428.048 506.549 440.992 509.207 439.28L509.203 439.276Z" fill="#FFB27D"/>
<path d="M497.202 420.128C497.654 416.48 499.024 416.131 499.982 416.376C503.621 408.252 509.57 411.423 509.57 411.423C512.748 416.804 517.339 417.722 517.339 417.722C517.339 417.722 516.196 420.593 511.482 422.372C510.044 422.916 508.409 422.588 506.833 421.869C510.103 424.329 513.524 425.272 513.524 425.272C507.313 426.037 501.669 420.701 501.057 419.883C500.053 420.61 499.406 421.042 499.348 422.9C499.258 425.675 500.401 428.405 501.343 430.57C501.343 430.57 496.524 425.596 497.202 420.128Z" fill="#A07055"/>
<path d="M399.26 610.72C403.913 624.969 433.678 621.059 465.74 601.986C497.802 582.913 520.02 555.903 515.368 541.659C510.715 527.41 480.95 531.32 448.888 550.393C416.826 569.466 394.608 596.476 399.26 610.72Z" fill="#C19663"/>
<path d="M396.8 603.191C401.452 617.439 431.218 613.529 463.28 594.456C495.342 575.383 517.56 548.374 512.908 534.129C508.255 519.881 478.49 523.791 446.428 542.864C414.366 561.937 392.148 588.946 396.8 603.191Z" fill="#C19663"/>
<path d="M512.486 533.045C512.486 533.045 515.839 539.153 515.679 542.818C515.515 546.487 399.26 610.72 399.26 610.72C399.26 610.72 397.305 605.464 396.8 603.191C396.295 600.918 512.486 533.045 512.486 533.045Z" fill="#C19663"/>
<path d="M398.136 593.941C402.755 608.078 430.854 605.053 460.903 587.181C490.951 569.309 511.565 543.359 506.946 529.222C502.328 515.086 474.229 518.111 444.18 535.983C414.132 553.855 393.518 579.805 398.136 593.941Z" fill="#F9DDBF"/>
<path d="M391.279 586.287C395.932 600.536 425.697 596.625 457.759 577.552C489.821 558.484 512.039 531.47 507.387 517.226C502.734 502.977 472.969 506.887 440.907 525.96C408.845 545.033 386.627 572.043 391.279 586.287Z" fill="#C19663"/>
<path d="M504.508 508.611C504.508 508.611 507.861 514.72 507.701 518.385C507.538 522.054 391.283 586.287 391.283 586.287C391.283 586.287 389.327 581.03 388.822 578.757C388.317 576.484 504.508 508.611 504.508 508.611Z" fill="#C19663"/>
<path d="M388.819 578.758C393.472 593.006 423.237 589.096 455.299 570.023C487.361 550.95 509.579 523.941 504.927 509.696C500.274 495.452 470.509 499.358 438.447 518.431C406.385 537.504 384.167 564.513 388.819 578.758Z" fill="#93664C"/>
<path d="M425.429 564.23C425.435 564.147 425.447 564.064 425.466 563.985C425.617 563.349 426.116 563 426.587 563.2L433.481 566.142C433.952 566.345 434.207 567.023 434.063 567.654C433.912 568.29 433.413 568.639 432.942 568.44L426.051 565.498C425.641 565.323 425.392 564.787 425.432 564.235L425.429 564.23Z" fill="#F99746"/>
<path d="M440.31 535.808C440.316 535.725 440.328 535.642 440.347 535.563C440.498 534.927 440.997 534.578 441.468 534.778L448.359 537.72C448.83 537.923 449.085 538.601 448.94 539.232C448.79 539.868 448.291 540.221 447.82 540.018L440.926 537.076C440.516 536.901 440.267 536.365 440.307 535.812L440.31 535.808Z" fill="#F99746"/>
<path d="M489.966 521.443C490.024 521.472 490.08 521.506 490.135 521.551C490.557 521.9 490.686 522.64 490.431 523.209L486.653 531.528C486.394 532.093 485.843 532.264 485.424 531.927C485.002 531.578 484.873 530.838 485.129 530.269L488.907 521.95C489.131 521.456 489.578 521.256 489.966 521.443Z" fill="#F99746"/>
<path d="M469.767 519.598C469.777 519.515 469.792 519.436 469.814 519.353C469.989 518.73 470.503 518.418 470.965 518.651L477.727 522.104C478.189 522.341 478.416 523.039 478.247 523.658C478.072 524.281 477.557 524.593 477.095 524.36L470.334 520.907C469.931 520.703 469.703 520.147 469.767 519.598Z" fill="#EBF2FF"/>
<path d="M415.832 555.114C415.884 555.155 415.933 555.209 415.979 555.267C416.334 555.733 416.343 556.493 415.998 556.971L410.967 563.977C410.622 564.455 410.058 564.459 409.704 564.006C409.35 563.541 409.341 562.78 409.683 562.302L414.714 555.296C415.013 554.881 415.481 554.818 415.829 555.114H415.832Z" fill="#EBF2FF"/>
<path d="M466.131 544.542C466.183 544.584 466.233 544.638 466.279 544.696C466.633 545.162 466.642 545.922 466.3 546.4L461.269 553.406C460.924 553.884 460.361 553.888 460.007 553.435C459.653 552.969 459.643 552.209 459.985 551.731L465.016 544.725C465.315 544.31 465.783 544.247 466.131 544.542Z" fill="#EBF2FF"/>
<path d="M524.097 442.297C524.097 442.297 535.637 441.445 537.688 451.227C539.739 461.004 533.839 500.039 532.571 504.066C530.255 511.4 518.992 532.334 518.992 532.334L514.848 530.631C514.848 530.631 522.36 498.651 524.035 495.489C526.668 490.523 520.642 446.556 524.097 442.301V442.297Z" fill="#FFB27D"/>
<path d="M539.963 464.304C539.932 464.532 529.042 467.009 522.231 462.342C522.231 462.342 516.541 438.283 524.673 439.434C532.804 440.585 537.62 444.042 537.826 449.299C538.03 454.555 539.963 464.308 539.963 464.308V464.304Z" fill="#EFC59E"/>
<path d="M514.847 530.631C514.847 530.631 514.312 532.463 513.536 533.743C512.76 535.023 510.823 538.771 510.783 540.583C510.783 540.583 510.897 541.389 511.38 541.239C511.864 541.094 513.548 538.846 514.41 539.004C514.41 539.004 515.149 542.016 514.847 543.138C514.025 546.201 515.223 550.086 515.497 550.971C515.771 551.856 518.139 545.07 518.702 542.652C519.078 541.031 519.291 537.292 519.192 534.25C519.134 532.476 520.417 529.65 520.417 529.65L514.851 530.627L514.847 530.631Z" fill="#FFB27D"/>
<path d="M344.324 269.835C344.324 269.835 372.842 238.549 389.374 240.997C405.905 243.444 376.861 259.226 369.006 266.843C361.151 274.46 335.564 280.992 344.324 269.835Z" fill="#CDCCC2"/>
</svg>
