<svg width="754" height="571" viewBox="0 0 754 571" fill="none" xmlns="http://www.w3.org/2000/svg">
<path d="M254.801 0.0688477H499.199C508.478 0.0688477 516 7.59089 516 16.8698V148.705C516 157.984 508.478 165.506 499.199 165.506H254.801C245.522 165.506 238 157.984 238 148.705V16.8698C238 7.59089 245.522 0.0688477 254.801 0.0688477Z" fill="#E1E1DB"/>
<path d="M346.874 160.224L281.15 218.582L275.755 161.252" fill="#E1E1DB"/>
<path d="M429.348 101.314C420.408 101.314 413.162 94.0669 413.162 85.1276C413.162 76.1882 420.408 68.9414 429.348 68.9414C438.287 68.9414 445.534 76.1882 445.534 85.1276C445.534 94.0669 438.287 101.314 429.348 101.314Z" fill="#CDCCC2"/>
<path d="M373.625 101.314C364.685 101.314 357.439 94.0669 357.439 85.1276C357.439 76.1882 364.685 68.9414 373.625 68.9414C382.564 68.9414 389.811 76.1882 389.811 85.1276C389.811 94.0669 382.564 101.314 373.625 101.314Z" fill="#CDCCC2"/>
<path d="M317.914 101.314C308.975 101.314 301.728 94.0669 301.728 85.1276C301.728 76.1882 308.975 68.9414 317.914 68.9414C326.854 68.9414 334.1 76.1882 334.1 85.1276C334.1 94.0669 326.854 101.314 317.914 101.314Z" fill="#CDCCC2"/>
<g clip-path="url(#clip0_44_1733)">
<path d="M476.396 482.383C470.308 479.232 463.131 478.826 456.36 479.948C452.724 480.546 448.939 481.635 446.465 484.369C443.991 487.103 443.522 491.92 446.358 494.27C448.054 495.669 450.41 495.883 452.596 495.851C457.896 495.787 463.771 494.857 467.994 498.051C470.404 499.867 472.014 502.9 474.903 503.797C477.729 504.673 480.917 503.007 482.41 500.454C483.903 497.901 483.956 494.708 483.263 491.835C483.263 491.835 482.528 485.565 476.386 482.393L476.396 482.383Z" fill="#6F7A39"/>
<path d="M490.354 455.383C486.633 460.712 479.382 458.95 476.023 455.692C472.664 452.435 471.246 447.725 469.956 443.228C467.002 432.954 464.027 422.177 466.224 411.71C466.885 408.581 468.047 405.462 470.244 403.145C472.44 400.827 475.81 399.438 478.902 400.261C482.549 401.222 484.82 404.811 486.462 408.218C491.282 418.236 493.841 429.333 493.873 440.462C493.894 445.653 493.276 451.1 490.354 455.393" fill="#6F7A39"/>
<path d="M500.175 480.022C496.134 475.216 495.366 468.199 497.157 462.175C498.959 456.151 503.022 451.025 507.714 446.838C513.205 441.936 519.667 438.112 526.609 435.666C529.339 434.705 532.228 433.947 535.107 434.225C537.986 434.502 540.897 435.976 542.241 438.55C544.235 442.352 542.326 446.956 540.258 450.715C536.622 457.337 532.474 463.681 527.846 469.651C524.124 474.458 519.859 479.2 514.197 481.368C508.524 483.536 502.638 483.28 499.631 479.349" fill="#6F7A39"/>
<path d="M490.61 535.795C490.536 535.795 490.429 534.941 490.269 533.371C490.098 531.608 489.885 529.398 489.629 526.76C489.32 523.983 488.915 520.672 488.147 517.062C487.379 513.462 486.174 509.575 484.628 505.623C483.029 501.693 481.077 498.125 478.795 495.274C476.535 492.401 473.901 490.329 471.417 489.132C468.953 487.915 466.735 487.413 465.2 487.199C463.654 487.039 462.79 486.922 462.79 486.847C462.79 486.783 463.654 486.772 465.243 486.804C466.81 486.911 469.113 487.306 471.715 488.492C474.328 489.656 477.121 491.76 479.499 494.686C481.898 497.602 483.914 501.255 485.545 505.249C487.113 509.265 488.307 513.206 489.043 516.88C489.779 520.544 490.109 523.897 490.333 526.695C490.546 529.504 490.621 531.779 490.664 533.349C490.696 534.919 490.685 535.795 490.61 535.795Z" fill="#425330"/>
<path d="M490.152 530.701C490.152 530.701 490.098 530.316 490.088 529.579C490.088 528.735 490.088 527.667 490.088 526.364C490.088 523.577 490.088 519.54 489.949 514.552C489.704 504.587 488.851 493.853 487.187 478.73C485.62 464.503 483.519 447.959 481.301 437.194C480.821 434.748 480.342 432.548 479.894 430.614C479.467 428.681 479.094 427.015 478.742 425.669C478.433 424.398 478.188 423.362 477.996 422.551C477.836 421.835 477.772 421.451 477.804 421.44C477.836 421.44 477.974 421.792 478.198 422.497C478.444 423.309 478.753 424.324 479.126 425.573C479.542 426.908 479.958 428.564 480.448 430.486C480.949 432.409 481.483 434.609 482.005 437.044C484.202 446.795 486.526 460.423 488.2 475.59C489.864 490.745 490.61 504.544 490.674 514.541C490.738 519.54 490.632 523.587 490.504 526.375C490.429 527.678 490.354 528.746 490.312 529.59C490.258 530.327 490.205 530.711 490.173 530.711L490.152 530.701Z" fill="#425330"/>
<path d="M489.672 521.078C489.608 521.078 489.619 519.882 489.693 517.724C489.821 515.567 490.109 512.448 490.717 508.624C491.357 504.812 492.263 500.294 493.671 495.37C494.278 493.127 495.718 487.734 499.205 479.691C503.79 468.786 510.028 459.868 515.455 454.347C516.724 452.883 518.142 451.826 519.273 450.79C519.859 450.288 520.382 449.797 520.904 449.402C521.437 449.038 521.928 448.697 522.386 448.376C524.167 447.159 525.169 446.507 525.212 446.571C525.372 446.785 521.213 449.241 515.967 454.838C510.742 460.424 504.675 469.278 500.122 480.086C497.584 485.95 495.814 491.183 494.556 495.626C493.105 500.497 492.146 504.972 491.41 508.742C490.717 512.523 490.322 515.609 490.077 517.746C489.874 519.882 489.736 521.078 489.661 521.067L489.672 521.078Z" fill="#425330"/>
<path d="M516.351 524.143L513.696 560.681H466.821L464.166 524.143H516.351Z" fill="#9D6F57"/>
<path d="M458.568 509.735H520.883V524.143H458.568V509.735Z" fill="#9D6F57"/>
<path d="M520.883 559.282V563.276H517.95H459.602V559.282H520.883Z" fill="#9D6F57"/>
<path d="M515.082 570.304L517.951 563.276H461.83L465.179 570.304H515.082Z" fill="#9D6F57"/>
<path d="M463.505 523.897C463.505 524.057 475.245 524.186 489.725 524.186C504.206 524.186 515.956 524.057 515.956 523.897C515.956 523.737 504.216 523.609 489.725 523.609C475.234 523.609 463.505 523.737 463.505 523.897Z" fill="#602512"/>
<path d="M461.137 563.671C461.137 563.831 473.901 563.96 489.64 563.96C505.379 563.96 518.142 563.831 518.142 563.671C518.142 563.511 505.379 563.383 489.64 563.383C473.901 563.383 461.137 563.511 461.137 563.671Z" fill="#602512"/>
<path d="M107.762 419.027C116.548 372.759 112.176 328.329 120.962 282.061L121.89 275.129C117.23 261.01 100.862 265.453 92.9078 273.292C84.9424 281.132 80.8264 293.414 78.9924 305.462C77.1583 317.509 77.2756 329.749 75.9427 341.871C72.7331 371.072 61.121 400.144 65.2156 428.767L92.5985 428.287L97.5462 404.63L98.3886 424.666L107.762 419.027Z" fill="#596636"/>
<path d="M94.7631 281.014C95.6695 277.511 96.6185 273.944 98.5485 270.889C100.479 267.824 103.592 265.293 107.186 264.972C108.881 264.823 110.779 265.271 111.76 266.66C112.741 268.048 112.176 270.451 110.502 270.782L110.235 271.178C107.516 275.428 104.712 279.626 101.833 283.77C101.108 284.816 100.351 285.874 99.2843 286.568C98.2179 287.262 96.7571 287.497 95.6908 286.814C93.9207 285.682 94.2299 283.054 94.7631 281.014Z" fill="#688F58"/>
<path d="M102.601 273.346C113.178 261.683 126.902 255.36 142.63 255.905C151.502 256.214 155.074 258.254 161.365 260.305C167.656 262.356 173.244 266.083 176.773 271.701C180.964 278.365 184.397 285.767 184.845 293.628C185.314 301.702 185.773 309.841 184.749 317.862C183.726 325.883 181.124 333.893 176.048 340.184L155.394 342.683C144.069 342.48 132.585 342.266 121.709 339.116C110.833 335.965 100.436 329.471 95.0297 319.506C87.5229 305.654 92.0014 285.009 102.579 273.346H102.601Z" fill="#596636"/>
<path d="M120.824 274.147L148.665 264.694L155.746 265.891C171.783 266.777 181.934 285.062 181.369 298.081C180.74 312.543 179.407 330.176 176.56 340.707C170.844 361.897 152.493 362.73 152.493 362.73L152.28 371.669L165.737 374.564L155.991 422.145L88.4292 373.976L109.361 370.772L113.221 281.11C113.562 277.169 116.857 274.136 120.813 274.147H120.824Z" fill="#FFBF9D"/>
<path d="M144.741 334.043C144.944 332.921 145.626 331.96 146.458 331.308C148.132 330.016 150.467 330.005 152.12 331.276C153.773 332.547 154.626 335.025 154.189 337.257C153.165 338.528 151.64 339.351 150.009 339.404C149.753 339.404 149.497 339.404 149.241 339.393C148.015 339.297 146.778 338.817 145.882 337.855C144.986 336.894 144.475 335.42 144.731 334.043H144.741Z" fill="#FF9A6C"/>
<path d="M163.871 312.105C164.212 311.742 166.313 313.301 169.298 313.301C172.284 313.344 174.481 311.806 174.801 312.169C174.96 312.329 174.609 312.981 173.649 313.675C172.711 314.369 171.1 315.032 169.245 315.021C167.39 315.01 165.822 314.316 164.926 313.611C164.009 312.906 163.7 312.244 163.871 312.084V312.105Z" fill="#263238"/>
<path d="M155.767 327.464C155.767 327.293 157.654 327.175 160.683 327.111C161.45 327.111 162.186 327.036 162.367 326.534C162.602 326 162.367 325.157 162.101 324.227C161.578 322.316 161.045 320.308 160.48 318.204C158.241 309.638 156.716 302.621 157.057 302.535C157.398 302.45 159.499 309.318 161.728 317.894C162.261 320.009 162.773 322.017 163.252 323.939C163.444 324.836 163.839 325.861 163.327 326.962C163.06 327.506 162.463 327.859 161.962 327.944C161.461 328.04 161.034 327.998 160.651 327.987C157.622 327.827 155.756 327.645 155.756 327.474L155.767 327.464Z" fill="#263238"/>
<path d="M152.536 362.719C152.536 362.719 137.959 362.111 124.535 351.943C124.535 351.943 130.623 367.707 152.365 367.985L152.525 362.719H152.536Z" fill="#FF9A6C"/>
<path d="M146.81 328.585C147.3 328.606 146.959 331.842 149.476 334.427C151.981 337.022 155.458 337.022 155.436 337.482C155.458 337.684 154.605 338.026 153.154 337.909C151.726 337.802 149.7 337.129 148.164 335.538C146.629 333.957 146.106 332.002 146.138 330.667C146.159 329.3 146.607 328.542 146.82 328.585H146.81Z" fill="#263238"/>
<path d="M175.632 294.568C175.056 295.241 172.839 294.514 170.151 294.45C167.475 294.301 165.193 294.856 164.681 294.141C164.457 293.788 164.82 293.115 165.822 292.485C166.803 291.855 168.445 291.353 170.29 291.417C172.135 291.492 173.724 292.122 174.641 292.827C175.579 293.532 175.888 294.237 175.632 294.568Z" fill="#263238"/>
<path d="M145.488 312.639C145.168 312.255 142.96 313.664 139.985 313.451C137.01 313.28 134.931 311.592 134.579 311.934C134.409 312.084 134.718 312.757 135.614 313.526C136.499 314.284 138.055 315.064 139.911 315.181C141.766 315.299 143.376 314.722 144.325 314.081C145.285 313.44 145.648 312.81 145.488 312.628V312.639Z" fill="#263238"/>
<path d="M138.151 292.357C138.695 293.073 141.041 292.528 143.803 292.688C146.575 292.763 148.879 293.5 149.465 292.827C149.721 292.496 149.401 291.791 148.42 291.086C147.46 290.381 145.808 289.74 143.899 289.655C142.001 289.58 140.305 290.082 139.303 290.702C138.279 291.332 137.906 292.005 138.141 292.357H138.151Z" fill="#263238"/>
<path d="M115.066 317.627C115.236 316.025 113.786 312.041 112.229 311.624C108.071 310.513 100.425 310.033 99.1989 320.777C97.5355 335.463 112.602 334.106 112.666 333.69C112.72 333.359 114.479 323.17 115.055 317.627H115.066Z" fill="#FFBF9D"/>
<path d="M109.233 327.869C109.18 327.816 108.956 328.019 108.508 328.168C108.06 328.318 107.324 328.36 106.589 327.987C105.106 327.239 104.083 324.633 104.307 321.974C104.424 320.628 104.84 319.389 105.437 318.396C106.002 317.37 106.781 316.697 107.58 316.655C108.38 316.559 108.87 317.093 109.009 317.531C109.158 317.968 109.03 318.246 109.105 318.278C109.137 318.321 109.446 318.065 109.393 317.445C109.361 317.146 109.233 316.783 108.924 316.462C108.604 316.131 108.103 315.928 107.559 315.928C106.418 315.875 105.288 316.804 104.637 317.904C103.923 319.004 103.422 320.393 103.283 321.899C103.038 324.868 104.243 327.805 106.29 328.66C107.292 329.044 108.188 328.83 108.668 328.531C109.158 328.222 109.276 327.901 109.233 327.869Z" fill="#FF9A6C"/>
<path d="M111.621 311.635L115.162 315.715C132.095 301.083 165.63 263.968 163.754 266.19C163.754 266.19 152.93 261.063 140.828 262.494C128.725 263.926 105.65 268.764 105.277 282.958C104.893 297.152 111.632 311.646 111.632 311.646L111.621 311.635Z" fill="#596636"/>
<path d="M98.5699 324.954C98.5166 324.986 98.122 324.537 97.4716 323.661C96.8211 322.796 95.8934 321.525 94.8911 319.838C93.8888 318.172 92.8651 316.003 92.2467 313.472C91.6069 310.952 91.1803 308.132 90.9457 305.163C90.3699 299.139 91.8734 293.756 93.1423 290.114C93.8034 288.277 94.4646 286.835 94.9657 285.874C95.4669 284.902 95.7975 284.4 95.8508 284.432C96.0001 284.507 94.9231 286.654 93.7715 290.338C92.6732 294.002 91.3296 299.257 91.8841 305.099C92.3106 310.962 93.4835 316.196 95.4669 319.517C97.3223 322.882 98.7085 324.868 98.5592 324.964L98.5699 324.954Z" fill="#688F58"/>
<path d="M49.7648 570.304C49.7648 549.862 65.0237 513.719 71.091 501.063C71.091 501.063 66.1754 436.254 66.1754 426.118C66.1754 424.217 78.086 374.511 78.086 374.511L98.3246 372.033C98.3246 372.033 95.3496 384.646 125.718 384.646C156.087 384.646 161.162 372.033 161.162 372.033C176.731 377.394 195.626 383.055 195.626 383.055L193.834 445.461L178.159 502.024C185.218 526.29 194.847 551.474 195.626 570.304H49.7648Z" fill="#FAE0B2"/>
<path d="M185.752 380.235C187.042 380.235 189.878 380.62 197.332 383.653C204.785 386.686 250.871 455.511 255.968 462.314C265.021 474.415 256.576 495.701 248.44 498.243C233.885 502.772 226.773 497.891 211.354 482.244C194.762 465.412 181.486 437.29 181.486 437.29L185.752 380.246V380.235Z" fill="#FAE0B2"/>
<path d="M198.227 413.398C198.227 413.398 198.153 413.643 198.046 414.113C197.939 414.637 197.801 415.331 197.63 416.175C197.268 418.033 196.767 420.618 196.148 423.779C194.879 430.198 193.088 439.063 190.934 448.803C188.769 458.555 186.583 467.323 184.877 473.635C184.013 476.786 183.31 479.339 182.777 481.09C182.542 481.923 182.35 482.596 182.201 483.12C182.073 483.59 182.019 483.835 182.041 483.835C182.062 483.835 182.147 483.6 182.307 483.152C182.478 482.639 182.702 481.977 182.979 481.154C183.566 479.424 184.333 476.882 185.25 473.742C187.052 467.451 189.302 458.683 191.467 448.921C193.632 439.17 195.359 430.284 196.532 423.843C197.108 420.618 197.556 418.012 197.844 416.196C197.971 415.331 198.078 414.647 198.163 414.113C198.227 413.633 198.249 413.387 198.238 413.376L198.227 413.398Z" fill="#263238"/>
<g opacity="0.3">
<path d="M115.737 473.646C112.89 477.213 110.001 480.834 106.375 483.6C102.75 486.377 98.2393 488.267 93.6968 487.894C89.197 487.52 84.2386 485.095 80.5066 487.648C78.0434 489.325 77.265 492.518 76.0494 495.242C74.8338 497.965 72.2319 500.742 69.3529 499.963C67.7215 499.525 66.5592 497.987 66.09 496.353C65.6208 494.718 65.7061 492.988 65.8127 491.301C66.058 487.018 66.3033 482.735 66.5592 478.452C66.6445 477 66.7618 475.462 67.6255 474.298C68.7131 472.845 70.6432 472.386 72.4239 472.023C85.3796 469.385 98.3353 466.746 111.28 464.108" fill="black"/>
</g>
<path d="M100.041 448.878C99.9455 451.484 117.273 454.24 138.738 455.03C160.203 455.821 177.69 454.336 177.786 451.73C177.882 449.124 160.555 446.368 139.09 445.578C117.625 444.788 100.137 446.272 100.041 448.878Z" fill="#E0E0E0"/>
<path d="M99.8601 448.077C99.5616 456.141 116.729 463.318 138.205 464.098C159.67 464.888 177.317 458.982 177.616 450.929" fill="#E0E0E0"/>
<g opacity="0.3">
<path d="M100.041 448.878C99.9455 451.484 117.273 454.24 138.738 455.03C160.203 455.821 177.69 454.336 177.786 451.73C177.882 449.124 160.555 446.368 139.09 445.578C117.625 444.788 100.137 446.272 100.041 448.878Z" fill="black"/>
</g>
<path d="M105.224 451.452C105.224 451.452 105.458 451.538 105.927 451.655C106.45 451.783 107.132 451.943 107.985 452.136C109.777 452.499 112.389 453.001 115.631 453.471C118.872 453.962 122.754 454.4 127.062 454.806C131.38 455.169 136.136 455.479 141.137 455.607C151.139 455.863 160.203 455.361 166.718 454.549C169.97 454.112 172.593 453.727 174.385 453.332C175.238 453.15 175.92 453.012 176.453 452.905C176.922 452.798 177.168 452.734 177.168 452.712C177.168 452.691 176.912 452.712 176.432 452.787C175.899 452.873 175.206 452.979 174.353 453.118C172.551 453.449 169.928 453.78 166.686 454.165C160.181 454.87 151.15 455.308 141.169 455.051C136.179 454.923 131.434 454.624 127.126 454.293C122.818 453.909 118.947 453.524 115.706 453.076C112.464 452.659 109.851 452.221 108.049 451.922C107.196 451.762 106.503 451.644 105.981 451.538C105.501 451.452 105.256 451.42 105.245 451.441L105.224 451.452Z" fill="#263238"/>
<path d="M85.337 448.313C84.5799 447.725 85.5289 442.193 87.6189 440.612C88.3973 440.025 89.8048 439.523 91.2657 439.117C94.2726 438.284 97.4609 438.594 100.287 439.961L110.95 445.151C110.95 445.151 112.112 450.908 106.226 450.694C100.34 450.481 98.0581 449.509 98.0581 449.509L95.9788 450.694L100.862 455.543C100.862 455.543 124.652 459.153 123.895 463.895C123.138 468.638 116.601 467.249 116.601 467.249C116.601 467.249 118.009 470.603 114.778 472.376C114.778 472.376 119.331 475.537 114.778 477.502C110.225 479.478 107.367 485 97.3117 484.605L92.9398 483.024L87.2457 479.67C87.2457 479.67 72.0507 484.252 71.4856 484.626C70.9204 485 61.8035 458.95 62.3686 459.153C62.9338 459.346 83.6416 453.824 83.6416 453.824L85.3476 448.302L85.337 448.313Z" fill="#FFBF9D"/>
<path d="M87.9601 462.058C87.9601 462.058 88.3226 462.272 89.0157 462.56C89.7088 462.849 90.7325 463.233 92.0121 463.66C94.5606 464.526 98.154 465.519 102.217 466.234C106.269 466.939 109.99 467.217 112.688 467.26C114.031 467.281 115.119 467.27 115.876 467.228C116.633 467.196 117.038 467.153 117.038 467.11C117.038 467.025 115.375 467.014 112.699 466.854C110.022 466.704 106.333 466.373 102.313 465.668C98.2927 464.963 94.6992 464.034 92.14 463.265C89.5702 462.507 88.0028 461.952 87.9708 462.037L87.9601 462.058Z" fill="#FF9A6C"/>
<path d="M92.0121 472.6C92.0121 472.675 93.345 472.867 95.5202 473.038C97.6955 473.209 100.703 473.358 104.029 473.337C107.356 473.316 110.363 473.145 112.539 472.952C114.714 472.76 116.047 472.557 116.036 472.483C116.036 472.397 114.682 472.472 112.507 472.557C110.331 472.653 107.335 472.76 104.019 472.782C100.703 472.792 97.7062 472.718 95.5309 472.643C93.3556 472.568 92.0121 472.515 92.0014 472.6H92.0121Z" fill="#FF9A6C"/>
<path d="M98.6019 478.549C98.6766 478.688 101.374 477.374 104.744 475.89C108.113 474.394 110.897 473.284 110.843 473.134C110.801 472.995 107.911 473.871 104.52 475.377C101.118 476.872 98.5273 478.421 98.6019 478.549Z" fill="#FF9A6C"/>
<path d="M76.1986 462.454C76.1347 462.475 76.4013 463.628 77.0944 465.412C77.7768 467.196 78.9391 469.588 80.5706 472.002C82.2127 474.416 84.0147 476.37 85.4223 477.663C86.8298 478.955 87.8108 479.617 87.8535 479.564C87.9068 479.5 87.0217 478.72 85.6995 477.374C84.3773 476.028 82.6499 474.063 81.0291 471.692C79.4189 469.31 78.2247 466.982 77.4463 465.263C76.6679 463.543 76.2733 462.432 76.188 462.464L76.1986 462.454Z" fill="#FF9A6C"/>
<path d="M90.2206 475.623C90.1567 475.633 90.1354 476.039 90.3166 476.669C90.4979 477.289 90.9031 478.122 91.5855 478.859C92.268 479.596 93.0677 480.055 93.6861 480.269C94.3046 480.482 94.7098 480.482 94.7204 480.418C94.7631 480.258 93.2383 479.863 91.9907 478.485C90.7111 477.139 90.3806 475.591 90.21 475.633L90.2206 475.623Z" fill="#FF9A6C"/>
<path d="M85.1664 467.751C85.0277 467.751 85.1876 469.438 86.4566 471.019C87.7041 472.611 89.325 473.134 89.357 472.995C89.4316 472.846 88.0347 472.151 86.8938 470.677C85.7208 469.225 85.337 467.719 85.177 467.762L85.1664 467.751Z" fill="#FF9A6C"/>
<path d="M90.338 449.028C90.3166 449.178 92.0974 449.509 94.3154 449.765C96.5333 450.022 98.3353 450.107 98.3567 449.947C98.378 449.797 96.5973 449.466 94.3793 449.21C92.1614 448.954 90.3593 448.868 90.338 449.028Z" fill="#FF9A6C"/>
<path d="M4.22259 462.453C10.8337 447.212 47.1097 388.78 60.3426 379.937C67.9454 374.853 80.0481 374.276 80.0481 374.276L73.7568 443.004L68.9051 449.039L53.7102 459.773L72.8505 456.675L73.7888 457.925C80.1441 465.583 70.2274 504.919 69.9821 505.709C69.7262 506.499 10.6311 504.545 5.033 496.631C-0.565147 488.717 -2.36721 477.694 4.23326 462.453H4.22259Z" fill="#FAE0B2"/>
<path d="M61.2703 407.193C61.2703 407.193 61.2597 407.374 61.2916 407.706C61.3343 408.111 61.3876 408.592 61.4409 409.179C61.6116 410.536 61.8355 412.362 62.1021 414.573C62.7205 419.198 63.5522 425.446 64.4692 432.345C65.4183 439.245 66.2713 445.482 66.9005 450.107C67.199 452.318 67.4549 454.133 67.6362 455.49C67.8068 456.761 67.8921 457.466 67.9347 457.466C67.9561 457.466 67.9561 457.284 67.9347 456.953C67.9134 456.611 67.9028 456.12 67.8388 455.479C67.7322 454.197 67.5402 452.35 67.2736 450.075C66.7511 445.514 65.9407 439.223 65.0024 432.281C64.064 425.339 63.1577 419.069 62.4752 414.53C62.134 412.33 61.8461 410.514 61.6329 409.158C61.5262 408.581 61.4409 408.101 61.377 407.706C61.313 407.374 61.2703 407.204 61.249 407.204L61.2703 407.193Z" fill="#263238"/>
<path d="M68.9584 505.837C68.9584 505.837 69.0011 505.763 69.0757 505.613C69.1503 505.432 69.2463 505.207 69.3636 504.93C69.5982 504.332 69.9928 503.456 70.3873 502.292C71.2297 499.974 72.2747 496.567 73.2343 492.263C74.2047 487.969 75.0257 482.778 75.5482 476.979C75.8148 474.085 75.9961 471.03 76.0814 467.858C76.1134 466.288 76.188 464.643 75.9428 462.998C75.7082 461.354 75.207 459.709 74.354 458.213C73.9807 457.562 73.5542 456.975 73.0317 456.462L72.9464 456.376L72.7865 456.398C60.0547 458.438 48.6239 460.275 40.328 461.599C36.2333 462.283 32.9171 462.838 30.5712 463.223C29.4622 463.415 28.5772 463.575 27.9267 463.693C27.6495 463.746 27.4256 463.789 27.2443 463.831C27.095 463.863 27.0097 463.885 27.0097 463.895C27.0097 463.895 27.095 463.895 27.2443 463.895C27.4362 463.874 27.6602 463.842 27.9374 463.81C28.5879 463.725 29.4729 463.596 30.5925 463.447C32.9491 463.094 36.276 462.603 40.3813 461.994C48.6985 460.702 60.1507 458.929 72.8931 456.953L72.6479 456.889C73.0851 457.316 73.5116 457.904 73.8528 458.513C74.6632 459.933 75.1537 461.514 75.3776 463.094C75.6229 464.686 75.5589 466.277 75.5163 467.858C75.4416 471.009 75.271 474.053 75.0257 476.947C74.5352 482.725 73.7462 487.905 72.8291 492.199C71.9228 496.492 70.9418 499.91 70.1634 502.238C69.8008 503.413 69.4383 504.289 69.2357 504.908C69.1397 505.186 69.065 505.421 69.001 505.603C68.9477 505.763 68.9264 505.848 68.9371 505.848L68.9584 505.837Z" fill="#263238"/>
<path d="M19.6414 458.213C19.6414 458.299 20.9103 458.32 22.947 458.427C24.9836 458.533 27.7881 458.779 30.859 459.302C33.93 459.826 36.6597 460.509 38.6218 461.065C40.5838 461.62 41.7887 462.015 41.8207 461.941C41.842 461.876 40.6904 461.353 38.739 460.691C36.7983 460.029 34.0473 459.281 30.955 458.758C27.8627 458.234 25.0156 458.053 22.9683 458.042C20.9103 458.032 19.6521 458.149 19.6521 458.224L19.6414 458.213Z" fill="#263238"/>
<path d="M88.4399 520.96C88.4399 520.96 88.7172 521.003 89.2397 521.046C89.8155 521.078 90.5832 521.121 91.5322 521.174C92.0334 521.195 92.5879 521.227 93.1956 521.249C93.8034 521.27 94.4646 521.227 95.1684 521.217C96.5866 521.153 98.2074 521.185 99.9774 520.96C100.862 520.875 101.801 520.779 102.771 520.683C103.742 520.586 104.733 520.384 105.778 520.234C107.857 519.946 110.043 519.433 112.347 518.931C116.932 517.81 121.901 516.314 127.04 514.509C132.18 512.704 137.01 510.857 141.425 509.223C145.84 507.578 149.838 506.168 153.218 505.079C154.903 504.491 156.46 504.085 157.804 503.658C159.147 503.231 160.331 502.921 161.29 502.665C162.207 502.408 162.943 502.205 163.498 502.056C163.999 501.906 164.265 501.821 164.265 501.81C164.265 501.789 163.988 501.842 163.476 501.949C162.911 502.077 162.165 502.248 161.237 502.462C160.267 502.686 159.072 502.964 157.718 503.359C156.364 503.754 154.796 504.149 153.101 504.705C149.689 505.751 145.68 507.129 141.244 508.742C136.818 510.344 131.977 512.192 126.848 513.986C121.719 515.78 116.783 517.297 112.219 518.429C109.926 518.942 107.762 519.465 105.693 519.775C104.659 519.935 103.678 520.159 102.707 520.255C101.748 520.362 100.82 520.469 99.9347 520.565C98.1753 520.821 96.5652 520.8 95.1577 520.896C94.4539 520.918 93.7928 520.992 93.1956 520.982C92.5985 520.982 92.044 520.96 91.5429 520.95C90.5939 520.95 89.8261 520.939 89.2503 520.928C88.7279 520.928 88.4506 520.939 88.4506 520.96H88.4399Z" fill="#263238"/>
<g opacity="0.3">
<path d="M134.515 361.929C132.415 359.195 133.396 354.944 136.541 353.203C138.215 352.274 140.678 351.494 140.508 349.743C140.337 348.044 137.682 347.393 137.17 345.759C136.786 344.531 137.863 343.238 139.196 342.811C140.529 342.384 142.001 342.63 143.355 342.982C146.053 343.687 148.676 344.904 150.425 346.88C152.173 348.856 152.888 351.708 151.693 353.993C150.243 356.77 146.255 358.693 146.692 361.737C147.076 364.364 150.499 365.528 152.429 367.526C154.594 369.758 154.7 373.389 152.674 375.728L135.08 375.888C136.594 375.034 138.141 374.169 139.303 372.941C140.465 371.712 141.212 370.057 140.838 368.487C140.156 365.603 136.381 364.343 134.515 361.929Z" fill="white"/>
</g>
<path d="M117.038 374.788L170.482 374.361L166.696 401.062C166.696 401.062 163.316 414.22 155.191 414.284L134.121 414.455C132.596 414.466 131.114 414.007 129.855 413.131C126.955 411.112 122.018 406.819 120.653 400.186L117.038 374.788Z" fill="#E0E0E0"/>
<path d="M166.761 386.836C167.006 386.761 167.251 386.708 167.507 386.644C167.56 386.633 167.987 386.547 167.603 386.612C167.187 386.686 167.72 386.612 167.827 386.59C168.381 386.547 168.925 386.59 169.48 386.601C168.936 386.59 169.394 386.59 169.672 386.644C169.959 386.697 170.258 386.772 170.546 386.857C170.791 386.932 171.026 387.028 171.271 387.092C171.602 387.188 171.175 387.049 171.132 387.028C171.292 387.103 171.442 387.167 171.591 387.242C172.092 387.487 172.551 387.786 173.009 388.096C173.297 388.288 172.924 388.032 172.892 388.011C172.988 388.096 173.084 388.171 173.18 388.256C173.404 388.449 173.617 388.662 173.819 388.876C173.969 389.036 174.299 389.463 173.99 389.036C174.161 389.282 174.331 389.527 174.491 389.784C174.63 390.008 174.736 390.254 174.864 390.467C175.035 390.756 174.832 390.382 174.811 390.328C174.875 390.489 174.939 390.649 174.992 390.82C175.088 391.108 175.174 391.396 175.248 391.695C175.28 391.813 175.408 392.539 175.355 392.187C175.302 391.834 175.387 392.561 175.387 392.689C175.408 392.988 175.408 393.297 175.387 393.607C175.387 393.778 175.366 393.96 175.355 394.131C175.355 394.195 175.291 394.622 175.355 394.237C175.408 393.885 175.27 394.611 175.248 394.729C175.195 394.985 175.12 395.231 175.046 395.487C174.982 395.69 174.705 396.384 174.95 395.85C174.715 396.363 174.459 396.865 174.139 397.335C174.065 397.441 173.99 397.548 173.915 397.655C173.947 397.602 174.225 397.313 173.99 397.538C173.745 397.773 173.532 398.05 173.276 398.285C173.19 398.371 172.636 398.798 172.902 398.616C173.169 398.424 172.583 398.819 172.476 398.883C172.263 399.022 172.039 399.15 171.815 399.268C171.698 399.332 171.591 399.385 171.474 399.439C171.847 399.246 171.655 399.364 171.378 399.471C170.812 399.684 170.237 399.791 169.65 399.951C169.309 400.037 169.789 399.941 169.831 399.93C169.661 399.951 169.49 399.962 169.32 399.983C168.978 400.005 168.637 400.015 168.296 400.005C168.168 400.005 168.04 400.005 167.912 399.983C167.837 399.983 167.283 399.919 167.688 399.973C168.072 400.026 167.656 399.973 167.592 399.951C167.422 399.919 167.262 399.887 167.091 399.845C166.761 399.77 166.441 399.663 166.11 399.556C166.057 399.535 165.662 399.375 166.003 399.524C166.387 399.684 165.673 399.353 165.673 399.353C164.244 398.627 162.282 398.958 161.493 400.485C160.768 401.895 161.098 403.903 162.623 404.672C168.595 407.684 176.379 405.762 179.78 399.823C181.454 396.907 181.881 393.394 181.145 390.136C180.42 386.9 178.277 384.144 175.504 382.403C172.433 380.481 168.531 379.926 165.054 380.908C163.508 381.346 162.421 383.13 162.943 384.7C163.466 386.28 165.076 387.284 166.728 386.814L166.761 386.836Z" fill="#E0E0E0"/>
<path d="M220.759 423.683L209.594 411.796C209.594 411.796 200.915 392.539 197.406 390.147C193.898 387.765 190.635 384.07 190.635 384.07C190.635 384.07 187.426 379.99 184.781 378.943C182.03 377.854 171.516 377.298 171.516 377.298C171.516 377.298 169.608 381.56 177.381 384.337C178.213 384.636 184.419 385.213 184.419 385.213C184.419 385.213 175.643 384.711 172.892 387.22C170.13 389.73 171.516 394.622 172.647 395.124C173.777 395.626 182.425 395.882 183.299 396.63C184.173 397.378 186.679 398.766 184.803 399.268C182.926 399.77 175.782 398.894 172.401 399.524C169.021 400.154 166.259 401.906 167.262 404.672C168.264 407.438 169.767 408.56 169.767 408.56C169.767 408.56 167.006 412.074 172.273 415.342C172.273 415.342 172.401 417.98 176.411 420.362C180.42 422.744 182.179 422.872 182.179 422.872C182.179 422.872 184.557 427.261 186.69 428.895C188.822 430.53 194.837 430.775 194.837 430.775L204.572 445.375L220.769 423.694L220.759 423.683Z" fill="#FFBF9D"/>
<path d="M169.32 408.528C169.32 408.603 170.247 408.784 171.772 408.966C173.297 409.148 175.419 409.34 177.765 409.425C180.111 409.511 182.243 409.489 183.779 409.425C185.314 409.361 186.263 409.254 186.263 409.18C186.263 409.105 185.314 409.073 183.779 409.041C182.243 409.009 180.132 408.966 177.786 408.881C175.451 408.795 173.34 408.667 171.804 408.581C170.269 408.496 169.32 408.453 169.309 408.539L169.32 408.528Z" fill="#FF9A6C"/>
<path d="M172.273 415.332C172.252 415.46 174.896 416.111 178.213 416.827C181.54 417.553 184.344 417.446 184.333 417.286C184.333 417.137 181.614 416.998 178.319 416.282C175.024 415.566 172.295 415.15 172.273 415.332Z" fill="#FF9A6C"/>
<path d="M193.749 387.957C193.856 387.872 191.627 385.992 188.215 385.234C184.803 384.444 181.987 385.17 182.041 385.298C182.062 385.48 184.813 385.01 188.087 385.779C191.371 386.505 193.653 388.118 193.749 387.968V387.957Z" fill="#FF9A6C"/>
<path d="M158.635 413.398C158.635 413.398 158.763 413.366 158.987 413.27C159.211 413.174 159.542 413.014 159.936 412.757C160.725 412.255 161.824 411.401 162.879 410.077C163.956 408.774 164.99 407.033 165.854 404.982C166.75 402.931 167.283 400.507 167.646 397.986C168.349 392.935 168.925 388.363 169.33 385.052C169.512 383.482 169.661 382.158 169.778 381.122C169.874 380.193 169.906 379.68 169.863 379.669C169.821 379.669 169.725 380.171 169.565 381.09C169.405 382.115 169.192 383.429 168.946 384.999C168.445 388.299 167.805 392.87 167.102 397.912C166.75 400.421 166.238 402.782 165.385 404.79C164.564 406.808 163.572 408.528 162.57 409.842C160.555 412.49 158.55 413.313 158.625 413.409L158.635 413.398Z" fill="#263238"/>
<path d="M117.038 375.419C117.038 375.419 117.177 375.547 117.486 375.75C117.785 375.963 118.243 376.23 118.851 376.561C120.067 377.213 121.933 377.971 124.343 378.537C126.752 379.093 129.685 379.424 132.926 379.595C136.168 379.766 139.74 379.904 143.494 379.915C151 379.947 157.814 379.082 162.549 377.683C164.926 377.031 166.771 376.262 168.04 375.718C168.605 375.44 169.085 375.205 169.458 375.023C169.778 374.863 169.949 374.767 169.938 374.746C169.938 374.724 169.746 374.788 169.416 374.917C169.021 375.077 168.541 375.28 167.955 375.515C166.675 375.995 164.82 376.7 162.453 377.298C157.729 378.591 150.979 379.392 143.504 379.36C139.772 379.36 136.2 379.221 132.969 379.082C129.738 378.943 126.838 378.655 124.449 378.153C122.061 377.651 120.195 376.957 118.968 376.369C117.731 375.792 117.092 375.365 117.07 375.419H117.038Z" fill="#263238"/>
<path d="M201.778 449.22C201.778 449.22 201.949 449.049 202.226 448.686C202.535 448.291 202.93 447.757 203.431 447.095C204.497 445.653 205.99 443.634 207.846 441.135C211.599 435.998 216.792 428.885 222.721 420.778L222.305 420.81C224.171 422.872 226.047 425.136 227.967 427.411C243.183 445.706 254.198 458.95 256.117 461.257C256.117 461.257 256.086 461.182 256.011 461.054C255.926 460.926 255.808 460.734 255.638 460.499C255.286 460.029 254.774 459.335 254.081 458.459C252.716 456.697 250.701 454.176 248.195 451.079C243.183 444.884 236.209 436.361 228.393 427.048C226.463 424.762 224.608 422.53 222.699 420.426L222.475 420.18L222.283 420.447C216.419 428.596 211.279 435.752 207.568 440.922C205.766 443.464 204.316 445.514 203.282 446.977C202.813 447.661 202.439 448.206 202.151 448.622C201.895 448.996 201.768 449.199 201.789 449.21L201.778 449.22Z" fill="#263238"/>
<g opacity="0.3">
<path d="M219.554 485.544C219.554 485.544 195.732 452.595 195.007 432.644L191.009 451.826C191.009 451.826 211.61 481.977 219.564 485.555L219.554 485.544Z" fill="#EFC59E"/>
</g>
<path d="M534.414 489.347C537.165 480.471 536.248 432.762 534.414 431.843H535.939L567.395 433.371L571.063 448.975C571.063 448.975 568.622 483.227 565.828 496.075C563.034 508.924 564.036 508.315 565.828 520.854C567.619 533.393 565.828 570.315 565.828 570.315H539.533C539.533 570.315 537.773 557.253 532.889 541.35C528.006 525.446 531.663 498.222 534.414 489.357V489.347Z" fill="#AE7461"/>
<path d="M667.511 262.612C672.107 263.05 676.756 259.579 677.652 255.05C678.548 250.511 675.573 245.534 671.158 244.188C673.952 241.208 674.581 236.391 672.63 232.792C670.689 229.193 666.317 227.078 662.287 227.794C662.041 223.756 659.557 219.933 655.974 218.074C652.391 216.216 647.838 216.387 644.404 218.502C639.873 214.764 632.686 214.753 628.154 218.48C624.219 217.829 619.986 219.997 618.216 223.575C616.446 227.153 617.277 231.842 620.167 234.586" fill="#602512"/>
<path d="M626.309 227.836L628.378 227.804C649.214 227.431 666.85 243.141 668.898 263.915C670.806 283.236 672.662 304.607 672.715 314.999C672.832 336.499 651.432 340.226 651.432 340.226L653.713 366.02L637.697 398.008L579.04 362.741L600.803 353.566L595.311 271.765C592.987 249.475 604.002 229.556 626.309 227.847V227.836Z" fill="#AE7461"/>
<path d="M651.463 340.216C651.463 340.216 637.921 341.263 623.345 332.451C623.345 332.451 630.553 348.162 651.933 345.834L651.463 340.216Z" fill="#6F4439"/>
<path d="M660.271 284.475C660.356 286.098 659.056 287.508 657.371 287.625C655.686 287.743 654.247 286.536 654.161 284.913C654.076 283.289 655.377 281.879 657.062 281.762C658.746 281.644 660.186 282.851 660.271 284.475Z" fill="#263238"/>
<path d="M664.473 274.51C664.099 274.916 661.753 273.239 658.448 273.303C655.153 273.324 652.764 275.065 652.402 274.67C652.221 274.488 652.594 273.762 653.639 272.972C654.662 272.192 656.422 271.412 658.469 271.38C660.527 271.359 662.265 272.085 663.268 272.844C664.291 273.602 664.654 274.317 664.473 274.51Z" fill="#263238"/>
<path d="M631.321 285.917C631.406 287.54 630.105 288.95 628.42 289.067C626.736 289.185 625.296 287.978 625.211 286.354C625.126 284.731 626.426 283.321 628.111 283.204C629.796 283.086 631.236 284.293 631.321 285.917Z" fill="#263238"/>
<path d="M632.067 275.706C631.694 276.112 629.337 274.435 626.043 274.499C622.748 274.52 620.359 276.261 619.997 275.866C619.815 275.695 620.189 274.958 621.233 274.168C622.257 273.388 624.017 272.609 626.064 272.577C628.122 272.555 629.86 273.282 630.873 274.04C631.897 274.798 632.259 275.514 632.078 275.706H632.067Z" fill="#263238"/>
<path d="M644.479 299.993C644.458 299.801 646.505 299.417 649.821 298.925C650.664 298.818 651.453 298.637 651.592 298.06C651.783 297.451 651.41 296.544 650.984 295.572C650.152 293.542 649.288 291.417 648.382 289.195C644.756 280.117 642.123 272.641 642.485 272.491C642.848 272.352 646.089 279.594 649.704 288.672C650.579 290.915 651.41 293.051 652.21 295.091C652.541 296.042 653.116 297.12 652.711 298.391C652.498 299.021 651.89 299.491 651.346 299.652C650.813 299.822 650.333 299.844 649.917 299.876C646.58 300.121 644.501 300.164 644.49 299.983L644.479 299.993Z" fill="#263238"/>
<path d="M634.701 262.943C634.285 263.787 631.438 262.932 627.951 262.879C624.475 262.751 621.553 263.455 621.212 262.59C621.063 262.174 621.671 261.415 622.918 260.721C624.155 260.027 626.032 259.472 628.122 259.525C630.212 259.578 632.035 260.23 633.187 260.978C634.36 261.736 634.882 262.526 634.69 262.932L634.701 262.943Z" fill="#263238"/>
<path d="M664.387 260.881C663.705 261.64 660.975 260.913 657.701 260.935C654.428 260.86 651.666 261.544 651.016 260.775C650.728 260.401 651.154 259.642 652.348 258.905C653.532 258.179 655.515 257.56 657.765 257.581C660.015 257.602 661.977 258.243 663.129 258.991C664.302 259.739 664.696 260.508 664.387 260.881Z" fill="#263238"/>
<path d="M666.658 254.089C666.658 254.089 660.762 240.728 654.215 237.705C646.303 234.042 643.082 242.725 635.565 240.77C628.047 238.816 620.498 235.302 612.959 241.219C604.706 247.702 608.704 252.081 608.363 261.629C606.966 300.335 600.11 311.4 597.775 293.222C597.519 291.235 591.963 289.74 590.993 281.324C589.735 270.408 589.074 257.143 591.377 249.347C593.318 242.768 596.954 238.186 603.543 233.08C613.94 225.027 628.41 224.6 638.252 225.412C648.094 226.224 667.256 237.214 666.658 254.089Z" fill="#602512"/>
<path d="M599.14 292.613C598.948 289.302 596.047 286.728 592.752 287.102C588.754 287.551 584.339 289.911 584.755 298.188C585.491 312.874 600.057 309.114 600.067 308.687C600.067 308.399 599.502 298.754 599.15 292.613H599.14Z" fill="#AE7461"/>
<path d="M596.591 303.326C596.527 303.283 596.346 303.518 595.919 303.742C595.503 303.956 594.789 304.127 594.011 303.881C592.432 303.39 591.004 300.987 590.801 298.349C590.694 297.013 590.918 295.732 591.334 294.653C591.729 293.553 592.379 292.773 593.158 292.592C593.925 292.378 594.501 292.816 594.704 293.222C594.917 293.628 594.842 293.916 594.917 293.938C594.96 293.97 595.216 293.671 595.066 293.072C594.992 292.784 594.8 292.442 594.448 292.186C594.085 291.919 593.552 291.801 593.019 291.887C591.889 292.026 590.929 293.115 590.46 294.301C589.937 295.497 589.66 296.939 589.777 298.434C590.023 301.392 591.665 304.084 593.819 304.586C594.864 304.8 595.706 304.447 596.133 304.084C596.57 303.699 596.634 303.368 596.58 303.336L596.591 303.326Z" fill="#6F4439"/>
<path d="M598.916 264.139C600.846 265.41 602.882 266.713 605.186 266.905C607.489 267.087 610.091 265.72 610.432 263.434C610.592 262.409 610.315 261.223 610.976 260.422C611.765 259.461 613.247 259.739 614.473 259.846C618.749 260.219 623.643 255.413 624.656 251.237C625.776 252.85 628.165 253.299 629.796 252.209C631.427 251.12 632.014 250.5 633.272 248.994C634.53 247.488 636.322 246.143 638.263 246.378C639.35 246.516 640.374 247.147 641.461 247.029C643.381 246.826 644.287 244.551 644.543 242.629C644.799 240.706 644.991 238.474 646.601 237.395C648.094 236.402 650.067 236.925 651.847 237.16C653.628 237.395 655.91 236.936 656.326 235.185C656.55 234.266 656.145 233.315 655.622 232.536C653.276 228.979 648.265 227.463 644.341 229.139C642.816 224.312 638.22 220.616 633.176 220.168C628.133 219.73 622.961 222.571 620.626 227.057C617.469 224.291 612.948 223.19 608.886 224.194C604.823 225.198 601.326 228.285 599.822 232.205C596.239 231.329 592.198 232.781 589.98 235.751C587.773 238.709 587.527 243.013 589.383 246.207C586.77 247.766 584.563 250.426 584.563 253.469C584.563 256.513 587.581 259.493 590.492 258.639C589.351 261.031 590.374 264.225 592.688 265.506C595.002 266.788 598.255 265.955 599.662 263.712" fill="#602512"/>
<path d="M645.513 233.422C645.513 233.422 645.524 233.518 645.513 233.689C645.492 233.871 645.492 234.138 645.439 234.48C645.322 235.163 645.066 236.167 644.426 237.331C643.786 238.474 642.784 239.799 641.238 240.867C639.723 241.945 637.633 242.778 635.256 242.693L635.501 242.362C635.981 243.611 635.885 245.117 635.277 246.42C634.712 247.745 633.795 248.93 632.835 250.084C632.344 250.639 631.907 251.291 631.225 251.803C630.553 252.295 629.743 252.594 628.911 252.711C627.258 252.957 625.381 252.476 624.155 251.098L624.699 250.928C624.379 253.854 622.769 256.812 620.167 258.639C618.792 259.675 617.075 260.326 615.379 260.305C613.684 260.316 612.095 259.846 610.613 259.344L610.997 259.162C610.24 260.999 609.056 262.58 607.606 263.765C606.177 264.94 604.268 265.645 602.52 265.25C599.044 264.577 596.698 261.736 596.186 259.023L596.516 259.173C594.81 260.145 592.976 260.262 591.483 260.006C589.98 259.76 588.786 259.13 587.943 258.5C587.09 257.859 586.578 257.197 586.269 256.738C585.981 256.257 585.864 255.99 585.885 255.979C585.96 255.915 586.386 257.09 588.082 258.297C588.924 258.874 590.087 259.451 591.537 259.653C592.966 259.867 594.714 259.718 596.282 258.788L596.559 258.628L596.623 258.938C597.135 261.458 599.395 264.118 602.616 264.705C604.205 265.047 605.879 264.417 607.233 263.306C608.587 262.195 609.717 260.679 610.421 258.949L610.528 258.671L610.805 258.767C612.266 259.258 613.791 259.696 615.369 259.675C616.936 259.675 618.482 259.109 619.794 258.126C622.257 256.396 623.761 253.63 624.081 250.863L624.155 250.169L624.624 250.703C625.659 251.878 627.333 252.337 628.826 252.124C629.572 252.017 630.287 251.761 630.873 251.333C631.449 250.928 631.886 250.287 632.387 249.721C633.357 248.589 634.243 247.446 634.776 246.217C635.351 245 635.437 243.676 635.032 242.543L634.904 242.191L635.277 242.212C637.516 242.319 639.531 241.561 641.003 240.557C642.517 239.564 643.519 238.303 644.181 237.214C645.481 234.971 645.407 233.412 645.513 233.444V233.422Z" fill="#455A64"/>
<path d="M645.311 310.503C645.215 309.958 641.621 310.78 638.369 308.281C635.106 305.793 634.626 301.862 634.115 301.948C633.88 301.948 633.613 302.962 633.944 304.596C634.253 306.198 635.298 308.399 637.292 309.926C639.286 311.443 641.557 311.774 643.061 311.56C644.596 311.346 645.396 310.748 645.311 310.503Z" fill="#263238"/>
<path d="M717.362 373.421C718.012 374.895 744.638 437.461 741.951 440.142C739.264 442.833 709.311 445.963 707.967 445.963C706.624 445.963 702.156 471.489 702.156 471.489L710.921 570.304H572.46L570.274 474.18L563.567 446.411C563.567 446.411 526.46 451.784 525.116 448.654C523.773 445.514 537.635 385.512 547.466 378.345C557.297 371.178 600.75 352.744 600.75 352.744C600.75 352.744 608.683 372.182 628.815 370.068C652.743 367.558 652.253 349.519 652.253 349.519C652.253 349.519 714.237 366.319 717.351 373.421H717.362Z" fill="#FAE0B2"/>
<path d="M553.619 404.533C553.619 404.533 553.619 404.725 553.704 405.067C553.8 405.473 553.906 405.964 554.045 406.562C554.386 407.94 554.834 409.788 555.389 412.041C556.54 416.741 558.086 423.096 559.803 430.123C561.445 437.162 562.927 443.538 564.026 448.248C564.548 450.502 564.975 452.36 565.295 453.749C565.444 454.347 565.561 454.838 565.668 455.244C565.753 455.586 565.817 455.756 565.839 455.756C565.86 455.756 565.839 455.564 565.785 455.222C565.711 454.817 565.625 454.315 565.519 453.706C565.273 452.392 564.9 450.502 564.42 448.173C563.461 443.506 562.042 437.076 560.358 429.995C558.673 422.925 557.031 416.549 555.783 411.945C555.165 409.649 554.642 407.791 554.269 406.509C554.088 405.922 553.949 405.441 553.821 405.035C553.715 404.704 553.651 404.522 553.629 404.533H553.619Z" fill="#263238"/>
<path d="M709.801 398.381C709.801 398.381 709.748 398.574 709.684 398.937C709.631 399.364 709.556 399.898 709.471 400.539C709.289 401.927 709.076 403.957 708.82 406.456C708.319 411.454 707.743 418.375 707.221 426.012C706.709 433.616 706.25 440.505 705.909 445.589C705.739 448.035 705.589 450.043 705.483 451.516C705.44 452.168 705.408 452.702 705.387 453.129C705.365 453.503 705.376 453.695 705.387 453.695C705.408 453.695 705.44 453.503 705.493 453.14C705.547 452.713 705.611 452.179 705.696 451.538C705.856 450.139 706.069 448.12 706.293 445.621C706.752 440.622 707.253 433.691 707.775 426.054C708.298 418.407 708.81 411.497 709.215 406.488C709.417 404.042 709.577 402.045 709.695 400.56C709.737 399.909 709.78 399.375 709.801 398.947C709.823 398.574 709.823 398.381 709.801 398.381Z" fill="#263238"/>
<path d="M739.551 441.231C739.551 441.231 752.763 469.619 753.829 483.75C754.896 497.88 750.62 499.589 748.274 508.582C745.928 517.575 740.586 519.07 732.674 516.506C724.762 513.943 715.144 507.791 709.791 500.027C704.438 492.262 688.656 453.716 688.656 453.716L702.209 433.787L710.644 445.695L739.551 441.231Z" fill="#AE7461"/>
<path d="M702.22 433.776C702.22 433.776 702.316 433.969 702.529 434.3C702.796 434.684 703.116 435.154 703.521 435.742C704.395 436.991 705.675 438.775 707.285 440.975C708.895 443.164 710.825 445.77 713.022 448.611C715.25 451.431 717.607 454.614 720.55 457.594C722.032 459.046 723.535 460.456 725.242 461.503C726.948 462.549 728.76 463.19 730.499 463.682C733.985 464.632 737.184 465.113 739.733 466.01C742.292 466.854 744.19 467.996 745.32 468.99C746.461 469.972 746.93 470.688 746.973 470.645C746.984 470.634 746.877 470.453 746.642 470.132C746.408 469.812 746.024 469.353 745.459 468.83C744.35 467.772 742.441 466.555 739.85 465.647C737.28 464.685 734.049 464.173 730.626 463.201C728.92 462.71 727.15 462.058 725.519 461.054C723.877 460.05 722.405 458.662 720.934 457.22C718.044 454.293 715.655 451.121 713.416 448.323C711.198 445.493 709.236 442.919 707.594 440.761C705.984 438.647 704.662 436.906 703.691 435.645C703.254 435.09 702.902 434.631 702.614 434.268C702.369 433.958 702.231 433.798 702.209 433.808L702.22 433.776Z" fill="#6F4439"/>
<path d="M674.229 396.523C674.634 395.839 675.53 395.679 676.319 395.636C682.685 395.316 689.072 399.193 691.717 405.003L680.67 406.349C680.67 404.533 679.156 403.102 677.705 402.012C676.255 400.923 674.613 399.802 674.123 398.05C673.984 397.548 673.952 396.971 674.218 396.523H674.229Z" fill="#AE7461"/>
<path d="M669.804 401.307C672.406 400.506 675.04 399.705 677.759 399.641C680.478 399.577 683.325 400.357 685.212 402.311C686.694 403.849 687.462 405.964 687.718 408.09C688.358 413.334 685.937 418.834 681.64 421.899C677.343 424.965 671.361 425.445 666.626 423.128L669.804 401.318V401.307ZM677.055 417.52C679.785 415.811 681.341 412.746 680.947 409.841C680.787 408.666 680.318 407.491 679.379 406.648C678.185 405.569 676.298 405.654 674.581 405.697C672.864 405.74 671.084 406.733 669.441 407.192L667.959 417.147C670.956 418.418 674.325 419.229 677.055 417.52Z" fill="#E1E1DB"/>
<path d="M703.148 437.632C703.148 437.632 705.27 411.646 704.182 408.923C703.094 406.199 694.414 403.754 688.443 402.397C682.472 401.041 673.792 402.13 673.792 406.477C673.792 410.824 676.234 411.646 676.234 411.646C676.234 411.646 671.766 412.576 671.361 415.78C670.86 419.731 674.357 421.43 674.357 421.43C674.357 421.43 669.548 425.136 674.059 429.301C674.059 429.301 670.156 429.28 670.156 433.274C670.156 435.87 673.792 437.739 673.792 437.739L680.307 440.729C680.307 440.729 679.945 448.59 683.741 452.125C687.537 455.66 689.264 458.063 689.264 458.063L703.158 437.632H703.148Z" fill="#AE7461"/>
<path d="M674.944 411.871C674.944 411.956 675.893 411.956 677.417 411.956C678.942 411.956 681.032 411.978 683.346 412.084C685.66 412.191 687.75 412.373 689.264 412.512C690.778 412.65 691.717 412.736 691.727 412.661C691.738 412.586 690.821 412.362 689.307 412.127C687.793 411.881 685.692 411.646 683.367 411.54C681.032 411.433 678.921 411.476 677.396 411.572C675.871 411.668 674.933 411.807 674.933 411.881L674.944 411.871Z" fill="#6F4439"/>
<path d="M624.155 398.648C624.155 400.848 634.434 402.664 647.134 402.707C659.834 402.749 670.134 401.009 670.145 398.808C670.145 396.608 659.866 394.793 647.166 394.75C634.466 394.707 624.166 396.448 624.155 398.648Z" fill="#E1E1DB"/>
<path d="M624.155 398.563L670.145 398.798C670.145 398.798 668.684 419.785 665.336 429.333C661.999 438.828 660.964 455.105 660.964 455.105C651.805 456.611 642.378 456.761 632.718 455.714C632.718 455.714 631.811 438.433 628.772 427.603C624.539 412.522 624.155 398.552 624.155 398.552V398.563Z" fill="#E1E1DB"/>
<path d="M673.909 421.419C673.909 421.494 674.752 421.686 676.149 421.921C677.545 422.145 679.486 422.391 681.64 422.54C683.794 422.69 685.745 422.7 687.164 422.668C688.571 422.636 689.445 422.551 689.445 422.476C689.445 422.305 685.959 422.273 681.683 421.985C677.407 421.697 673.941 421.259 673.92 421.43L673.909 421.419Z" fill="#6F4439"/>
<path d="M673.909 429.44C673.909 429.44 674.325 430.07 675.349 430.615C676.362 431.17 677.844 431.747 679.55 432.142C682.952 432.964 685.82 432.804 685.799 432.655C685.799 432.494 683.005 432.409 679.678 431.608C678.015 431.223 676.543 430.721 675.53 430.273C674.506 429.824 673.973 429.376 673.92 429.44H673.909Z" fill="#6F4439"/>
<path d="M686.972 442.854C687.014 442.705 685.575 442.203 683.794 441.616C682.013 441.039 680.552 440.601 680.499 440.74C680.446 440.879 681.821 441.551 683.623 442.139C685.415 442.726 686.94 442.993 686.972 442.844V442.854Z" fill="#6F4439"/>
<path d="M666.829 423.854C666.904 423.865 667.224 422.551 667.629 420.394C668.045 418.247 668.535 415.256 668.972 411.945C669.409 408.635 669.719 405.623 669.911 403.444C670.103 401.265 670.177 399.909 670.103 399.898C670.028 399.898 669.815 401.233 669.527 403.401C669.228 405.729 668.844 408.645 668.428 411.871C667.981 415.096 667.575 418.001 667.245 420.33C666.936 422.498 666.754 423.833 666.829 423.854Z" fill="#CDCCC2"/>
<g opacity="0.3">
<path d="M666.445 400.987C663.331 399.684 655.942 398.745 647.315 398.712C638.561 398.68 631.086 399.599 628.047 400.913C627.034 400.485 626.469 400.015 626.469 399.535C626.469 397.559 635.757 395.989 647.209 396.021C658.661 396.053 667.927 397.698 667.927 399.674C667.927 400.144 667.394 400.582 666.466 400.987H666.445Z" fill="black"/>
</g>
<path d="M647.177 403.187C638.55 403.155 631.15 402.215 628.047 400.912C631.086 399.599 638.561 398.68 647.315 398.712C655.942 398.744 663.331 399.684 666.445 400.987C663.406 402.301 655.931 403.219 647.177 403.187Z" fill="#6F4439"/>
<path d="M676.746 402.728C676.788 402.824 677.855 402.322 679.731 402.087C681.597 401.842 684.21 401.842 687.068 402.237C689.925 402.6 692.463 403.262 694.265 403.807C696.078 404.362 697.166 404.811 697.198 404.725C697.23 404.672 696.185 404.095 694.393 403.433C692.591 402.792 690.043 402.045 687.142 401.682C684.252 401.276 681.565 401.35 679.678 401.703C678.729 401.884 677.983 402.119 677.492 402.333C677.002 402.557 676.746 402.707 676.756 402.739L676.746 402.728Z" fill="#6F4439"/>
<g opacity="0.3">
<path d="M629.273 399.236C631.012 398.435 631.427 395.978 630.606 394.237C629.785 392.507 628.111 391.353 626.48 390.349C624.848 389.346 623.121 388.352 622.055 386.761C619.901 383.567 621.692 378.505 625.381 377.373C627.013 376.871 628.772 377.074 630.436 376.721C632.099 376.369 633.837 375.13 633.784 373.421C633.72 371.381 631.385 370.377 629.753 369.149C626.213 366.468 625.68 360.626 628.676 357.347C631.076 354.709 635.085 353.822 637.122 350.885C638.135 350.148 639.649 351.302 639.691 352.551C639.734 353.801 638.881 354.89 637.996 355.788C637.122 356.685 636.141 357.593 635.831 358.81C635.266 361.074 637.335 363.168 639.467 364.118C642.229 365.347 645.321 365.56 648.296 366.137C651.272 366.714 654.353 367.814 656.145 370.249C657.936 372.684 657.723 376.753 655.068 378.195C653.553 379.007 651.73 378.815 650.024 379.018C648.318 379.231 646.398 380.235 646.292 381.955C646.239 382.862 646.729 383.717 647.326 384.4C649.363 386.697 652.594 387.412 655.611 387.978C658.629 388.544 661.849 389.175 663.993 391.364C666.136 393.554 667.288 399.759 664.281 400.357C663.929 400.432 658.437 398.734 647.315 398.702C636.194 398.67 628.047 400.902 628.047 400.902L629.284 399.225L629.273 399.236Z" fill="white"/>
</g>
<path d="M280.717 349.732C283.703 349.454 286.454 347.372 287.542 344.573C285.644 345.332 283.596 346.09 281.624 345.599C279.651 345.107 278.041 342.726 279.107 340.985C279.939 339.628 281.762 339.404 283.276 338.934C286.817 337.845 289.557 334.512 289.962 330.828C290.41 326.758 288.267 322.924 286.881 319.079C282.871 307.907 285.558 294.6 293.588 285.863L315.053 265.816C326.675 275.257 333.041 290.125 334.513 305.045C335.984 319.966 332.977 334.993 328.488 349.305C327.187 353.47 325.726 357.646 323.381 361.32C321.035 365.005 317.686 368.188 313.57 369.608C311.651 366.383 311.438 362.207 313.016 358.81C306.426 360.776 299.037 359.9 293.087 356.45C294.547 354.688 295.998 352.915 297.458 351.152C292.042 353.192 285.718 352.669 280.707 349.743L280.717 349.732Z" fill="#E0E0E0"/>
<path d="M366.79 287.294C363.975 277.03 355.54 269.842 344.92 269.287L311.843 267.557C297.949 268.817 292.212 287.39 294.057 301.253C296.104 316.644 298.706 332.793 302.737 343.783C310.862 365.87 328.883 365.314 328.883 365.314C328.883 365.282 335.387 384.069 336.72 390.723L357.748 422.038L378.626 372.684L366.918 287.55C366.843 287.155 366.918 287.807 366.779 287.294H366.79Z" fill="#FFBF9D"/>
<path d="M306.874 320.105C307.119 321.664 308.644 322.732 310.276 322.497C311.896 322.262 313.016 320.82 312.76 319.261C312.504 317.701 310.99 316.633 309.369 316.868C307.738 317.103 306.629 318.545 306.874 320.105Z" fill="#263238"/>
<path d="M299.25 309.499C299.687 309.808 301.574 307.726 304.72 307.117C307.855 306.455 310.478 307.619 310.745 307.17C310.883 306.967 310.371 306.348 309.22 305.814C308.09 305.28 306.266 304.906 304.304 305.301C302.353 305.697 300.849 306.743 300.05 307.672C299.229 308.602 299.037 309.36 299.25 309.499Z" fill="#263238"/>
<path d="M333.233 313.686C333.478 315.245 335.003 316.313 336.635 316.078C338.256 315.843 339.375 314.401 339.119 312.842C338.874 311.282 337.349 310.214 335.718 310.449C334.086 310.684 332.977 312.126 333.223 313.686H333.233Z" fill="#263238"/>
<path d="M329.085 303.518C329.522 303.828 331.41 301.745 334.555 301.136C337.69 300.474 340.314 301.638 340.58 301.189C340.708 300.987 340.207 300.367 339.055 299.833C337.925 299.299 336.102 298.925 334.14 299.32C332.188 299.716 330.685 300.773 329.874 301.691C329.053 302.621 328.861 303.379 329.075 303.518H329.085Z" fill="#263238"/>
<path d="M324.202 330.197C324.18 330.016 322.165 330.069 318.913 330.283C318.092 330.357 317.303 330.347 317.057 329.823C316.748 329.279 316.919 328.349 317.121 327.335C317.494 325.241 317.878 323.041 318.284 320.745C319.851 311.378 320.821 303.742 320.448 303.678C320.075 303.614 318.486 311.165 316.919 320.531C316.545 322.838 316.194 325.038 315.863 327.143C315.735 328.114 315.426 329.257 316.066 330.379C316.396 330.934 317.079 331.254 317.622 331.297C318.166 331.351 318.625 331.276 319.019 331.212C322.24 330.753 324.212 330.379 324.191 330.197H324.202Z" fill="#263238"/>
<path d="M357.449 351.152C357.449 351.152 354.272 369.352 331.058 371.733L328.883 365.315C328.883 365.315 344.078 363.296 357.449 351.152Z" fill="#FF9A6C"/>
<path d="M328.072 293.136C328.552 293.927 331.612 292.901 335.387 292.613C339.162 292.25 342.34 292.741 342.681 291.876C342.83 291.47 342.148 290.765 340.783 290.178C339.428 289.591 337.37 289.174 335.11 289.366C332.849 289.559 330.887 290.317 329.661 291.129C328.413 291.94 327.87 292.752 328.083 293.126L328.072 293.136Z" fill="#E0E0E0"/>
<path d="M298.354 299.673C299.047 300.281 301.063 299.107 303.664 298.551C306.245 297.91 308.569 298.081 308.921 297.227C309.071 296.821 308.58 296.169 307.482 295.689C306.405 295.197 304.699 294.963 302.929 295.379C301.148 295.796 299.73 296.746 298.973 297.654C298.194 298.572 298.045 299.363 298.354 299.673Z" fill="#E0E0E0"/>
<path d="M337.307 333.594C336.517 331.799 334.321 330.753 332.444 331.329C331.069 331.746 330.002 332.953 329.618 334.341C329.235 335.73 329.512 337.257 330.248 338.485L330.376 338.763C331.943 339.927 334.268 339.981 335.856 338.827C337.434 337.674 338.096 335.388 337.307 333.594Z" fill="#FF9A6C"/>
<path d="M328.126 339.287C328.03 338.806 331.229 338.325 333.105 335.239C334.982 332.152 334.108 328.777 334.555 328.692C334.747 328.617 335.291 329.365 335.547 330.806C335.803 332.216 335.664 334.352 334.513 336.243C333.361 338.133 331.612 339.126 330.312 339.436C328.989 339.757 328.136 339.522 328.126 339.297V339.287Z" fill="#263238"/>
<path d="M348.066 253.629C343.299 248.877 333.713 244.978 326.995 245.331C319.339 245.737 315.191 248.022 311.363 253.565C311.363 253.565 308.431 258.073 305.061 259.578C301.692 261.084 298.599 261.181 294.889 264.31C289.813 268.582 289.056 276.87 287.755 283.385C286.124 291.481 282.957 299.31 282.573 307.555C282.189 315.8 285.526 325.049 293.129 328.254C290.645 322.572 288.214 316.259 289.418 310.321C289.632 312.543 290.186 314.689 291.295 316.655C291.711 312.884 292.17 308.997 294.078 305.718C295.88 302.631 298.823 300.356 300.711 297.323C303.483 292.869 303.878 286.952 307.652 283.31C311.587 279.519 317.665 279.562 322.986 278.355C331.922 276.336 339.791 270.035 343.704 261.736L342.361 261.928C344.376 259.739 346.296 257.015 348.066 253.619V253.629Z" fill="#E0E0E0"/>
<path d="M394.045 301.36C390.483 295.166 385.525 289.89 381.772 283.812C378.125 277.885 375.651 271.231 371.354 265.752C365.574 258.393 355.871 249.368 344.707 252.561L344.088 253.416C340.143 253.864 336.315 255.178 333.02 257.4L334.875 266.264L333.148 268.668C334.459 270.205 335.707 271.701 336.923 273.175C338.415 276.315 340.004 279.401 342.03 282.221C344.014 284.977 346.466 287.465 349.345 289.227C379.522 331.404 362.557 338.421 377.464 363.146L379.458 346.56C383.542 342.768 386.442 337.716 387.658 332.28C388.351 333.818 389.044 335.367 389.748 336.905C393.117 331.201 394.418 324.312 393.352 317.776C394.546 319.132 395.751 320.489 396.945 321.845C399.643 315.223 397.585 307.555 394.024 301.36H394.045Z" fill="#E0E0E0"/>
<path d="M360.446 307.309C360.574 306.476 373.572 298.605 376.739 313.483C379.82 327.944 364.647 328.019 364.53 327.602C364.423 327.196 360.435 307.299 360.435 307.299L360.446 307.309Z" fill="#FFBF9D"/>
<path d="M367.846 321.194C367.899 321.13 368.134 321.322 368.603 321.418C369.061 321.525 369.797 321.504 370.49 321.066C371.898 320.179 372.676 317.488 372.196 314.86C371.962 313.536 371.418 312.34 370.735 311.4C370.074 310.439 369.232 309.841 368.432 309.862C367.632 309.841 367.185 310.417 367.089 310.866C366.982 311.315 367.131 311.582 367.057 311.624C367.025 311.667 366.694 311.443 366.683 310.823C366.683 310.524 366.779 310.15 367.057 309.798C367.345 309.446 367.824 309.189 368.368 309.136C369.498 308.976 370.714 309.798 371.471 310.823C372.282 311.849 372.921 313.184 373.188 314.668C373.71 317.605 372.793 320.649 370.831 321.685C369.872 322.166 368.955 322.038 368.453 321.792C367.931 321.525 367.792 321.215 367.835 321.183L367.846 321.194Z" fill="#FF9A6C"/>
<path d="M373.71 324.879C373.081 323.554 371.365 322.881 370 323.426L369.371 323.778C368.187 324.644 367.846 326.459 368.635 327.698C369.424 328.937 371.215 329.386 372.495 328.681C373.774 327.976 374.34 326.203 373.71 324.879Z" fill="#455A64"/>
<path d="M335.131 272.021C335.44 272.074 335.654 266.884 338.618 261.426C341.508 255.926 345.698 252.882 345.485 252.647C345.421 252.551 344.291 253.181 342.734 254.559C341.177 255.936 339.269 258.147 337.754 260.956C336.251 263.776 335.483 266.595 335.195 268.657C334.907 270.718 335.014 272.01 335.131 272.01V272.021Z" fill="#FAFAFA"/>
<path d="M349.537 303.806C349.676 304.073 348.098 305.141 346.2 306.497C344.302 307.843 342.766 308.975 342.563 308.751C342.361 308.548 343.619 307.01 345.592 305.622C347.554 304.223 349.42 303.55 349.548 303.806H349.537Z" fill="#FF9A6C"/>
<path d="M350.699 307.822C350.699 308.132 348.94 308.356 346.861 308.869C344.771 309.371 343.107 309.969 342.969 309.702C342.83 309.456 344.376 308.367 346.615 307.833C348.844 307.288 350.721 307.544 350.71 307.833L350.699 307.822Z" fill="#FF9A6C"/>
<path d="M301.127 320.169C300.945 320.414 300.263 320.222 299.463 320.158C298.663 320.072 297.96 320.126 297.832 319.859C297.693 319.603 298.45 318.983 299.57 319.09C300.689 319.197 301.319 319.944 301.127 320.169Z" fill="#FF9A6C"/>
<path d="M301.852 321.012C301.948 321.29 301.212 321.813 300.209 322.187C299.197 322.561 298.301 322.636 298.194 322.358C298.088 322.08 298.834 321.557 299.836 321.183C300.849 320.809 301.745 320.735 301.852 321.012Z" fill="#FF9A6C"/>
<path d="M339.162 325.797C338.938 326 337.989 325.327 336.656 325.209C335.323 325.049 334.257 325.519 334.076 325.263C333.862 325.06 334.993 323.949 336.763 324.141C338.533 324.323 339.418 325.637 339.162 325.786V325.797Z" fill="#FF9A6C"/>
<path d="M298.685 457.316C298.685 457.316 292.489 424.816 293.044 423.203C293.588 421.59 299.804 389.656 299.804 389.656L333.031 377.779L352.256 405.121L376.483 361.449L400.368 358.309L417.195 363.745C417.195 363.745 427.133 412.789 426.567 412.725C426.002 412.661 417.259 475.9 417.259 475.9L414.977 491.205C415.531 491.045 448.789 552.318 448.107 570.315H287.552L306.085 472.365L298.695 457.327L298.685 457.316Z" fill="#688F58"/>
<path d="M499.343 418.3C499.343 418.3 501.284 412.33 497.797 409.639C494.31 406.958 483.583 402.387 483.583 402.387C483.583 402.387 428.05 360.242 421.279 358.597C409.592 355.766 400.016 358.597 400.016 358.597L413.313 404.031C413.313 404.031 460.231 437.835 460.242 437.835C460.252 437.835 499.343 418.29 499.343 418.29V418.3Z" fill="#688F58"/>
<path d="M299.804 389.645C299.804 389.645 289.109 393.511 286.07 408.058C283.372 420.939 273.008 466.149 269.862 474.01C266.717 481.87 262.27 488.695 266.717 495.766C268.284 498.265 269.724 500.273 270.929 501.821C272.859 504.31 276.324 504.993 279.065 503.445L301.031 491.034C302.161 488.684 302.076 485.929 300.796 483.654L299.943 482.137L307.268 460.328L299.783 389.634L299.804 389.645Z" fill="#688F58"/>
<path d="M305.083 420.725C305.083 420.725 304.987 420.885 304.848 421.216C304.699 421.6 304.507 422.081 304.283 422.658C304.038 423.277 303.75 424.057 303.472 424.965C303.195 425.873 302.833 426.909 302.555 428.073C302.246 429.237 301.926 430.519 301.681 431.907C301.372 433.285 301.18 434.791 300.956 436.361C300.583 439.522 300.38 443.025 300.487 446.699C300.625 450.373 301.073 453.855 301.66 456.985C302.001 458.544 302.289 460.029 302.694 461.385C303.035 462.763 303.451 464.012 303.835 465.144C304.187 466.298 304.613 467.291 304.965 468.188C305.296 469.086 305.637 469.833 305.925 470.442C306.192 470.997 306.415 471.457 306.586 471.841C306.746 472.161 306.831 472.322 306.853 472.311C306.874 472.311 306.81 472.129 306.693 471.798C306.543 471.414 306.351 470.933 306.128 470.367C305.872 469.748 305.562 468.989 305.253 468.092C304.944 467.195 304.539 466.191 304.208 465.038C303.846 463.895 303.462 462.645 303.142 461.278C302.758 459.922 302.491 458.448 302.171 456.899C301.617 453.791 301.19 450.341 301.041 446.699C300.935 443.057 301.116 439.586 301.457 436.446C301.67 434.887 301.841 433.392 302.129 432.014C302.353 430.625 302.651 429.354 302.939 428.19C303.184 427.015 303.515 425.99 303.771 425.072C304.016 424.153 304.272 423.373 304.485 422.743C304.677 422.156 304.827 421.675 304.955 421.269C305.061 420.928 305.104 420.746 305.083 420.746V420.725Z" fill="#263238"/>
<path d="M325.737 501.757C325.001 501.575 318.571 497.335 312.504 497.89C306.437 498.446 302.395 501.757 302.395 501.757L294.323 517.329C294.323 517.329 312.877 535.261 318.39 535.635C323.903 535.998 340.633 527.347 341.732 524.399C342.83 521.451 322.613 517.585 322.613 517.585L325.737 501.757Z" fill="#FFBF9D"/>
<path d="M308.068 501.543L299.165 483.974C299.165 483.974 285.814 478.826 277.177 485.458C268.54 492.101 275.343 504.16 275.343 504.16L305.179 524.869L308.058 501.532L308.068 501.543Z" fill="#FFBF9D"/>
<g opacity="0.3">
<path d="M321.728 470.271C319.105 466.501 320.342 460.616 324.244 458.213C326.324 456.931 329.394 455.852 329.181 453.428C328.968 451.078 325.662 450.181 325.023 447.917C324.543 446.219 325.886 444.424 327.539 443.837C329.192 443.249 331.037 443.58 332.721 444.072C336.07 445.054 339.343 446.721 341.518 449.455C343.694 452.189 344.579 456.119 343.097 459.281C341.295 463.115 336.326 465.774 336.869 469.982C337.339 473.614 341.604 475.227 344.003 477.982C346.69 481.069 346.829 486.089 344.312 489.314L322.421 489.538C324.308 488.363 326.228 487.167 327.678 485.469C329.128 483.782 330.056 481.496 329.586 479.317C328.744 475.344 324.042 473.592 321.728 470.249V470.271Z" fill="white"/>
</g>
<path d="M313.752 488.62L359.049 488.257L355.839 510.878C355.839 510.878 352.971 522.028 346.082 522.082L326.451 522.242C326.451 522.242 318.486 518.247 316.812 510.141L313.752 488.62Z" fill="#E1E1DB"/>
<path d="M355.892 498.83C356.106 498.766 356.308 498.723 356.521 498.67C356.575 498.659 356.927 498.585 356.607 498.649C356.255 498.713 356.713 498.649 356.799 498.638C357.268 498.606 357.726 498.638 358.196 498.638C357.737 498.638 358.132 498.638 358.356 498.67C358.601 498.713 358.846 498.777 359.091 498.852C359.305 498.916 359.497 498.991 359.71 499.055C359.987 499.129 359.624 499.012 359.592 499.001C359.72 499.065 359.859 499.119 359.987 499.183C360.414 499.396 360.797 499.642 361.192 499.909C361.437 500.069 361.117 499.856 361.096 499.834C361.171 499.909 361.267 499.973 361.341 500.048C361.533 500.219 361.714 500.39 361.885 500.571C362.013 500.71 362.29 501.073 362.034 500.71C362.184 500.913 362.322 501.127 362.461 501.34C362.578 501.532 362.663 501.735 362.781 501.928C362.93 502.173 362.759 501.853 362.738 501.81C362.791 501.949 362.845 502.088 362.887 502.227C362.973 502.472 363.037 502.718 363.101 502.964C363.122 503.06 363.239 503.679 363.197 503.38C363.154 503.081 363.218 503.701 363.229 503.807C363.239 504.064 363.25 504.32 363.229 504.587C363.229 504.737 363.207 504.886 363.207 505.025C363.207 505.078 363.154 505.441 363.207 505.121C363.261 504.822 363.143 505.441 363.122 505.538C363.069 505.751 363.015 505.965 362.951 506.178C362.898 506.349 362.663 506.937 362.866 506.488C362.663 506.926 362.45 507.343 362.184 507.748C362.12 507.845 362.056 507.93 361.992 508.015C362.024 507.973 362.258 507.727 362.056 507.919C361.842 508.122 361.672 508.357 361.459 508.549C361.384 508.624 360.925 508.987 361.139 508.827C361.363 508.667 360.861 508.998 360.776 509.051C360.595 509.169 360.403 509.276 360.211 509.372C360.115 509.425 360.019 509.468 359.923 509.521C360.243 509.351 360.083 509.457 359.848 509.543C359.369 509.724 358.878 509.82 358.388 509.949C358.1 510.023 358.505 509.938 358.537 509.938C358.398 509.949 358.249 509.97 358.11 509.981C357.822 510.002 357.534 510.013 357.247 510.002C357.14 510.002 357.033 510.002 356.927 509.991C356.863 509.991 356.394 509.938 356.735 509.991C357.065 510.034 356.703 509.991 356.649 509.97C356.511 509.938 356.372 509.917 356.223 509.885C355.946 509.82 355.668 509.735 355.391 509.639C355.349 509.628 355.018 509.489 355.295 509.607C355.626 509.746 355.018 509.457 355.018 509.468C353.802 508.859 352.139 509.137 351.467 510.429C350.849 511.625 351.137 513.324 352.427 513.986C357.492 516.538 364.082 514.904 366.961 509.874C368.379 507.396 368.741 504.427 368.123 501.661C367.515 498.916 365.692 496.577 363.335 495.103C360.733 493.469 357.428 492.999 354.474 493.832C353.163 494.206 352.246 495.712 352.683 497.047C353.131 498.382 354.495 499.236 355.892 498.841V498.83Z" fill="#E1E1DB"/>
<path d="M310.819 517.008H364.306C364.615 517.211 365.287 518.739 363.143 519.7C362.461 519.999 356.98 522.573 356.98 522.573L354.154 524.901H320.96L318.134 522.573C318.134 522.573 312.643 519.999 311.971 519.7C309.828 518.739 310.499 517.211 310.809 517.008H310.819Z" fill="#E0E0E0"/>
<path d="M312.323 516.859C312.323 517.008 323.85 517.136 338.053 517.136C352.256 517.136 363.783 517.008 363.783 516.859C363.783 516.709 352.267 516.581 338.053 516.581C323.839 516.581 312.323 516.709 312.323 516.859Z" fill="#263238"/>
<path d="M312.323 519.059C312.323 519.208 323.85 519.337 338.053 519.337C352.256 519.337 363.783 519.208 363.783 519.059C363.783 518.909 352.267 518.781 338.053 518.781C323.839 518.781 312.323 518.909 312.323 519.059Z" fill="#9D9D9D"/>
<path d="M357.684 498.286C357.641 498.19 356.959 498.713 355.722 498.82C355.114 498.862 354.368 498.734 353.749 498.232C353.131 497.762 352.715 496.908 352.971 496.043C353.205 495.178 353.888 494.505 354.581 494.142C355.295 493.779 356.052 493.672 356.681 493.629C357.95 493.565 358.761 493.65 358.771 493.565C358.771 493.501 358.004 493.277 356.671 493.234C356.01 493.234 355.189 493.298 354.357 493.682C353.536 494.078 352.736 494.825 352.437 495.893C352.288 496.427 352.32 497.004 352.523 497.485C352.725 497.976 353.067 498.36 353.44 498.638C354.197 499.204 355.093 499.311 355.764 499.204C357.129 498.969 357.726 498.307 357.694 498.275L357.684 498.286Z" fill="#263238"/>
<path d="M353.536 514.039C353.536 513.943 352.992 513.964 352.395 513.462C352.107 513.217 351.808 512.843 351.68 512.373C351.542 511.914 351.616 511.337 351.872 510.835C352.406 509.767 353.568 509.468 354.325 509.553C355.114 509.628 355.551 509.927 355.594 509.852C355.636 509.81 355.263 509.361 354.378 509.169C353.941 509.083 353.387 509.073 352.811 509.286C352.235 509.489 351.691 509.959 351.361 510.589C351.041 511.209 350.966 511.946 351.169 512.533C351.371 513.121 351.766 513.537 352.139 513.783C352.928 514.285 353.536 514.093 353.514 514.039H353.536Z" fill="#263238"/>
<path d="M437.87 462.806C426.173 454.272 409.507 449.21 390.014 452.585L367.174 477.139C367.174 477.139 364.892 510.302 380.119 523.075L437.87 462.806Z" fill="#E0E0E0"/>
<path d="M358.622 468.52C359.166 467.697 360.339 467.644 361.32 467.783C366.332 468.477 370.533 471.745 374.979 474.148C386.655 480.482 401.339 480.941 413.377 475.345C417.003 473.657 420.394 471.468 424.072 469.887C427.751 468.306 431.878 467.345 435.759 468.306L385.802 523.321C377.443 515.492 372.26 504.363 371.62 492.914C371.396 488.877 371.716 484.754 370.735 480.834C369.754 476.904 367.078 473.048 363.133 472.183C362.002 471.937 360.787 471.927 359.752 471.403C358.718 470.869 357.972 469.502 358.622 468.53V468.52Z" fill="#AE7461"/>
<path d="M349.43 466.544C347.351 466.907 344.11 467.484 343.15 469.364C342.467 470.709 342.734 472.311 342.915 473.807C343.225 476.306 343.267 478.848 343.033 481.358C342.905 482.693 342.713 484.092 343.214 485.331C343.704 486.58 345.187 487.552 346.391 486.965C347.468 486.442 347.756 484.989 347.458 483.836C347.159 482.682 346.434 481.689 345.954 480.589C345.219 478.891 345.112 476.925 345.656 475.152C346.029 473.956 346.69 472.803 346.637 471.542C346.605 470.859 346.359 470.175 346.423 469.492C346.487 468.808 347.095 468.135 347.98 468.477" fill="#AE7461"/>
<path d="M383.211 443.527L388.468 454.25L367.185 477.149L347.586 468.573C347.586 468.573 349.921 464.215 362.045 455.799C374.819 446.934 383.222 443.538 383.222 443.538L383.211 443.527Z" fill="#9D9D9D"/>
<path d="M385.035 447.255C385.035 447.255 394.12 427.251 395.09 426.289C396.06 425.317 399.835 425.243 400.4 425.317C400.965 425.403 441.176 427.902 444.396 428.468L443.511 439.202L399.6 436.276L392.104 451.869C392.104 451.869 386.218 454.454 386.218 454.133C386.218 453.813 385.024 447.266 385.024 447.266L385.035 447.255Z" fill="#9D9D9D"/>
<path d="M437.87 462.806C443.927 467.313 447.126 479.884 445.58 487.275C444.034 494.676 439.545 501.106 434.639 506.852C424.403 518.814 410.328 530.648 395.218 530.648C387.37 530.648 382.646 526.258 380.119 523.075L437.87 462.806Z" fill="#9D9D9D"/>
<g opacity="0.3">
<path d="M382.006 465.059C383.787 463.03 385.557 461.011 387.338 458.982C388.852 457.252 390.441 455.479 392.563 454.592C394.301 453.866 396.231 453.813 398.108 453.791C404.58 453.727 411.085 453.962 417.429 455.244C422.398 456.248 427.282 457.903 431.664 460.434C433.637 461.567 434.064 464.237 432.571 465.956C428.188 470.976 422.452 475.846 417.152 479.157C415.744 480.044 414.241 480.877 412.588 481.08C410.53 481.336 408.504 480.578 406.585 479.819C398.705 476.754 390.846 473.593 383.03 470.346C382.07 469.951 381.015 469.449 380.684 468.455C380.279 467.238 381.175 466.01 382.028 465.048L382.006 465.059Z" fill="white"/>
</g>
<g opacity="0.3">
<path d="M302.79 429.248C301.073 441.114 299.442 453.716 304.251 464.696L306.938 471.243C301.18 466.095 297.448 458.747 296.691 451.057C295.934 443.367 298.152 435.421 302.79 429.248Z" fill="black"/>
</g>
<path d="M274.362 479.179C274.405 479.275 275.834 478.634 278.275 478.068C279.491 477.769 280.973 477.555 282.615 477.427C284.268 477.342 286.081 477.363 287.979 477.598C289.866 477.854 291.636 478.303 293.204 478.816C294.761 479.36 296.136 479.958 297.235 480.556C299.442 481.742 300.657 482.725 300.732 482.639C300.753 482.607 300.465 482.351 299.911 481.902C299.644 481.678 299.293 481.4 298.877 481.133C298.461 480.856 297.992 480.514 297.426 480.215C296.339 479.563 294.953 478.912 293.374 478.335C291.786 477.78 289.984 477.32 288.054 477.053C286.124 476.808 284.258 476.797 282.583 476.914C280.909 477.064 279.406 477.331 278.19 477.683C277.572 477.822 277.028 478.036 276.559 478.196C276.079 478.346 275.674 478.516 275.354 478.677C274.703 478.965 274.362 479.147 274.373 479.179H274.362Z" fill="#263238"/>
<path d="M416.192 362.324C416.192 362.324 415.947 362.751 415.595 363.563C415.414 363.969 415.201 364.471 415.009 365.069C414.806 365.667 414.55 366.34 414.358 367.109C413.91 368.636 413.526 370.495 413.271 372.588C413.047 374.681 412.951 376.999 413.1 379.424C413.281 381.848 413.686 384.134 414.198 386.174C414.742 388.203 415.371 389.997 416.032 391.45C416.331 392.187 416.672 392.817 416.96 393.383C417.237 393.949 417.514 394.419 417.749 394.793C418.208 395.551 418.485 395.957 418.517 395.936C418.613 395.882 417.589 394.205 416.406 391.29C415.808 389.837 415.222 388.053 414.71 386.045C414.23 384.027 413.846 381.773 413.665 379.381C413.516 376.988 413.59 374.703 413.782 372.642C414.017 370.58 414.348 368.732 414.742 367.216C415.52 364.161 416.31 362.367 416.203 362.324H416.192Z" fill="#263238"/>
<path d="M490.269 407.844C489.469 407.844 478.561 410.418 461.564 407.844C444.567 405.27 425.245 401.745 425.245 401.745L440.408 426.31C440.408 426.31 469.615 449.273 487.486 451.366C505.357 453.46 515.775 446.229 517.215 436.435C518.654 426.641 503.427 408.004 490.28 407.844H490.269Z" fill="#FFBF9D"/>
<path d="M419.54 399.321C419.54 399.321 415.073 398.103 412.258 399.769C409.432 401.436 405.753 407.993 404.601 410.3C403.269 412.97 402.256 415.406 401.424 422.796C400.027 435.26 400.987 436.991 403.162 437.845C407.043 439.362 408.259 436.083 408.259 436.083C408.259 436.083 411.117 442.043 417.259 437.386C417.259 437.386 418.933 441.039 424.243 439.372C424.243 439.372 425.021 442.085 430.332 440.75C435.642 439.415 437.305 436.916 439.299 432.761C441.293 428.607 441.794 426.438 443.447 425.776C445.111 425.114 447.265 426.77 446.273 420.788C445.281 414.797 448.427 415.961 442.615 411.475C436.804 406.989 426.013 401.5 419.54 399.332V399.321Z" fill="#FFBF9D"/>
<path d="M414.678 413.611C414.678 413.611 414.422 413.857 414.06 414.359C413.686 414.861 413.185 415.619 412.631 416.591C411.511 418.524 410.21 421.376 409.368 424.698C408.525 428.03 408.302 431.149 408.366 433.381C408.398 434.502 408.462 435.41 408.557 436.03C408.643 436.649 408.707 436.991 408.749 436.98C408.845 436.98 408.717 435.592 408.749 433.381C408.781 431.17 409.069 428.105 409.89 424.836C410.722 421.568 411.938 418.738 412.961 416.783C413.985 414.818 414.753 413.675 414.667 413.622L414.678 413.611Z" fill="#FF9A6C"/>
<path d="M424.243 420.383C424.19 420.34 423.507 421.141 422.579 422.54C421.652 423.95 420.511 425.99 419.519 428.372C418.538 430.753 417.92 433.018 417.589 434.662C417.259 436.318 417.184 437.354 417.248 437.365C417.333 437.375 417.546 436.361 417.973 434.748C418.4 433.135 419.071 430.924 420.031 428.575C421.001 426.225 422.078 424.185 422.91 422.743C423.742 421.301 424.307 420.425 424.232 420.372L424.243 420.383Z" fill="#FF9A6C"/>
<path d="M432.901 425.296C432.837 425.253 432.294 426.011 431.526 427.304C430.758 428.596 429.788 430.433 428.7 432.43C427.612 434.427 426.525 436.179 425.661 437.386C424.797 438.593 424.19 439.298 424.254 439.351C424.296 439.394 425.011 438.785 425.97 437.621C426.941 436.457 428.092 434.705 429.191 432.697C430.289 430.679 431.195 428.82 431.878 427.496C432.549 426.161 432.976 425.338 432.912 425.296H432.901Z" fill="#FF9A6C"/>
<path d="M446.486 408.463C446.529 408.314 442.008 406.691 436.378 404.843C430.747 402.984 426.141 401.607 426.098 401.745C426.056 401.884 430.577 403.518 436.207 405.366C441.837 407.225 446.443 408.602 446.486 408.463Z" fill="#FF9A6C"/>
</g>
<defs>
<clipPath id="clip0_44_1733">
<rect width="754" height="437" fill="white" transform="matrix(-1 0 0 1 754 133.582)"/>
</clipPath>
</defs>
</svg>
