<svg width="705" height="657" viewBox="0 0 705 657" fill="none" xmlns="http://www.w3.org/2000/svg">
<path fill-rule="evenodd" clip-rule="evenodd" d="M203.543 352.275C203.843 359.12 209.407 371.807 218.183 375.993C230.094 381.675 237.81 379.254 243.326 377.845C243.326 377.845 241.023 376.27 238.815 374.299C234.55 370.493 228.29 360.743 214.844 355.915C207.507 353.28 202.727 349.339 201.706 346.735C200.678 344.131 203.535 352.275 203.535 352.275H203.543Z" fill="#6F7A39"/>
<path fill-rule="evenodd" clip-rule="evenodd" d="M232.342 372.661C232.666 372.709 232.88 373.041 232.816 373.405C232.753 373.769 232.437 374.022 232.104 373.975C228.076 373.389 223.707 370.928 219.616 367.778C213.957 363.417 208.797 357.711 205.838 353.802C204.279 351.744 203.004 349.829 201.991 348.159C201.857 347.938 201.453 347.297 201.184 346.83C200.812 346.173 200.868 343.783 202.656 346.798C203.701 348.563 205.062 350.652 206.787 352.924C209.708 356.77 214.78 362.397 220.352 366.686C224.309 369.733 228.511 372.107 232.342 372.669V372.661Z" fill="#425330"/>
<path fill-rule="evenodd" clip-rule="evenodd" d="M294.957 410.965C288.111 411.329 275.489 417.027 271.389 425.851C265.834 437.825 268.326 445.51 269.798 451.01C269.798 451.01 271.35 448.691 273.296 446.467C277.064 442.162 286.742 435.799 291.435 422.314C293.992 414.954 297.885 410.134 300.481 409.081C303.077 408.029 294.957 410.973 294.957 410.973V410.965Z" fill="#6F7A39"/>
<path fill-rule="evenodd" clip-rule="evenodd" d="M274.863 439.962C274.816 440.286 274.491 440.508 274.127 440.445C273.763 440.381 273.51 440.065 273.558 439.74C274.104 435.704 276.517 431.312 279.62 427.189C283.925 421.483 289.576 416.267 293.453 413.268C295.495 411.685 297.395 410.395 299.057 409.366C299.278 409.224 299.911 408.82 300.378 408.543C301.027 408.163 303.425 408.195 300.426 410.015C298.669 411.076 296.595 412.461 294.34 414.21C290.517 417.169 284.954 422.298 280.72 427.917C277.712 431.905 275.378 436.131 274.863 439.962Z" fill="#425330"/>
<path fill-rule="evenodd" clip-rule="evenodd" d="M511.484 324.52C504.678 323.713 491.264 327.156 485.716 335.149C478.19 345.991 479.329 353.992 479.836 359.666C479.836 359.666 481.759 357.648 484.062 355.788C488.51 352.188 499.138 347.59 506.071 335.101C509.854 328.287 514.515 324.212 517.253 323.618C519.984 323.024 511.492 324.528 511.492 324.528L511.484 324.52Z" fill="#6F7A39"/>
<path fill-rule="evenodd" clip-rule="evenodd" d="M486.721 349.647C486.618 349.964 486.262 350.122 485.914 349.995C485.566 349.877 485.368 349.521 485.471 349.204C486.697 345.326 489.831 341.409 493.598 337.879C498.814 332.996 505.279 328.833 509.616 326.538C511.895 325.327 513.993 324.386 515.805 323.65C516.05 323.555 516.747 323.254 517.253 323.072C517.958 322.811 520.316 323.254 517.047 324.528C515.14 325.272 512.853 326.285 510.328 327.615C506.063 329.878 499.692 333.977 494.556 338.781C490.908 342.2 487.884 345.959 486.721 349.647Z" fill="#425330"/>
<path fill-rule="evenodd" clip-rule="evenodd" d="M242.93 443.753C242.432 436.923 236.489 424.403 227.585 420.486C215.509 415.167 207.872 417.811 202.395 419.386C202.395 419.386 204.745 420.889 207.009 422.797C211.393 426.477 217.93 436.029 231.519 440.453C238.926 442.866 243.825 446.665 244.925 449.237C246.025 451.809 242.93 443.753 242.93 443.753Z" fill="#6F7A39"/>
<path fill-rule="evenodd" clip-rule="evenodd" d="M213.538 424.237C213.205 424.197 212.984 423.873 213.039 423.509C213.095 423.145 213.403 422.884 213.736 422.923C217.78 423.39 222.22 425.717 226.406 428.74C232.191 432.934 237.517 438.482 240.596 442.297C242.218 444.307 243.548 446.182 244.608 447.821C244.751 448.042 245.17 448.667 245.455 449.126C245.851 449.767 245.859 452.165 243.983 449.206C242.883 447.472 241.458 445.423 239.67 443.207C236.639 439.448 231.4 433.979 225.702 429.856C221.65 426.928 217.384 424.68 213.538 424.237Z" fill="#425330"/>
<path fill-rule="evenodd" clip-rule="evenodd" d="M418.051 413.118C413.018 417.771 406.94 430.22 409.417 439.621C412.781 452.379 419.61 456.708 424.256 460C424.256 460 423.971 457.222 424.042 454.27C424.192 448.548 427.588 437.477 422.578 424.102C419.848 416.805 419.769 410.609 421.09 408.14C422.412 405.67 418.043 413.118 418.043 413.118H418.051Z" fill="#6F7A39"/>
<path fill-rule="evenodd" clip-rule="evenodd" d="M421.106 448.263C421.28 448.54 421.161 448.92 420.845 449.102C420.528 449.284 420.125 449.205 419.951 448.928C417.798 445.47 416.848 440.555 416.603 435.395C416.271 428.257 417.299 420.636 418.36 415.848C418.922 413.331 419.563 411.115 420.18 409.263C420.267 409.01 420.489 408.29 420.679 407.783C420.94 407.079 422.8 405.575 421.66 408.883C420.987 410.822 420.275 413.212 419.65 415.998C418.597 420.715 417.592 428.217 417.917 435.245C418.146 440.239 419.056 444.979 421.098 448.255L421.106 448.263Z" fill="#425330"/>
<path fill-rule="evenodd" clip-rule="evenodd" d="M136.041 611.273C134.412 626.265 125.958 611.912 130.26 601.286C132.048 596.878 134.455 600.37 135.211 603.043C135.967 605.705 136.286 608.526 136.041 611.273ZM137.457 618.493C140.865 623.944 153.802 608.505 150.011 605.588C147.477 603.639 136.968 611.955 137.457 618.493ZM128.141 618.482C128.269 611.444 115.949 602.468 114.831 606.184C113.394 610.933 125.458 623.263 128.141 618.482Z" fill="#8D9737"/>
<path fill-rule="evenodd" clip-rule="evenodd" d="M92.2051 541.627C90.9274 553.467 84.2406 542.138 87.6479 533.748C89.0534 530.277 90.9593 533.024 91.5556 535.132C92.1518 537.23 92.4074 539.455 92.2051 541.627ZM93.3231 547.324C96.0169 551.625 106.228 539.445 103.236 537.134C101.234 535.59 92.9398 542.16 93.3231 547.324ZM85.9762 547.313C86.072 541.766 76.3508 534.674 75.467 537.603C74.3384 541.35 83.8467 551.082 85.9762 547.313Z" fill="#8D9737"/>
<path fill-rule="evenodd" clip-rule="evenodd" d="M525.084 549.645C523.807 561.485 517.12 550.156 520.527 541.766C521.933 538.294 523.839 541.052 524.435 543.15C525.031 545.247 525.287 547.473 525.084 549.645ZM526.192 555.341C528.886 559.643 539.097 547.462 536.105 545.152C534.103 543.608 525.808 550.177 526.192 555.341ZM518.845 555.331C518.941 549.783 509.219 542.692 508.336 545.62C507.207 549.368 516.715 559.1 518.845 555.331Z" fill="#8D9737"/>
<path fill-rule="evenodd" clip-rule="evenodd" d="M527.352 616.022C525.723 631.014 517.269 616.661 521.571 606.035C523.359 601.627 525.766 605.119 526.522 607.792C527.278 610.453 527.597 613.275 527.352 616.022ZM528.758 623.241C532.165 628.693 545.102 613.254 541.311 610.336C538.777 608.388 528.268 616.704 528.758 623.241ZM519.452 623.231C519.579 616.203 507.26 607.217 506.142 610.933C504.705 615.681 516.769 628.011 519.452 623.231Z" fill="#8D9737"/>
<path fill-rule="evenodd" clip-rule="evenodd" d="M440.169 599.817C438.892 611.657 432.205 600.328 435.612 591.937C437.018 588.466 438.924 591.224 439.52 593.322C440.116 595.419 440.372 597.645 440.169 599.817ZM441.277 605.513C443.971 609.815 454.182 597.634 451.19 595.323C449.188 593.78 440.894 600.349 441.277 605.513ZM433.93 605.503C434.026 599.955 424.305 592.864 423.421 595.792C422.292 599.54 431.8 609.272 433.93 605.503Z" fill="#8D9737"/>
<path fill-rule="evenodd" clip-rule="evenodd" d="M188.396 586.752C187.118 598.582 180.431 587.263 183.839 578.873C185.244 575.402 187.15 578.159 187.746 580.257C188.343 582.355 188.598 584.58 188.396 586.752ZM189.514 592.449C192.208 596.75 202.419 584.569 199.427 582.259C197.425 580.715 189.131 587.284 189.514 592.449ZM182.167 592.438C182.263 586.89 172.542 579.799 171.658 582.727C170.529 586.475 180.037 596.207 182.167 592.438Z" fill="#8D9737"/>
<path fill-rule="evenodd" clip-rule="evenodd" d="M89.8307 650.286C88.553 662.126 81.8663 650.797 85.2735 642.407C86.679 638.936 88.5849 641.694 89.1812 643.791C89.7774 645.889 90.033 648.114 89.8307 650.286ZM90.9487 655.993C93.6425 660.295 103.854 648.114 100.862 645.804C98.8599 644.26 90.5654 650.829 90.9487 655.993ZM83.6018 655.972C83.6976 650.425 73.9764 643.333 73.0926 646.261C71.964 650.009 81.4829 659.741 83.6018 655.972Z" fill="#8D9737"/>
<path fill-rule="evenodd" clip-rule="evenodd" d="M447.293 648.508C446.015 660.348 439.328 649.019 442.736 640.629C444.141 637.158 446.047 639.915 446.643 642.013C447.24 644.111 447.495 646.336 447.293 648.508ZM448.411 654.205C451.105 658.506 461.316 646.325 458.324 644.015C456.322 642.471 448.027 649.041 448.411 654.205ZM441.053 654.194C441.149 648.647 431.428 641.555 430.544 644.483C429.415 648.231 438.924 657.963 441.053 654.194Z" fill="#8D9737"/>
<path d="M261.155 91.6299C261.032 91.2791 258.04 86.1685 254.185 80.6166C236.238 54.7598 209.625 29.8397 178.416 30.7764L178.394 30.5847C192.503 29.0367 206.33 32.7946 218.465 39.493C238.488 50.2857 257.993 70.8547 268.667 86.664L261.155 91.6299Z" fill="#FAE865"/>
<path d="M185.338 45.0845L183.226 30.5447L194.008 20.5622C195.237 19.4265 194.626 17.3722 192.977 17.09L178.495 14.6053L172.332 1.26633C171.63 -0.252745 169.489 -0.306996 168.712 1.1723L161.872 14.1785L147.282 15.9182C145.618 16.1171 144.905 18.1353 146.074 19.3325L156.327 29.8575L153.474 44.2707C153.148 45.9127 154.848 47.2148 156.349 46.4733L169.525 39.9702L182.351 47.1388C183.812 47.9562 185.573 46.741 185.335 45.0845H185.338Z" fill="#FAE865"/>
<path d="M469.326 18.4677L471.247 25.5929L465.485 30.4323L468.205 38.2664L460.483 41.5324L463.167 50.5239L456.425 54.4084L457.589 63.4831L461.025 63.0418L460.154 56.2566L467.268 52.1587L464.686 43.5144L472.541 40.1942L469.539 31.5499L475.164 26.8227L473.384 20.2183L477.724 17.8854L476.086 14.8364L469.326 18.4677Z" fill="#8E8925"/>
<path d="M631.925 461.152C623.599 470.441 624.38 484.716 633.665 493.039C642.953 501.361 657.229 500.58 665.555 491.292C673.881 482.004 673.099 467.728 663.815 459.406C654.527 451.083 640.251 451.864 631.925 461.152Z" fill="#FAE865"/>
<path d="M655.344 486.944C650.892 491.91 643.26 492.326 638.294 487.877C633.329 483.428 632.913 475.793 637.365 470.831L655.348 486.944H655.344Z" fill="#FFFACD"/>
<path d="M76.2179 155.438L80.1241 165.175L96.4831 160.621L103.948 174.152L116.748 172.745L117.461 179.226L100.342 181.107L93.2677 168.281L76.2468 173.019L70.3695 158.371L76.2179 155.438Z" fill="#8E8925"/>
<path d="M644.186 266.924L654.143 267.937L657.54 252.091L672.282 251.773L676.763 240.333L682.554 242.601L676.564 257.903L662.592 258.204L659.059 274.686L644.074 273.167L644.186 266.924Z" fill="#8E8925"/>
<path d="M550.586 170.896C550.723 170.506 554.061 164.798 558.369 158.599C578.406 129.733 608.115 101.912 642.956 102.957L642.982 102.744C627.23 101.015 611.794 105.211 598.245 112.687C575.893 124.738 554.112 147.698 542.198 165.348L550.586 170.893V170.896Z" fill="#FAE865"/>
<path d="M635.227 118.933L637.585 102.7L625.548 91.5569C624.178 90.2874 624.858 87.998 626.699 87.6797L642.866 84.9055L649.745 70.015C650.53 68.3187 652.917 68.2572 653.785 69.9101L661.42 84.4281L677.711 86.3704C679.566 86.591 680.362 88.8443 679.06 90.1825L667.612 101.93L670.799 118.021C671.161 119.855 669.265 121.309 667.591 120.481L652.881 113.222L638.562 121.226C636.931 122.137 634.963 120.785 635.231 118.933H635.227Z" fill="#FAE865"/>
<path d="M704.103 174.145L700.302 167.725L703.437 160.954C703.795 160.184 703.112 159.337 702.284 159.522L695.003 161.153L689.531 156.079C688.909 155.5 687.892 155.887 687.813 156.733L687.115 164.162L680.597 167.797C679.856 168.213 679.91 169.298 680.691 169.635L687.541 172.593L688.984 179.914C689.147 180.749 690.2 181.031 690.76 180.395L695.694 174.796L703.101 175.686C703.944 175.787 704.537 174.875 704.107 174.145H704.103Z" fill="#FAE865"/>
<path d="M2.09783 277.286L11.2159 276.548L12.4601 284.983L21.4769 284.653L23.6614 292.571L30.4467 293.428L30.0127 296.864L20.9379 295.717L18.8691 288.216L9.48703 288.556L8.26449 280.263L4.19617e-05 280.928L2.09783 277.286Z" fill="#8E8925"/>
<path d="M490.21 72.5364L490.767 63.4038L499.292 63.3604L500.236 54.387L508.381 53.3418L510.186 46.7446L513.527 47.6561L511.111 56.4848L503.393 57.4758L502.409 66.8073L494.025 66.8507L493.519 75.126L490.21 72.5364Z" fill="#8E8925"/>
<path d="M687.86 342.064L680.97 344.693L675.57 339.456L668.05 342.95L664.021 335.597L655.344 339.178L650.798 332.863L641.89 334.942L642.674 338.313L649.337 336.758L654.136 343.42L662.477 339.98L666.571 347.46L674.868 343.601L680.141 348.715L686.529 346.277L689.288 350.361L692.16 348.422L687.86 342.064Z" fill="#8E8925"/>
<path d="M272.056 51.6492L272.501 57.2046L281.521 57.4723L283.174 65.5162L289.891 66.8218L289.229 70.2181L280.248 68.4747L278.678 60.854L269.3 60.5756L268.627 52.2134L272.056 51.6492Z" fill="#8E8925"/>
<path d="M89.1084 52.5605C78.7027 62.5394 78.3591 79.0612 88.338 89.4669C98.3169 99.8689 114.839 100.216 125.244 90.2372C135.646 80.2583 135.994 63.7366 126.015 53.3309C116.036 42.9289 99.514 42.5816 89.1084 52.5605Z" fill="#FFFACD"/>
<path d="M89.5532 74.3808L100.661 77.7951L104.144 88.8807C104.426 89.7777 105.612 89.9585 106.151 89.1918L112.831 79.6831L124.449 79.7952C125.385 79.806 125.928 78.7318 125.364 77.9831L118.387 68.6915L122.083 57.6745C122.383 56.7848 121.53 55.9384 120.644 56.2423L109.652 60.0074L100.317 53.0884C99.561 52.5278 98.494 53.0775 98.5085 54.0179L98.693 65.6352L89.2277 72.3734C88.4645 72.9196 88.6562 74.1023 89.5532 74.3771V74.3808Z" fill="#FAE865"/>
<path d="M15.151 187.093L9.03131 186.724C8.36942 186.684 8.01855 185.827 8.44172 185.277L12.3407 180.174L10.6589 173.678C10.478 172.976 11.1037 172.361 11.7222 172.644L17.4188 175.226L22.5005 171.58C23.0502 171.186 23.788 171.663 23.7446 172.387L23.3648 179.085L28.1861 183.328C28.707 183.787 28.5333 184.695 27.8931 184.865L21.9615 186.42L19.8601 192.688C19.6323 193.368 18.7896 193.451 18.4315 192.829L15.1437 187.093H15.151Z" fill="#FAE865"/>
<path d="M481.316 300.203C481.316 300.203 470.342 279.091 468.642 271.344C466.939 263.593 461.221 224.596 461.543 222.053C462.15 217.257 468.451 214.151 467.297 212.017C466.147 209.883 460.179 209.217 458.146 209.402C456.114 209.586 452.027 210.769 450.28 212.212C448.529 213.655 452.247 260.424 453.354 270.494C454.464 280.563 468.093 311.57 468.093 311.57L481.312 300.206L481.316 300.203Z" fill="#F7A491"/>
<path d="M448.316 211.337C448.558 211.489 449.48 211.76 449.697 211.959L451.383 212.49C451.383 212.49 447.05 212.378 444.489 215.127C444.489 215.127 445.704 212.946 448.316 211.337Z" fill="#F47257"/>
<path d="M240.908 219.811C239.208 218.516 238.343 215.264 237.974 213.163L237.117 210.4C237.768 210.096 250.669 207.651 254.583 207.369C255.02 208.591 255.259 209.629 255.169 210.302C254.735 213.528 251.603 234.502 251.603 234.502L240.43 235.24C240.43 235.24 242.296 222.806 240.908 219.814V219.811Z" fill="#F7A491"/>
<path d="M240.64 211.007C240.64 211.007 242.944 212.053 245.508 215.142C245.508 215.142 251.646 210.798 251.364 209.521C250.991 207.832 244.673 211.29 244.673 211.29L240.64 211.007Z" fill="#F47458"/>
<path d="M186.145 517.687C186.145 517.687 171.11 528.527 168.744 531.76C165.333 536.419 194.214 545.128 191.064 539.674C190.337 538.419 188.261 534.202 188.17 533.786C187.686 531.565 193.812 525.586 193.812 525.586L186.148 517.687H186.145Z" fill="#F7A491"/>
<path d="M198.872 548.788L188.662 534.364C188.662 534.364 182.289 532.881 175.746 525.525C175.746 525.525 169.869 527.767 166.248 532.632C166.248 532.632 173.084 539.999 183.613 548.286C183.613 548.286 189.856 553.812 198.482 556.731C207.108 559.646 198.872 548.792 198.872 548.792V548.788Z" fill="#9D6F57"/>
<path d="M63.3889 250.272C63.3889 250.272 67.277 256.685 67.711 256.294C68.0437 255.994 65.7217 252.616 64.0724 248.521C63.6492 247.469 63.2334 246.427 62.8608 245.469C61.8807 242.952 63.0923 241.649 64.5245 244.123C65.0309 244.999 65.8375 246.467 66.2679 247.599C66.7344 248.818 67.5446 249.795 68.0872 250.76C69.165 252.681 69.9281 254.095 69.9824 254.008C70.0511 253.896 70.5249 254.128 70.1053 252.996C69.6026 251.636 67.9208 248.977 67.3348 246.923C67.0021 245.758 66.163 243.364 66.163 243.364C66.163 243.364 65.5481 239.516 65.7543 239.411C66.8719 238.828 68.0112 241.349 68.2644 242.988C68.9443 243.957 69.7581 246.5 69.7581 246.5C69.7581 246.5 72.5214 251.288 73.1797 250.912C73.4582 250.753 72.1055 247.614 71.241 244.337C70.4381 241.291 70.1126 238.094 70.6695 237.852C71.6208 237.443 72.8578 240.734 72.8578 240.734C72.8578 240.734 73.6065 243.085 73.9139 243.849C74.272 244.742 75.5487 247.339 75.5487 247.339C75.5487 247.339 80.5255 256.12 81.115 255.712C81.7082 255.299 82.6667 253.668 82.5509 253.017C82.4352 252.366 81.6105 251.278 81.4948 250.627C81.3791 249.975 81.7661 249.035 82.5292 248.847C83.2924 248.655 85.0285 251.599 85.0285 251.599C85.0285 251.599 86.4209 254.005 86.4571 255.922C86.5837 262.573 85.4987 262.309 85.5385 263.162C85.5855 264.172 93.2857 275.279 93.2857 275.279C93.2857 275.279 93.3364 275.34 93.434 275.449L84.2942 282.1C81.2452 277.142 78.8762 273.257 78.1818 272.042C78.1818 272.042 73.5956 268.118 70.7926 265.56C67.9895 263.003 66.4125 259.321 65.729 258.479C65.6277 258.356 63.5082 255.415 61.8191 251.108C60.3652 247.393 63.3889 250.272 63.3889 250.272Z" fill="#F8A492"/>
<path d="M163.149 406.288L165.529 418.047L225.308 472.423L182.517 515.727L194.073 527.536C194.073 527.536 257.274 481.128 259.549 475.048C263.057 465.684 214.244 403.663 214.244 403.663L163.145 406.288H163.149Z" fill="#ED7D2B"/>
<path d="M119.132 550.206C119.132 550.206 104.097 561.046 101.731 564.279C98.3205 568.938 127.201 577.647 124.051 572.193C123.327 570.938 121.248 566.717 121.157 566.305C120.673 564.084 126.8 558.105 126.8 558.105L119.135 550.21L119.132 550.206Z" fill="#F7A491"/>
<path d="M131.874 581.362L121.664 566.938C121.664 566.938 114.882 565.719 108.339 558.359C108.339 558.359 102.867 560.341 99.25 565.206C99.25 565.206 106.086 572.573 116.614 580.859C116.614 580.859 122.854 586.389 131.483 589.301C140.109 592.216 131.874 581.362 131.874 581.362Z" fill="#9D6F57"/>
<path d="M165.196 411.739L164.263 489.024L116.777 548.594L127.953 561.017C127.953 561.017 186.756 512.129 193.198 498.099C197.194 489.397 211.748 407.095 211.748 407.095L165.196 411.746V411.739Z" fill="#F99746"/>
<path d="M213.416 405.648C208.555 394.675 209.115 316.008 190.192 297.58C183.533 298.705 178.785 299.334 177.674 299.627C176.687 307.733 175.602 337.471 174.933 364.724C174.488 382.88 174.947 401.923 172.712 411.96C171.327 418.181 217.857 415.67 213.416 405.648Z" fill="#FAE0B2"/>
<path d="M293.544 342.708C304.6 343.344 309.259 345.098 312.662 344.451C316.066 343.803 325.133 340.563 324.97 337.163C312.821 334.732 291.605 338.498 291.605 338.498C293.063 345.587 293.544 342.711 293.544 342.711V342.708Z" fill="#F7A491"/>
<path d="M198.265 300.087C198.265 300.087 203.173 324.2 208.891 328.345C214.609 332.49 243.598 347.066 245.382 346.961C254.152 346.451 296.086 344.74 296.086 344.74L294.791 331.293L247.53 327.452C247.53 327.452 213.307 305.013 208.699 301.479C205.459 299.443 198.265 300.083 198.265 300.083V300.087Z" fill="#688F58"/>
<path d="M215.318 410.907C219.572 410.907 221.141 410.321 223.973 409.467C223.973 409.467 225.833 377.896 216.772 331.076C213.358 313.429 213.264 302.713 206.287 300C199.994 297.551 192.293 297.226 190.196 297.58C208.732 350.025 208.797 390.392 211.419 402.1C212.736 407.974 213.882 410.947 215.318 410.911V410.907Z" fill="#688F58"/>
<path d="M188.239 289.659L190.181 297.584C190.181 297.584 190.626 304.481 187.422 305.103C183.559 305.852 177.822 300.072 177.822 300.072L174.499 277.727L188.239 289.663V289.659Z" fill="#F7A491"/>
<path d="M188.239 289.659L190.181 297.584C190.181 297.584 190.626 304.481 187.422 305.103C183.559 305.852 177.822 300.072 177.822 300.072L174.499 277.727L188.239 289.663V289.659Z" fill="#F7A491"/>
<path d="M174.531 277.825L188.239 289.656L189.689 295.577C184.448 294.314 176.98 288.549 174.531 277.825Z" fill="#F47458"/>
<path d="M188.286 257.267C191.599 257.256 194.586 259.556 195.751 262.866C196.717 265.607 197.954 269.673 198.742 274.338C200.193 282.932 195.299 290.799 191.042 291.424C186.785 292.054 176.643 289.233 174.397 277.058C173.435 271.839 172.169 264.996 176.462 261.401C179.801 258.605 184.477 257.278 188.286 257.267Z" fill="#F7A491"/>
<path d="M175.779 286.336C175.779 286.336 160.769 272.961 160.114 262.508C159.46 252.059 169.109 246.46 177.363 246.167C181.092 246.037 183.613 246.203 187.461 246.688C195.729 247.729 201.09 251.397 199.202 258.168C196.67 267.264 179.508 259.589 175.999 262.414C173.102 264.743 177.797 270.346 174.987 272.483C172.343 274.494 173.688 273.81 174.564 277.634C175.439 281.453 175.775 286.332 175.775 286.332L175.779 286.336Z" fill="#602512"/>
<path d="M169.992 274.215C170.364 276.718 171.894 278.566 173.41 278.346C174.925 278.121 175.855 275.911 175.482 273.405C175.11 270.902 173.58 269.054 172.064 269.278C170.549 269.502 169.619 271.712 169.992 274.215Z" fill="#F7A491"/>
<path d="M238.34 206.79C239.689 204.436 241.696 206.855 240.394 209.919C240.329 210.071 240.39 210.302 240.387 210.281C240.723 211.084 243.844 213.576 243.844 213.576C243.844 213.576 241.345 220.571 239.938 218.733C238.531 216.892 237.464 210.932 237.464 210.932L238.34 206.794V206.79Z" fill="#F7A491"/>
<path d="M80.1204 278.364L90.3417 268.248C90.3417 268.248 109.764 296.119 119.613 300.955C129.187 305.657 161.073 303.946 162.194 303.69C166.017 302.818 177.768 299.602 177.768 299.602C177.768 299.602 187.62 384.179 174.784 413.584C170.596 423.176 144.551 416.817 144.551 416.817C144.551 416.817 152.588 381.6 153.018 376.992C153.427 372.583 155.662 337.655 155.304 337.301C154.364 336.361 118.81 328.613 109.066 321.21C98.7725 313.39 80.1204 278.368 80.1204 278.368V278.364Z" fill="#688F58"/>
<path d="M576.421 355.113C558.89 373.382 543.493 357.197 544.256 357.468C543.656 357.211 539.811 357.229 537.305 357.132C526.863 356.723 517.354 349.24 513.202 339.322C497.573 337.275 487.356 322.837 491.931 310.337C485.027 301.74 487.153 288.01 493.689 279.217C495.212 264.812 514.034 262.37 526.989 267.419C533.558 269.976 539.149 275.51 542.028 282.216C554.517 281.916 565.18 291.102 567.961 303.892C587.383 309.31 594.31 336.476 576.421 355.117V355.113Z" fill="#602512"/>
<path d="M463.796 532.144C465.622 542.01 468.733 550.691 469.16 551.711C469.366 552.203 471.322 553.997 471.547 554.499C470.498 566.529 462.83 573.676 455.633 578.768C457.195 572.703 460.671 565.74 460.222 564.391C459.506 562.243 456.725 552.441 450.8 540.111C456.79 539.435 458.924 535.797 463.799 532.144H463.796Z" fill="#F7A491"/>
<path d="M485.714 389.003L527.308 417.403C527.308 417.403 507.05 430.557 500.105 437.176C493.161 443.795 455.998 473.819 455.39 475.334C454.942 476.459 458.837 490.695 467.774 536.278C463.821 540.318 455.119 544.278 449.965 545.584C439.158 521.264 426.955 470.668 428.322 465.102C430.448 456.465 485.71 389.003 485.71 389.003H485.714Z" fill="#ED7D2B"/>
<path d="M591.029 446.16C589.807 447.35 581.691 463.163 578.602 471.626C574.081 468.78 571.346 465.387 566.294 463.474C570.279 457.705 578.052 443.831 578.689 440.529C580.204 432.695 581.984 431.537 581.984 431.537C581.984 431.537 608.253 440.424 610.003 442.916C611.754 445.404 595.941 441.375 591.029 446.164V446.16Z" fill="#F7A491"/>
<path d="M578.385 442.265C576.348 442.269 578.562 433.06 579.029 430.937C579.553 428.55 580.938 427.834 581.282 427.751C582.215 427.519 611.407 437.397 616.34 440.945C616.673 441.184 617.273 441.943 617.364 442.117C620.065 447.155 595.999 448.113 592.534 445.911C589.452 443.95 587.553 442.24 578.385 442.265Z" fill="#9D6F57"/>
<path d="M478.158 397.886C478.158 397.886 513.394 384.012 513.853 385.488C517.502 397.239 528.856 393.449 535.594 414.148C538.415 422.817 540.639 445.697 542.542 462.668C543.851 474.328 545.678 483.674 545.678 483.674C545.678 483.674 553.834 471.612 569.191 454.309C570.381 452.967 582.779 464.758 582.779 464.758C558.326 513.249 540.487 520.107 536.588 518.787C518.917 512.812 495.494 431.53 495.53 431.538C492.658 425.942 478.162 397.89 478.162 397.89L478.158 397.886Z" fill="#F99746"/>
<path d="M532.538 315.726C532.538 315.726 574.602 315.671 583.608 315.151C591.76 314.68 624.087 315.505 625.353 315.357C626.615 315.212 634.974 301.059 636.363 302.578C637.752 304.098 631.712 309.595 633.582 311.024C635.448 312.449 655.514 309.255 655.246 310.738C654.747 313.512 643.043 313.161 643.054 314.5C643.065 315.838 655.304 313.747 656.136 315.972C656.964 318.196 644.363 316.879 643.861 317.87C643.358 318.861 655.55 320.681 654.302 322.75C653.626 323.874 643.499 320.872 643.55 322.406C643.6 323.936 650.986 327.423 650.082 328.641C649.177 329.86 644.284 324.898 639.998 324.837C635.712 324.775 632.641 322.54 625.798 324.417C622.42 325.343 596.628 328.497 574.833 330.359C552.492 332.269 534.176 332.877 534.176 332.877L532.541 315.729L532.538 315.726Z" fill="#F7A491"/>
<path d="M470.165 353.121C469.608 346.368 470.935 333.51 471.239 331.268C469.196 324.251 464.848 309.284 463.286 306.344C463.286 306.344 470.61 292.271 478.108 292.365C478.108 292.365 485.764 309.624 491.685 312.709C491.772 312.688 493.779 313.603 494.662 313.599C500.377 313.559 520.352 312.952 524.078 312.887L521.98 341.221C514.11 362.094 515.546 380.565 516.931 386.996C517.705 390.577 483.019 401.319 477.688 397.89C477.478 397.752 471.286 366.767 470.161 353.113L470.165 353.121Z" fill="#F9DDBF"/>
<path d="M513.933 313.961C517.618 312.2 544.278 313.082 544.278 313.082C544.278 313.082 548.003 331.647 544.994 336.111C544.994 336.111 521.155 339.659 521.835 341.615L513.936 313.965L513.933 313.961Z" fill="#F9DDBF"/>
<path d="M509.285 300.973C509.285 300.973 506.514 310.724 506.012 314.937C505.509 319.151 499.089 332.28 490.347 330.403C481.605 328.526 490.727 316.268 492.438 312.406C494.148 308.546 498.778 292.943 498.778 292.943L509.285 300.973Z" fill="#F7A491"/>
<path d="M496.836 299.342C497.935 295.786 498.778 292.943 498.778 292.943L509.285 300.973C509.285 300.973 508.775 302.767 508.153 305.147C502.597 305.899 498.8 303.244 496.832 299.342H496.836Z" fill="#F47257"/>
<path d="M516.902 271.771C516.902 271.771 521.484 274.4 523.09 279.977C524.696 285.554 522.566 299.859 510.583 303.143C498.601 306.427 493.599 295.005 496.185 286.169C498.771 277.333 504.279 266.175 516.898 271.771H516.902Z" fill="#F7A491"/>
<path d="M494.749 282.708C494.948 285.095 496.235 286.936 497.624 286.82C499.013 286.704 499.979 284.675 499.78 282.288C499.581 279.901 498.293 278.06 496.904 278.176C495.516 278.291 494.55 280.32 494.749 282.708Z" fill="#F7A491"/>
<path d="M469.25 552.008C470.002 550.112 477.612 556.149 479.41 557.371C481.428 558.749 481.58 560.297 481.529 560.648C481.399 561.574 462.034 585.424 456.374 588.719C455.839 589.03 454.714 589.037 454.381 588.91C451.234 587.699 456.356 568.186 460.486 564.33C463.156 561.838 465.861 560.522 469.254 552.004L469.25 552.008Z" fill="#9D6F57"/>
<path d="M515.517 271.025C515.517 271.025 517.448 287.044 522.573 290.003C527.698 292.962 525.434 300.022 525.434 300.022C525.434 300.022 530.364 283.623 526.353 278.274C522.342 272.924 515.517 271.022 515.517 271.022V271.025Z" fill="#9D6F57"/>
<path d="M519.477 292.256C518.045 294.318 518.016 296.774 519.408 297.743C520.801 298.712 523.094 297.822 524.526 295.761C525.959 293.699 525.987 291.243 524.595 290.274C523.203 289.305 520.909 290.194 519.477 292.256Z" fill="#F7A491"/>
<path d="M302.358 141.061C308.897 142.349 335.018 177.353 335.018 177.353L335.94 179.776C335.94 179.776 288.679 174.521 286.968 172.499C282.346 167.045 296.987 140.005 302.358 141.061ZM334.685 178.098C326.063 167.074 306.412 150.979 302.166 147.561C298.376 151.431 292.661 162.846 291.909 168.003C297.341 169.121 320.898 176.431 334.685 178.098Z" fill="#806C53"/>
<path d="M365.667 147.036C378.525 138.649 382.055 138.714 385.802 140.837C389.549 142.96 403.362 162.78 397.188 168.962C391.014 175.143 342.038 179.552 342.038 179.552L340.935 176.557C340.935 176.557 352.813 155.42 365.671 147.033L365.667 147.036ZM388.678 166.784C391.531 163.938 384.424 152.071 381.183 149.546C380.359 149.08 347.406 170.047 342.809 177.208C361.2 175.219 386.019 169.15 388.678 166.788V166.784Z" fill="#806C53"/>
<path d="M341.648 170.846H338.892C336.161 170.846 333.947 173.063 333.947 175.79V183.896C333.947 186.626 336.165 188.84 338.892 188.84H341.648C344.378 188.84 346.592 186.623 346.592 183.896V175.787C346.592 173.059 344.375 170.842 341.648 170.842V170.846Z" fill="#806C53"/>
<path d="M237.168 179.924L461.221 179.255C467.181 179.237 471.757 184.543 470.863 190.442L467.395 213.304L456.164 213.282L449.397 328.338C449.036 334.494 443.939 339.304 437.776 339.304H258.945L251.505 212.859L240.926 212.838L237.168 179.928V179.924Z" fill="#688F58"/>
<path d="M459.864 215.995L459.814 213.232C461.959 212.393 464.487 212.664 465.742 212.324L468.747 210.111C469.38 209.836 470.266 210.527 470.263 211.214C470.256 211.879 469.413 213.203 468.986 213.543C468.986 213.543 463.615 217.97 461.723 219.312C460.787 219.977 457.846 221.775 457.846 221.775L456.132 218.567L459.868 215.995H459.864Z" fill="#F7A491"/>
<path d="M255.118 339.301H392.385L399.734 182.308H236.647L243.486 328.385C243.772 334.494 248.894 339.301 255.118 339.301Z" fill="#8FA364"/>
<path d="M229.912 212.91L406.957 213.38L410.997 179.317L237.562 179.982C231.866 180.004 227.41 184.897 227.916 190.569L229.912 212.91Z" fill="#8FA364"/>
<path d="M406.957 213.38L238.094 212.91L401.604 221.836L406.957 213.38Z" fill="#688F58"/>
<path d="M335.825 179.581H340.523V213.225H335.825V179.581Z" fill="#806C53"/>
<path d="M321.021 213.065H326.895V339.536H321.021V213.065Z" fill="#806C53"/>
<path d="M462.787 113.599C447.151 119.668 434.272 123.751 421.425 127.165C417.189 128.29 410.176 131.495 406.277 128.641C404.252 127.158 403.402 124.927 404.592 122.55C406.776 118.199 413.522 117.888 417.793 116.753C430.803 113.288 445.357 108.748 459.803 103.309C462.512 102.289 465.68 104.336 466.44 106.962C467.308 109.949 465.492 112.55 462.787 113.599Z" fill="#E1E1DB"/>
<path d="M362.687 89.5685C367.302 54.2355 366.998 54.145 368.959 50.8103C370.966 47.3924 376.46 47.859 377.545 51.8158C378.616 55.7256 378.37 55.0999 373.378 92.2594C372.98 95.2144 369.342 96.9288 366.687 96.2596C363.519 95.4603 362.3 92.5343 362.687 89.5685Z" fill="#E1E1DB"/>
<path d="M305.873 94.1069C302.376 89.3905 299.425 84.3523 297.012 78.9993C294.77 74.0262 290.661 66.702 294.513 61.7723C295.341 60.7161 297.287 60.2098 298.538 60.6402C303.765 62.4414 304.759 69.7691 306.846 74.3517C309.125 79.3465 311.939 84.1027 315.031 88.6346C316.655 91.0145 315.559 94.5337 313.19 95.9515C310.514 97.5538 307.595 96.4325 305.873 94.1105V94.1069Z" fill="#E1E1DB"/>
<path d="M227.225 120.962C225.644 118.792 226.972 115.978 228.827 114.593C232.654 111.739 239.399 114.372 243.573 115.522C248.434 116.864 253.122 118.676 257.701 120.774C260.345 121.986 261.072 125.733 259.73 128.109C258.156 130.89 255.089 131.259 252.398 130.138C234.817 122.818 231.128 126.319 227.225 120.962Z" fill="#E1E1DB"/>
<path fill-rule="evenodd" clip-rule="evenodd" d="M179.921 186.75C180.266 178.886 186.657 164.313 196.739 159.503C210.422 152.976 219.286 155.758 225.622 157.376C225.622 157.376 222.977 159.185 220.44 161.449C215.54 165.822 208.349 177.022 192.903 182.568C184.475 185.595 178.984 190.123 177.811 193.114C176.63 196.105 179.912 186.75 179.912 186.75H179.921Z" fill="#6F7A39"/>
<path fill-rule="evenodd" clip-rule="evenodd" d="M213.004 163.331C213.376 163.276 213.622 162.895 213.549 162.476C213.476 162.058 213.113 161.767 212.731 161.822C208.103 162.495 203.085 165.322 198.385 168.94C191.885 173.949 185.957 180.504 182.557 184.995C180.766 187.359 179.302 189.559 178.139 191.477C177.984 191.732 177.52 192.468 177.211 193.005C176.784 193.759 176.848 196.505 178.902 193.041C180.102 191.014 181.666 188.614 183.648 186.004C187.003 181.586 192.83 175.122 199.23 170.195C203.776 166.695 208.603 163.967 213.004 163.322V163.331Z" fill="#425330"/>
<path fill-rule="evenodd" clip-rule="evenodd" d="M284.933 119.329C277.069 118.911 262.569 112.365 257.86 102.229C251.478 88.4736 254.341 79.646 256.032 73.3276C256.032 73.3276 257.814 75.9914 260.051 78.546C264.378 83.4916 275.497 90.801 280.888 106.292C283.824 114.747 288.297 120.284 291.279 121.493C294.261 122.702 284.933 119.32 284.933 119.32V119.329Z" fill="#6F7A39"/>
<path fill-rule="evenodd" clip-rule="evenodd" d="M261.851 86.0189C261.796 85.6462 261.424 85.3916 261.005 85.4643C260.587 85.5371 260.296 85.9007 260.351 86.2735C260.978 90.91 263.751 95.9556 267.315 100.692C272.26 107.247 278.751 113.238 283.206 116.684C285.552 118.502 287.733 119.984 289.643 121.166C289.897 121.329 290.624 121.793 291.161 122.111C291.906 122.547 294.661 122.511 291.215 120.42C289.197 119.202 286.815 117.611 284.224 115.602C279.833 112.202 273.442 106.31 268.578 99.8557C265.124 95.2738 262.442 90.419 261.851 86.0189Z" fill="#425330"/>
<path fill-rule="evenodd" clip-rule="evenodd" d="M462.512 116.893C463.067 109.038 469.858 94.6465 480.067 90.1191C493.922 83.9734 502.704 86.9917 508.996 88.7827C508.996 88.7827 506.305 90.5191 503.705 92.7101C498.686 96.9466 491.195 107.947 475.604 113.065C467.103 115.856 461.485 120.238 460.23 123.193C458.967 126.148 462.503 116.893 462.503 116.893H462.512Z" fill="#6F7A39"/>
<path fill-rule="evenodd" clip-rule="evenodd" d="M496.213 94.3828C496.586 94.3374 496.841 93.9646 496.777 93.5464C496.713 93.1283 496.359 92.8282 495.977 92.8737C491.331 93.4192 486.24 96.1011 481.44 99.5921C474.803 104.42 468.703 110.82 465.176 115.211C463.321 117.52 461.803 119.684 460.585 121.566C460.421 121.82 459.939 122.538 459.612 123.066C459.167 123.802 459.157 126.557 461.303 123.147C462.558 121.156 464.194 118.793 466.24 116.238C469.712 111.911 475.713 105.61 482.249 100.865C486.895 97.4829 491.795 94.8919 496.204 94.3737L496.213 94.3828Z" fill="#425330"/>
<path fill-rule="evenodd" clip-rule="evenodd" d="M533.669 218.633C525.851 219.56 510.441 215.605 504.068 206.423C495.422 193.968 496.732 184.777 497.313 178.259C497.313 178.259 499.523 180.577 502.168 182.713C507.277 186.85 519.487 192.132 527.451 206.478C531.796 214.305 537.151 218.987 540.297 219.669C543.433 220.351 533.678 218.624 533.678 218.624L533.669 218.633Z" fill="#6F7A39"/>
<path fill-rule="evenodd" clip-rule="evenodd" d="M505.223 189.768C505.105 189.404 504.695 189.223 504.295 189.368C503.895 189.504 503.668 189.914 503.786 190.277C505.195 194.732 508.796 199.232 513.123 203.287C519.114 208.896 526.542 213.678 531.524 216.314C534.142 217.705 536.551 218.787 538.633 219.633C538.915 219.742 539.715 220.087 540.297 220.296C541.106 220.596 543.815 220.087 540.06 218.624C537.869 217.769 535.242 216.605 532.342 215.078C527.442 212.478 520.123 207.769 514.223 202.25C510.032 198.323 506.559 194.005 505.223 189.768Z" fill="#425330"/>
<path fill-rule="evenodd" clip-rule="evenodd" d="M225.168 81.664C224.595 89.5098 217.768 103.892 207.54 108.392C193.667 114.502 184.894 111.465 178.603 109.656C178.603 109.656 181.303 107.929 183.903 105.738C188.939 101.51 196.449 90.5371 212.058 85.4551C220.568 82.6823 226.195 78.3185 227.459 75.3638C228.722 72.4092 225.168 81.664 225.168 81.664Z" fill="#6F7A39"/>
<path fill-rule="evenodd" clip-rule="evenodd" d="M191.403 104.083C191.021 104.128 190.767 104.501 190.83 104.919C190.894 105.338 191.248 105.638 191.63 105.592C196.276 105.056 201.376 102.383 206.185 98.9101C212.831 94.0917 218.949 87.7188 222.486 83.3368C224.349 81.0276 225.877 78.873 227.095 76.9911C227.259 76.7366 227.74 76.0184 228.068 75.4911C228.522 74.7547 228.531 72 226.377 75.4002C225.113 77.3911 223.477 79.7458 221.422 82.2913C217.94 86.6096 211.922 92.8917 205.376 97.6282C200.721 100.992 195.821 103.574 191.403 104.083Z" fill="#425330"/>
<path fill-rule="evenodd" clip-rule="evenodd" d="M426.338 116.856C420.556 111.511 413.574 97.2103 416.42 86.4099C420.283 71.7548 428.129 66.7819 433.466 63C433.466 63 433.138 66.191 433.22 69.582C433.393 76.155 437.293 88.8736 431.538 104.238C428.402 112.62 428.311 119.738 429.829 122.575C431.347 125.411 426.329 116.856 426.329 116.856H426.338Z" fill="#6F7A39"/>
<path fill-rule="evenodd" clip-rule="evenodd" d="M429.847 76.4825C430.047 76.1643 429.911 75.7279 429.547 75.5188C429.184 75.3097 428.72 75.4007 428.52 75.7188C426.047 79.6917 424.956 85.3374 424.674 91.2648C424.293 99.4651 425.475 108.22 426.693 113.72C427.338 116.611 428.075 119.157 428.784 121.284C428.884 121.575 429.138 122.402 429.356 122.984C429.656 123.793 431.793 125.521 430.484 121.72C429.711 119.493 428.893 116.748 428.175 113.547C426.965 108.129 425.811 99.5106 426.184 91.4376C426.447 85.701 427.493 80.2554 429.838 76.4916L429.847 76.4825Z" fill="#425330"/>
</svg>
