<svg width="1260" height="962" viewBox="0 0 1260 962" fill="none" xmlns="http://www.w3.org/2000/svg">
<path d="M19.2188 295.914C24.1944 307.443 26.9054 309.144 40.6696 309.444C27.8121 314.366 25.8333 316.882 25.0352 329.413C20.0597 317.884 17.3487 316.183 3.58447 315.883C16.442 310.961 18.4208 308.445 19.2188 295.914Z" fill="#A0A0A0" fill-opacity="0.5"/>
<path d="M99.4386 303.381C104.414 314.91 107.125 316.611 120.889 316.911C108.032 321.833 106.053 324.348 105.255 336.88C100.279 325.351 97.5684 323.649 83.8042 323.35C96.6617 318.428 98.6405 315.912 99.4386 303.381Z" fill="#A0A0A0" fill-opacity="0.5"/>
<path d="M105.345 378.843C108.367 385.839 110.008 386.874 118.362 387.057C110.559 390.046 109.362 391.573 108.876 399.179C105.855 392.182 104.214 391.148 95.8591 390.964C103.663 387.975 104.859 386.448 105.345 378.843Z" fill="#A0A0A0" fill-opacity="0.5"/>
<path d="M166.917 805.898C164.248 793.628 161.915 791.438 148.464 788.499C162.028 786.139 164.453 784.05 167.643 771.905C170.312 784.175 172.645 786.366 186.096 789.304C172.532 791.664 170.107 793.753 166.917 805.898Z" fill="#A0A0A0" fill-opacity="0.5"/>
<path d="M98.3237 707.969C96.7024 700.523 95.2905 699.193 87.1268 697.408C95.3593 695.973 96.8268 694.704 98.7647 687.334C100.386 694.78 101.798 696.111 109.962 697.896C101.729 699.33 100.262 700.599 98.3237 707.969Z" fill="#A0A0A0" fill-opacity="0.5"/>
<path d="M685 893.5C673.154 896.384 671.069 898.719 668.5 912C665.928 898.716 663.846 896.38 652 893.5C663.846 890.62 665.931 888.281 668.5 875C671.072 888.284 673.154 890.62 685 893.5Z" fill="#A0A0A0" fill-opacity="0.5"/>
<path d="M728.08 879.06C715.87 881.99 713.73 884.37 711.08 897.88C708.43 884.37 706.29 881.99 694.08 879.06C706.29 876.13 708.43 873.75 711.08 860.24C713.73 873.75 715.87 876.13 728.08 879.06Z" fill="#A0A0A0" fill-opacity="0.5"/>
<path d="M631.64 949.73C624.23 951.51 622.93 952.95 621.32 961.15C619.71 952.95 618.41 951.51 611 949.73C618.41 947.95 619.71 946.51 621.32 938.31C622.93 946.51 624.23 947.95 631.64 949.73Z" fill="#A0A0A0" fill-opacity="0.5"/>
<path d="M1020.32 789.158C1005.24 803.934 1004.19 809.219 1012.05 831.002C996.549 813.789 991.401 812.214 971.255 818.528C986.339 803.757 987.385 798.468 979.535 776.685C995.031 793.898 1000.18 795.473 1020.32 789.158Z" fill="#A0A0A0" fill-opacity="0.5"/>
<path d="M1084.28 753.07C1075.3 761.855 1074.69 764.996 1079.35 777.949C1070.14 767.718 1067.08 766.775 1055.1 770.531C1064.07 761.747 1064.69 758.605 1060.02 745.652C1069.24 755.883 1072.29 756.827 1084.28 753.07Z" fill="#A0A0A0" fill-opacity="0.5"/>
<path d="M1037.82 863.237C1032.38 868.57 1032 870.473 1034.83 878.336C1029.24 872.127 1027.38 871.559 1020.11 873.837C1025.55 868.504 1025.93 866.601 1023.1 858.738C1028.69 864.947 1030.55 865.515 1037.82 863.237Z" fill="#A0A0A0" fill-opacity="0.5"/>
<path d="M1260 459C1238.46 464.144 1234.67 468.309 1230 492C1225.32 468.304 1221.54 464.138 1200 459C1221.54 453.862 1225.33 449.691 1230 426C1234.68 449.696 1238.46 453.862 1260 459Z" fill="#A0A0A0" fill-opacity="0.5"/>
<path d="M1152 407.82C1139.79 410.75 1137.65 413.13 1135 426.64C1132.35 413.13 1130.21 410.75 1118 407.82C1130.21 404.89 1132.35 402.51 1135 389C1137.65 402.51 1139.79 404.89 1152 407.82Z" fill="#A0A0A0" fill-opacity="0.5"/>
<path d="M1155.64 506.42C1148.23 508.2 1146.93 509.64 1145.32 517.84C1143.71 509.64 1142.41 508.2 1135 506.42C1142.41 504.64 1143.71 503.2 1145.32 495C1146.93 503.2 1148.23 504.64 1155.64 506.42Z" fill="#A0A0A0" fill-opacity="0.5"/>
<path d="M943.167 147.655C924.583 160.532 922.522 165.92 926.879 190.33C913.627 169.365 908.477 166.774 886.073 169.805C904.659 156.934 906.718 151.54 902.361 127.13C915.613 148.095 920.763 150.686 943.167 147.655Z" fill="#A0A0A0" fill-opacity="0.5"/>
<path d="M604.24 59.73C565.5 69.04 558.68 76.58 550.28 119.46C541.87 76.57 535.06 69.03 496.32 59.73C535.06 50.43 541.88 42.88 550.28 0C558.69 42.89 565.5 50.43 604.24 59.73Z" fill="#A0A0A0" fill-opacity="0.5"/>
<path d="M611.08 21.0602C598.87 23.9902 596.73 26.3702 594.08 39.8802C591.43 26.3702 589.29 23.9902 577.08 21.0602C589.29 18.1302 591.43 15.7502 594.08 2.24023C596.73 15.7502 598.87 18.1302 611.08 21.0602Z" fill="#A0A0A0" fill-opacity="0.5"/>
<path d="M514.64 91.7301C507.23 93.5101 505.93 94.9501 504.32 103.15C502.71 94.9501 501.41 93.5101 494 91.7301C501.41 89.9501 502.71 88.5101 504.32 80.3101C505.93 88.5101 507.23 89.9501 514.64 91.7301Z" fill="#A0A0A0" fill-opacity="0.5"/>
<path d="M519 700.76C495.667 706.371 491.559 710.915 486.5 736.76C481.435 710.909 477.333 706.365 454 700.76C477.333 695.155 481.441 690.604 486.5 664.76C491.565 690.61 495.667 695.155 519 700.76Z" fill="#A0A0A0" fill-opacity="0.5"/>
<path d="M526.08 638.82C513.87 641.75 511.73 644.13 509.08 657.64C506.43 644.13 504.29 641.75 492.08 638.82C504.29 635.89 506.43 633.51 509.08 620C511.73 633.51 513.87 635.89 526.08 638.82Z" fill="#A0A0A0" fill-opacity="0.5"/>
<path d="M429.64 709.49C422.23 711.27 420.93 712.71 419.32 720.91C417.71 712.71 416.41 711.27 409 709.49C416.41 707.71 417.71 706.27 419.32 698.07C420.93 706.27 422.23 707.71 429.64 709.49Z" fill="#A0A0A0" fill-opacity="0.5"/>
</svg>
