<svg width="553" height="718" viewBox="0 0 553 718" fill="none" xmlns="http://www.w3.org/2000/svg">
<g style="mix-blend-mode:multiply" opacity="0.1">
<path d="M14.2703 715.701L23.3659 707.51C26.3519 704.818 30.9684 704.818 33.8562 707.51L39.789 713.069C42.6768 715.76 47.2933 715.76 50.2793 713.069L56.4282 707.51C59.4142 704.818 64.0307 704.818 66.9185 707.51L72.8709 713.069C75.7587 715.76 80.3753 715.76 83.3613 713.069L89.4905 707.51C92.4568 704.818 97.0734 704.818 99.9808 707.51L105.953 713.069C108.86 715.76 113.477 715.76 116.443 713.069L122.553 707.51C125.519 704.818 130.136 704.818 133.043 707.51L139.015 713.069C141.923 715.76 146.539 715.76 149.505 713.069L155.595 707.51C158.562 704.818 163.178 704.818 166.086 707.51L172.077 713.069C174.985 715.76 179.601 715.76 182.568 713.069L188.658 707.51C191.604 704.818 196.221 704.818 199.148 707.51L205.159 713.069C208.086 715.76 212.703 715.76 215.65 713.069L221.72 707.51C224.667 704.818 229.283 704.818 232.21 707.51L238.241 713.069C241.168 715.76 245.785 715.76 248.732 713.069L254.782 707.51C257.729 704.818 262.326 704.818 265.273 707.51L271.304 713.069C274.25 715.76 278.867 715.76 281.794 713.069L287.825 707.51C290.752 704.818 295.369 704.818 298.315 707.51L304.366 713.069C307.313 715.76 311.929 715.76 314.856 713.069L320.887 707.51C323.814 704.818 328.431 704.818 331.378 707.51L337.448 713.069C340.395 715.76 345.011 715.76 347.938 713.069L353.949 707.51C356.877 704.818 361.473 704.818 364.44 707.51L370.53 713.069C373.496 715.76 378.113 715.76 381.02 713.069L387.012 707.51C389.919 704.818 394.536 704.818 397.502 707.51L403.592 713.069C406.558 715.76 411.175 715.76 414.082 713.069L420.054 707.51C422.962 704.818 427.578 704.818 430.545 707.51L436.654 713.069C439.621 715.76 444.237 715.76 447.145 713.069L453.117 707.51C456.024 704.818 460.621 704.818 463.607 707.51L469.736 713.069C472.722 715.76 477.339 715.76 480.227 713.069L486.179 707.51C489.067 704.818 493.683 704.818 496.669 707.51L502.818 713.069C505.804 715.76 510.421 715.76 513.309 713.069L519.241 707.51C522.129 704.818 526.746 704.818 529.732 707.51L538.827 715.701C539.554 716.35 540.124 717.135 540.536 718H540.969L525.803 53.2966H27.2752L12.1094 718H12.5416C12.9541 717.155 13.5238 716.369 14.2507 715.701H14.2703Z" fill="black"/>
</g>
<path d="M542.914 116.807H10.0665C4.99808 116.807 0.853027 112.662 0.853027 107.593C0.853027 102.525 4.99808 98.3798 10.0665 98.3798H542.933C548.002 98.3798 552.147 102.525 552.147 107.593C552.147 112.662 548.002 116.807 542.933 116.807H542.914Z" fill="#58694B"/>
<path d="M40.7915 1.01986C40.7915 1.01986 12.0903 0.175126 12.0903 107.593H40.7915V1.01986Z" fill="#CCCBCA"/>
<path d="M512.169 1.01986C512.169 1.01986 540.87 0.175126 540.87 107.593H512.169V1.01986Z" fill="#CCCBCA"/>
<g style="mix-blend-mode:multiply" opacity="0.1">
<path d="M524.447 10.5476C518.023 0.823415 512.169 1.00022 512.169 1.00022V107.574H526.922C517.925 107.574 512.169 10.5476 524.447 10.5476Z" fill="black"/>
</g>
<g style="mix-blend-mode:multiply" opacity="0.1">
<path d="M28.5128 10.5476C34.9367 0.823415 40.7909 1.00022 40.7909 1.00022V107.574H26.0376C35.0349 107.574 40.7909 10.5476 28.5128 10.5476Z" fill="black"/>
</g>
<path d="M524.447 10.5476C512.955 -2.12331 512.169 36.6556 512.169 36.6556V1.00022C512.169 1.00022 518.023 0.823415 524.447 10.5476Z" fill="#FFFDFC"/>
<path d="M42.6774 702.125L50.6335 694.542C53.2463 692.047 57.3717 692.047 59.9845 694.542L65.3672 699.67C67.9799 702.164 72.1054 702.164 74.7181 699.67L80.1008 694.542C82.7136 692.047 86.839 692.047 89.4518 694.542L94.8345 699.67C97.4472 702.164 101.573 702.164 104.185 699.67L109.568 694.542C112.181 692.047 116.306 692.047 118.919 694.542L124.302 699.67C126.915 702.164 131.04 702.164 133.653 699.67L139.035 694.542C141.648 692.047 145.774 692.047 148.386 694.542L153.769 699.67C156.382 702.164 160.507 702.164 163.12 699.67L168.503 694.542C171.115 692.047 175.241 692.047 177.854 694.542L183.236 699.67C185.849 702.164 189.974 702.164 192.587 699.67L197.97 694.542C200.583 692.047 204.708 692.047 207.321 694.542L212.704 699.67C215.316 702.164 219.442 702.164 222.055 699.67L227.437 694.542C230.05 692.047 234.175 692.047 236.788 694.542L242.171 699.67C244.784 702.164 248.909 702.164 251.522 699.67L256.905 694.542C259.517 692.047 263.643 692.047 266.255 694.542L271.638 699.67C274.251 702.164 278.376 702.164 280.989 699.67L286.372 694.542C288.985 692.047 293.11 692.047 295.723 694.542L301.105 699.67C303.718 702.164 307.844 702.164 310.456 699.67L315.839 694.542C318.452 692.047 322.577 692.047 325.19 694.542L330.573 699.67C333.185 702.164 337.311 702.164 339.924 699.67L345.306 694.542C347.919 692.047 352.045 692.047 354.657 694.542L360.04 699.67C362.653 702.164 366.778 702.164 369.391 699.67L374.774 694.542C377.386 692.047 381.512 692.047 384.125 694.542L389.507 699.67C392.12 702.164 396.245 702.164 398.858 699.67L404.241 694.542C406.854 692.047 410.979 692.047 413.592 694.542L418.975 699.67C421.587 702.164 425.713 702.164 428.326 699.67L433.708 694.542C436.321 692.047 440.446 692.047 443.059 694.542L448.442 699.67C451.055 702.164 455.18 702.164 457.793 699.67L463.175 694.542C465.788 692.047 469.914 692.047 472.526 694.542L477.909 699.67C480.522 702.164 484.647 702.164 487.26 699.67L492.643 694.542C495.256 692.047 499.381 692.047 501.994 694.542L509.95 702.125C510.578 702.734 511.089 703.461 511.443 704.247H511.836V1.0199H40.4575V704.247H40.8504C41.204 703.461 41.6951 702.734 42.3434 702.125H42.6774Z" fill="#FFFDFC"/>
<g opacity="0.5">
<path d="M260.634 86.8015C232.559 83.4187 242.609 63.8232 246.842 50.0719C249.622 41.0308 258.82 36.7386 264.789 34.851C269.553 33.3523 274.776 33.814 279.051 36.3879C290.27 43.1355 287.698 58.9592 287.492 62.6435C285.936 87.5405 267.178 87.532 260.634 86.8015Z" fill="#58694B"/>
<path d="M230.057 44.5829C230.097 45.0421 230.13 45.5673 230.158 46.1585C230.186 46.7497 230.202 47.3579 230.208 47.9833C230.213 48.609 230.201 49.2221 230.171 49.8226C230.142 50.4232 230.095 50.9631 230.031 51.4425C229.964 51.9211 229.873 52.3095 229.759 52.6076C229.646 52.9057 229.506 53.0644 229.342 53.0839C229.234 53.0939 229.134 53.0011 229.04 52.8055C228.929 52.56 228.84 52.3049 228.775 52.0434C228.691 51.7308 228.615 51.3791 228.547 50.9883C228.479 50.5974 228.421 50.2114 228.373 49.8302C228.323 49.449 228.279 49.0948 228.241 48.7676C228.201 48.44 228.172 48.1792 228.153 47.9833C228.124 47.7689 228.099 47.5149 228.079 47.2211C228.06 46.9274 228.047 46.6244 228.043 46.3122C228.037 45.9997 228.03 45.6973 228.021 45.4048C228.012 45.1124 228.002 44.8584 227.992 44.6427C227.982 44.5837 227.931 44.547 227.838 44.5326C227.746 44.5182 227.623 44.5035 227.471 44.4884C227.298 44.4702 227.127 44.4406 226.957 44.4C226.755 44.3509 226.563 44.264 226.393 44.1438C226.159 43.9971 226.071 43.8748 226.129 43.777C226.188 43.6795 226.33 43.5991 226.562 43.5353C226.841 43.4634 227.125 43.4143 227.412 43.3886C227.749 43.3551 228.081 43.3308 228.408 43.3158C228.735 43.3007 229.024 43.2937 229.274 43.2947C229.423 43.2905 229.572 43.2953 229.72 43.3092C229.849 43.3213 229.979 43.3262 230.109 43.3238C230.289 43.3238 230.495 43.3287 230.725 43.3384C230.954 43.3481 231.194 43.3603 231.443 43.3751C231.692 43.3898 231.919 43.4119 232.124 43.4414C232.296 43.4631 232.465 43.4998 232.63 43.5509C232.762 43.5951 232.828 43.6465 232.828 43.7052C232.828 43.8026 232.742 43.9031 232.571 44.0066C232.363 44.1257 232.142 44.2214 231.912 44.292C231.619 44.3842 231.32 44.4539 231.017 44.5005C230.7 44.554 230.379 44.5816 230.057 44.5829Z" fill="#58694B"/>
<path d="M231.438 51.7796C231.428 51.457 231.419 51.0075 231.408 50.4311C231.398 49.8546 231.396 49.2244 231.401 48.5405C231.406 47.8565 231.418 47.1553 231.438 46.4368C231.457 45.7184 231.494 45.0612 231.548 44.4653C231.587 43.9622 231.663 43.4627 231.775 42.9706C231.872 42.5687 231.999 42.3391 232.156 42.2818C232.418 42.1844 232.705 42.1793 232.97 42.2672C233.235 42.3531 233.481 42.4896 233.695 42.6692C233.905 42.8445 234.086 43.0523 234.23 43.2846C234.371 43.5141 234.452 43.7217 234.472 43.9076C234.579 44.5135 234.582 45.0607 234.479 45.549C234.385 46.0129 234.239 46.4651 234.047 46.8975C233.873 47.2848 233.677 47.6618 233.46 48.0265C233.268 48.3367 233.12 48.6717 233.018 49.0223C233.239 48.6144 233.515 48.2393 233.839 47.9079C233.967 47.7805 234.104 47.6629 234.249 47.5562C234.392 47.4498 234.551 47.3652 234.718 47.305C234.883 47.2468 235.057 47.2171 235.231 47.2171C235.421 47.2209 235.608 47.2713 235.774 47.3638C236.067 47.5113 236.31 47.7436 236.47 48.0305C236.636 48.333 236.755 48.6594 236.822 48.9982C236.896 49.3677 236.943 49.7424 236.961 50.1191C236.98 50.51 237.002 50.8863 237.027 51.248C237.048 51.5852 237.09 51.9208 237.152 52.2529C237.211 52.5607 237.318 52.8074 237.474 52.9929C237.699 53.2599 237.894 53.4436 238.061 53.5441C238.19 53.6312 238.334 53.6958 238.486 53.735C238.579 53.7568 238.675 53.7666 238.771 53.7641C238.801 53.7596 238.832 53.7617 238.861 53.7704C238.89 53.7791 238.917 53.7941 238.94 53.8144C238.968 53.8416 238.99 53.8741 239.006 53.9098C239.013 53.9257 239.016 53.9428 239.016 53.9601C239.016 53.9774 239.013 53.9945 239.006 54.0103C238.975 54.0599 238.932 54.1004 238.881 54.1274C238.784 54.1848 238.681 54.2315 238.574 54.2666C238.309 54.3547 237.97 54.3669 237.555 54.3032C237.14 54.2396 236.697 54.037 236.228 53.6953C235.985 53.5181 235.799 53.2736 235.693 52.9919C235.566 52.6735 235.47 52.3436 235.407 52.0067C235.34 51.65 235.289 51.2884 235.253 50.9219C235.218 50.5555 235.176 50.2206 235.128 49.9171C235.093 49.6616 235.022 49.4124 234.916 49.177C234.823 48.9861 234.689 48.8856 234.514 48.8756C234.426 48.8713 234.338 48.8868 234.257 48.921C234.176 48.9551 234.103 49.0071 234.045 49.073C233.892 49.2396 233.773 49.4336 233.693 49.6448C233.588 49.9081 233.507 50.1803 233.451 50.4582C233.388 50.7617 233.336 51.0598 233.297 51.3525C233.258 51.6453 233.229 51.9238 233.209 52.188C233.19 52.452 233.175 52.662 233.165 52.8181C233.155 53.0629 233.097 53.2339 232.99 53.3311C232.888 53.426 232.755 53.4785 232.616 53.4778C232.462 53.4753 232.31 53.4429 232.169 53.3823C232.035 53.3307 231.907 53.2644 231.787 53.1849C231.673 53.0964 231.591 52.9728 231.553 52.8332C231.505 52.6802 231.47 52.5231 231.45 52.3639C231.431 52.1697 231.427 51.9744 231.438 51.7796ZM233.226 46.5469C233.323 46.1858 233.411 45.8096 233.49 45.4184C233.562 45.0813 233.596 44.7371 233.591 44.3925C233.577 44.138 233.537 43.8855 233.473 43.6388C233.415 43.4288 233.346 43.2871 233.268 43.2138C233.19 43.1404 233.112 43.153 233.033 43.2505C232.955 43.3479 232.892 43.5584 232.843 43.881C232.789 44.2671 232.759 44.6563 232.755 45.0461C232.745 45.5003 232.747 45.9357 232.762 46.3524C232.777 46.7691 232.799 47.2651 232.828 47.8406C232.994 47.3398 233.125 46.9086 233.223 46.5469H233.226Z" fill="#58694B"/>
<path d="M238.22 47.7341C238.364 47.4736 238.555 47.2425 238.784 47.0528C239.01 46.8642 239.262 46.7088 239.531 46.5911C239.803 46.4719 240.089 46.3875 240.382 46.3399C240.67 46.2918 240.962 46.2721 241.254 46.2811C241.53 46.2939 241.793 46.4002 242.001 46.5825C242.208 46.7661 242.358 47.0052 242.434 47.2713C242.517 47.5698 242.527 47.8841 242.463 48.1873C242.399 48.5199 242.245 48.8521 242.001 49.1841C241.728 49.5559 241.447 49.8272 241.159 49.998C240.907 50.1518 240.639 50.2771 240.36 50.3713C240.085 50.4583 239.797 50.4932 239.51 50.4743C239.486 50.7952 239.516 51.1178 239.598 51.4289C239.627 51.5455 239.669 51.6586 239.722 51.766C239.774 51.8718 239.847 51.9663 239.935 52.0444C240.026 52.1247 240.134 52.1847 240.25 52.2202C240.39 52.2609 240.538 52.271 240.682 52.2498C241.034 52.2006 241.322 52.0881 241.547 51.9122C241.757 51.7506 241.947 51.5636 242.111 51.3555C242.262 51.1599 242.387 50.9864 242.485 50.835C242.583 50.6843 242.681 50.6079 242.778 50.6079C242.845 50.6079 242.889 50.6984 242.91 50.8792C242.927 51.1004 242.91 51.3229 242.86 51.5389C242.797 51.8228 242.702 52.0982 242.574 52.3594C242.436 52.6484 242.239 52.9051 241.995 53.113C241.726 53.3382 241.407 53.4964 241.064 53.5747C240.693 53.6672 240.249 53.6451 239.73 53.5084C239.261 53.3915 238.885 53.1693 238.602 52.8417C238.334 52.5388 238.116 52.1948 237.957 51.8228C237.775 51.398 237.656 50.9487 237.605 50.4894C237.566 50.2025 237.566 49.9116 237.605 49.6247C237.633 49.3267 237.689 49.0321 237.774 48.745C237.877 48.3895 238.027 48.0495 238.22 47.7341ZM240.946 44.3045C240.818 44.3967 240.683 44.4806 240.544 44.5558C240.388 44.6422 240.223 44.7135 240.053 44.7688C239.905 44.8195 239.749 44.8466 239.592 44.8492C239.45 44.8492 239.355 44.8053 239.306 44.7175C239.257 44.6194 239.306 44.4533 239.452 44.2191C239.615 43.9657 239.813 43.7363 240.039 43.5373C240.27 43.326 240.532 43.1506 240.816 43.0168C241.089 42.8902 241.323 42.8854 241.519 43.0023C241.565 43.04 241.6 43.0887 241.622 43.1439C241.644 43.1991 241.651 43.259 241.643 43.3178C241.626 43.4479 241.581 43.5727 241.511 43.6841C241.434 43.811 241.343 43.9289 241.24 44.0357C241.149 44.1322 241.051 44.2221 240.948 44.3045H240.946ZM239.54 49.374C239.703 49.3732 239.866 49.3534 240.024 49.3152C240.183 49.2657 240.335 49.1969 240.476 49.1102C240.66 48.996 240.82 48.8464 240.946 48.6701C241.065 48.5069 241.163 48.3297 241.239 48.1425C241.289 48.0142 241.328 47.8817 241.356 47.7466C241.385 47.6417 241.39 47.5317 241.371 47.4246C241.181 47.4427 240.994 47.482 240.814 47.5416C240.648 47.5953 240.49 47.6717 240.345 47.7687C240.182 47.8775 240.051 48.0266 239.963 48.2013C239.865 48.3769 239.777 48.5579 239.7 48.7434C239.65 48.8619 239.61 48.9847 239.583 49.1102C239.557 49.1959 239.543 49.2846 239.54 49.374Z" fill="#58694B"/>
<path d="M256.289 60.6559C256.289 60.6559 253.113 61.3819 252.489 59.1119C252.42 58.808 252.405 57.8745 252.411 56.8405C251.936 56.8534 251.46 56.8351 250.988 56.7857C250.988 56.7857 251.073 55.9869 250.869 55.3488C251.391 55.3736 251.915 55.3529 252.434 55.287C252.457 54.1791 252.489 53.2693 252.489 53.2693L254.071 53.2054C254.071 53.2054 254.051 54.0053 254.032 54.97C254.542 54.8271 255.037 54.6379 255.513 54.4047L255.606 56.5149C255.606 56.5149 254.712 56.2898 254.01 56.4521C254 57.3409 254.002 58.1051 254.032 58.2583C254.071 58.4527 254.517 60.2358 256.507 58.399C256.508 58.398 256.022 59.3677 256.289 60.6559Z" fill="#F9EEBB"/>
<path d="M256.289 69.0755C256.289 69.0755 253.113 69.803 252.489 67.5321C252.42 67.2276 252.405 66.2941 252.411 65.2601C251.936 65.2734 251.46 65.2552 250.988 65.2059C250.988 65.2059 251.073 64.4065 250.869 63.769C251.391 63.7938 251.915 63.7729 252.434 63.7067C252.457 62.6013 252.489 61.6889 252.489 61.6889L254.071 61.6251C254.071 61.6251 254.051 62.425 254.032 63.3901C254.542 63.2471 255.037 63.0577 255.513 62.8244L255.606 64.9346C255.606 64.9346 254.712 64.7095 254.01 64.8723C254 65.7606 254.002 66.5247 254.032 66.678C254.071 66.8729 254.517 68.656 256.507 66.8187C256.508 66.8177 256.022 67.7873 256.289 69.0755Z" fill="#F9EEBB"/>
<path d="M261.558 60.1329C260.675 60.5851 259.85 60.9584 258.323 59.9631C257.934 60.2193 257.369 60.5936 257.131 60.767C256.532 60.0636 256.865 58.9467 257.131 58.7683C258.292 58.1428 257.259 54.2651 257.259 54.2651C257.259 54.2651 258.28 54.8133 259.415 54.6475C259.415 54.6475 258.943 57.1355 259.315 57.7223C259.595 58.0795 260.106 58.692 261.79 57.7223C261.915 57.7982 262.476 59.6612 261.558 60.1329Z" fill="#F9EEBB"/>
<path d="M259.026 69.8095C255.739 69.4136 256.916 67.1195 257.411 65.5103C257.737 64.4517 258.813 63.9492 259.512 63.7282C259.787 63.6387 260.078 63.6085 260.366 63.6395C260.653 63.6705 260.931 63.762 261.181 63.908C262.494 64.6984 262.193 66.5503 262.168 66.9814C261.988 69.8959 259.792 69.8949 259.026 69.8095Z" fill="#F9EEBB"/>
<path d="M258.654 53.9762C259.43 53.9762 260.059 53.3472 260.059 52.5714C260.059 51.7956 259.43 51.1666 258.654 51.1666C257.878 51.1666 257.249 51.7956 257.249 52.5714C257.249 53.3472 257.878 53.9762 258.654 53.9762Z" fill="#F9EEBB"/>
<path d="M260.609 75.3823C260.502 75.3826 260.397 75.3607 260.299 75.318C260.195 75.2744 260.104 75.207 260.032 75.1213C259.96 75.0356 259.909 74.934 259.884 74.8249C259.859 74.7158 259.86 74.6022 259.887 74.4936C259.915 74.385 259.967 74.2844 260.041 74.2001C262.668 71.1976 265.668 66.2181 265.055 59.5444L265.05 59.4726C265.049 59.4682 265.049 59.4639 265.05 59.4595C264.814 56.2013 263.861 53.5259 262.293 51.7222C261.121 50.3742 260.001 49.9728 259.99 49.9693C259.878 49.9324 259.778 49.8681 259.697 49.7824C259.617 49.6967 259.56 49.5923 259.53 49.4787C259.5 49.365 259.5 49.2458 259.528 49.1318C259.556 49.0179 259.613 48.9128 259.692 48.8263C259.754 48.7569 260.332 48.1379 261.342 47.8058C262.278 47.4974 263.768 47.3858 265.557 48.6037C265.712 48.7093 265.819 48.8722 265.854 49.0565C265.889 49.2409 265.849 49.4316 265.744 49.5867C265.638 49.7418 265.475 49.8486 265.291 49.8836C265.106 49.9186 264.916 49.8789 264.761 49.7733C263.729 49.0699 262.746 48.8549 261.841 49.1317C261.75 49.1594 261.665 49.1905 261.584 49.2242C262.214 49.6427 262.785 50.1417 263.286 50.7083C264.551 52.1297 266.129 54.7825 266.46 59.35L266.466 59.4158C266.658 61.3656 266.551 63.3333 266.147 65.2504C265.564 68.064 264.389 70.7233 262.65 73.1762C264.49 72.4552 267.062 71.5217 269.476 71.278C269.239 69.8436 268.858 66.5231 269.167 61.1045C269.174 60.9815 269.213 60.8624 269.28 60.7592C269.347 60.6559 269.44 60.572 269.55 60.5157C269.659 60.4594 269.782 60.4327 269.905 60.4382C270.028 60.4438 270.148 60.4814 270.252 60.5473C270.912 60.9653 274.133 62.4183 276.691 61.3275C278.38 60.6076 279.512 58.8893 280.057 56.2209C280.17 55.4437 280.374 53.4752 279.913 51.5509C279.378 49.3237 278.129 47.8973 276.199 47.311C273.698 46.5513 270.928 47.4044 269.312 49.4342C269.095 49.7046 268.903 49.9944 268.739 50.2999C268.805 50.2931 268.871 50.2957 268.936 50.3074C270.358 50.5631 271.427 51.2248 272.114 52.2729C273.412 54.2544 272.809 56.8831 272.783 56.9956C272.761 57.0865 272.722 57.1722 272.667 57.2478C272.612 57.3234 272.543 57.3874 272.463 57.4361C272.384 57.4848 272.295 57.5172 272.203 57.5314C272.111 57.5457 272.016 57.5415 271.926 57.5192C270.368 57.1363 267.123 56.3395 266.851 52.4392C266.759 51.1253 267.228 49.7819 268.208 48.554C269.185 47.3271 270.512 46.4256 272.012 45.9685C273.51 45.5052 275.113 45.5018 276.613 45.9589C279.024 46.691 280.641 48.5107 281.291 51.2223C281.815 53.4023 281.582 55.6024 281.457 56.4475C281.457 56.4601 281.453 56.4726 281.451 56.4847C280.808 59.6474 279.395 61.7154 277.248 62.6308C275.873 63.2166 274.192 63.2995 272.387 62.8695C271.752 62.7174 271.13 62.5134 270.528 62.2595C270.259 68.6438 271.004 71.7272 271.012 71.7588C271.037 71.8613 271.039 71.9681 271.017 72.0714C270.996 72.1748 270.952 72.272 270.888 72.3561C270.824 72.4401 270.742 72.5089 270.649 72.5573C270.555 72.6057 270.452 72.6326 270.346 72.636C267.612 72.721 264.367 74.0142 262.424 74.7874C261.384 75.2019 260.93 75.3823 260.609 75.3823ZM268.309 51.5027C268.258 51.7781 268.241 52.059 268.259 52.3387C268.42 54.6393 269.867 55.4572 271.506 55.9421C271.568 55.1839 271.54 53.9771 270.925 53.0426C270.453 52.3256 269.719 51.887 268.684 51.7001C268.541 51.6743 268.411 51.6053 268.309 51.5027Z" fill="#F9EEBB"/>
</g>
<path d="M160.846 120.912V119.818H168.482V120.912H165.281V130H164.048V120.912H160.846ZM170.226 130V122.364H171.4V130H170.226ZM170.823 121.091C170.594 121.091 170.397 121.013 170.231 120.857C170.069 120.701 169.988 120.514 169.988 120.295C169.988 120.077 170.069 119.889 170.231 119.734C170.397 119.578 170.594 119.5 170.823 119.5C171.051 119.5 171.247 119.578 171.409 119.734C171.575 119.889 171.658 120.077 171.658 120.295C171.658 120.514 171.575 120.701 171.409 120.857C171.247 121.013 171.051 121.091 170.823 121.091ZM176.651 130.159C175.935 130.159 175.318 129.99 174.801 129.652C174.284 129.314 173.887 128.848 173.608 128.255C173.33 127.662 173.191 126.984 173.191 126.222C173.191 125.446 173.333 124.762 173.618 124.168C173.906 123.572 174.307 123.106 174.821 122.771C175.338 122.433 175.941 122.264 176.631 122.264C177.168 122.264 177.652 122.364 178.083 122.562C178.513 122.761 178.866 123.04 179.142 123.398C179.417 123.756 179.587 124.173 179.654 124.651H178.48C178.391 124.303 178.192 123.994 177.884 123.726C177.579 123.454 177.168 123.318 176.651 123.318C176.193 123.318 175.792 123.437 175.448 123.676C175.106 123.911 174.839 124.245 174.647 124.675C174.458 125.103 174.364 125.605 174.364 126.182C174.364 126.772 174.457 127.286 174.642 127.723C174.831 128.161 175.096 128.5 175.438 128.742C175.782 128.984 176.187 129.105 176.651 129.105C176.956 129.105 177.232 129.052 177.481 128.946C177.73 128.84 177.94 128.688 178.112 128.489C178.285 128.29 178.407 128.051 178.48 127.773H179.654C179.587 128.223 179.423 128.629 179.161 128.991C178.903 129.349 178.56 129.634 178.132 129.846C177.708 130.055 177.214 130.159 176.651 130.159ZM182.463 127.216L182.443 125.764H182.681L186.022 122.364H187.474L183.914 125.963H183.815L182.463 127.216ZM181.369 130V119.818H182.542V130H181.369ZM186.221 130L183.238 126.222L184.073 125.406L187.713 130H186.221ZM191.871 130.159C191.135 130.159 190.501 129.997 189.967 129.672C189.437 129.344 189.028 128.886 188.739 128.3C188.454 127.71 188.312 127.024 188.312 126.241C188.312 125.459 188.454 124.77 188.739 124.173C189.028 123.573 189.429 123.106 189.942 122.771C190.459 122.433 191.063 122.264 191.752 122.264C192.15 122.264 192.542 122.33 192.93 122.463C193.318 122.596 193.671 122.811 193.989 123.109C194.307 123.404 194.561 123.795 194.75 124.283C194.939 124.77 195.033 125.37 195.033 126.082V126.58H189.147V125.565H193.84C193.84 125.134 193.754 124.75 193.581 124.412C193.412 124.074 193.171 123.807 192.856 123.612C192.544 123.416 192.176 123.318 191.752 123.318C191.285 123.318 190.88 123.434 190.539 123.666C190.201 123.895 189.941 124.193 189.758 124.561C189.576 124.929 189.485 125.323 189.485 125.744V126.42C189.485 126.997 189.584 127.486 189.783 127.887C189.985 128.285 190.265 128.588 190.623 128.797C190.981 129.002 191.397 129.105 191.871 129.105C192.18 129.105 192.458 129.062 192.706 128.976C192.958 128.886 193.175 128.754 193.358 128.578C193.54 128.399 193.681 128.177 193.78 127.912L194.914 128.23C194.795 128.615 194.594 128.953 194.312 129.244C194.031 129.533 193.683 129.758 193.268 129.92C192.854 130.08 192.388 130.159 191.871 130.159ZM200.139 122.364V123.358H196.182V122.364H200.139ZM197.335 120.534H198.508V127.812C198.508 128.144 198.556 128.393 198.653 128.558C198.752 128.721 198.878 128.83 199.03 128.886C199.186 128.939 199.35 128.966 199.523 128.966C199.652 128.966 199.758 128.959 199.841 128.946C199.924 128.929 199.99 128.916 200.04 128.906L200.278 129.96C200.199 129.99 200.088 130.02 199.945 130.05C199.803 130.083 199.622 130.099 199.403 130.099C199.072 130.099 198.747 130.028 198.429 129.886C198.114 129.743 197.852 129.526 197.643 129.234C197.438 128.943 197.335 128.575 197.335 128.131V120.534ZM208.725 130.159C208.089 130.159 207.527 129.998 207.04 129.677C206.552 129.352 206.171 128.895 205.896 128.305C205.621 127.711 205.483 127.01 205.483 126.202C205.483 125.4 205.621 124.704 205.896 124.114C206.171 123.524 206.554 123.068 207.045 122.746C207.535 122.425 208.102 122.264 208.745 122.264C209.242 122.264 209.635 122.347 209.923 122.513C210.215 122.675 210.437 122.861 210.589 123.07C210.745 123.275 210.866 123.444 210.952 123.577H211.052V119.818H212.225V130H211.091V128.827H210.952C210.866 128.966 210.743 129.142 210.584 129.354C210.425 129.562 210.198 129.75 209.903 129.915C209.608 130.078 209.215 130.159 208.725 130.159ZM208.884 129.105C209.355 129.105 209.752 128.982 210.077 128.737C210.402 128.489 210.649 128.146 210.818 127.708C210.987 127.267 211.072 126.759 211.072 126.182C211.072 125.612 210.989 125.113 210.823 124.685C210.657 124.254 210.412 123.92 210.087 123.681C209.762 123.439 209.361 123.318 208.884 123.318C208.387 123.318 207.973 123.446 207.641 123.701C207.313 123.953 207.066 124.296 206.9 124.73C206.738 125.161 206.657 125.645 206.657 126.182C206.657 126.725 206.74 127.219 206.905 127.663C207.074 128.104 207.323 128.455 207.651 128.717C207.983 128.976 208.394 129.105 208.884 129.105ZM217.738 130.159C217.003 130.159 216.368 129.997 215.834 129.672C215.304 129.344 214.895 128.886 214.606 128.3C214.321 127.71 214.179 127.024 214.179 126.241C214.179 125.459 214.321 124.77 214.606 124.173C214.895 123.573 215.296 123.106 215.809 122.771C216.327 122.433 216.93 122.264 217.619 122.264C218.017 122.264 218.41 122.33 218.797 122.463C219.185 122.596 219.538 122.811 219.856 123.109C220.175 123.404 220.428 123.795 220.617 124.283C220.806 124.77 220.9 125.37 220.9 126.082V126.58H215.014V125.565H219.707C219.707 125.134 219.621 124.75 219.449 124.412C219.28 124.074 219.038 123.807 218.723 123.612C218.411 123.416 218.043 123.318 217.619 123.318C217.152 123.318 216.747 123.434 216.406 123.666C216.068 123.895 215.808 124.193 215.626 124.561C215.443 124.929 215.352 125.323 215.352 125.744V126.42C215.352 126.997 215.452 127.486 215.65 127.887C215.853 128.285 216.133 128.588 216.491 128.797C216.849 129.002 217.265 129.105 217.738 129.105C218.047 129.105 218.325 129.062 218.574 128.976C218.826 128.886 219.043 128.754 219.225 128.578C219.407 128.399 219.548 128.177 219.648 127.912L220.781 128.23C220.662 128.615 220.461 128.953 220.18 129.244C219.898 129.533 219.55 129.758 219.135 129.92C218.721 130.08 218.256 130.159 217.738 130.159ZM229.725 130.159C229.009 130.159 228.393 129.99 227.876 129.652C227.358 129.314 226.961 128.848 226.682 128.255C226.404 127.662 226.265 126.984 226.265 126.222C226.265 125.446 226.407 124.762 226.692 124.168C226.981 123.572 227.382 123.106 227.895 122.771C228.412 122.433 229.016 122.264 229.705 122.264C230.242 122.264 230.726 122.364 231.157 122.562C231.588 122.761 231.941 123.04 232.216 123.398C232.491 123.756 232.662 124.173 232.728 124.651H231.555C231.465 124.303 231.266 123.994 230.958 123.726C230.653 123.454 230.242 123.318 229.725 123.318C229.268 123.318 228.867 123.437 228.522 123.676C228.18 123.911 227.914 124.245 227.721 124.675C227.532 125.103 227.438 125.605 227.438 126.182C227.438 126.772 227.531 127.286 227.716 127.723C227.905 128.161 228.171 128.5 228.512 128.742C228.857 128.984 229.261 129.105 229.725 129.105C230.03 129.105 230.307 129.052 230.555 128.946C230.804 128.84 231.014 128.688 231.187 128.489C231.359 128.29 231.482 128.051 231.555 127.773H232.728C232.662 128.223 232.497 128.629 232.236 128.991C231.977 129.349 231.634 129.634 231.206 129.846C230.782 130.055 230.288 130.159 229.725 130.159ZM236.69 130.179C236.206 130.179 235.767 130.088 235.373 129.906C234.978 129.72 234.665 129.453 234.433 129.105C234.201 128.754 234.085 128.33 234.085 127.832C234.085 127.395 234.171 127.04 234.344 126.768C234.516 126.493 234.746 126.278 235.035 126.122C235.323 125.966 235.641 125.85 235.989 125.774C236.34 125.695 236.693 125.632 237.048 125.585C237.512 125.526 237.888 125.481 238.177 125.451C238.468 125.418 238.68 125.363 238.813 125.287C238.949 125.211 239.017 125.078 239.017 124.889V124.849C239.017 124.359 238.883 123.978 238.614 123.706C238.349 123.434 237.946 123.298 237.406 123.298C236.846 123.298 236.407 123.421 236.089 123.666C235.77 123.911 235.547 124.173 235.417 124.452L234.304 124.054C234.503 123.59 234.768 123.229 235.099 122.97C235.434 122.708 235.799 122.526 236.193 122.423C236.591 122.317 236.982 122.264 237.366 122.264C237.612 122.264 237.893 122.294 238.211 122.354C238.533 122.41 238.843 122.528 239.141 122.707C239.443 122.886 239.693 123.156 239.892 123.517C240.091 123.878 240.19 124.362 240.19 124.969V130H239.017V128.966H238.957C238.878 129.132 238.745 129.309 238.559 129.498C238.374 129.687 238.127 129.848 237.819 129.98C237.51 130.113 237.134 130.179 236.69 130.179ZM236.869 129.125C237.333 129.125 237.724 129.034 238.042 128.852C238.364 128.669 238.606 128.434 238.768 128.146C238.934 127.857 239.017 127.554 239.017 127.236V126.162C238.967 126.222 238.858 126.276 238.689 126.326C238.523 126.372 238.331 126.414 238.112 126.45C237.897 126.483 237.686 126.513 237.481 126.54C237.278 126.563 237.114 126.583 236.988 126.599C236.684 126.639 236.398 126.704 236.133 126.793C235.872 126.879 235.659 127.01 235.497 127.186C235.338 127.358 235.258 127.594 235.258 127.892C235.258 128.3 235.409 128.608 235.711 128.817C236.016 129.022 236.402 129.125 236.869 129.125ZM242.332 130V122.364H243.505V130H242.332ZM242.928 121.091C242.7 121.091 242.502 121.013 242.337 120.857C242.174 120.701 242.093 120.514 242.093 120.295C242.093 120.077 242.174 119.889 242.337 119.734C242.502 119.578 242.7 119.5 242.928 119.5C243.157 119.5 243.353 119.578 243.515 119.734C243.681 119.889 243.763 120.077 243.763 120.295C243.763 120.514 243.681 120.701 243.515 120.857C243.353 121.013 243.157 121.091 242.928 121.091ZM251.063 124.074L250.009 124.372C249.943 124.196 249.845 124.026 249.716 123.86C249.59 123.691 249.417 123.552 249.199 123.442C248.98 123.333 248.7 123.278 248.358 123.278C247.891 123.278 247.502 123.386 247.19 123.602C246.882 123.814 246.728 124.084 246.728 124.412C246.728 124.704 246.834 124.934 247.046 125.103C247.258 125.272 247.59 125.413 248.04 125.526L249.174 125.804C249.857 125.97 250.365 126.223 250.7 126.565C251.035 126.903 251.202 127.339 251.202 127.872C251.202 128.31 251.076 128.701 250.824 129.045C250.576 129.39 250.228 129.662 249.78 129.861C249.333 130.06 248.813 130.159 248.219 130.159C247.44 130.159 246.796 129.99 246.285 129.652C245.775 129.314 245.452 128.82 245.316 128.17L246.43 127.892C246.536 128.303 246.736 128.611 247.031 128.817C247.329 129.022 247.719 129.125 248.199 129.125C248.746 129.125 249.18 129.009 249.502 128.777C249.827 128.542 249.989 128.26 249.989 127.932C249.989 127.667 249.896 127.445 249.711 127.266C249.525 127.083 249.24 126.947 248.856 126.858L247.583 126.56C246.884 126.394 246.37 126.137 246.042 125.789C245.717 125.438 245.555 124.999 245.555 124.472C245.555 124.041 245.675 123.66 245.917 123.328C246.163 122.997 246.496 122.737 246.917 122.548C247.341 122.359 247.822 122.264 248.358 122.264C249.114 122.264 249.707 122.43 250.138 122.761C250.573 123.093 250.881 123.53 251.063 124.074ZM258.377 124.074L257.324 124.372C257.257 124.196 257.159 124.026 257.03 123.86C256.904 123.691 256.732 123.552 256.513 123.442C256.294 123.333 256.014 123.278 255.673 123.278C255.206 123.278 254.816 123.386 254.505 123.602C254.196 123.814 254.042 124.084 254.042 124.412C254.042 124.704 254.148 124.934 254.36 125.103C254.573 125.272 254.904 125.413 255.355 125.526L256.488 125.804C257.171 125.97 257.68 126.223 258.015 126.565C258.349 126.903 258.517 127.339 258.517 127.872C258.517 128.31 258.391 128.701 258.139 129.045C257.89 129.39 257.542 129.662 257.095 129.861C256.647 130.06 256.127 130.159 255.534 130.159C254.755 130.159 254.11 129.99 253.6 129.652C253.089 129.314 252.766 128.82 252.63 128.17L253.744 127.892C253.85 128.303 254.051 128.611 254.346 128.817C254.644 129.022 255.033 129.125 255.514 129.125C256.061 129.125 256.495 129.009 256.816 128.777C257.141 128.542 257.304 128.26 257.304 127.932C257.304 127.667 257.211 127.445 257.025 127.266C256.84 127.083 256.555 126.947 256.17 126.858L254.897 126.56C254.198 126.394 253.684 126.137 253.356 125.789C253.031 125.438 252.869 124.999 252.869 124.472C252.869 124.041 252.99 123.66 253.232 123.328C253.477 122.997 253.81 122.737 254.231 122.548C254.655 122.359 255.136 122.264 255.673 122.264C256.429 122.264 257.022 122.43 257.453 122.761C257.887 123.093 258.195 123.53 258.377 124.074ZM263.485 130.159C262.749 130.159 262.114 129.997 261.58 129.672C261.05 129.344 260.641 128.886 260.352 128.3C260.067 127.71 259.925 127.024 259.925 126.241C259.925 125.459 260.067 124.77 260.352 124.173C260.641 123.573 261.042 123.106 261.556 122.771C262.073 122.433 262.676 122.264 263.365 122.264C263.763 122.264 264.156 122.33 264.544 122.463C264.931 122.596 265.284 122.811 265.602 123.109C265.921 123.404 266.174 123.795 266.363 124.283C266.552 124.77 266.646 125.37 266.646 126.082V126.58H260.76V125.565H265.453C265.453 125.134 265.367 124.75 265.195 124.412C265.026 124.074 264.784 123.807 264.469 123.612C264.157 123.416 263.789 123.318 263.365 123.318C262.898 123.318 262.494 123.434 262.152 123.666C261.814 123.895 261.554 124.193 261.372 124.561C261.189 124.929 261.098 125.323 261.098 125.744V126.42C261.098 126.997 261.198 127.486 261.396 127.887C261.599 128.285 261.879 128.588 262.237 128.797C262.595 129.002 263.011 129.105 263.485 129.105C263.793 129.105 264.071 129.062 264.32 128.976C264.572 128.886 264.789 128.754 264.971 128.578C265.153 128.399 265.294 128.177 265.394 127.912L266.527 128.23C266.408 128.615 266.207 128.953 265.926 129.244C265.644 129.533 265.296 129.758 264.882 129.92C264.467 130.08 264.002 130.159 263.485 130.159ZM288.477 119.818V130H287.284L281.735 122.006H281.636V130H280.403V119.818H281.596L287.164 127.832H287.264V119.818H288.477ZM292.893 124.312C292.472 124.312 292.087 124.21 291.739 124.004C291.395 123.799 291.12 123.524 290.914 123.179C290.709 122.831 290.606 122.446 290.606 122.026C290.606 121.605 290.709 121.222 290.914 120.877C291.12 120.529 291.395 120.252 291.739 120.047C292.087 119.841 292.472 119.739 292.893 119.739C293.314 119.739 293.696 119.841 294.041 120.047C294.389 120.252 294.666 120.529 294.871 120.877C295.077 121.222 295.18 121.605 295.18 122.026C295.18 122.446 295.077 122.831 294.871 123.179C294.666 123.524 294.389 123.799 294.041 124.004C293.696 124.21 293.314 124.312 292.893 124.312ZM292.893 123.318C293.131 123.318 293.348 123.26 293.544 123.144C293.74 123.028 293.895 122.872 294.011 122.677C294.127 122.481 294.185 122.264 294.185 122.026C294.185 121.787 294.127 121.57 294.011 121.374C293.895 121.179 293.74 121.023 293.544 120.907C293.348 120.791 293.131 120.733 292.893 120.733C292.654 120.733 292.437 120.791 292.241 120.907C292.046 121.023 291.89 121.179 291.774 121.374C291.658 121.57 291.6 121.787 291.6 122.026C291.6 122.264 291.658 122.481 291.774 122.677C291.89 122.872 292.046 123.028 292.241 123.144C292.437 123.26 292.654 123.318 292.893 123.318ZM301.835 119.818L304.46 124.054H304.54L307.165 119.818H308.617L305.415 124.909L308.617 130H307.165L304.54 125.844H304.46L301.835 130H300.384L303.665 124.909L300.384 119.818H301.835ZM310.818 119.818L313.443 124.054H313.522L316.147 119.818H317.599L314.397 124.909L317.599 130H316.147L313.522 125.844H313.443L310.818 130H309.366L312.647 124.909L309.366 119.818H310.818ZM319.8 119.818L322.425 124.054H322.505L325.13 119.818H326.581L323.38 124.909L326.581 130H325.13L322.505 125.844H322.425L319.8 130H318.349L321.63 124.909L318.349 119.818H319.8ZM328.783 119.818L331.408 124.054H331.487L334.112 119.818H335.564L332.362 124.909L335.564 130H334.112L331.487 125.844H331.408L328.783 130H327.331L330.612 124.909L327.331 119.818H328.783ZM337.765 119.818L340.39 124.054H340.47L343.095 119.818H344.546L341.345 124.909L344.546 130H343.095L340.47 125.844H340.39L337.765 130H336.313L339.595 124.909L336.313 119.818H337.765ZM346.748 119.818L349.373 124.054H349.452L352.077 119.818H353.529L350.327 124.909L353.529 130H352.077L349.452 125.844H349.373L346.748 130H345.296L348.577 124.909L345.296 119.818H346.748ZM355.73 119.818L358.355 124.054H358.434L361.059 119.818H362.511L359.309 124.909L362.511 130H361.059L358.434 125.844H358.355L355.73 130H354.278L357.559 124.909L354.278 119.818H355.73ZM364.712 119.818L367.337 124.054H367.417L370.042 119.818H371.494L368.292 124.909L371.494 130H370.042L367.417 125.844H367.337L364.712 130H363.261L366.542 124.909L363.261 119.818H364.712ZM373.695 119.818L376.32 124.054H376.399L379.024 119.818H380.476L377.274 124.909L380.476 130H379.024L376.399 125.844H376.32L373.695 130H372.243L375.524 124.909L372.243 119.818H373.695ZM382.677 119.818L385.302 124.054H385.382L388.007 119.818H389.458L386.257 124.909L389.458 130H388.007L385.382 125.844H385.302L382.677 130H381.225L384.507 124.909L381.225 119.818H382.677Z" fill="#636362"/>
<path d="M217.087 666H218.243L220.962 672.641H221.056L223.774 666H224.931V674H224.024V667.922H223.946L221.446 674H220.571L218.071 667.922H217.993V674H217.087V666ZM229.264 674.125C228.686 674.125 228.187 673.997 227.768 673.742C227.351 673.484 227.029 673.125 226.803 672.664C226.579 672.201 226.467 671.661 226.467 671.047C226.467 670.432 226.579 669.891 226.803 669.422C227.029 668.951 227.344 668.583 227.748 668.32C228.154 668.055 228.628 667.922 229.17 667.922C229.482 667.922 229.791 667.974 230.096 668.078C230.4 668.182 230.678 668.352 230.928 668.586C231.178 668.818 231.377 669.125 231.525 669.508C231.674 669.891 231.748 670.362 231.748 670.922V671.312H227.123V670.516H230.811C230.811 670.177 230.743 669.875 230.607 669.609C230.475 669.344 230.285 669.134 230.037 668.98C229.792 668.827 229.503 668.75 229.17 668.75C228.803 668.75 228.485 668.841 228.217 669.023C227.951 669.203 227.747 669.437 227.604 669.727C227.46 670.016 227.389 670.326 227.389 670.656V671.188C227.389 671.641 227.467 672.025 227.623 672.34C227.782 672.652 228.002 672.891 228.283 673.055C228.564 673.216 228.891 673.297 229.264 673.297C229.506 673.297 229.725 673.263 229.92 673.195C230.118 673.125 230.288 673.021 230.432 672.883C230.575 672.742 230.686 672.568 230.764 672.359L231.654 672.609C231.561 672.911 231.403 673.177 231.182 673.406C230.96 673.633 230.687 673.81 230.361 673.937C230.036 674.063 229.67 674.125 229.264 674.125ZM233.15 674V668H234.041V668.906H234.104C234.213 668.609 234.411 668.368 234.697 668.184C234.984 667.999 235.307 667.906 235.666 667.906C235.734 667.906 235.818 667.908 235.92 667.91C236.021 667.913 236.098 667.917 236.15 667.922V668.859C236.119 668.852 236.048 668.84 235.936 668.824C235.826 668.806 235.71 668.797 235.588 668.797C235.296 668.797 235.036 668.858 234.807 668.98C234.58 669.1 234.4 669.267 234.268 669.48C234.137 669.691 234.072 669.932 234.072 670.203V674H233.15ZM239.498 674.125C238.936 674.125 238.451 673.992 238.045 673.727C237.639 673.461 237.326 673.095 237.107 672.629C236.889 672.163 236.779 671.63 236.779 671.031C236.779 670.422 236.891 669.884 237.115 669.418C237.342 668.949 237.657 668.583 238.061 668.32C238.467 668.055 238.941 667.922 239.482 667.922C239.904 667.922 240.285 668 240.623 668.156C240.962 668.312 241.239 668.531 241.455 668.812C241.671 669.094 241.805 669.422 241.857 669.797H240.936C240.865 669.523 240.709 669.281 240.467 669.07C240.227 668.857 239.904 668.75 239.498 668.75C239.139 668.75 238.824 668.844 238.553 669.031C238.285 669.216 238.075 669.478 237.924 669.816C237.775 670.152 237.701 670.547 237.701 671C237.701 671.464 237.774 671.867 237.92 672.211C238.068 672.555 238.277 672.822 238.545 673.012C238.816 673.202 239.133 673.297 239.498 673.297C239.738 673.297 239.955 673.255 240.15 673.172C240.346 673.089 240.511 672.969 240.646 672.812C240.782 672.656 240.878 672.469 240.936 672.25H241.857C241.805 672.604 241.676 672.923 241.471 673.207C241.268 673.488 240.998 673.712 240.662 673.879C240.329 674.043 239.941 674.125 239.498 674.125ZM243.205 674V668H244.127V674H243.205ZM243.674 667C243.494 667 243.339 666.939 243.209 666.816C243.081 666.694 243.018 666.547 243.018 666.375C243.018 666.203 243.081 666.056 243.209 665.934C243.339 665.811 243.494 665.75 243.674 665.75C243.854 665.75 244.007 665.811 244.135 665.934C244.265 666.056 244.33 666.203 244.33 666.375C244.33 666.547 244.265 666.694 244.135 666.816C244.007 666.939 243.854 667 243.674 667ZM248.909 676.25V668H249.8V668.953H249.909C249.977 668.849 250.071 668.716 250.19 668.555C250.313 668.391 250.487 668.245 250.714 668.117C250.943 667.987 251.253 667.922 251.644 667.922C252.149 667.922 252.594 668.048 252.979 668.301C253.365 668.553 253.666 668.911 253.882 669.375C254.098 669.839 254.206 670.385 254.206 671.016C254.206 671.651 254.098 672.202 253.882 672.668C253.666 673.132 253.366 673.491 252.983 673.746C252.601 673.999 252.159 674.125 251.659 674.125C251.274 674.125 250.965 674.061 250.733 673.934C250.502 673.803 250.323 673.656 250.198 673.492C250.073 673.326 249.977 673.187 249.909 673.078H249.831V676.25H248.909ZM249.815 671C249.815 671.453 249.882 671.853 250.015 672.199C250.147 672.543 250.341 672.812 250.597 673.008C250.852 673.201 251.164 673.297 251.534 673.297C251.92 673.297 252.241 673.195 252.499 672.992C252.759 672.786 252.955 672.51 253.085 672.164C253.218 671.815 253.284 671.427 253.284 671C253.284 670.578 253.219 670.198 253.089 669.859C252.961 669.518 252.767 669.249 252.507 669.051C252.249 668.85 251.925 668.75 251.534 668.75C251.159 668.75 250.844 668.845 250.589 669.035C250.334 669.223 250.141 669.486 250.011 669.824C249.881 670.16 249.815 670.552 249.815 671ZM258.05 674.125C257.508 674.125 257.033 673.996 256.624 673.738C256.218 673.48 255.9 673.12 255.671 672.656C255.444 672.193 255.331 671.651 255.331 671.031C255.331 670.406 255.444 669.861 255.671 669.395C255.9 668.928 256.218 668.566 256.624 668.309C257.033 668.051 257.508 667.922 258.05 667.922C258.591 667.922 259.065 668.051 259.472 668.309C259.881 668.566 260.198 668.928 260.425 669.395C260.654 669.861 260.769 670.406 260.769 671.031C260.769 671.651 260.654 672.193 260.425 672.656C260.198 673.12 259.881 673.48 259.472 673.738C259.065 673.996 258.591 674.125 258.05 674.125ZM258.05 673.297C258.461 673.297 258.8 673.191 259.065 672.98C259.331 672.77 259.528 672.492 259.655 672.148C259.783 671.805 259.847 671.432 259.847 671.031C259.847 670.63 259.783 670.257 259.655 669.91C259.528 669.564 259.331 669.284 259.065 669.07C258.8 668.857 258.461 668.75 258.05 668.75C257.638 668.75 257.3 668.857 257.034 669.07C256.769 669.284 256.572 669.564 256.444 669.91C256.317 670.257 256.253 670.63 256.253 671.031C256.253 671.432 256.317 671.805 256.444 672.148C256.572 672.492 256.769 672.77 257.034 672.98C257.3 673.191 257.638 673.297 258.05 673.297ZM265.957 671.547V668H266.879V674H265.957V672.984H265.895C265.754 673.289 265.535 673.548 265.238 673.762C264.941 673.973 264.566 674.078 264.113 674.078C263.738 674.078 263.405 673.996 263.113 673.832C262.822 673.665 262.592 673.415 262.426 673.082C262.259 672.746 262.176 672.323 262.176 671.812V668H263.098V671.75C263.098 672.187 263.22 672.536 263.465 672.797C263.712 673.057 264.027 673.187 264.41 673.187C264.639 673.187 264.872 673.129 265.109 673.012C265.349 672.895 265.549 672.715 265.711 672.473C265.875 672.23 265.957 671.922 265.957 671.547ZM268.567 674V668H269.458V668.906H269.521C269.63 668.609 269.828 668.368 270.114 668.184C270.401 667.999 270.724 667.906 271.083 667.906C271.151 667.906 271.235 667.908 271.337 667.91C271.438 667.913 271.515 667.917 271.567 667.922V668.859C271.536 668.852 271.465 668.84 271.353 668.824C271.243 668.806 271.127 668.797 271.005 668.797C270.713 668.797 270.453 668.858 270.224 668.98C269.997 669.1 269.817 669.267 269.685 669.48C269.554 669.691 269.489 669.932 269.489 670.203V674H268.567ZM280.66 668L278.441 674H277.504L275.285 668H276.285L277.941 672.781H278.004L279.66 668H280.66ZM284.1 674.125C283.558 674.125 283.083 673.996 282.674 673.738C282.268 673.48 281.95 673.12 281.721 672.656C281.494 672.193 281.381 671.651 281.381 671.031C281.381 670.406 281.494 669.861 281.721 669.395C281.95 668.928 282.268 668.566 282.674 668.309C283.083 668.051 283.558 667.922 284.1 667.922C284.641 667.922 285.115 668.051 285.521 668.309C285.93 668.566 286.248 668.928 286.475 669.395C286.704 669.861 286.818 670.406 286.818 671.031C286.818 671.651 286.704 672.193 286.475 672.656C286.248 673.12 285.93 673.48 285.521 673.738C285.115 673.996 284.641 674.125 284.1 674.125ZM284.1 673.297C284.511 673.297 284.85 673.191 285.115 672.98C285.381 672.77 285.577 672.492 285.705 672.148C285.833 671.805 285.896 671.432 285.896 671.031C285.896 670.63 285.833 670.257 285.705 669.91C285.577 669.564 285.381 669.284 285.115 669.07C284.85 668.857 284.511 668.75 284.1 668.75C283.688 668.75 283.35 668.857 283.084 669.07C282.818 669.284 282.622 669.564 282.494 669.91C282.367 670.257 282.303 670.63 282.303 671.031C282.303 671.432 282.367 671.805 282.494 672.148C282.622 672.492 282.818 672.77 283.084 672.98C283.35 673.191 283.688 673.297 284.1 673.297ZM290.835 668V668.781H287.726V668H290.835ZM288.632 666.562H289.554V672.281C289.554 672.542 289.591 672.737 289.667 672.867C289.745 672.995 289.844 673.081 289.964 673.125C290.086 673.167 290.215 673.187 290.351 673.187C290.452 673.187 290.535 673.182 290.601 673.172C290.666 673.159 290.718 673.148 290.757 673.141L290.944 673.969C290.882 673.992 290.795 674.016 290.683 674.039C290.571 674.065 290.429 674.078 290.257 674.078C289.996 674.078 289.741 674.022 289.491 673.91C289.244 673.798 289.038 673.628 288.874 673.398C288.713 673.169 288.632 672.88 288.632 672.531V666.562ZM292.222 674V668H293.112V668.906H293.175C293.284 668.609 293.482 668.368 293.769 668.184C294.055 667.999 294.378 667.906 294.737 667.906C294.805 667.906 294.89 667.908 294.991 667.91C295.093 667.913 295.17 667.917 295.222 667.922V668.859C295.19 668.852 295.119 668.84 295.007 668.824C294.897 668.806 294.782 668.797 294.659 668.797C294.368 668.797 294.107 668.858 293.878 668.98C293.651 669.1 293.472 669.267 293.339 669.48C293.209 669.691 293.144 669.932 293.144 670.203V674H292.222ZM298.647 674.125C298.069 674.125 297.571 673.997 297.151 673.742C296.735 673.484 296.413 673.125 296.187 672.664C295.963 672.201 295.851 671.661 295.851 671.047C295.851 670.432 295.963 669.891 296.187 669.422C296.413 668.951 296.728 668.583 297.132 668.32C297.538 668.055 298.012 667.922 298.554 667.922C298.866 667.922 299.175 667.974 299.479 668.078C299.784 668.182 300.062 668.352 300.312 668.586C300.562 668.818 300.761 669.125 300.909 669.508C301.058 669.891 301.132 670.362 301.132 670.922V671.312H296.507V670.516H300.194C300.194 670.177 300.127 669.875 299.991 669.609C299.858 669.344 299.668 669.134 299.421 668.98C299.176 668.827 298.887 668.75 298.554 668.75C298.187 668.75 297.869 668.841 297.601 669.023C297.335 669.203 297.131 669.437 296.987 669.727C296.844 670.016 296.772 670.326 296.772 670.656V671.188C296.772 671.641 296.851 672.025 297.007 672.34C297.166 672.652 297.386 672.891 297.667 673.055C297.948 673.216 298.275 673.297 298.647 673.297C298.89 673.297 299.108 673.263 299.304 673.195C299.502 673.125 299.672 673.021 299.815 672.883C299.959 672.742 300.069 672.568 300.147 672.359L301.038 672.609C300.944 672.911 300.787 673.177 300.565 673.406C300.344 673.633 300.071 673.81 299.745 673.937C299.42 674.063 299.054 674.125 298.647 674.125ZM307.394 674.141C307.013 674.141 306.668 674.069 306.358 673.926C306.049 673.78 305.802 673.57 305.62 673.297C305.438 673.021 305.347 672.687 305.347 672.297C305.347 671.953 305.414 671.674 305.55 671.461C305.685 671.245 305.866 671.076 306.093 670.953C306.319 670.831 306.569 670.74 306.843 670.68C307.119 670.617 307.396 670.568 307.675 670.531C308.039 670.484 308.335 670.449 308.562 670.426C308.791 670.4 308.957 670.357 309.062 670.297C309.168 670.237 309.222 670.133 309.222 669.984V669.953C309.222 669.568 309.116 669.268 308.905 669.055C308.697 668.841 308.381 668.734 307.956 668.734C307.516 668.734 307.171 668.831 306.921 669.023C306.671 669.216 306.495 669.422 306.394 669.641L305.519 669.328C305.675 668.964 305.883 668.68 306.144 668.477C306.407 668.271 306.693 668.128 307.003 668.047C307.315 667.964 307.623 667.922 307.925 667.922C308.118 667.922 308.339 667.945 308.589 667.992C308.841 668.036 309.085 668.129 309.319 668.27C309.556 668.41 309.753 668.622 309.909 668.906C310.065 669.19 310.144 669.57 310.144 670.047V674H309.222V673.187H309.175C309.112 673.318 309.008 673.457 308.862 673.605C308.716 673.754 308.522 673.88 308.28 673.984C308.038 674.089 307.743 674.141 307.394 674.141ZM307.534 673.312C307.899 673.312 308.206 673.241 308.456 673.098C308.709 672.954 308.899 672.77 309.026 672.543C309.157 672.316 309.222 672.078 309.222 671.828V670.984C309.183 671.031 309.097 671.074 308.964 671.113C308.834 671.15 308.683 671.182 308.511 671.211C308.341 671.237 308.176 671.26 308.015 671.281C307.856 671.299 307.727 671.315 307.628 671.328C307.388 671.359 307.164 671.41 306.956 671.48C306.75 671.548 306.584 671.651 306.456 671.789C306.331 671.924 306.269 672.109 306.269 672.344C306.269 672.664 306.387 672.906 306.624 673.07C306.864 673.232 307.167 673.312 307.534 673.312ZM314.264 674.125C313.701 674.125 313.217 673.992 312.811 673.727C312.404 673.461 312.092 673.095 311.873 672.629C311.654 672.163 311.545 671.63 311.545 671.031C311.545 670.422 311.657 669.884 311.881 669.418C312.107 668.949 312.423 668.583 312.826 668.32C313.232 668.055 313.706 667.922 314.248 667.922C314.67 667.922 315.05 668 315.389 668.156C315.727 668.312 316.005 668.531 316.221 668.812C316.437 669.094 316.571 669.422 316.623 669.797H315.701C315.631 669.523 315.475 669.281 315.232 669.07C314.993 668.857 314.67 668.75 314.264 668.75C313.904 668.75 313.589 668.844 313.318 669.031C313.05 669.216 312.84 669.478 312.689 669.816C312.541 670.152 312.467 670.547 312.467 671C312.467 671.464 312.54 671.867 312.686 672.211C312.834 672.555 313.042 672.822 313.311 673.012C313.581 673.202 313.899 673.297 314.264 673.297C314.503 673.297 314.721 673.255 314.916 673.172C315.111 673.089 315.277 672.969 315.412 672.812C315.548 672.656 315.644 672.469 315.701 672.25H316.623C316.571 672.604 316.442 672.923 316.236 673.207C316.033 673.488 315.764 673.712 315.428 673.879C315.094 674.043 314.706 674.125 314.264 674.125ZM318.893 670.391V674H317.971V666H318.893V668.937H318.971C319.111 668.628 319.322 668.382 319.604 668.199C319.887 668.014 320.265 667.922 320.736 667.922C321.145 667.922 321.503 668.004 321.811 668.168C322.118 668.329 322.356 668.578 322.525 668.914C322.697 669.247 322.783 669.672 322.783 670.188V674H321.861V670.25C321.861 669.773 321.738 669.405 321.49 669.145C321.245 668.882 320.906 668.75 320.471 668.75C320.169 668.75 319.898 668.814 319.658 668.941C319.421 669.069 319.234 669.255 319.096 669.5C318.96 669.745 318.893 670.042 318.893 670.391ZM326.235 674.141C325.855 674.141 325.51 674.069 325.2 673.926C324.89 673.78 324.644 673.57 324.462 673.297C324.28 673.021 324.188 672.687 324.188 672.297C324.188 671.953 324.256 671.674 324.392 671.461C324.527 671.245 324.708 671.076 324.935 670.953C325.161 670.831 325.411 670.74 325.685 670.68C325.961 670.617 326.238 670.568 326.517 670.531C326.881 670.484 327.177 670.449 327.403 670.426C327.632 670.4 327.799 670.357 327.903 670.297C328.01 670.237 328.063 670.133 328.063 669.984V669.953C328.063 669.568 327.958 669.268 327.747 669.055C327.539 668.841 327.222 668.734 326.798 668.734C326.358 668.734 326.013 668.831 325.763 669.023C325.513 669.216 325.337 669.422 325.235 669.641L324.36 669.328C324.517 668.964 324.725 668.68 324.985 668.477C325.248 668.271 325.535 668.128 325.845 668.047C326.157 667.964 326.465 667.922 326.767 667.922C326.959 667.922 327.181 667.945 327.431 667.992C327.683 668.036 327.927 668.129 328.161 668.27C328.398 668.41 328.595 668.622 328.751 668.906C328.907 669.19 328.985 669.57 328.985 670.047V674H328.063V673.187H328.017C327.954 673.318 327.85 673.457 327.704 673.605C327.558 673.754 327.364 673.88 327.122 673.984C326.88 674.089 326.584 674.141 326.235 674.141ZM326.376 673.312C326.741 673.312 327.048 673.241 327.298 673.098C327.55 672.954 327.741 672.77 327.868 672.543C327.998 672.316 328.063 672.078 328.063 671.828V670.984C328.024 671.031 327.938 671.074 327.806 671.113C327.675 671.15 327.524 671.182 327.353 671.211C327.183 671.237 327.018 671.26 326.856 671.281C326.698 671.299 326.569 671.315 326.47 671.328C326.23 671.359 326.006 671.41 325.798 671.48C325.592 671.548 325.425 671.651 325.298 671.789C325.173 671.924 325.11 672.109 325.11 672.344C325.11 672.664 325.229 672.906 325.466 673.07C325.705 673.232 326.009 673.312 326.376 673.312ZM333.277 668V668.781H330.168V668H333.277ZM331.074 666.562H331.996V672.281C331.996 672.542 332.034 672.737 332.109 672.867C332.188 672.995 332.286 673.081 332.406 673.125C332.529 673.167 332.658 673.187 332.793 673.187C332.895 673.187 332.978 673.182 333.043 673.172C333.108 673.159 333.16 673.148 333.199 673.141L333.387 673.969C333.324 673.992 333.237 674.016 333.125 674.039C333.013 674.065 332.871 674.078 332.699 674.078C332.439 674.078 332.184 674.022 331.934 673.91C331.686 673.798 331.48 673.628 331.316 673.398C331.155 673.169 331.074 672.88 331.074 672.531V666.562ZM335.883 666L335.805 671.75H334.898L334.82 666H335.883ZM335.352 674.063C335.159 674.063 334.993 673.993 334.855 673.855C334.717 673.717 334.648 673.552 334.648 673.359C334.648 673.167 334.717 673.001 334.855 672.863C334.993 672.725 335.159 672.656 335.352 672.656C335.544 672.656 335.71 672.725 335.848 672.863C335.986 673.001 336.055 673.167 336.055 673.359C336.055 673.487 336.022 673.604 335.957 673.711C335.895 673.818 335.81 673.904 335.703 673.969C335.599 674.031 335.482 674.063 335.352 674.063Z" fill="#636362"/>
<path d="M323.187 615H300.969V640.558H323.187V615Z" fill="#636362"/>
<path d="M295.762 615H284.663V640.558H295.762V615Z" fill="#636362"/>
<path d="M269.007 615H257.907V640.558H269.007V615Z" fill="#636362"/>
<path d="M224.393 615H213.294V640.558H224.393V615Z" fill="#636362"/>
<path d="M279.988 615H274.428V640.558H279.988V615Z" fill="#636362"/>
<path d="M349.61 615H338.51V640.558H349.61V615Z" fill="#636362"/>
<path d="M333.853 615H328.294V640.558H333.853V615Z" fill="#636362"/>
<path d="M208.559 615H203V640.558H208.559V615Z" fill="#636362"/>
<path d="M253.349 615H247.79V640.558H253.349V615Z" fill="#636362"/>
<path d="M243.429 615H237.87V640.558H243.429V615Z" fill="#636362"/>
<path d="M232.015 615H229.245V640.558H232.015V615Z" fill="#636362"/>
<path d="M250.688 650.087C250.263 650.087 249.887 650.011 249.561 649.861C249.237 649.708 248.984 649.498 248.802 649.232C248.62 648.964 248.531 648.658 248.533 648.315C248.531 648.047 248.583 647.799 248.691 647.572C248.798 647.343 248.944 647.152 249.13 646.999C249.318 646.845 249.528 646.747 249.759 646.705V646.668C249.455 646.59 249.214 646.419 249.034 646.157C248.855 645.893 248.766 645.593 248.768 645.256C248.766 644.934 248.847 644.646 249.013 644.392C249.178 644.138 249.405 643.938 249.694 643.791C249.985 643.645 250.316 643.571 250.688 643.571C251.055 643.571 251.384 643.645 251.673 643.791C251.962 643.938 252.189 644.138 252.354 644.392C252.521 644.646 252.606 644.934 252.608 645.256C252.606 645.593 252.514 645.893 252.332 646.157C252.153 646.419 251.914 646.59 251.617 646.668V646.705C251.846 646.747 252.052 646.845 252.236 646.999C252.42 647.152 252.566 647.343 252.676 647.572C252.785 647.799 252.841 648.047 252.843 648.315C252.841 648.658 252.748 648.964 252.564 649.232C252.383 649.498 252.13 649.708 251.806 649.861C251.484 650.011 251.111 650.087 250.688 650.087ZM250.688 649.405C250.975 649.405 251.223 649.359 251.431 649.266C251.64 649.173 251.801 649.042 251.914 648.873C252.028 648.704 252.085 648.505 252.088 648.278C252.085 648.039 252.024 647.827 251.902 647.643C251.78 647.46 251.614 647.315 251.403 647.21C251.195 647.105 250.956 647.052 250.688 647.052C250.417 647.052 250.176 647.105 249.963 647.21C249.753 647.315 249.586 647.46 249.465 647.643C249.345 647.827 249.286 648.039 249.288 648.278C249.286 648.505 249.341 648.704 249.452 648.873C249.566 649.042 249.728 649.173 249.938 649.266C250.149 649.359 250.399 649.405 250.688 649.405ZM250.688 646.396C250.915 646.396 251.116 646.35 251.292 646.259C251.469 646.168 251.609 646.042 251.71 645.878C251.811 645.715 251.862 645.524 251.865 645.306C251.862 645.091 251.812 644.904 251.713 644.745C251.614 644.584 251.476 644.46 251.301 644.373C251.125 644.285 250.921 644.24 250.688 644.24C250.45 644.24 250.243 644.285 250.065 644.373C249.888 644.46 249.751 644.584 249.654 644.745C249.557 644.904 249.509 645.091 249.511 645.306C249.509 645.524 249.558 645.715 249.657 645.878C249.758 646.042 249.897 646.168 250.075 646.259C250.252 646.35 250.457 646.396 250.688 646.396ZM256.049 643.571C256.309 643.574 256.569 643.623 256.829 643.72C257.089 643.817 257.327 643.978 257.541 644.203C257.756 644.426 257.928 644.731 258.059 645.117C258.189 645.503 258.254 645.987 258.254 646.569C258.254 647.133 258.2 647.633 258.093 648.071C257.987 648.506 257.835 648.874 257.634 649.173C257.436 649.473 257.195 649.7 256.91 649.854C256.627 650.009 256.307 650.087 255.95 650.087C255.595 650.087 255.278 650.017 254.999 649.876C254.722 649.734 254.495 649.537 254.318 649.285C254.142 649.031 254.03 648.737 253.98 648.402H254.736C254.804 648.693 254.939 648.934 255.142 649.124C255.346 649.312 255.615 649.405 255.95 649.405C256.439 649.405 256.825 649.192 257.108 648.764C257.393 648.337 257.535 647.733 257.535 646.953H257.486C257.37 647.126 257.233 647.276 257.074 647.402C256.915 647.528 256.738 647.625 256.544 647.693C256.35 647.761 256.144 647.795 255.925 647.795C255.562 647.795 255.228 647.705 254.925 647.526C254.623 647.344 254.382 647.095 254.2 646.78C254.021 646.462 253.931 646.098 253.931 645.69C253.931 645.301 254.017 644.946 254.191 644.624C254.366 644.3 254.612 644.042 254.928 643.85C255.246 643.658 255.619 643.565 256.049 643.571ZM256.049 644.253C255.789 644.253 255.554 644.318 255.346 644.448C255.139 644.576 254.975 644.749 254.854 644.968C254.734 645.185 254.674 645.425 254.674 645.69C254.674 645.954 254.732 646.194 254.847 646.411C254.965 646.626 255.125 646.797 255.327 646.925C255.532 647.051 255.764 647.114 256.024 647.114C256.22 647.114 256.403 647.076 256.572 646.999C256.741 646.921 256.889 646.815 257.015 646.68C257.143 646.544 257.243 646.39 257.315 646.219C257.388 646.046 257.424 645.865 257.424 645.677C257.424 645.429 257.364 645.197 257.244 644.98C257.126 644.764 256.963 644.588 256.755 644.454C256.548 644.32 256.313 644.253 256.049 644.253ZM261.503 650.087C261.077 650.087 260.702 650.011 260.376 649.861C260.051 649.708 259.799 649.498 259.617 649.232C259.435 648.964 259.345 648.658 259.347 648.315C259.345 648.047 259.398 647.799 259.505 647.572C259.613 647.343 259.759 647.152 259.945 646.999C260.133 646.845 260.342 646.747 260.574 646.705V646.668C260.27 646.59 260.029 646.419 259.849 646.157C259.67 645.893 259.581 645.593 259.583 645.256C259.581 644.934 259.662 644.646 259.827 644.392C259.993 644.138 260.22 643.938 260.509 643.791C260.8 643.645 261.131 643.571 261.503 643.571C261.87 643.571 262.198 643.645 262.487 643.791C262.776 643.938 263.003 644.138 263.169 644.392C263.336 644.646 263.421 644.934 263.423 645.256C263.421 645.593 263.329 645.893 263.147 646.157C262.967 646.419 262.729 646.59 262.432 646.668V646.705C262.661 646.747 262.867 646.845 263.051 646.999C263.235 647.152 263.381 647.343 263.491 647.572C263.6 647.799 263.656 648.047 263.658 648.315C263.656 648.658 263.563 648.964 263.379 649.232C263.198 649.498 262.945 649.708 262.621 649.861C262.299 650.011 261.926 650.087 261.503 650.087ZM261.503 649.405C261.79 649.405 262.037 649.359 262.246 649.266C262.454 649.173 262.615 649.042 262.729 648.873C262.842 648.704 262.9 648.505 262.902 648.278C262.9 648.039 262.838 647.827 262.717 647.643C262.595 647.46 262.429 647.315 262.218 647.21C262.009 647.105 261.771 647.052 261.503 647.052C261.232 647.052 260.991 647.105 260.778 647.21C260.568 647.315 260.401 647.46 260.28 647.643C260.16 647.827 260.101 648.039 260.103 648.278C260.101 648.505 260.156 648.704 260.267 648.873C260.381 649.042 260.543 649.173 260.753 649.266C260.964 649.359 261.214 649.405 261.503 649.405ZM261.503 646.396C261.73 646.396 261.931 646.35 262.107 646.259C262.284 646.168 262.423 646.042 262.525 645.878C262.626 645.715 262.677 645.524 262.679 645.306C262.677 645.091 262.627 644.904 262.528 644.745C262.429 644.584 262.291 644.46 262.116 644.373C261.94 644.285 261.736 644.24 261.503 644.24C261.265 644.24 261.058 644.285 260.88 644.373C260.703 644.46 260.565 644.584 260.468 644.745C260.371 644.904 260.324 645.091 260.326 645.306C260.324 645.524 260.372 645.715 260.472 645.878C260.573 646.042 260.712 646.168 260.89 646.259C261.067 646.35 261.271 646.396 261.503 646.396ZM266.826 650.087C266.463 650.087 266.136 650.014 265.845 649.87C265.554 649.725 265.321 649.527 265.145 649.275C264.97 649.024 264.874 648.737 264.857 648.415H265.6C265.629 648.701 265.759 648.939 265.99 649.127C266.224 649.313 266.502 649.405 266.826 649.405C267.087 649.405 267.318 649.345 267.52 649.223C267.725 649.101 267.885 648.934 268 648.721C268.118 648.506 268.177 648.264 268.177 647.993C268.177 647.717 268.116 647.47 267.994 647.253C267.874 647.034 267.709 646.862 267.498 646.736C267.288 646.61 267.047 646.546 266.777 646.544C266.583 646.542 266.384 646.572 266.179 646.634C265.975 646.694 265.807 646.771 265.675 646.866L264.956 646.78L265.34 643.658H268.635V644.339H265.984L265.761 646.21H265.798C265.928 646.107 266.092 646.021 266.288 645.953C266.484 645.885 266.688 645.851 266.901 645.851C267.289 645.851 267.635 645.943 267.938 646.129C268.244 646.313 268.483 646.565 268.657 646.885C268.832 647.205 268.92 647.57 268.92 647.981C268.92 648.386 268.829 648.747 268.647 649.065C268.468 649.381 268.22 649.63 267.904 649.814C267.588 649.996 267.229 650.087 266.826 650.087ZM270.001 648.699V648.068L272.788 643.658H273.247V644.637H272.937L270.831 647.969V648.018H274.584V648.699H270.001ZM272.986 650V648.507V648.213V643.658H273.717V650H272.986ZM277.764 643.571C278.024 643.574 278.284 643.623 278.544 643.72C278.804 643.817 279.042 643.978 279.256 644.203C279.471 644.426 279.643 644.731 279.773 645.117C279.903 645.503 279.968 645.987 279.968 646.569C279.968 647.133 279.915 647.633 279.807 648.071C279.702 648.506 279.549 648.874 279.349 649.173C279.151 649.473 278.909 649.7 278.625 649.854C278.342 650.009 278.022 650.087 277.665 650.087C277.309 650.087 276.993 650.017 276.714 649.876C276.437 649.734 276.21 649.537 276.033 649.285C275.857 649.031 275.745 648.737 275.695 648.402H276.451C276.519 648.693 276.654 648.934 276.856 649.124C277.061 649.312 277.33 649.405 277.665 649.405C278.154 649.405 278.54 649.192 278.823 648.764C279.108 648.337 279.25 647.733 279.25 646.953H279.2C279.085 647.126 278.948 647.276 278.789 647.402C278.63 647.528 278.453 647.625 278.259 647.693C278.065 647.761 277.859 647.795 277.64 647.795C277.276 647.795 276.943 647.705 276.64 647.526C276.338 647.344 276.097 647.095 275.915 646.78C275.735 646.462 275.646 646.098 275.646 645.69C275.646 645.301 275.732 644.946 275.906 644.624C276.081 644.3 276.327 644.042 276.643 643.85C276.961 643.658 277.334 643.565 277.764 643.571ZM277.764 644.253C277.504 644.253 277.269 644.318 277.061 644.448C276.854 644.576 276.69 644.749 276.568 644.968C276.449 645.185 276.389 645.425 276.389 645.69C276.389 645.954 276.447 646.194 276.562 646.411C276.68 646.626 276.84 646.797 277.042 646.925C277.247 647.051 277.479 647.114 277.739 647.114C277.935 647.114 278.118 647.076 278.287 646.999C278.456 646.921 278.604 646.815 278.73 646.68C278.858 646.544 278.958 646.39 279.03 646.219C279.102 646.046 279.139 645.865 279.139 645.677C279.139 645.429 279.079 645.197 278.959 644.98C278.841 644.764 278.678 644.588 278.47 644.454C278.263 644.32 278.028 644.253 277.764 644.253ZM283.218 650.087C282.792 650.087 282.417 650.011 282.09 649.861C281.766 649.708 281.513 649.498 281.332 649.232C281.15 648.964 281.06 648.658 281.062 648.315C281.06 648.047 281.113 647.799 281.22 647.572C281.328 647.343 281.474 647.152 281.66 646.999C281.848 646.845 282.057 646.747 282.289 646.705V646.668C281.985 646.59 281.744 646.419 281.564 646.157C281.384 645.893 281.296 645.593 281.298 645.256C281.296 644.934 281.377 644.646 281.542 644.392C281.707 644.138 281.935 643.938 282.224 643.791C282.515 643.645 282.846 643.571 283.218 643.571C283.585 643.571 283.913 643.645 284.202 643.791C284.491 643.938 284.718 644.138 284.883 644.392C285.051 644.646 285.135 644.934 285.137 645.256C285.135 645.593 285.043 645.893 284.862 646.157C284.682 646.419 284.444 646.59 284.147 646.668V646.705C284.376 646.747 284.582 646.845 284.766 646.999C284.95 647.152 285.096 647.343 285.206 647.572C285.315 647.799 285.371 648.047 285.373 648.315C285.371 648.658 285.278 648.964 285.094 649.232C284.912 649.498 284.66 649.708 284.335 649.861C284.013 650.011 283.641 650.087 283.218 650.087ZM283.218 649.405C283.504 649.405 283.752 649.359 283.961 649.266C284.169 649.173 284.33 649.042 284.444 648.873C284.557 648.704 284.615 648.505 284.617 648.278C284.615 648.039 284.553 647.827 284.431 647.643C284.31 647.46 284.143 647.315 283.933 647.21C283.724 647.105 283.486 647.052 283.218 647.052C282.947 647.052 282.706 647.105 282.493 647.21C282.282 647.315 282.116 647.46 281.994 647.643C281.875 647.827 281.816 648.039 281.818 648.278C281.816 648.505 281.871 648.704 281.982 648.873C282.096 649.042 282.258 649.173 282.468 649.266C282.679 649.359 282.929 649.405 283.218 649.405ZM283.218 646.396C283.445 646.396 283.646 646.35 283.821 646.259C283.999 646.168 284.138 646.042 284.239 645.878C284.341 645.715 284.392 645.524 284.394 645.306C284.392 645.091 284.342 644.904 284.243 644.745C284.143 644.584 284.006 644.46 283.831 644.373C283.655 644.285 283.451 644.24 283.218 644.24C282.98 644.24 282.773 644.285 282.595 644.373C282.418 644.46 282.28 644.584 282.183 644.745C282.086 644.904 282.039 645.091 282.041 645.306C282.039 645.524 282.087 645.715 282.186 645.878C282.288 646.042 282.427 646.168 282.604 646.259C282.782 646.35 282.986 646.396 283.218 646.396ZM286.758 650L289.594 644.389V644.339H286.324V643.658H290.387V644.377L287.563 650H286.758ZM293.511 650.087C293.25 650.083 292.99 650.033 292.73 649.938C292.47 649.843 292.233 649.683 292.018 649.458C291.803 649.231 291.631 648.924 291.501 648.538C291.371 648.15 291.306 647.663 291.306 647.077C291.306 646.515 291.358 646.018 291.464 645.584C291.569 645.149 291.722 644.782 291.922 644.485C292.122 644.186 292.364 643.959 292.647 643.804C292.932 643.649 293.253 643.571 293.61 643.571C293.965 643.571 294.281 643.643 294.557 643.785C294.836 643.926 295.063 644.122 295.238 644.373C295.414 644.625 295.528 644.915 295.579 645.244H294.824C294.753 644.959 294.617 644.722 294.415 644.535C294.212 644.347 293.944 644.253 293.61 644.253C293.118 644.253 292.731 644.466 292.448 644.894C292.168 645.321 292.026 645.921 292.024 646.693H292.074C292.189 646.517 292.327 646.368 292.486 646.244C292.647 646.118 292.824 646.021 293.018 645.953C293.212 645.885 293.418 645.851 293.634 645.851C293.998 645.851 294.33 645.941 294.632 646.123C294.933 646.303 295.175 646.551 295.356 646.869C295.538 647.185 295.629 647.547 295.629 647.956C295.629 648.348 295.541 648.708 295.365 649.034C295.19 649.358 294.943 649.616 294.625 649.808C294.31 649.998 293.938 650.091 293.511 650.087ZM293.511 649.405C293.771 649.405 294.004 649.34 294.21 649.21C294.419 649.08 294.583 648.906 294.703 648.687C294.825 648.468 294.885 648.225 294.885 647.956C294.885 647.694 294.827 647.456 294.709 647.241C294.593 647.024 294.433 646.852 294.229 646.724C294.027 646.596 293.795 646.532 293.535 646.532C293.339 646.532 293.157 646.571 292.987 646.649C292.818 646.726 292.669 646.831 292.541 646.965C292.415 647.1 292.316 647.253 292.244 647.427C292.172 647.598 292.136 647.779 292.136 647.969C292.136 648.22 292.195 648.456 292.312 648.675C292.432 648.893 292.595 649.07 292.801 649.204C293.01 649.338 293.246 649.405 293.511 649.405ZM298.878 650.087C298.452 650.087 298.077 650.011 297.751 649.861C297.426 649.708 297.174 649.498 296.992 649.232C296.81 648.964 296.72 648.658 296.723 648.315C296.72 648.047 296.773 647.799 296.88 647.572C296.988 647.343 297.134 647.152 297.32 646.999C297.508 646.845 297.718 646.747 297.949 646.705V646.668C297.645 646.59 297.404 646.419 297.224 646.157C297.045 645.893 296.956 645.593 296.958 645.256C296.956 644.934 297.037 644.646 297.203 644.392C297.368 644.138 297.595 643.938 297.884 643.791C298.175 643.645 298.506 643.571 298.878 643.571C299.245 643.571 299.573 643.645 299.862 643.791C300.151 643.938 300.379 644.138 300.544 644.392C300.711 644.646 300.796 644.934 300.798 645.256C300.796 645.593 300.704 645.893 300.522 646.157C300.342 646.419 300.104 646.59 299.807 646.668V646.705C300.036 646.747 300.242 646.845 300.426 646.999C300.61 647.152 300.756 647.343 300.866 647.572C300.975 647.799 301.031 648.047 301.033 648.315C301.031 648.658 300.938 648.964 300.754 649.232C300.573 649.498 300.32 649.708 299.996 649.861C299.674 650.011 299.301 650.087 298.878 650.087ZM298.878 649.405C299.165 649.405 299.412 649.359 299.621 649.266C299.829 649.173 299.99 649.042 300.104 648.873C300.218 648.704 300.275 648.505 300.277 648.278C300.275 648.039 300.213 647.827 300.092 647.643C299.97 647.46 299.804 647.315 299.593 647.21C299.385 647.105 299.146 647.052 298.878 647.052C298.607 647.052 298.366 647.105 298.153 647.21C297.943 647.315 297.776 647.46 297.655 647.643C297.535 647.827 297.476 648.039 297.478 648.278C297.476 648.505 297.531 648.704 297.642 648.873C297.756 649.042 297.918 649.173 298.128 649.266C298.339 649.359 298.589 649.405 298.878 649.405ZM298.878 646.396C299.105 646.396 299.306 646.35 299.482 646.259C299.659 646.168 299.798 646.042 299.9 645.878C300.001 645.715 300.052 645.524 300.054 645.306C300.052 645.091 300.002 644.904 299.903 644.745C299.804 644.584 299.666 644.46 299.491 644.373C299.315 644.285 299.111 644.24 298.878 644.24C298.64 644.24 298.433 644.285 298.255 644.373C298.078 644.46 297.941 644.584 297.844 644.745C297.746 644.904 297.699 645.091 297.701 645.306C297.699 645.524 297.748 645.715 297.847 645.878C297.948 646.042 298.087 646.168 298.265 646.259C298.442 646.35 298.647 646.396 298.878 646.396ZM302.071 648.699V648.068L304.858 643.658H305.316V644.637H305.007L302.901 647.969V648.018H306.654V648.699H302.071ZM305.056 650V648.507V648.213V643.658H305.787V650H305.056Z" fill="#636362"/>
<path d="M28.5137 9.54762C40.0059 -3.12331 40.7917 35.6556 40.7917 35.6556V0.000217666C40.7917 0.000217666 34.9375 -0.176585 28.5137 9.54762Z" fill="#FFFDFC"/>
<rect x="83" y="205" width="110" height="7" fill="#D9D9D9"/>
<rect x="83" y="223" width="170" height="7" fill="#D9D9D9"/>
<rect x="83" y="241" width="192" height="7" fill="#D9D9D9"/>
<rect x="83" y="259" width="145" height="7" fill="#D9D9D9"/>
<rect width="91" height="7" transform="matrix(-1 0 0 1 464 205)" fill="#D9D9D9"/>
<rect width="78" height="7" transform="matrix(-1 0 0 1 451 223)" fill="#D9D9D9"/>
<rect width="95" height="7" transform="matrix(-1 0 0 1 468 241)" fill="#D9D9D9"/>
<rect width="83" height="7" transform="matrix(-1 0 0 1 456 259)" fill="#D9D9D9"/>
<path d="M86.75 180H84.0568V171.273H86.8693C87.7159 171.273 88.4403 171.447 89.0426 171.797C89.6449 172.143 90.1065 172.642 90.4276 173.293C90.7486 173.94 90.9091 174.716 90.9091 175.619C90.9091 176.528 90.7472 177.311 90.4233 177.967C90.0994 178.621 89.6278 179.124 89.0085 179.476C88.3892 179.825 87.6364 180 86.75 180ZM85.1136 179.062H86.6818C87.4034 179.062 88.0014 178.923 88.4759 178.645C88.9503 178.366 89.304 177.97 89.5369 177.456C89.7699 176.942 89.8864 176.33 89.8864 175.619C89.8864 174.915 89.7713 174.308 89.5412 173.8C89.3111 173.288 88.9673 172.896 88.5099 172.624C88.0526 172.348 87.483 172.21 86.8011 172.21H85.1136V179.062ZM95.2898 180.136C94.6591 180.136 94.1151 179.997 93.6577 179.719C93.2031 179.438 92.8523 179.045 92.6051 178.543C92.3608 178.037 92.2386 177.449 92.2386 176.778C92.2386 176.108 92.3608 175.517 92.6051 175.006C92.8523 174.491 93.196 174.091 93.6364 173.804C94.0795 173.514 94.5966 173.369 95.1875 173.369C95.5284 173.369 95.8651 173.426 96.1974 173.54C96.5298 173.653 96.8324 173.838 97.1051 174.094C97.3778 174.347 97.5952 174.682 97.7571 175.099C97.919 175.517 98 176.031 98 176.642V177.068H92.9545V176.199H96.9773C96.9773 175.83 96.9034 175.5 96.7557 175.21C96.6108 174.92 96.4034 174.692 96.1335 174.524C95.8665 174.357 95.5511 174.273 95.1875 174.273C94.7869 174.273 94.4403 174.372 94.1477 174.571C93.858 174.767 93.6349 175.023 93.4787 175.338C93.3224 175.653 93.2443 175.991 93.2443 176.352V176.932C93.2443 177.426 93.3295 177.845 93.5 178.189C93.6733 178.53 93.9134 178.79 94.2202 178.969C94.527 179.145 94.8835 179.233 95.2898 179.233C95.554 179.233 95.7926 179.196 96.0057 179.122C96.2216 179.045 96.4077 178.932 96.5639 178.781C96.7202 178.628 96.8409 178.437 96.9261 178.21L97.8977 178.483C97.7955 178.812 97.6236 179.102 97.3821 179.352C97.1406 179.599 96.8423 179.793 96.4872 179.932C96.1321 180.068 95.733 180.136 95.2898 180.136ZM94.6761 172.568L95.7159 170.591H96.892L95.5625 172.568H94.6761ZM102.376 173.455V174.307H98.9844V173.455H102.376ZM99.973 171.886H100.979V178.125C100.979 178.409 101.02 178.622 101.102 178.764C101.188 178.903 101.295 178.997 101.426 179.045C101.56 179.091 101.7 179.114 101.848 179.114C101.959 179.114 102.05 179.108 102.121 179.097C102.192 179.082 102.249 179.071 102.291 179.062L102.496 179.966C102.428 179.991 102.332 180.017 102.21 180.043C102.088 180.071 101.933 180.085 101.746 180.085C101.462 180.085 101.183 180.024 100.911 179.902C100.641 179.78 100.416 179.594 100.237 179.344C100.061 179.094 99.973 178.778 99.973 178.398V171.886ZM105.815 180.153C105.401 180.153 105.024 180.075 104.686 179.919C104.348 179.76 104.08 179.531 103.881 179.233C103.682 178.932 103.582 178.568 103.582 178.142C103.582 177.767 103.656 177.463 103.804 177.23C103.952 176.994 104.149 176.81 104.396 176.676C104.643 176.543 104.916 176.443 105.214 176.378C105.516 176.31 105.818 176.256 106.122 176.216C106.52 176.165 106.842 176.126 107.089 176.101C107.339 176.072 107.521 176.026 107.635 175.96C107.751 175.895 107.81 175.781 107.81 175.619V175.585C107.81 175.165 107.695 174.838 107.464 174.605C107.237 174.372 106.892 174.256 106.429 174.256C105.949 174.256 105.572 174.361 105.3 174.571C105.027 174.781 104.835 175.006 104.724 175.244L103.77 174.903C103.94 174.506 104.168 174.196 104.452 173.974C104.739 173.75 105.051 173.594 105.389 173.506C105.73 173.415 106.065 173.369 106.395 173.369C106.605 173.369 106.847 173.395 107.119 173.446C107.395 173.494 107.661 173.595 107.916 173.749C108.175 173.902 108.389 174.134 108.56 174.443C108.73 174.753 108.815 175.168 108.815 175.688V180H107.81V179.114H107.759C107.69 179.256 107.577 179.408 107.418 179.57C107.259 179.732 107.047 179.869 106.783 179.983C106.518 180.097 106.196 180.153 105.815 180.153ZM105.969 179.25C106.366 179.25 106.702 179.172 106.974 179.016C107.25 178.859 107.457 178.658 107.597 178.411C107.739 178.163 107.81 177.903 107.81 177.631V176.71C107.767 176.761 107.673 176.808 107.528 176.851C107.386 176.891 107.222 176.926 107.034 176.957C106.849 176.986 106.669 177.011 106.493 177.034C106.32 177.054 106.179 177.071 106.071 177.085C105.81 177.119 105.565 177.175 105.338 177.251C105.114 177.325 104.932 177.437 104.793 177.588C104.656 177.736 104.588 177.937 104.588 178.193C104.588 178.543 104.717 178.807 104.976 178.986C105.237 179.162 105.568 179.25 105.969 179.25ZM110.651 180V173.455H111.657V180H110.651ZM111.162 172.364C110.966 172.364 110.797 172.297 110.655 172.163C110.516 172.03 110.446 171.869 110.446 171.682C110.446 171.494 110.516 171.334 110.655 171.2C110.797 171.067 110.966 171 111.162 171C111.358 171 111.526 171.067 111.665 171.2C111.807 171.334 111.878 171.494 111.878 171.682C111.878 171.869 111.807 172.03 111.665 172.163C111.526 172.297 111.358 172.364 111.162 172.364ZM114.504 171.273V180H113.499V171.273H114.504ZM120.983 174.92L120.079 175.176C120.022 175.026 119.939 174.879 119.828 174.737C119.72 174.592 119.572 174.473 119.385 174.379C119.197 174.286 118.957 174.239 118.664 174.239C118.264 174.239 117.93 174.331 117.663 174.516C117.399 174.697 117.267 174.929 117.267 175.21C117.267 175.46 117.358 175.658 117.539 175.803C117.721 175.947 118.005 176.068 118.392 176.165L119.363 176.403C119.949 176.545 120.385 176.763 120.672 177.055C120.958 177.345 121.102 177.719 121.102 178.176C121.102 178.551 120.994 178.886 120.778 179.182C120.565 179.477 120.267 179.71 119.883 179.881C119.5 180.051 119.054 180.136 118.545 180.136C117.877 180.136 117.325 179.991 116.887 179.702C116.45 179.412 116.173 178.989 116.056 178.432L117.011 178.193C117.102 178.545 117.274 178.81 117.527 178.986C117.782 179.162 118.116 179.25 118.528 179.25C118.997 179.25 119.369 179.151 119.645 178.952C119.923 178.75 120.062 178.509 120.062 178.227C120.062 178 119.983 177.81 119.824 177.656C119.664 177.5 119.42 177.384 119.091 177.307L118 177.051C117.4 176.909 116.96 176.689 116.679 176.391C116.4 176.089 116.261 175.713 116.261 175.261C116.261 174.892 116.365 174.565 116.572 174.281C116.782 173.997 117.068 173.774 117.429 173.612C117.792 173.45 118.204 173.369 118.664 173.369C119.312 173.369 119.821 173.511 120.19 173.795C120.562 174.08 120.826 174.455 120.983 174.92ZM128.462 180.136C127.917 180.136 127.435 179.999 127.018 179.723C126.6 179.445 126.273 179.053 126.038 178.547C125.802 178.038 125.684 177.438 125.684 176.744C125.684 176.057 125.802 175.46 126.038 174.955C126.273 174.449 126.602 174.058 127.022 173.783C127.442 173.507 127.928 173.369 128.479 173.369C128.906 173.369 129.242 173.44 129.489 173.582C129.739 173.722 129.93 173.881 130.06 174.06C130.194 174.236 130.298 174.381 130.371 174.494H130.457V171.273H131.462V180H130.491V178.994H130.371C130.298 179.114 130.192 179.264 130.056 179.446C129.92 179.625 129.725 179.786 129.472 179.928C129.219 180.067 128.883 180.136 128.462 180.136ZM128.599 179.233C129.002 179.233 129.343 179.128 129.621 178.918C129.9 178.705 130.112 178.411 130.256 178.036C130.401 177.658 130.474 177.222 130.474 176.727C130.474 176.239 130.403 175.811 130.261 175.445C130.119 175.075 129.908 174.788 129.63 174.584C129.352 174.376 129.008 174.273 128.599 174.273C128.173 174.273 127.817 174.382 127.533 174.601C127.252 174.817 127.04 175.111 126.898 175.483C126.759 175.852 126.69 176.267 126.69 176.727C126.69 177.193 126.761 177.616 126.903 177.997C127.048 178.375 127.261 178.676 127.542 178.901C127.826 179.122 128.178 179.233 128.599 179.233ZM136.188 180.136C135.558 180.136 135.013 179.997 134.556 179.719C134.102 179.438 133.751 179.045 133.504 178.543C133.259 178.037 133.137 177.449 133.137 176.778C133.137 176.108 133.259 175.517 133.504 175.006C133.751 174.491 134.094 174.091 134.535 173.804C134.978 173.514 135.495 173.369 136.086 173.369C136.427 173.369 136.763 173.426 137.096 173.54C137.428 173.653 137.731 173.838 138.004 174.094C138.276 174.347 138.494 174.682 138.656 175.099C138.817 175.517 138.898 176.031 138.898 176.642V177.068H133.853V176.199H137.876C137.876 175.83 137.802 175.5 137.654 175.21C137.509 174.92 137.302 174.692 137.032 174.524C136.765 174.357 136.45 174.273 136.086 174.273C135.685 174.273 135.339 174.372 135.046 174.571C134.756 174.767 134.533 175.023 134.377 175.338C134.221 175.653 134.143 175.991 134.143 176.352V176.932C134.143 177.426 134.228 177.845 134.398 178.189C134.572 178.53 134.812 178.79 135.119 178.969C135.425 179.145 135.782 179.233 136.188 179.233C136.452 179.233 136.691 179.196 136.904 179.122C137.12 179.045 137.306 178.932 137.462 178.781C137.619 178.628 137.739 178.437 137.825 178.21L138.796 178.483C138.694 178.812 138.522 179.102 138.281 179.352C138.039 179.599 137.741 179.793 137.386 179.932C137.031 180.068 136.631 180.136 136.188 180.136ZM145.065 174.92L144.161 175.176C144.104 175.026 144.021 174.879 143.91 174.737C143.802 174.592 143.654 174.473 143.467 174.379C143.279 174.286 143.039 174.239 142.746 174.239C142.346 174.239 142.012 174.331 141.745 174.516C141.481 174.697 141.349 174.929 141.349 175.21C141.349 175.46 141.44 175.658 141.621 175.803C141.803 175.947 142.087 176.068 142.474 176.165L143.445 176.403C144.031 176.545 144.467 176.763 144.754 177.055C145.04 177.345 145.184 177.719 145.184 178.176C145.184 178.551 145.076 178.886 144.86 179.182C144.647 179.477 144.349 179.71 143.965 179.881C143.582 180.051 143.136 180.136 142.627 180.136C141.96 180.136 141.407 179.991 140.969 179.702C140.532 179.412 140.255 178.989 140.138 178.432L141.093 178.193C141.184 178.545 141.356 178.81 141.609 178.986C141.864 179.162 142.198 179.25 142.61 179.25C143.079 179.25 143.451 179.151 143.727 178.952C144.005 178.75 144.144 178.509 144.144 178.227C144.144 178 144.065 177.81 143.906 177.656C143.746 177.5 143.502 177.384 143.173 177.307L142.082 177.051C141.482 176.909 141.042 176.689 140.761 176.391C140.482 176.089 140.343 175.713 140.343 175.261C140.343 174.892 140.447 174.565 140.654 174.281C140.864 173.997 141.15 173.774 141.511 173.612C141.874 173.45 142.286 173.369 142.746 173.369C143.394 173.369 143.903 173.511 144.272 173.795C144.644 174.08 144.908 174.455 145.065 174.92ZM150.073 182.455V173.455H151.044V174.494H151.164C151.238 174.381 151.34 174.236 151.471 174.06C151.604 173.881 151.794 173.722 152.042 173.582C152.292 173.44 152.63 173.369 153.056 173.369C153.607 173.369 154.093 173.507 154.513 173.783C154.934 174.058 155.262 174.449 155.498 174.955C155.733 175.46 155.851 176.057 155.851 176.744C155.851 177.438 155.733 178.038 155.498 178.547C155.262 179.053 154.935 179.445 154.517 179.723C154.1 179.999 153.618 180.136 153.073 180.136C152.652 180.136 152.316 180.067 152.063 179.928C151.81 179.786 151.615 179.625 151.479 179.446C151.343 179.264 151.238 179.114 151.164 178.994H151.078V182.455H150.073ZM151.061 176.727C151.061 177.222 151.134 177.658 151.279 178.036C151.424 178.411 151.635 178.705 151.914 178.918C152.192 179.128 152.533 179.233 152.936 179.233C153.357 179.233 153.708 179.122 153.989 178.901C154.273 178.676 154.486 178.375 154.628 177.997C154.773 177.616 154.846 177.193 154.846 176.727C154.846 176.267 154.775 175.852 154.632 175.483C154.493 175.111 154.282 174.817 153.998 174.601C153.716 174.382 153.363 174.273 152.936 174.273C152.527 174.273 152.184 174.376 151.905 174.584C151.627 174.788 151.417 175.075 151.275 175.445C151.132 175.811 151.061 176.239 151.061 176.727ZM159.311 180.153C158.897 180.153 158.52 180.075 158.182 179.919C157.844 179.76 157.576 179.531 157.377 179.233C157.178 178.932 157.078 178.568 157.078 178.142C157.078 177.767 157.152 177.463 157.3 177.23C157.448 176.994 157.645 176.81 157.892 176.676C158.14 176.543 158.412 176.443 158.711 176.378C159.012 176.31 159.314 176.256 159.618 176.216C160.016 176.165 160.338 176.126 160.586 176.101C160.836 176.072 161.017 176.026 161.131 175.96C161.248 175.895 161.306 175.781 161.306 175.619V175.585C161.306 175.165 161.191 174.838 160.961 174.605C160.733 174.372 160.388 174.256 159.925 174.256C159.445 174.256 159.069 174.361 158.796 174.571C158.523 174.781 158.331 175.006 158.221 175.244L157.266 174.903C157.436 174.506 157.664 174.196 157.948 173.974C158.235 173.75 158.547 173.594 158.885 173.506C159.226 173.415 159.561 173.369 159.891 173.369C160.101 173.369 160.343 173.395 160.615 173.446C160.891 173.494 161.157 173.595 161.412 173.749C161.671 173.902 161.885 174.134 162.056 174.443C162.226 174.753 162.311 175.168 162.311 175.688V180H161.306V179.114H161.255C161.186 179.256 161.073 179.408 160.914 179.57C160.755 179.732 160.543 179.869 160.279 179.983C160.015 180.097 159.692 180.153 159.311 180.153ZM159.465 179.25C159.863 179.25 160.198 179.172 160.471 179.016C160.746 178.859 160.953 178.658 161.093 178.411C161.235 178.163 161.306 177.903 161.306 177.631V176.71C161.263 176.761 161.169 176.808 161.025 176.851C160.882 176.891 160.718 176.926 160.53 176.957C160.346 176.986 160.165 177.011 159.989 177.034C159.816 177.054 159.675 177.071 159.567 177.085C159.306 177.119 159.061 177.175 158.834 177.251C158.61 177.325 158.428 177.437 158.289 177.588C158.152 177.736 158.084 177.937 158.084 178.193C158.084 178.543 158.213 178.807 158.472 178.986C158.733 179.162 159.064 179.25 159.465 179.25ZM164.147 180V173.455H165.119V174.443H165.187C165.306 174.119 165.522 173.857 165.835 173.655C166.147 173.453 166.499 173.352 166.891 173.352C166.965 173.352 167.058 173.354 167.168 173.357C167.279 173.359 167.363 173.364 167.42 173.369V174.392C167.386 174.384 167.308 174.371 167.185 174.354C167.066 174.334 166.94 174.324 166.806 174.324C166.488 174.324 166.204 174.391 165.954 174.524C165.707 174.655 165.511 174.837 165.366 175.07C165.224 175.3 165.153 175.562 165.153 175.858V180H164.147ZM171.072 180.136C170.481 180.136 169.962 179.996 169.516 179.714C169.073 179.433 168.727 179.04 168.477 178.534C168.229 178.028 168.106 177.437 168.106 176.761C168.106 176.08 168.229 175.484 168.477 174.976C168.727 174.467 169.073 174.072 169.516 173.791C169.962 173.51 170.481 173.369 171.072 173.369C171.663 173.369 172.18 173.51 172.623 173.791C173.069 174.072 173.415 174.467 173.663 174.976C173.913 175.484 174.038 176.08 174.038 176.761C174.038 177.437 173.913 178.028 173.663 178.534C173.415 179.04 173.069 179.433 172.623 179.714C172.18 179.996 171.663 180.136 171.072 180.136ZM171.072 179.233C171.521 179.233 171.89 179.118 172.18 178.888C172.469 178.658 172.684 178.355 172.823 177.98C172.962 177.605 173.032 177.199 173.032 176.761C173.032 176.324 172.962 175.916 172.823 175.538C172.684 175.161 172.469 174.855 172.18 174.622C171.89 174.389 171.521 174.273 171.072 174.273C170.623 174.273 170.254 174.389 169.964 174.622C169.674 174.855 169.46 175.161 169.32 175.538C169.181 175.916 169.112 176.324 169.112 176.761C169.112 177.199 169.181 177.605 169.32 177.98C169.46 178.355 169.674 178.658 169.964 178.888C170.254 179.118 170.623 179.233 171.072 179.233ZM178.044 180.136C177.499 180.136 177.017 179.999 176.6 179.723C176.182 179.445 175.855 179.053 175.62 178.547C175.384 178.038 175.266 177.438 175.266 176.744C175.266 176.057 175.384 175.46 175.62 174.955C175.855 174.449 176.184 174.058 176.604 173.783C177.025 173.507 177.51 173.369 178.061 173.369C178.488 173.369 178.824 173.44 179.071 173.582C179.321 173.722 179.512 173.881 179.642 174.06C179.776 174.236 179.88 174.381 179.953 174.494H180.039V171.273H181.044V180H180.073V178.994H179.953C179.88 179.114 179.775 179.264 179.638 179.446C179.502 179.625 179.307 179.786 179.054 179.928C178.801 180.067 178.465 180.136 178.044 180.136ZM178.181 179.233C178.584 179.233 178.925 179.128 179.203 178.918C179.482 178.705 179.694 178.411 179.838 178.036C179.983 177.658 180.056 177.222 180.056 176.727C180.056 176.239 179.985 175.811 179.843 175.445C179.701 175.075 179.49 174.788 179.212 174.584C178.934 174.376 178.59 174.273 178.181 174.273C177.755 174.273 177.4 174.382 177.115 174.601C176.834 174.817 176.623 175.111 176.48 175.483C176.341 175.852 176.272 176.267 176.272 176.727C176.272 177.193 176.343 177.616 176.485 177.997C176.63 178.375 176.843 178.676 177.124 178.901C177.408 179.122 177.76 179.233 178.181 179.233ZM187.151 177.324V173.455H188.157V180H187.151V178.892H187.083C186.929 179.224 186.691 179.507 186.367 179.74C186.043 179.97 185.634 180.085 185.14 180.085C184.73 180.085 184.367 179.996 184.049 179.817C183.73 179.635 183.48 179.362 183.299 178.999C183.117 178.632 183.026 178.17 183.026 177.614V173.455H184.032V177.545C184.032 178.023 184.165 178.403 184.432 178.688C184.702 178.972 185.046 179.114 185.463 179.114C185.713 179.114 185.968 179.05 186.226 178.922C186.488 178.794 186.706 178.598 186.882 178.334C187.061 178.07 187.151 177.733 187.151 177.324ZM189.999 180V173.455H191.004V180H189.999ZM190.51 172.364C190.314 172.364 190.145 172.297 190.003 172.163C189.864 172.03 189.794 171.869 189.794 171.682C189.794 171.494 189.864 171.334 190.003 171.2C190.145 171.067 190.314 171 190.51 171C190.706 171 190.874 171.067 191.013 171.2C191.155 171.334 191.226 171.494 191.226 171.682C191.226 171.869 191.155 172.03 191.013 172.163C190.874 172.297 190.706 172.364 190.51 172.364ZM195.693 173.455V174.307H192.301V173.455H195.693ZM193.289 171.886H194.295V178.125C194.295 178.409 194.336 178.622 194.419 178.764C194.504 178.903 194.612 178.997 194.743 179.045C194.876 179.091 195.017 179.114 195.164 179.114C195.275 179.114 195.366 179.108 195.437 179.097C195.508 179.082 195.565 179.071 195.608 179.062L195.812 179.966C195.744 179.991 195.649 180.017 195.527 180.043C195.404 180.071 195.25 180.085 195.062 180.085C194.778 180.085 194.5 180.024 194.227 179.902C193.957 179.78 193.733 179.594 193.554 179.344C193.377 179.094 193.289 178.778 193.289 178.398V171.886ZM201.725 174.92L200.821 175.176C200.765 175.026 200.681 174.879 200.57 174.737C200.462 174.592 200.314 174.473 200.127 174.379C199.939 174.286 199.699 174.239 199.407 174.239C199.006 174.239 198.672 174.331 198.405 174.516C198.141 174.697 198.009 174.929 198.009 175.21C198.009 175.46 198.1 175.658 198.282 175.803C198.463 175.947 198.748 176.068 199.134 176.165L200.105 176.403C200.691 176.545 201.127 176.763 201.414 177.055C201.701 177.345 201.844 177.719 201.844 178.176C201.844 178.551 201.736 178.886 201.52 179.182C201.307 179.477 201.009 179.71 200.625 179.881C200.242 180.051 199.796 180.136 199.287 180.136C198.62 180.136 198.067 179.991 197.63 179.702C197.192 179.412 196.915 178.989 196.799 178.432L197.753 178.193C197.844 178.545 198.016 178.81 198.269 178.986C198.525 179.162 198.858 179.25 199.27 179.25C199.739 179.25 200.111 179.151 200.387 178.952C200.665 178.75 200.804 178.509 200.804 178.227C200.804 178 200.725 177.81 200.566 177.656C200.407 177.5 200.162 177.384 199.833 177.307L198.742 177.051C198.142 176.909 197.702 176.689 197.421 176.391C197.142 176.089 197.003 175.713 197.003 175.261C197.003 174.892 197.107 174.565 197.314 174.281C197.525 173.997 197.81 173.774 198.171 173.612C198.534 173.45 198.946 173.369 199.407 173.369C200.054 173.369 200.563 173.511 200.932 173.795C201.304 174.08 201.569 174.455 201.725 174.92Z" fill="#636362"/>
<path d="M83 182.386H202.441V183.205H83V182.386Z" fill="#636362"/>
</svg>
