<svg width="194" height="217" viewBox="0 0 194 217" fill="none" xmlns="http://www.w3.org/2000/svg">
<path d="M101.014 215.676L121.025 204.783C165.973 180.319 194 132.881 194 81.2786V29.1805C194 25.126 190.823 21.7582 186.812 21.6492C139.52 20.3522 110.185 6.5538 100.529 1.2132C98.3324 -0.0020569 95.6676 -0.0020569 93.4714 1.2132C83.8147 6.5538 54.4796 20.3522 7.18801 21.6492C3.17711 21.7582 0 25.126 0 29.1805V81.2786C0 132.881 28.0272 180.314 72.9755 204.783L92.9864 215.676C95.4932 217.039 98.5123 217.039 101.019 215.676H101.014Z" fill="#DADADB"/>
<path opacity="0.87" d="M184.408 35.3223V79.5294C184.408 128.739 157.808 173.785 114.991 197.093L100.795 204.815C99.6122 205.459 98.3043 205.785 96.9964 205.785C95.6885 205.785 94.3806 205.459 93.198 204.815L79.0019 197.093C36.1844 173.785 9.58496 128.739 9.58496 79.5294V35.3223C9.58496 33.2296 11.2416 31.5185 13.3234 31.3713C53.6068 28.6302 81.2689 17.9599 95.2634 11.1206C95.8193 10.8427 96.4079 10.7119 96.9964 10.7119C97.585 10.7119 98.1681 10.8482 98.7294 11.1206C112.724 17.9599 140.392 28.6302 180.669 31.3713C182.757 31.5185 184.408 33.2296 184.408 35.3223Z" fill="#596636"/>
<path d="M184.41 35.3223V79.5294C184.41 128.739 157.81 173.786 114.993 197.093L100.796 204.816C99.6139 205.459 98.3059 205.786 96.998 205.786V10.7065C97.5866 10.7065 98.1697 10.8428 98.731 11.1153C112.726 17.9545 140.393 28.6248 180.671 31.3659C182.758 31.5131 184.41 33.2243 184.41 35.3169V35.3223Z" fill="#596636"/>
<path d="M130.24 90.7554H63.7605C59.8041 90.7554 56.5889 93.9706 56.5889 97.927V150.935C56.5889 154.892 59.8041 158.107 63.7605 158.107H130.24C134.196 158.107 137.412 154.892 137.412 150.935V97.927C137.412 93.9706 134.196 90.7554 130.24 90.7554ZM103.412 127.791V133.088C103.412 136.63 100.54 139.502 96.9976 139.502C93.4553 139.502 90.5834 136.63 90.5834 133.088V127.791C87.8586 125.813 86.0929 122.603 86.0929 118.979C86.0929 112.957 90.9758 108.074 96.9976 108.074C103.019 108.074 107.902 112.957 107.902 118.979C107.902 122.603 106.137 125.818 103.412 127.791Z" fill="white"/>
<path d="M120.73 70.8972V79.2079C120.73 82.0417 118.43 84.3414 115.597 84.3414C112.763 84.3414 110.463 82.0417 110.463 79.2079V71.2242C110.463 63.9272 104.801 57.7092 97.5095 57.4313C89.8473 57.1425 83.5204 63.2896 83.5204 70.8918V85.622H73.2588V71.2787C73.2588 58.3468 83.4495 47.4913 96.3814 47.1643C103.182 46.9953 109.341 49.6765 113.777 54.1125C118.076 58.4122 120.73 64.3359 120.73 70.8918V70.8972Z" fill="white"/>
</svg>
