<svg width="18" height="33" viewBox="0 0 18 33" fill="none" xmlns="http://www.w3.org/2000/svg">
<path d="M16.3539 32.8772C16.0079 32.8772 15.6322 32.761 15.3458 32.5015L2.48839 21.7766C2.19919 21.5469 1.91269 21.2577 1.68022 20.9685C-0.568537 18.2575 -0.192819 14.2222 2.48839 11.9734L15.3458 1.24859C16.008 0.672885 17.0188 0.786403 17.5945 1.4513C18.1432 2.1135 18.0567 3.12438 17.3918 3.67031L4.53444 14.3952C3.18034 15.5195 2.97761 17.5656 4.13172 18.9224C4.24794 19.0657 4.39119 19.2116 4.53444 19.3252L17.4216 30.05C18.0838 30.5987 18.1702 31.6068 17.6243 32.269C17.308 32.6447 16.8459 32.8447 16.4134 32.8447L16.3539 32.8772Z" fill="#8E8925"/>
</svg>
