<svg width="29" height="40" viewBox="0 0 29 40" fill="none" xmlns="http://www.w3.org/2000/svg">
<path d="M0 6.07739V38.2158C0 39.1945 0.794809 39.9893 1.77345 39.9893H26.3693C27.3479 39.9893 28.1427 39.1945 28.1427 38.2158V6.07739H0Z" fill="#806C53"/>
<path d="M28.1427 5.7475V1.77345C28.1427 0.794809 27.3479 0 26.3693 0H1.77345C0.794809 0 0 0.794809 0 1.77345V5.7475H28.1427Z" fill="#806C53"/>
<path d="M9.51129 8.4858V7.85192H12.4978V8.4858H11.3845V11.4883H10.6246V8.4858H9.51129ZM13.7318 9.91158V11.4883H12.9754V7.85192H13.7105V9.24219H13.7425C13.804 9.0812 13.9035 8.95514 14.0408 8.86399C14.1781 8.77166 14.3503 8.7255 14.5575 8.7255C14.7468 8.7255 14.912 8.76693 15.0528 8.84979C15.1949 8.93146 15.305 9.04924 15.3831 9.20312C15.4624 9.35582 15.5015 9.53871 15.5003 9.75178V11.4883H14.7439V9.88672C14.7451 9.71863 14.7025 9.58783 14.616 9.49432C14.5308 9.4008 14.4113 9.35405 14.2574 9.35405C14.1544 9.35405 14.0633 9.37595 13.9839 9.41974C13.9058 9.46354 13.8443 9.52746 13.7993 9.61151C13.7555 9.69437 13.733 9.79439 13.7318 9.91158ZM17.3384 11.5415C17.0579 11.5415 16.8164 11.4847 16.614 11.3711C16.4128 11.2563 16.2577 11.0941 16.1488 10.8846C16.0399 10.6739 15.9855 10.4247 15.9855 10.1371C15.9855 9.85653 16.0399 9.61032 16.1488 9.39844C16.2577 9.18655 16.411 9.02143 16.6087 8.90305C16.8075 8.78468 17.0407 8.7255 17.3083 8.7255C17.4882 8.7255 17.6557 8.7545 17.8107 8.8125C17.967 8.86932 18.1031 8.95514 18.2191 9.06996C18.3363 9.18478 18.4275 9.32919 18.4926 9.5032C18.5577 9.67602 18.5902 9.87843 18.5902 10.1104V10.3182H16.2873V9.84943H17.8782C17.8782 9.74053 17.8545 9.64406 17.8072 9.56001C17.7598 9.47597 17.6941 9.41027 17.6101 9.36293C17.5272 9.31439 17.4308 9.29013 17.3207 9.29013C17.2059 9.29013 17.1041 9.31676 17.0153 9.37003C16.9277 9.42211 16.859 9.49254 16.8093 9.58132C16.7596 9.66892 16.7342 9.76657 16.733 9.87429V10.32C16.733 10.4549 16.7578 10.5715 16.8075 10.6697C16.8584 10.768 16.9301 10.8438 17.0224 10.897C17.1147 10.9503 17.2242 10.9769 17.3509 10.9769C17.4349 10.9769 17.5118 10.9651 17.5817 10.9414C17.6515 10.9177 17.7113 10.8822 17.761 10.8349C17.8107 10.7875 17.8486 10.7295 17.8747 10.6609L18.5742 10.707C18.5387 10.8751 18.4659 11.0219 18.3558 11.1474C18.2469 11.2717 18.1061 11.3687 17.9333 11.4386C17.7616 11.5072 17.5633 11.5415 17.3384 11.5415ZM17.0188 8.40945L17.3953 7.60156H18.0948L17.5533 8.40945H17.0188Z" fill="white"/>
<path d="M8.40422 17.3989C8.19707 17.3989 8.00945 17.3456 7.84136 17.2391C7.67446 17.1314 7.54189 16.9733 7.44364 16.765C7.34657 16.5555 7.29804 16.2986 7.29804 15.9944C7.29804 15.6819 7.34835 15.4221 7.44896 15.2149C7.54958 15.0066 7.68334 14.8509 7.85024 14.748C8.01833 14.6438 8.2024 14.5917 8.40244 14.5917C8.55514 14.5917 8.68239 14.6177 8.78419 14.6698C8.88717 14.7207 8.97003 14.7847 9.03277 14.8616C9.09669 14.9374 9.14522 15.0119 9.17837 15.0853H9.20145V13.7181H9.95607V17.3545H9.21033V16.9177H9.17837C9.14286 16.9935 9.09255 17.0686 9.02744 17.1432C8.96352 17.2166 8.88007 17.2776 8.77709 17.3261C8.67529 17.3746 8.551 17.3989 8.40422 17.3989ZM8.64392 16.797C8.76584 16.797 8.86883 16.7638 8.95287 16.6975C9.0381 16.6301 9.1032 16.536 9.14818 16.4152C9.19435 16.2945 9.21743 16.153 9.21743 15.9909C9.21743 15.8287 9.19494 15.6878 9.14996 15.5683C9.10498 15.4487 9.03987 15.3564 8.95465 15.2913C8.86942 15.2262 8.76584 15.1936 8.64392 15.1936C8.51963 15.1936 8.41487 15.2274 8.32965 15.2948C8.24442 15.3623 8.17991 15.4558 8.13611 15.5754C8.09231 15.6949 8.07041 15.8334 8.07041 15.9909C8.07041 16.1495 8.09231 16.2897 8.13611 16.4117C8.18109 16.5324 8.2456 16.6271 8.32965 16.6958C8.41487 16.7632 8.51963 16.797 8.64392 16.797ZM11.8209 17.4078C11.5403 17.4078 11.2988 17.3509 11.0964 17.2373C10.8952 17.1225 10.7401 16.9603 10.6312 16.7508C10.5223 16.5401 10.4679 16.2909 10.4679 16.0033C10.4679 15.7227 10.5223 15.4765 10.6312 15.2646C10.7401 15.0528 10.8934 14.8876 11.0911 14.7693C11.29 14.6509 11.5232 14.5917 11.7907 14.5917C11.9706 14.5917 12.1381 14.6207 12.2932 14.6787C12.4494 14.7355 12.5855 14.8213 12.7015 14.9362C12.8187 15.051 12.9099 15.1954 12.975 15.3694C13.0401 15.5422 13.0726 15.7446 13.0726 15.9767V16.1844H10.7697V15.7156H12.3606C12.3606 15.6067 12.337 15.5103 12.2896 15.4262C12.2423 15.3422 12.1766 15.2765 12.0925 15.2291C12.0097 15.1806 11.9132 15.1563 11.8031 15.1563C11.6883 15.1563 11.5865 15.183 11.4977 15.2362C11.4101 15.2883 11.3415 15.3588 11.2917 15.4475C11.242 15.5351 11.2166 15.6328 11.2154 15.7405V16.1862C11.2154 16.3211 11.2402 16.4377 11.29 16.536C11.3409 16.6342 11.4125 16.71 11.5048 16.7632C11.5971 16.8165 11.7066 16.8431 11.8333 16.8431C11.9173 16.8431 11.9943 16.8313 12.0641 16.8076C12.1339 16.7839 12.1937 16.7484 12.2434 16.7011C12.2932 16.6537 12.331 16.5957 12.3571 16.5271L13.0567 16.5732C13.0211 16.7413 12.9483 16.8881 12.8383 17.0136C12.7294 17.1379 12.5885 17.2349 12.4157 17.3048C12.244 17.3734 12.0458 17.4078 11.8209 17.4078ZM11.5013 14.2757L11.8777 13.4678H12.5772L12.0357 14.2757H11.5013ZM15.0169 14.6272V15.1954H13.3745V14.6272H15.0169ZM13.7473 13.9738H14.5037V16.5164C14.5037 16.5863 14.5144 16.6407 14.5357 16.6798C14.557 16.7177 14.5866 16.7443 14.6245 16.7597C14.6635 16.7751 14.7085 16.7828 14.7594 16.7828C14.7949 16.7828 14.8304 16.7798 14.866 16.7739C14.9015 16.7668 14.9287 16.7615 14.9476 16.7579L15.0666 17.3208C15.0287 17.3326 14.9754 17.3462 14.9068 17.3616C14.8381 17.3782 14.7547 17.3882 14.6564 17.3918C14.4741 17.3989 14.3143 17.3746 14.177 17.319C14.0409 17.2633 13.935 17.1769 13.8592 17.0597C13.7835 16.9426 13.7462 16.7946 13.7473 16.6159V13.9738ZM16.7125 17.4078C16.4367 17.4078 16.1982 17.3492 15.997 17.232C15.7969 17.1136 15.6425 16.9491 15.5336 16.7384C15.4247 16.5265 15.3702 16.2809 15.3702 16.0015C15.3702 15.7198 15.4247 15.4736 15.5336 15.2629C15.6425 15.051 15.7969 14.8865 15.997 14.7693C16.1982 14.6509 16.4367 14.5917 16.7125 14.5917C16.9884 14.5917 17.2263 14.6509 17.4263 14.7693C17.6276 14.8865 17.7826 15.051 17.8915 15.2629C18.0004 15.4736 18.0549 15.7198 18.0549 16.0015C18.0549 16.2809 18.0004 16.5265 17.8915 16.7384C17.7826 16.9491 17.6276 17.1136 17.4263 17.232C17.2263 17.3492 16.9884 17.4078 16.7125 17.4078ZM16.7161 16.8218C16.8416 16.8218 16.9463 16.7863 17.0304 16.7153C17.1144 16.6431 17.1777 16.5448 17.2204 16.4205C17.2642 16.2963 17.2861 16.1548 17.2861 15.9962C17.2861 15.8376 17.2642 15.6961 17.2204 15.5718C17.1777 15.4475 17.1144 15.3493 17.0304 15.2771C16.9463 15.2049 16.8416 15.1688 16.7161 15.1688C16.5894 15.1688 16.4829 15.2049 16.3965 15.2771C16.3113 15.3493 16.2468 15.4475 16.203 15.5718C16.1603 15.6961 16.139 15.8376 16.139 15.9962C16.139 16.1548 16.1603 16.2963 16.203 16.4205C16.2468 16.5448 16.3113 16.6431 16.3965 16.7153C16.4829 16.7863 16.5894 16.8218 16.7161 16.8218ZM19.0812 14.6272L19.5819 15.5807L20.095 14.6272H20.8709L20.0808 15.9909L20.8922 17.3545H20.1199L19.5819 16.4117L19.0527 17.3545H18.2715L19.0812 15.9909L18.2999 14.6272H19.0812Z" fill="white"/>
<path d="M9.24615 24.6823C8.7379 26.6017 9.32725 28.4238 10.5546 28.8239L12.62 21.011C12.0902 21.3462 9.70573 22.9412 9.24615 24.6823Z" fill="#8FA364"/>
<path d="M13.9014 25.915C14.361 24.174 13.0796 21.6111 12.7822 21.0542L10.7168 28.8671C11.982 29.1321 13.3932 27.8344 13.896 25.915H13.9014Z" fill="#8FA364"/>
<g style="mix-blend-mode:multiply">
<path d="M9.24615 24.6823C8.7379 26.6017 9.32725 28.4238 10.5546 28.8239L12.62 21.011C12.0902 21.3462 9.70573 22.9412 9.24615 24.6823Z" fill="#BAE0E0"/>
</g>
<path d="M15.912 26.5315C14.0034 27.0668 12.7274 28.4942 13.0085 29.754L20.7836 27.5804C20.2267 27.2939 17.6422 26.0449 15.912 26.5315Z" fill="#8FA364"/>
<path d="M17.2042 31.176C18.9344 30.6893 20.497 28.2887 20.8268 27.7534L13.0518 29.927C13.4681 31.1543 15.2956 31.7112 17.2096 31.176H17.2042Z" fill="#EDE8AD"/>
<path d="M16.9776 20.9354C15.6854 21.9357 15.1609 23.428 15.7665 24.3039L21.0219 20.2163C20.5029 20.1731 18.1455 20.0271 16.9776 20.9354Z" fill="#8FA364"/>
<path d="M19.4108 24.0714C20.5787 23.1631 21.022 20.8381 21.1031 20.3245L15.8477 24.4121C16.5451 25.2177 18.1185 25.0717 19.4108 24.066V24.0714Z" fill="#EDE8AD"/>
<g style="mix-blend-mode:multiply">
<path d="M1.77345 0.00537109C0.794809 0.00537109 0 0.80018 0 1.77882V5.74746H14.0687V0.00537109H1.76805H1.77345Z" fill="#E2E1E1"/>
<path d="M0 38.2212C0 39.1998 0.794809 40 1.77345 40H14.0741V6.08276H0.00540802V38.2212H0Z" fill="#E2E1E1"/>
</g>
</svg>
