<svg width="56" height="20" viewBox="0 0 56 20" fill="none" xmlns="http://www.w3.org/2000/svg">
<path d="M9.33665 4.81818V15H7.92472L2.74929 7.53267H2.65483V15H1.11861V4.81818H2.54048L7.72088 12.2955H7.81534V4.81818H9.33665ZM14.6749 15.1541C13.959 15.1541 13.3342 14.9901 12.8006 14.6619C12.267 14.3338 11.8527 13.8748 11.5577 13.2848C11.2627 12.6948 11.1152 12.0054 11.1152 11.2166C11.1152 10.4245 11.2627 9.73177 11.5577 9.13849C11.8527 8.54522 12.267 8.08452 12.8006 7.75639C13.3342 7.42827 13.959 7.2642 14.6749 7.2642C15.3908 7.2642 16.0156 7.42827 16.5492 7.75639C17.0828 8.08452 17.4971 8.54522 17.7921 9.13849C18.0871 9.73177 18.2346 10.4245 18.2346 11.2166C18.2346 12.0054 18.0871 12.6948 17.7921 13.2848C17.4971 13.8748 17.0828 14.3338 16.5492 14.6619C16.0156 14.9901 15.3908 15.1541 14.6749 15.1541ZM14.6799 13.9062C15.1439 13.9062 15.5284 13.7836 15.8333 13.5384C16.1382 13.2931 16.3636 12.9666 16.5094 12.5589C16.6586 12.1513 16.7331 11.7022 16.7331 11.2116C16.7331 10.7244 16.6586 10.277 16.5094 9.86932C16.3636 9.45833 16.1382 9.12855 15.8333 8.87997C15.5284 8.63139 15.1439 8.5071 14.6799 8.5071C14.2125 8.5071 13.8248 8.63139 13.5165 8.87997C13.2116 9.12855 12.9846 9.45833 12.8354 9.86932C12.6896 10.277 12.6167 10.7244 12.6167 11.2116C12.6167 11.7022 12.6896 12.1513 12.8354 12.5589C12.9846 12.9666 13.2116 13.2931 13.5165 13.5384C13.8248 13.7836 14.2125 13.9062 14.6799 13.9062ZM19.8938 15V7.36364H21.3207V8.60653H21.4151C21.5742 8.18561 21.8344 7.85748 22.1957 7.62216C22.5569 7.38352 22.9895 7.2642 23.4933 7.2642C24.0037 7.2642 24.4312 7.38352 24.7759 7.62216C25.1239 7.8608 25.3808 8.18892 25.5465 8.60653H25.6261C25.8084 8.19886 26.0984 7.87405 26.4961 7.6321C26.8938 7.38684 27.3678 7.2642 27.918 7.2642C28.6107 7.2642 29.1758 7.4813 29.6133 7.91548C30.0541 8.34967 30.2745 9.00426 30.2745 9.87926V15H28.788V10.0185C28.788 9.50142 28.6471 9.12689 28.3654 8.89489C28.0837 8.66288 27.7473 8.54688 27.3562 8.54688C26.8723 8.54688 26.4961 8.69602 26.2276 8.99432C25.9592 9.2893 25.8249 9.6688 25.8249 10.1328V15H24.3434V9.92401C24.3434 9.50971 24.2141 9.17661 23.9556 8.92472C23.6971 8.67282 23.3607 8.54688 22.9464 8.54688C22.6647 8.54688 22.4045 8.62145 22.1658 8.7706C21.9305 8.91643 21.7399 9.12026 21.5941 9.3821C21.4516 9.64394 21.3803 9.94721 21.3803 10.2919V15H19.8938Z" fill="#1E1E1E"/>
<path d="M42 4.66675H50.6667M42 7.33341H48M42 10.0001H46M48.6667 10.0001L51.3333 7.33341M51.3333 7.33341L54 10.0001M51.3333 7.33341V15.3334" stroke="#111827" stroke-width="1.33333" stroke-linecap="round" stroke-linejoin="round"/>
</svg>
