<svg width="66" height="62" viewBox="0 0 66 62" fill="none" xmlns="http://www.w3.org/2000/svg">
<path d="M22.3206 5.908C22.3206 2.64841 24.969 0 28.2286 0C31.4881 0 34.1365 2.64841 34.1365 5.908V11.816H28.2286C24.969 11.816 22.3206 9.16758 22.3206 5.908ZM31.9635 5.908C31.9635 3.87076 30.2658 2.17306 28.2286 2.17306C26.1913 2.17306 24.4936 3.87076 24.4936 5.908C24.4936 7.94524 26.1913 9.64293 28.2286 9.64293H31.9635V5.908Z" fill="#715F49"/>
<path d="M37.8036 11.816H31.8956V5.908C31.8956 2.64841 34.544 0 37.8036 0C41.0632 0 43.7116 2.64841 43.7116 5.908C43.7116 9.16758 40.9953 11.816 37.8036 11.816ZM34.0687 9.64293H37.8036C39.8409 9.64293 41.5386 7.94524 41.5386 5.908C41.5386 3.87076 39.8409 2.17306 37.8036 2.17306C35.7664 2.17306 34.0687 3.87076 34.0687 5.908V9.64293Z" fill="#715F49"/>
<path d="M64.4235 24.3111H1.26911C0.725844 24.3111 0.250488 23.8357 0.250488 23.2925V12.6309C0.250488 12.0877 0.725844 11.6123 1.26911 11.6123H64.4235C64.9668 11.6123 65.4422 12.0877 65.4422 12.6309V23.2925C65.4422 23.8357 64.9668 24.3111 64.4235 24.3111Z" fill="#8FA364"/>
<path d="M3.44214 24.311V60.2344C3.44214 61.1851 4.25703 62 5.20775 62H60.5528C61.5035 62 62.3184 61.1851 62.3184 60.2344V24.311H3.44214Z" fill="#688F58"/>
<path d="M30.8091 62H60.2812C61.3677 62 62.2505 61.1172 62.2505 60.0307V30.5586C62.2505 47.943 48.1935 62 30.8091 62Z" fill="#8FA364"/>
<path d="M62.2505 24.311H3.44214V26.2125H62.2505V24.311Z" fill="#6F7A39"/>
<path d="M37.7358 24.3789H27.957V61.9999H37.7358V24.3789Z" fill="#806C53"/>
<path d="M37.7358 24.3789H27.957V26.2803H37.7358V24.3789Z" fill="#715F49"/>
<path d="M37.7358 11.6123H27.957V24.3111H37.7358V11.6123Z" fill="#806C53"/>
<path d="M25.2566 48.2304C24.6582 48.2266 24.0805 48.1262 23.5237 47.9292C22.9706 47.7323 22.4744 47.4122 22.035 46.969C21.5956 46.5258 21.2472 45.9387 20.9896 45.2077C20.7358 44.4766 20.6089 43.5789 20.6089 42.5145C20.6127 41.5372 20.7244 40.6641 20.9441 39.8952C21.1676 39.1224 21.4858 38.4671 21.8987 37.9292C22.3153 37.3914 22.8135 36.9823 23.393 36.702C23.9725 36.4179 24.6222 36.2758 25.3419 36.2758C26.1184 36.2758 26.804 36.4273 27.3987 36.7304C27.9934 37.0296 28.4707 37.4368 28.8305 37.952C29.1941 38.4671 29.4138 39.0448 29.4896 39.6849H27.0635C26.9688 39.2796 26.7699 38.9614 26.4669 38.7304C26.1638 38.4993 25.7888 38.3838 25.3419 38.3838C24.5843 38.3838 24.0085 38.7133 23.6146 39.3724C23.2244 40.0315 23.0256 40.9273 23.018 42.0599H23.0975C23.2718 41.7152 23.5066 41.4217 23.8021 41.1792C24.1013 40.933 24.4403 40.7455 24.8191 40.6167C25.2017 40.4842 25.6051 40.4179 26.0294 40.4179C26.7188 40.4179 27.3324 40.5808 27.8703 40.9065C28.4082 41.2285 28.8324 41.6717 29.143 42.2361C29.4536 42.8005 29.6089 43.4463 29.6089 44.1736C29.6089 44.9614 29.4252 45.6622 29.0578 46.2758C28.6941 46.8895 28.1847 47.3705 27.5294 47.719C26.8778 48.0637 26.1203 48.2342 25.2566 48.2304ZM25.2453 46.2986C25.6241 46.2986 25.9631 46.2077 26.2623 46.0258C26.5616 45.844 26.7964 45.5978 26.9669 45.2872C27.1373 44.9766 27.2225 44.6281 27.2225 44.2417C27.2225 43.8554 27.1373 43.5088 26.9669 43.202C26.8002 42.8952 26.5691 42.6508 26.2737 42.469C25.9782 42.2872 25.6411 42.1963 25.2623 42.1963C24.9782 42.1963 24.715 42.2493 24.4725 42.3554C24.2339 42.4614 24.0237 42.6092 23.8419 42.7986C23.6638 42.988 23.5237 43.2077 23.4214 43.4577C23.3191 43.7039 23.268 43.9671 23.268 44.2474C23.268 44.6224 23.3532 44.9652 23.5237 45.2758C23.6979 45.5864 23.9328 45.8345 24.2282 46.0202C24.5275 46.2058 24.8665 46.2986 25.2453 46.2986ZM35.5635 36.2758C36.1619 36.2758 36.7377 36.3762 37.2907 36.577C37.8475 36.7777 38.3438 37.0978 38.7794 37.5372C39.2188 37.9766 39.5653 38.5599 39.8191 39.2872C40.0767 40.0107 40.2074 40.8989 40.2112 41.952C40.2112 42.9406 40.0994 43.8232 39.876 44.5997C39.6563 45.3724 39.34 46.0296 38.9271 46.5713C38.5142 47.113 38.0161 47.5258 37.4328 47.8099C36.8494 48.0902 36.1979 48.2304 35.4782 48.2304C34.7017 48.2304 34.0161 48.0808 33.4214 47.7815C32.8267 47.4785 32.3475 47.0675 31.9839 46.5486C31.6241 46.0258 31.4063 45.4387 31.3305 44.7872H33.7566C33.8513 45.2114 34.0502 45.541 34.3532 45.7758C34.6563 46.0069 35.0313 46.1224 35.4782 46.1224C36.2358 46.1224 36.8116 45.7929 37.2055 45.1338C37.5994 44.4709 37.7983 43.5637 37.8021 42.4122H37.7225C37.5483 42.7531 37.3135 43.0467 37.018 43.2929C36.7225 43.5353 36.3835 43.7228 36.001 43.8554C35.6222 43.988 35.2188 44.0542 34.7907 44.0542C34.1051 44.0542 33.4934 43.8933 32.9555 43.5713C32.4176 43.2493 31.9934 42.8061 31.6828 42.2417C31.3722 41.6773 31.2169 41.0334 31.2169 40.3099C31.2131 39.5296 31.393 38.8345 31.7566 38.2247C32.1203 37.6148 32.6278 37.1376 33.2794 36.7929C33.9347 36.4444 34.696 36.272 35.5635 36.2758ZM35.5805 38.2077C35.1979 38.2077 34.857 38.2986 34.5578 38.4804C34.2623 38.6622 34.0275 38.9065 33.8532 39.2133C33.6828 39.5202 33.5994 39.863 33.6032 40.2417C33.6032 40.6243 33.6866 40.969 33.8532 41.2758C34.0237 41.5789 34.2547 41.8213 34.5464 42.0031C34.8419 42.1811 35.179 42.2702 35.5578 42.2702C35.8419 42.2702 36.1051 42.2171 36.3475 42.1111C36.59 42.005 36.8002 41.8592 36.9782 41.6736C37.16 41.4842 37.3021 41.2664 37.4044 41.0202C37.5066 40.7739 37.5578 40.5126 37.5578 40.2361C37.554 39.8686 37.4669 39.5315 37.2964 39.2247C37.126 38.9179 36.8911 38.6717 36.5919 38.4861C36.2926 38.3005 35.9555 38.2077 35.5805 38.2077ZM49.5975 40.4406L49.035 41.6849H41.4385L41.8987 40.4406H49.5975ZM48.5123 42.8213L47.893 44.094H41.4385L41.8987 42.8213H48.5123ZM51.0748 37.3327L50.1657 39.2758C50.0142 39.1698 49.8305 39.0542 49.6146 38.9292C49.4025 38.8005 49.1582 38.6925 48.8816 38.6054C48.6089 38.5145 48.3059 38.469 47.9725 38.469C47.446 38.469 46.9877 38.6016 46.5975 38.8667C46.2074 39.1319 45.9044 39.5448 45.6885 40.1054C45.4763 40.666 45.3703 41.3857 45.3703 42.2645C45.3703 43.1508 45.4763 43.8724 45.6885 44.4292C45.9044 44.9823 46.2074 45.3895 46.5975 45.6508C46.9877 45.9084 47.446 46.0372 47.9725 46.0372C48.3059 46.0372 48.6089 45.9936 48.8816 45.9065C49.1544 45.8194 49.393 45.7152 49.5975 45.594C49.8059 45.4728 49.9801 45.3611 50.1203 45.2588L51.0407 47.202C50.6278 47.5429 50.16 47.8005 49.6373 47.9747C49.1146 48.1452 48.5597 48.2304 47.9725 48.2304C46.9801 48.2304 46.1013 47.9955 45.3362 47.5258C44.5748 47.0523 43.9782 46.3724 43.5464 45.4861C43.1146 44.5959 42.8987 43.522 42.8987 42.2645C42.8987 41.0107 43.1146 39.9368 43.5464 39.0429C43.9782 38.1489 44.5748 37.4652 45.3362 36.9917C46.1013 36.5145 46.9801 36.2758 47.9725 36.2758C48.5824 36.2758 49.1468 36.3667 49.6657 36.5486C50.1847 36.7304 50.6544 36.9917 51.0748 37.3327Z" fill="white"/>
</svg>
