<svg width="66" height="62" viewBox="0 0 66 62" fill="none" xmlns="http://www.w3.org/2000/svg">
<path d="M22.3206 5.908C22.3206 2.64841 24.969 0 28.2286 0C31.4881 0 34.1365 2.64841 34.1365 5.908V11.816H28.2286C24.969 11.816 22.3206 9.16758 22.3206 5.908ZM31.9635 5.908C31.9635 3.87076 30.2658 2.17306 28.2286 2.17306C26.1913 2.17306 24.4936 3.87076 24.4936 5.908C24.4936 7.94524 26.1913 9.64293 28.2286 9.64293H31.9635V5.908Z" fill="#715F49"/>
<path d="M37.8036 11.816H31.8956V5.908C31.8956 2.64841 34.544 0 37.8036 0C41.0632 0 43.7116 2.64841 43.7116 5.908C43.7116 9.16758 40.9953 11.816 37.8036 11.816ZM34.0687 9.64293H37.8036C39.8409 9.64293 41.5386 7.94524 41.5386 5.908C41.5386 3.87076 39.8409 2.17306 37.8036 2.17306C35.7664 2.17306 34.0687 3.87076 34.0687 5.908V9.64293Z" fill="#715F49"/>
<path d="M64.4235 24.3111H1.26911C0.725844 24.3111 0.250488 23.8357 0.250488 23.2925V12.6309C0.250488 12.0877 0.725844 11.6123 1.26911 11.6123H64.4235C64.9668 11.6123 65.4422 12.0877 65.4422 12.6309V23.2925C65.4422 23.8357 64.9668 24.3111 64.4235 24.3111Z" fill="#8FA364"/>
<path d="M3.44214 24.311V60.2344C3.44214 61.1851 4.25703 62 5.20775 62H60.5528C61.5035 62 62.3184 61.1851 62.3184 60.2344V24.311H3.44214Z" fill="#688F58"/>
<path d="M30.8091 62H60.2812C61.3677 62 62.2505 61.1172 62.2505 60.0307V30.5586C62.2505 47.943 48.1935 62 30.8091 62Z" fill="#8FA364"/>
<path d="M62.2505 24.311H3.44214V26.2125H62.2505V24.311Z" fill="#6F7A39"/>
<path d="M37.7357 24.3789H27.9569V61.9999H37.7357V24.3789Z" fill="#806C53"/>
<path d="M37.7357 24.3789H27.9569V26.2803H37.7357V24.3789Z" fill="#715F49"/>
<path d="M37.7357 11.6123H27.9569V24.3111H37.7357V11.6123Z" fill="#806C53"/>
<path d="M25.0997 48.2304C24.2512 48.2304 23.4955 48.0845 22.8326 47.7929C22.1735 47.4974 21.6527 47.0921 21.2701 46.577C20.8913 46.058 20.6963 45.4595 20.6849 44.7815H23.1622C23.1773 45.0656 23.2701 45.3156 23.4406 45.5315C23.6148 45.7436 23.8459 45.9084 24.1338 46.0258C24.4216 46.1433 24.7455 46.202 25.1054 46.202C25.4804 46.202 25.8118 46.1357 26.0997 46.0031C26.3876 45.8705 26.6129 45.6868 26.7758 45.452C26.9387 45.2171 27.0201 44.9463 27.0201 44.6395C27.0201 44.3289 26.933 44.0542 26.7588 43.8156C26.5883 43.5732 26.3421 43.3838 26.0201 43.2474C25.7019 43.1111 25.3232 43.0429 24.8838 43.0429H23.7985V41.2361H24.8838C25.255 41.2361 25.5826 41.1717 25.8667 41.0429C26.1546 40.9141 26.3781 40.7361 26.5372 40.5088C26.6963 40.2777 26.7758 40.0088 26.7758 39.702C26.7758 39.4103 26.7057 39.1546 26.5656 38.9349C26.4292 38.7114 26.236 38.5372 25.986 38.4122C25.7398 38.2872 25.4519 38.2247 25.1224 38.2247C24.7891 38.2247 24.4841 38.2853 24.2076 38.4065C23.9311 38.5239 23.7095 38.6925 23.5429 38.9122C23.3762 39.1319 23.2872 39.3895 23.2758 39.6849H20.9179C20.9292 39.0145 21.1205 38.4236 21.4917 37.9122C21.8629 37.4008 22.3629 37.0012 22.9917 36.7133C23.6243 36.4217 24.3383 36.2758 25.1338 36.2758C25.9368 36.2758 26.6394 36.4217 27.2417 36.7133C27.844 37.005 28.3118 37.3989 28.6451 37.8952C28.9823 38.3876 29.1489 38.9406 29.1451 39.5542C29.1489 40.2058 28.9463 40.7493 28.5372 41.1849C28.1319 41.6205 27.6035 41.897 26.9519 42.0145V42.1054C27.808 42.2152 28.4595 42.5126 28.9065 42.9974C29.3573 43.4785 29.5807 44.0808 29.5769 44.8042C29.5807 45.4671 29.3894 46.0561 29.0031 46.5713C28.6205 47.0864 28.0921 47.4917 27.4179 47.7872C26.7436 48.0827 25.9709 48.2304 25.0997 48.2304ZM35.5556 36.2758C36.1541 36.2758 36.7299 36.3762 37.2829 36.577C37.8397 36.7777 38.3359 37.0978 38.7715 37.5372C39.2109 37.9766 39.5575 38.5599 39.8113 39.2872C40.0689 40.0107 40.1996 40.8989 40.2034 41.952C40.2034 42.9406 40.0916 43.8232 39.8681 44.5997C39.6484 45.3724 39.3322 46.0296 38.9193 46.5713C38.5064 47.113 38.0083 47.5258 37.425 47.8099C36.8416 48.0902 36.1901 48.2304 35.4704 48.2304C34.6939 48.2304 34.0083 48.0808 33.4136 47.7815C32.8189 47.4785 32.3397 47.0675 31.9761 46.5486C31.6162 46.0258 31.3984 45.4387 31.3227 44.7872H33.7488C33.8435 45.2114 34.0424 45.541 34.3454 45.7758C34.6484 46.0069 35.0234 46.1224 35.4704 46.1224C36.228 46.1224 36.8037 45.7929 37.1977 45.1338C37.5916 44.4709 37.7905 43.5637 37.7943 42.4122H37.7147C37.5405 42.7531 37.3056 43.0467 37.0102 43.2929C36.7147 43.5353 36.3757 43.7228 35.9931 43.8554C35.6144 43.988 35.2109 44.0542 34.7829 44.0542C34.0973 44.0542 33.4856 43.8933 32.9477 43.5713C32.4098 43.2493 31.9856 42.8061 31.675 42.2417C31.3644 41.6773 31.209 41.0334 31.209 40.3099C31.2053 39.5296 31.3852 38.8345 31.7488 38.2247C32.1125 37.6148 32.62 37.1376 33.2715 36.7929C33.9269 36.4444 34.6882 36.272 35.5556 36.2758ZM35.5727 38.2077C35.1901 38.2077 34.8492 38.2986 34.55 38.4804C34.2545 38.6622 34.0197 38.9065 33.8454 39.2133C33.675 39.5202 33.5916 39.863 33.5954 40.2417C33.5954 40.6243 33.6787 40.969 33.8454 41.2758C34.0159 41.5789 34.2469 41.8213 34.5386 42.0031C34.834 42.1811 35.1712 42.2702 35.55 42.2702C35.834 42.2702 36.0973 42.2171 36.3397 42.1111C36.5822 42.005 36.7924 41.8592 36.9704 41.6736C37.1522 41.4842 37.2943 41.2664 37.3965 41.0202C37.4988 40.7739 37.55 40.5126 37.55 40.2361C37.5462 39.8686 37.459 39.5315 37.2886 39.2247C37.1181 38.9179 36.8833 38.6717 36.584 38.4861C36.2848 38.3005 35.9477 38.2077 35.5727 38.2077ZM49.5897 40.4406L49.0272 41.6849H41.4306L41.8909 40.4406H49.5897ZM48.5045 42.8213L47.8852 44.094H41.4306L41.8909 42.8213H48.5045ZM51.067 37.3327L50.1579 39.2758C50.0064 39.1698 49.8227 39.0542 49.6068 38.9292C49.3947 38.8005 49.1503 38.6925 48.8738 38.6054C48.6011 38.5145 48.2981 38.469 47.9647 38.469C47.4382 38.469 46.9799 38.6016 46.5897 38.8667C46.1996 39.1319 45.8965 39.5448 45.6806 40.1054C45.4685 40.666 45.3625 41.3857 45.3625 42.2645C45.3625 43.1508 45.4685 43.8724 45.6806 44.4292C45.8965 44.9823 46.1996 45.3895 46.5897 45.6508C46.9799 45.9084 47.4382 46.0372 47.9647 46.0372C48.2981 46.0372 48.6011 45.9936 48.8738 45.9065C49.1465 45.8194 49.3852 45.7152 49.5897 45.594C49.7981 45.4728 49.9723 45.3611 50.1125 45.2588L51.0329 47.202C50.62 47.5429 50.1522 47.8005 49.6295 47.9747C49.1068 48.1452 48.5519 48.2304 47.9647 48.2304C46.9723 48.2304 46.0935 47.9955 45.3284 47.5258C44.567 47.0523 43.9704 46.3724 43.5386 45.4861C43.1068 44.5959 42.8909 43.522 42.8909 42.2645C42.8909 41.0107 43.1068 39.9368 43.5386 39.0429C43.9704 38.1489 44.567 37.4652 45.3284 36.9917C46.0935 36.5145 46.9723 36.2758 47.9647 36.2758C48.5746 36.2758 49.139 36.3667 49.6579 36.5486C50.1769 36.7304 50.6465 36.9917 51.067 37.3327Z" fill="white"/>
</svg>
