<svg width="27" height="33" viewBox="0 0 27 33" fill="none" xmlns="http://www.w3.org/2000/svg">
<path d="M10.5622 27.655C10.5689 27.655 10.5752 27.655 10.5822 27.655C11.0935 27.6443 11.4996 27.2211 11.4885 26.7094L11.118 9.00507C11.1076 8.50005 10.6949 8.09804 10.1924 8.09804C10.1858 8.09804 10.1795 8.09804 10.1724 8.09804C9.66112 8.10879 9.25503 8.53192 9.26615 9.0436L9.63667 26.748C9.64741 27.253 10.0598 27.655 10.5622 27.655ZM15.981 27.655C16.4834 27.655 16.8962 27.253 16.9066 26.748L17.2771 9.0436C17.2878 8.53229 16.8821 8.10879 16.3708 8.09804C16.3638 8.09804 16.3575 8.09804 16.3508 8.09804C15.8484 8.09804 15.4356 8.50005 15.4252 9.00507L15.0547 26.7094C15.044 27.2208 15.4497 27.6443 15.961 27.655C15.968 27.655 15.9747 27.655 15.981 27.655ZM23.2691 8.09878C22.7622 8.08248 22.3291 8.48042 22.3105 8.99173L21.5688 29.8251C21.5688 30.4531 21.0589 30.9637 20.4324 30.9637H6.11232C5.48466 30.9637 4.97372 30.4531 4.97298 29.7921L4.23195 8.99136C4.21379 8.48005 3.78177 8.08359 3.27342 8.09841C2.76211 8.11657 2.36232 8.546 2.38085 9.05694L3.12114 29.8247C3.12114 31.4743 4.46315 32.8159 6.11232 32.8159H20.4324C22.0805 32.8159 23.4213 31.4739 23.4206 29.8577L24.1616 9.05694C24.1802 8.54637 23.7804 8.11694 23.2691 8.09878ZM25.1346 4.39362H19.4894V1.74221C19.4894 1.23053 19.0748 0.815918 18.5631 0.815918H7.9812C7.46952 0.815918 7.05491 1.23053 7.05491 1.74221V4.39362H1.40676C0.895076 4.39362 0.480469 4.80823 0.480469 5.31991C0.480469 5.8316 0.895076 6.2462 1.40676 6.2462H25.1346C25.6463 6.2462 26.0609 5.8316 26.0609 5.31991C26.0609 4.80823 25.6459 4.39362 25.1346 4.39362ZM17.6369 4.39362H8.90749V2.6685H17.6369V4.39362Z" fill="#C19663"/>
</svg>
