<svg width="26" height="32" viewBox="0 0 26 32" fill="none" xmlns="http://www.w3.org/2000/svg">
<path d="M23.8288 8.51099C23.5577 8.51099 23.3386 8.73038 23.3386 9.00123L23.3383 21.3768C23.3383 21.8983 23.134 22.39 22.7626 22.762C22.3919 23.134 21.9006 23.3385 21.3794 23.3385L4.22202 23.3393C3.14067 23.3388 2.2608 22.4586 2.2608 21.3768L2.25978 4.22171C2.26003 3.14063 3.1399 2.26075 4.2215 2.26075H16.6009C16.872 2.26075 17.0914 2.04136 17.0914 1.77051C17.0914 1.49967 16.872 1.28027 16.6009 1.28027H4.2215C2.59923 1.28027 1.27955 2.5997 1.2793 4.22171L1.28006 21.3768C1.28006 22.9988 2.59923 24.3187 4.2215 24.3198C4.2215 24.3198 21.3789 24.319 21.3802 24.319C22.1625 24.319 22.9 24.0123 23.4561 23.4547C24.0124 22.8974 24.3188 22.1594 24.3185 21.3768L24.3188 9.00123C24.319 8.73038 24.0999 8.51099 23.8288 8.51099Z" fill="#8E8925"/>
<path d="M8.83646 14.1239L8.19569 16.5214C8.13195 16.7633 8.17163 16.9945 8.30757 17.1708C8.43505 17.3362 8.63499 17.4317 8.85618 17.4317C8.92709 17.4317 9.0003 17.422 9.0771 17.402L11.4751 16.761C11.9231 16.6435 12.5057 16.3074 12.8296 15.981L23.4712 5.33827C23.9013 4.90947 24.1378 4.33859 24.1378 3.73161C24.1378 3.12463 23.901 2.55452 23.4712 2.12649C23.0422 1.69795 22.4723 1.46191 21.8663 1.46191C21.2601 1.46191 20.6895 1.6982 20.2597 2.12726L9.61598 12.7707C9.28984 13.0992 8.95448 13.6808 8.83646 14.1239ZM12.9762 14.4475L11.1517 12.6212L19.3952 4.37801L21.2205 6.20252L12.9762 14.4475ZM20.9524 2.82076C21.1974 2.57654 21.5215 2.44214 21.8666 2.44214C22.2109 2.44214 22.5343 2.57628 22.7787 2.82051C23.0227 3.06396 23.1574 3.38755 23.1574 3.73187C23.1574 4.07619 23.0227 4.40028 22.7782 4.64451L21.9135 5.50927L20.0882 3.68476L20.9524 2.82076ZM10.3105 13.4627L10.459 13.3145L12.2832 15.1408L12.135 15.289C11.9351 15.4902 11.5022 15.7395 11.2242 15.8125L9.25963 16.3381L9.78392 14.3769C9.85714 14.1019 10.1088 13.6659 10.3105 13.4627Z" fill="#8E8925"/>
</svg>
