<svg width="44" height="44" viewBox="0 0 44 44" fill="none" xmlns="http://www.w3.org/2000/svg">
<g id="Group">
<path id="Vector" d="M35.1712 1H8.82881C4.50507 1 1 4.50508 1 8.82882V35.1712C1 39.4949 4.50507 43 8.82881 43H35.1712C39.4949 43 43 39.4949 43 35.1712V8.82882C43 4.50508 39.4949 1 35.1712 1Z" stroke="#6F7A39" stroke-width="2" stroke-linecap="round" stroke-linejoin="round"/>
<path id="Vector_2" d="M26.6781 12.9264H29.0187V7.83545H25.4985C20.5069 7.83545 18.1415 10.8031 18.1415 15.031V19.0355H14.2365V23.8718H18.1415V36.1707H24.0023V23.8718H27.9074L29.0187 19.0355H24.0023V15.7326C24.0023 14.3791 24.7411 12.9202 26.6843 12.9202L26.6781 12.9264Z" fill="#6F7A39"/>
</g>
</svg>
