<svg width="72" height="72" viewBox="0 0 72 72" fill="none" xmlns="http://www.w3.org/2000/svg">
<path d="M57.34 2H14.91C7.94572 2 2.30005 7.64569 2.30005 14.61V57.04C2.30005 64.0043 7.94572 69.65 14.91 69.65H57.34C64.3043 69.65 69.95 64.0043 69.95 57.04V14.61C69.95 7.64569 64.3043 2 57.34 2Z" fill="url(#paint0_linear_48_1824)" stroke="#6F7A39" stroke-width="4" stroke-linecap="round" stroke-linejoin="round"/>
<path d="M43.6651 21.2048C43.6633 21.2066 43.6646 21.2098 43.6672 21.2098H46.3267C46.9361 21.2098 47.4301 20.7158 47.4301 20.1064V17.1098C47.4301 14.8454 45.5945 13.0098 43.3301 13.0098H41.7601C33.7201 13.0098 29.9101 17.7898 29.9101 24.5998V27.9048C29.9101 29.6417 28.502 31.0498 26.7651 31.0498V31.0498C25.0282 31.0498 23.6201 32.4578 23.6201 34.1948V35.6948C23.6201 37.4317 25.0282 38.8398 26.7651 38.8398V38.8398C28.502 38.8398 29.9101 40.2478 29.9101 41.9848V53.9298C29.9101 56.5366 32.0233 58.6498 34.6301 58.6498V58.6498C37.2369 58.6498 39.3501 56.5366 39.3501 53.9298V42.3415C39.3501 40.4075 40.9179 38.8398 42.8518 38.8398V38.8398C44.4836 38.8398 45.8991 37.7126 46.2645 36.1223L46.4228 35.4337C46.9383 33.1902 45.2339 31.0498 42.9319 31.0498V31.0498C40.9537 31.0498 39.3501 29.4461 39.3501 27.468V25.7298C39.3501 23.5514 40.5383 21.2034 43.6629 21.1998C43.6655 21.1998 43.6669 21.2029 43.6651 21.2048V21.2048Z" fill="#6F7A39"/>
<defs>
<linearGradient id="paint0_linear_48_1824" x1="65.5001" y1="4.5" x2="7.00006" y2="68" gradientUnits="userSpaceOnUse">
<stop stop-color="#8E8925" stop-opacity="0.29"/>
<stop offset="0.46875" stop-color="white" stop-opacity="0.82"/>
<stop offset="1" stop-color="#D9D9D9" stop-opacity="0"/>
</linearGradient>
</defs>
</svg>
