<svg width="48" height="48" viewBox="0 0 48 48" fill="none" xmlns="http://www.w3.org/2000/svg">
<g id="1534129544 1">
<g id="Clip path group">
<mask id="mask0_71_66" style="mask-type:luminance" maskUnits="userSpaceOnUse" x="2" y="2" width="43" height="44">
<g id="b">
<path id="Vector" d="M44.5 20H24V28.5H35.8C34.7 33.9 30.1 37 24 37C16.8 37 11 31.2 11 24C11 16.8 16.8 11 24 11C27.1 11 29.9 12.1 32.1 13.9L38.5 7.5C34.6 4.1 29.6 2 24 2C11.8 2 2 11.8 2 24C2 36.2 11.8 46 24 46C35 46 45 38 45 24C45 22.7 44.8 21.3 44.5 20Z" fill="white"/>
</g>
</mask>
<g mask="url(#mask0_71_66)">
<path id="Vector_2" d="M0 37V11L17 24L0 37Z" fill="#FBBC05"/>
</g>
</g>
<g id="Clip path group_2">
<mask id="mask1_71_66" style="mask-type:luminance" maskUnits="userSpaceOnUse" x="2" y="2" width="43" height="44">
<g id="b_2">
<path id="Vector_3" d="M44.5 20H24V28.5H35.8C34.7 33.9 30.1 37 24 37C16.8 37 11 31.2 11 24C11 16.8 16.8 11 24 11C27.1 11 29.9 12.1 32.1 13.9L38.5 7.5C34.6 4.1 29.6 2 24 2C11.8 2 2 11.8 2 24C2 36.2 11.8 46 24 46C35 46 45 38 45 24C45 22.7 44.8 21.3 44.5 20Z" fill="white"/>
</g>
</mask>
<g mask="url(#mask1_71_66)">
<path id="Vector_4" d="M0 11L17 24L24 17.9L48 14V0H0V11Z" fill="#EA4335"/>
</g>
</g>
<g id="Clip path group_3">
<mask id="mask2_71_66" style="mask-type:luminance" maskUnits="userSpaceOnUse" x="2" y="2" width="43" height="44">
<g id="b_3">
<path id="Vector_5" d="M44.5 20H24V28.5H35.8C34.7 33.9 30.1 37 24 37C16.8 37 11 31.2 11 24C11 16.8 16.8 11 24 11C27.1 11 29.9 12.1 32.1 13.9L38.5 7.5C34.6 4.1 29.6 2 24 2C11.8 2 2 11.8 2 24C2 36.2 11.8 46 24 46C35 46 45 38 45 24C45 22.7 44.8 21.3 44.5 20Z" fill="white"/>
</g>
</mask>
<g mask="url(#mask2_71_66)">
<path id="Vector_6" d="M0 37L30 14L37.9 15L48 0V48H0V37Z" fill="#34A853"/>
</g>
</g>
<g id="Clip path group_4">
<mask id="mask3_71_66" style="mask-type:luminance" maskUnits="userSpaceOnUse" x="2" y="2" width="43" height="44">
<g id="b_4">
<path id="Vector_7" d="M44.5 20H24V28.5H35.8C34.7 33.9 30.1 37 24 37C16.8 37 11 31.2 11 24C11 16.8 16.8 11 24 11C27.1 11 29.9 12.1 32.1 13.9L38.5 7.5C34.6 4.1 29.6 2 24 2C11.8 2 2 11.8 2 24C2 36.2 11.8 46 24 46C35 46 45 38 45 24C45 22.7 44.8 21.3 44.5 20Z" fill="white"/>
</g>
</mask>
<g mask="url(#mask3_71_66)">
<path id="Vector_8" d="M48 48L17 24L13 21L48 11V48Z" fill="#4285F4"/>
</g>
</g>
</g>
</svg>
