<svg width="47" height="40" viewBox="0 0 47 40" fill="none" xmlns="http://www.w3.org/2000/svg">
<path d="M32.2527 10.3864L22.7443 10.4172L13.1846 10.448C15.3614 7.92197 18.0723 6.07369 21.0552 5.55514C21.6097 5.45759 22.1693 5.40625 22.7392 5.40625C23.3091 5.40625 23.8738 5.45759 24.4283 5.55514C27.3856 6.06855 30.0759 7.88603 32.2425 10.3812L32.2527 10.3864Z" fill="#8FA364"/>
<path d="M37.5668 24.0381C37.5668 26.9184 36.771 29.6086 35.4002 31.9036C34.399 33.5671 33.095 35.02 31.5599 36.1752C29.0955 38.0389 26.051 39.1376 22.7446 39.1376C19.4382 39.1376 16.3937 38.0389 13.9293 36.1752C12.5636 35.1432 11.3776 33.8802 10.4329 32.4427C10.0273 31.8266 9.66282 31.1746 9.34964 30.4969C8.4409 28.5407 7.93262 26.3485 7.93262 24.0381C7.93262 20.6085 9.05186 16.8555 10.9464 13.621C11.3006 13.01 11.6857 12.4196 12.0913 11.8548C12.348 11.4903 12.6201 11.1412 12.9025 10.8023L22.7548 10.7715L32.5508 10.7407C35.0922 13.8058 36.8634 17.8053 37.4025 21.6405C37.5155 22.4517 37.5771 23.2526 37.5771 24.0433L37.5668 24.0381Z" fill="#8FA364"/>
<path d="M36.8169 31.8522C33.7159 32.4375 29.203 29.5829 28.4072 27.5087L29.5573 20.9884C28.6639 19.3762 31.0462 23.8481 37.1712 20.3877C42.4439 17.4099 40.4724 12.1114 40.3389 11.865L44.0869 11.1565C44.2717 11.4902 49.4161 19.7202 44.821 26.9542C43.2705 29.3929 40.7343 31.1129 36.8169 31.8573V31.8522Z" fill="#8FA364"/>
<path d="M12.0857 11.8548C11.0897 11.3824 10.0013 11.1206 8.86664 11.1206C3.97895 11.1206 0 15.9416 0 21.8663C0 27.7911 3.97895 32.6121 8.86664 32.6121C9.40059 32.6121 9.92427 32.5505 10.4325 32.4426C14.5758 31.539 17.7281 27.1391 17.7281 21.8663C17.7281 17.3226 15.387 13.4207 12.0857 11.8548ZM9.34412 30.4968C9.19009 30.5122 9.0258 30.5225 8.86664 30.5225C5.12899 30.5225 2.08446 26.6411 2.08446 21.8663C2.08446 17.0916 5.12386 13.2102 8.86664 13.2102C9.59055 13.2102 10.2837 13.354 10.9408 13.6261C13.6671 14.7453 15.6437 18.0209 15.6437 21.8715C15.6437 26.4408 12.861 30.1888 9.34925 30.5019L9.34412 30.4968Z" fill="#8FA364"/>
<path d="M25.0497 3.31664C25.0497 4.18431 24.8186 4.97496 24.4336 5.56025C24.0177 6.21229 23.4119 6.62302 22.7444 6.62302C22.077 6.62302 21.4763 6.21229 21.0604 5.56025C20.6754 4.96983 20.4443 4.17917 20.4443 3.31664C20.4443 1.48889 21.4712 0.00512695 22.7444 0.00512695C24.0177 0.00512695 25.0497 1.48889 25.0497 3.31664Z" fill="#8FA364"/>
<path d="M31.9393 37.4535C31.9393 38.8603 30.6814 40 29.1206 40H16.3675C14.8118 40 13.5488 38.8603 13.5488 37.4535C13.5488 36.9863 13.6875 36.5499 13.9288 36.1751C14.052 35.9852 14.2009 35.8106 14.3754 35.6514C14.8837 35.1945 15.5871 34.907 16.3675 34.907H29.1206C30.1629 34.907 31.0716 35.4153 31.5594 36.1751C31.8007 36.5499 31.9393 36.9863 31.9393 37.4535Z" fill="#8FA364"/>
<path d="M23.9093 22.3488C21.486 24.5102 20.644 27.5342 21.9635 29.1874L31.8262 20.3772C30.7993 20.3567 26.1067 20.3875 23.9093 22.3488Z" fill="#EDE8AD"/>
<path d="M29.1565 28.2375C31.3539 26.2763 31.9136 21.6145 32.0111 20.5876L22.1484 29.3978C23.6373 30.897 26.7332 30.399 29.1565 28.2375Z" fill="#EDE8AD"/>
<g style="mix-blend-mode:multiply">
<path d="M23.9093 22.3488C21.486 24.5102 20.644 27.5342 21.9635 29.1874L31.8262 20.3772C30.7993 20.3567 26.1067 20.3875 23.9093 22.3488Z" fill="#EDE8AD"/>
</g>
<path d="M15.1661 23.8787C15.9311 25.8399 17.574 27.0362 18.873 26.6049L15.7617 18.6213C15.5204 19.2426 14.473 22.0971 15.1661 23.8735V23.8787Z" fill="#EDE8AD"/>
<path d="M19.9201 22.0202C19.227 20.2438 16.5265 18.8473 15.9258 18.5598L19.0371 26.5434C20.2847 25.9786 20.68 23.9815 19.915 22.0254L19.9201 22.0202Z" fill="#EDE8AD"/>
<g style="mix-blend-mode:multiply">
<path d="M15.1661 23.8787C15.9311 25.8399 17.574 27.0362 18.873 26.6049L15.7617 18.6213C15.5204 19.2426 14.473 22.0971 15.1661 23.8735V23.8787Z" fill="#EDE8AD"/>
</g>
<g style="mix-blend-mode:multiply">
<path d="M22.7443 0.00513327V10.4171L13.1846 10.448C15.3614 7.92196 18.0723 6.07367 21.0552 5.55513C20.6701 4.9647 20.4391 4.17405 20.4391 3.31151C20.4391 1.48376 21.4659 0 22.7392 0L22.7443 0.00513327Z" fill="#BAE0E0"/>
</g>
<g style="mix-blend-mode:multiply">
<path d="M12.8969 10.7972C12.6146 11.136 12.3424 11.4903 12.0857 11.8497C11.0897 11.3773 10.0013 11.1155 8.86664 11.1155C3.97895 11.1155 0 15.9364 0 21.8612C0 27.786 3.97895 32.6069 8.86664 32.6069C9.40059 32.6069 9.92427 32.5453 10.4325 32.4375C11.3772 33.8751 12.5632 35.1381 13.9289 36.17C13.6876 36.5448 13.549 36.9812 13.549 37.4484C13.549 38.8552 14.8068 39.995 16.3676 39.995H22.7442V10.7612L12.8918 10.792L12.8969 10.7972ZM8.86664 30.5225C5.12899 30.5225 2.08446 26.6411 2.08446 21.8664C2.08446 17.0916 5.12386 13.2102 8.86664 13.2102C9.59055 13.2102 10.2837 13.354 10.9408 13.6261C9.05147 16.8606 7.92709 20.6136 7.92709 24.0432C7.92709 26.3484 8.44051 28.5459 9.34412 30.502C9.19009 30.5174 9.0258 30.5276 8.86664 30.5276V30.5225Z" fill="#BAE0E0"/>
</g>
</svg>
