<svg width="44" height="44" viewBox="0 0 44 44" fill="none" xmlns="http://www.w3.org/2000/svg">
<g id="Group">
<g id="Group_2">
<path id="Vector" d="M8.77294 15.9124C9.00265 14.7018 9.21994 13.4911 9.87804 12.4109C11.3805 9.95855 13.7335 9.01487 16.4403 8.95279C20.1344 8.85966 23.8346 8.86587 27.5348 8.95279C30.043 9.01487 32.278 9.8406 33.8053 12.0135C34.7862 13.4166 35.1525 15.0184 35.1774 16.6761C35.2332 20.2273 35.2581 23.7847 35.1774 27.3359C35.1091 30.198 34.1157 32.6379 31.4399 34.0907C30.2044 34.7612 28.8448 35.053 27.4603 35.0716C23.8097 35.1151 20.1592 35.1523 16.5086 35.0716C13.7707 35.0096 11.3929 34.0845 9.87182 31.6073C9.21373 30.5333 8.99644 29.3164 8.76672 28.1058V15.9186L8.77294 15.9124ZM22.0093 11.4548C20.1964 11.4548 18.3836 11.4175 16.5707 11.461C13.7397 11.5293 12.0013 12.8517 11.486 15.2916C11.3743 15.8069 11.2936 16.3408 11.2936 16.8685C11.2749 20.3018 11.2315 23.7351 11.2998 27.1683C11.3681 30.5829 13.094 32.4082 16.3907 32.5324C20.1095 32.669 23.8346 32.6566 27.5534 32.5324C30.2976 32.4393 31.9304 31.1231 32.4519 28.7515C32.545 28.3293 32.6319 27.8947 32.6381 27.4601C32.6568 23.5488 32.874 19.6313 32.5202 15.7262C32.3091 13.4104 30.7632 11.9018 28.4537 11.5852C26.3117 11.2934 24.1574 11.4982 22.0093 11.4548Z" fill="#6F7A39"/>
<path id="Vector_2" d="M28.8324 22.0528C28.82 25.7406 25.7592 28.7703 22.0031 28.8138C18.2346 28.8573 15.1055 25.7468 15.118 21.9659C15.1304 18.2471 18.3029 15.1304 22.0155 15.2049C25.8275 15.2794 28.8386 18.3091 28.8262 22.0528H28.8324ZM26.2869 22.0156C26.2869 19.6688 24.3561 17.7442 21.9845 17.7318C19.6253 17.7193 17.6634 19.6502 17.6572 21.9907C17.6572 24.3375 19.588 26.2621 21.9596 26.2745C24.3188 26.287 26.2807 24.3561 26.2869 22.0156Z" fill="#6F7A39"/>
<path id="Vector_3" d="M29.0186 13.4108C29.925 13.3984 30.6949 14.1496 30.6949 15.0498C30.6949 15.9066 29.9499 16.6454 29.0745 16.6702C28.168 16.6951 27.3796 15.9563 27.3672 15.0622C27.3485 14.162 28.0935 13.4232 29.0248 13.4108H29.0186Z" fill="#6F7A39"/>
</g>
<path id="Vector_4" d="M35.1712 1H8.82882C4.50508 1 1 4.50508 1 8.82882V35.1712C1 39.4949 4.50508 43 8.82882 43H35.1712C39.4949 43 43 39.4949 43 35.1712V8.82882C43 4.50508 39.4949 1 35.1712 1Z" stroke="#6F7A39" stroke-width="2" stroke-linecap="round" stroke-linejoin="round"/>
</g>
</svg>
