<svg width="72" height="72" viewBox="0 0 72 72" fill="none" xmlns="http://www.w3.org/2000/svg">
<path d="M14.5157 26.0242C14.5185 26.0214 14.5204 26.0179 14.5211 26.014C14.8907 24.066 15.2411 22.1182 16.3 20.38C18.72 16.43 22.51 14.91 26.87 14.81C32.82 14.66 38.78 14.67 44.74 14.81C48.78 14.91 52.38 16.24 54.84 19.74C56.42 22 57.01 24.58 57.05 27.25C57.14 32.97 57.18 38.7 57.05 44.42C56.94 49.03 55.34 52.96 51.03 55.3C49.04 56.38 46.85 56.85 44.62 56.88C38.74 56.95 32.86 57.01 26.98 56.88C22.57 56.78 18.74 55.29 16.29 51.3C15.7836 50.4735 15.4393 49.5945 15.1773 48.6892C14.6037 46.7063 14.51 44.621 14.51 42.5569V26.0381C14.51 26.0329 14.5121 26.0279 14.5157 26.0242V26.0242ZM35.84 18.84C32.92 18.84 30 18.78 27.08 18.85C22.52 18.96 19.72 21.09 18.89 25.02C18.71 25.85 18.58 26.71 18.58 27.56C18.55 33.09 18.48 38.62 18.59 44.15C18.7 49.65 21.48 52.59 26.79 52.79C32.78 53.01 38.78 52.99 44.77 52.79C49.19 52.64 51.82 50.52 52.66 46.7C52.81 46.02 52.95 45.32 52.96 44.62C52.99 38.32 53.34 32.01 52.77 25.72C52.43 21.99 49.94 19.56 46.22 19.05C42.77 18.58 39.3 18.91 35.84 18.84Z" fill="#6F7A39"/>
<path d="M46.8251 35.91C46.8278 35.91 46.83 35.9123 46.83 35.9151C46.8073 41.8528 41.8783 46.7301 35.83 46.8C29.76 46.87 24.72 41.86 24.74 35.77C24.76 29.78 29.8701 24.76 35.8501 24.88C41.9884 25 46.8374 29.8773 46.8201 35.905C46.8201 35.9078 46.8223 35.91 46.8251 35.91V35.91ZM42.73 35.85C42.73 32.07 39.62 28.97 35.8 28.95C32 28.93 28.84 32.04 28.83 35.81C28.83 39.59 31.94 42.69 35.76 42.71C39.56 42.73 42.72 39.62 42.73 35.85Z" fill="#6F7A39"/>
<path d="M47.13 21.99C48.59 21.97 49.83 23.18 49.83 24.63C49.83 26.01 48.63 27.2 47.22 27.24C45.76 27.28 44.49 26.09 44.47 24.65C44.44 23.2 45.64 22.01 47.14 21.99H47.13Z" fill="#6F7A39"/>
<path d="M57.04 2H14.61C7.64567 2 2 7.64569 2 14.61V57.04C2 64.0043 7.64567 69.65 14.61 69.65H57.04C64.0043 69.65 69.65 64.0043 69.65 57.04V14.61C69.65 7.64569 64.0043 2 57.04 2Z" fill="url(#paint0_linear_48_1812)" stroke="#6F7A39" stroke-width="4" stroke-linecap="round" stroke-linejoin="round"/>
<defs>
<linearGradient id="paint0_linear_48_1812" x1="66.5" y1="5" x2="7.5" y2="64" gradientUnits="userSpaceOnUse">
<stop offset="0.0614362" stop-color="#8E8925" stop-opacity="0.29"/>
<stop offset="0.478058" stop-color="white" stop-opacity="0.82"/>
<stop offset="1" stop-color="#D9D9D9" stop-opacity="0"/>
</linearGradient>
</defs>
</svg>
