<svg width="52" height="82" viewBox="0 0 52 82" fill="none" xmlns="http://www.w3.org/2000/svg">
<path d="M26 0.0078125C11.7058 0.0078125 0 10.5957 0 26.0078C0 31.6691 2.34317 38.9867 4.75 43.4766L25.125 81.4767C25.2115 81.633 25.3383 81.7632 25.4921 81.8539C25.646 81.9446 25.8214 81.9924 26 81.9924C26.1786 81.9924 26.354 81.9446 26.5079 81.8539C26.6617 81.7632 26.7885 81.633 26.875 81.4767L47.25 43.4766C49.6569 38.9866 52 31.6691 52 26.0078C52 10.5957 40.2942 0.0078125 26 0.0078125ZM26 2.00781C39.32 2.00781 50 11.5965 50 26.0078C50 31.0951 47.7254 38.3564 45.5 42.5078L26 78.8828L6.5 42.5078C4.27465 38.3565 2 31.0951 2 26.0078C2 11.5965 12.68 2.00781 26 2.00781ZM26 14.0078C19.3844 14.0078 14 19.3923 14 26.0078C14 32.6233 19.3844 38.0078 26 38.0078C32.6156 38.0078 38 32.6233 38 26.0078C38 19.3923 32.6156 14.0078 26 14.0078ZM26 16.0078C31.5347 16.0078 36 20.4733 36 26.0078C36 31.5425 31.5347 36.0078 26 36.0078C20.4653 36.0078 16 31.5425 16 26.0078C16 20.4733 20.4653 16.0078 26 16.0078Z" fill="black"/>
</svg>
