<svg width="31" height="24" viewBox="0 0 31 24" fill="none" xmlns="http://www.w3.org/2000/svg">
<path d="M29.091 0C30.1453 0 31 0.839438 31 1.875C31 2.91056 30.1453 3.75 29.091 3.75H2.36494C1.31063 3.75 0.455933 2.91056 0.455933 1.875C0.455933 0.839438 1.31063 0 2.36494 0H29.091ZM29.091 10.125C30.1453 10.125 31 10.9644 31 12C31 13.0356 30.1453 13.875 29.091 13.875H2.36494C1.31063 13.875 0.455933 13.0356 0.455933 12C0.455933 10.9644 1.31063 10.125 2.36494 10.125H29.091ZM29.091 20.25C30.1453 20.25 31 21.0894 31 22.125C31 23.1606 30.1453 24 29.091 24H2.36494C1.31063 24 0.455933 23.1606 0.455933 22.125C0.455933 21.0894 1.31063 20.25 2.36494 20.25H29.091Z" fill="#58694B"/>
</svg>
