<svg width="44" height="44" viewBox="0 0 44 44" fill="none" xmlns="http://www.w3.org/2000/svg">
<g id="Group">
<path id="Vector" d="M34.4009 14.1074C34.4009 13.9803 34.3977 13.9738 34.2641 13.977C33.9415 13.977 33.6222 13.9412 33.3062 13.8923C32.1561 13.7196 28.4222 11.7615 27.7902 8.55875C27.7771 8.49685 27.637 7.70186 27.637 7.36301C27.637 7.21314 27.637 7.20988 27.4872 7.20988C27.4513 7.20988 27.4187 7.20988 27.3829 7.20988C25.9233 7.20988 24.4604 7.20988 23.0007 7.20988C22.7075 7.20988 22.7466 7.17404 22.7466 7.46727C22.7466 13.8011 22.7466 20.1349 22.7466 26.4687C22.7466 26.7066 22.7401 26.9412 22.6977 27.1725C22.4761 28.3976 21.8506 29.3587 20.7884 30.0136C19.8696 30.5805 18.8694 30.7434 17.8072 30.5316C17.4716 30.4665 17.1589 30.3394 16.8461 30.2156C16.82 30.1928 16.7939 30.17 16.7711 30.1472C16.6669 30.0592 16.5496 29.9843 16.4355 29.9061C15.0834 28.971 14.4416 27.671 14.6371 26.0452C14.8358 24.3966 15.7839 23.2758 17.3478 22.6991C17.8137 22.5264 18.3057 22.4547 18.8042 22.484C19.1268 22.5003 19.4461 22.5427 19.7556 22.6307C19.8631 22.66 19.9218 22.6241 19.9283 22.5101C19.9283 22.471 19.9283 22.4286 19.9283 22.3895C19.9283 21.2525 19.8859 18.7698 19.8794 18.7632C19.8794 18.4374 19.8794 18.1084 19.8892 17.7825C19.8892 17.6881 19.8436 17.6718 19.7654 17.662C19.1756 17.5936 18.5859 17.5773 17.9929 17.6229C17.1751 17.6815 16.3802 17.851 15.608 18.1279C14.3764 18.571 13.298 19.2552 12.3661 20.1675C11.5646 20.9527 10.9358 21.8585 10.4764 22.8815C10.0333 23.859 9.78243 24.8853 9.71075 25.954C9.68143 26.4166 9.68469 26.8825 9.7303 27.3484C9.78895 27.9903 9.91276 28.6191 10.1082 29.2349C10.6686 31.0008 11.6917 32.4474 13.1416 33.5976C13.2882 33.7148 13.4315 33.8419 13.6075 33.9168C13.6824 33.982 13.7541 34.0472 13.829 34.1123C14.0636 34.2883 14.3145 34.4414 14.5784 34.5685C16.201 35.37 17.9115 35.6958 19.7132 35.4775C22.0526 35.1908 24.001 34.1547 25.5323 32.3692C26.9756 30.688 27.6761 28.7169 27.6892 26.5111C27.7087 23.3572 27.6924 20.2033 27.6957 17.0462C27.6957 16.9713 27.6533 16.8637 27.7348 16.8247C27.7999 16.7953 27.8651 16.88 27.927 16.9224C29.0999 17.6946 30.3674 18.2517 31.739 18.5645C32.5373 18.747 33.342 18.8577 34.1631 18.8577C34.4205 18.8577 34.4563 18.8447 34.4563 18.5873C34.4563 17.4665 34.3977 14.4039 34.4009 14.1074Z" fill="#6F7A39"/>
<path id="Vector_2" d="M35.1712 1H8.82881C4.50507 1 1 4.50508 1 8.82882V35.1712C1 39.4949 4.50507 43 8.82881 43H35.1712C39.4949 43 43 39.4949 43 35.1712V8.82882C43 4.50508 39.4949 1 35.1712 1Z" stroke="#6F7A39" stroke-width="2" stroke-linecap="round" stroke-linejoin="round"/>
</g>
</svg>
