<svg width="59" height="72" viewBox="0 0 59 72" fill="none" xmlns="http://www.w3.org/2000/svg">
<rect x="-27" y="-8" width="112" height="94.9369" rx="13" fill="url(#paint0_linear_193_959)"/>
<path d="M6.91461 63.2201C7.54112 64.5237 8.71925 65.5516 9.92484 66.2489C10.1994 66.4071 10.4715 66.5652 10.746 66.7234C11.2827 67.0349 11.8193 67.344 12.356 67.6555C12.673 67.8376 12.9875 68.0197 13.302 68.2042C13.5541 68.3504 13.9684 68.3001 14.0433 67.979C14.1232 67.6315 13.8411 67.3943 13.5965 67.2026C13.3769 67.0301 13.1772 66.8336 12.9625 66.6587C12.5132 66.2873 12.0864 65.8943 11.6396 65.5205C11.5398 65.439 11.4474 65.3456 11.3426 65.2665C11.4599 65.3479 11.5772 65.4294 11.6945 65.5109C11.9816 65.7098 12.2686 65.9087 12.5532 66.1075C12.9151 66.3591 13.2745 66.6083 13.6365 66.8599C13.9784 67.0972 14.3204 67.3368 14.6623 67.574C14.9119 67.7465 15.154 67.9287 15.4136 68.0868C15.6358 68.2234 16.0127 68.2977 16.2099 68.0748C16.3147 67.955 16.3047 67.7897 16.2872 67.6411C16.2698 67.4806 16.1225 67.2481 15.9977 67.1379C15.8729 67.0277 15.7531 66.9151 15.6358 66.7977C15.3213 66.4766 14.9544 66.1794 14.6049 65.8943C14.218 65.578 13.8336 65.2593 13.4443 64.9478C13.1173 64.689 12.7928 64.4302 12.4683 64.169C12.316 64.0468 12.1638 63.9198 12.004 63.8072C12.0015 63.8072 11.9966 63.8024 11.9941 63.8024C11.9941 63.8024 16.5593 67.2433 16.5743 67.2529C16.8788 67.483 17.6276 67.8688 17.9496 67.3656C18.0619 67.1882 17.997 66.8072 17.9022 66.6371C17.7973 66.4478 17.6151 66.316 17.4529 66.1746C17.1159 65.8799 16.7939 65.5756 16.4445 65.2928C15.7281 64.713 15.0168 64.1307 14.2779 63.5748C14.1157 63.4526 13.9559 63.3208 13.7887 63.2034C14.3104 63.6467 14.9369 64.0516 15.516 64.4278C16.1999 64.8759 16.6367 65.2473 17.1733 65.5516C17.3131 65.6307 17.5028 65.7721 17.6701 65.7721C17.9097 65.7745 18.2242 65.717 18.344 65.542C18.5162 65.2952 18.3315 64.8352 18.0994 64.6411C16.7515 63.522 15.803 62.772 14.5625 62.034C14.5625 62.034 13.5067 61.4182 13.4193 61.3151C13.4193 61.3151 15.4486 62.3815 16.779 62.1442C16.779 62.1442 18.5287 61.2984 15.6857 60.7281C15.6857 60.7281 14.0807 60.0404 13.0823 59.5707C13.0823 59.5707 11.1579 58.5763 8.84655 59.24C8.84655 59.24 6.98949 58.1426 6.50776 57.7544L4.72559 59.9685C4.72559 59.9685 6.45784 62.2545 6.91961 63.2153L6.91461 63.2201Z" fill="#E1AB81"/>
<path d="M51.8495 61.0422C51.9743 62.4703 51.4776 63.9248 50.7887 65.1013C50.6315 65.3697 50.4742 65.6357 50.3195 65.9017C50.0124 66.4264 49.7054 66.9512 49.3984 67.476C49.2162 67.7851 49.0365 68.0918 48.8568 68.4009C48.712 68.6477 48.3251 68.8011 48.0955 68.5567C47.8484 68.2931 47.9707 67.9504 48.0855 67.6701C48.1878 67.4185 48.2602 67.1525 48.3551 66.8961C48.5548 66.3617 48.7245 65.8154 48.9217 65.2811C48.9666 65.1636 48.9991 65.0366 49.049 64.9192C48.9891 65.0462 48.9292 65.1708 48.8693 65.2978C48.722 65.6069 48.5747 65.9161 48.4275 66.2252C48.2428 66.6133 48.0556 67.0039 47.8733 67.3921C47.6986 67.7611 47.5239 68.1301 47.3467 68.4992C47.2194 68.7675 47.1021 69.0407 46.9573 69.2995C46.835 69.5223 46.5455 69.7668 46.2584 69.6661C46.1061 69.611 46.0288 69.4624 45.9689 69.3258C45.9015 69.1773 45.9115 68.9041 45.9614 68.7508C46.0138 68.595 46.0587 68.4416 46.0987 68.2835C46.2085 67.8546 46.3732 67.4233 46.5305 67.0087C46.7052 66.551 46.8749 66.091 47.0546 65.6357C47.2044 65.2571 47.3567 64.8761 47.5039 64.4975C47.5738 64.3202 47.6412 64.1381 47.7211 63.9632C47.7211 63.9608 47.7236 63.956 47.7261 63.9536C47.7261 63.9536 45.5246 69.1078 45.5171 69.1246C45.3698 69.4696 44.9155 70.1597 44.3789 69.8746C44.1892 69.7739 44.0519 69.4097 44.0469 69.218C44.0419 69.0048 44.1318 68.8035 44.1992 68.6022C44.3414 68.1877 44.4638 67.7707 44.6235 67.3586C44.9505 66.5151 45.2675 65.6692 45.6244 64.8378C45.7043 64.6533 45.7717 64.464 45.859 64.2842C45.6319 64.9192 45.2949 65.5662 44.9854 66.1677C44.6185 66.8817 44.4338 67.4113 44.1193 67.9313C44.0394 68.0654 43.9446 68.2787 43.8023 68.3578C43.5951 68.4728 43.2931 68.5734 43.0959 68.4776C42.8189 68.3434 42.744 67.8546 42.8463 67.5766C43.4454 65.9664 43.8847 64.8641 44.5836 63.6325C44.5836 63.6325 45.1851 62.5973 45.2101 62.4655C45.2101 62.4655 43.992 64.3561 42.714 64.7779C42.714 64.7779 40.7571 64.8713 42.9387 63.0286C42.9387 63.0286 43.982 61.67 44.6085 60.7906C44.6085 60.7906 45.7717 59.0126 48.1254 58.495C48.1254 58.495 49.1763 56.6595 49.3959 56.0964L53.2523 57.6492C53.2523 57.6492 51.7522 59.9879 51.8445 61.0422H51.8495Z" fill="#E1AB81"/>
<path d="M24.5051 30.1261C24.5051 30.1261 25.4187 32.6014 22.7979 34.4752C22.7979 34.4752 28.7883 40.3818 36.6509 34.4752C36.6509 34.4752 33.6556 34.1876 34.7788 28.5662L24.5051 30.1237V30.1261Z" fill="#CE966D"/>
<path d="M55 55.4062L49.5611 41.7574C48.3531 38.3572 45.2555 36.3013 42.0206 35.0289C40.2609 34.3388 38.5012 33.6511 36.7415 32.9634C30.8383 39.1552 23.4401 32.9634 23.4401 32.9634C22.3468 33.5409 21.2585 34.1279 20.1653 34.7102C17.1276 36.3324 13.5383 37.5425 11.6538 40.5306L3 55.0875C3 55.0875 3.79124 60.558 6.0252 61.9454C6.0252 61.9454 6.66169 58.6027 11.3068 59.07L10.5705 55.617L18.2258 48.1361L19.4389 60.836H39.8391L41.4365 48.1433L47.8838 55.2864L45.0034 60.2393C49.8282 58.3223 51.865 61.4781 51.865 61.4781C51.865 61.4781 54.2811 58.6746 54.9975 55.4062" fill="#434041"/>
<path d="M38.6136 20.8651C38.6011 13.5447 34.4302 9.55981 29.2884 9.55981C24.1466 9.55981 19.9757 13.5447 19.9632 20.8651C19.6687 20.8699 18.1286 20.9705 19.0047 22.6502C19.0047 22.6502 19.9432 23.7477 20.0106 25.1567C20.0106 25.1567 20.3426 25.9139 20.8368 25.5664C21.985 28.5233 24.0991 30.7805 26.1484 32.1943C26.1484 32.1943 29.6279 34.3844 32.2088 32.4363C34.6749 30.9794 36.804 28.7965 37.8748 25.6359C38.2916 25.7701 38.5637 25.1543 38.5637 25.1543C38.6311 23.7453 39.5696 22.6478 39.5696 22.6478C40.4457 20.9681 38.9057 20.8675 38.6111 20.8627L38.6136 20.8651Z" fill="#E1AB81"/>
<path d="M38.7145 20.9009C38.4099 21.5239 37.0022 22.3793 37.1544 23.1868C37.1544 23.2172 37.1544 23.2172 37.1544 23.1868C36.9647 22.9041 37.1819 22.0271 37.1544 21.6796C37.1045 21.0806 36.9872 20.5271 36.8424 19.94C36.5404 18.7155 36.166 17.6181 35.4247 16.5709C34.5511 15.3369 33.5601 14.527 31.8504 14.6085C30.822 14.6588 29.2769 14.896 29.1072 16.0893C28.2311 14.0885 24.482 14.1172 23.239 15.7754C22.5102 16.7459 22.2131 17.8361 22.0409 18.9959C21.9386 19.6956 21.8961 20.4049 21.7564 21.0926C21.6715 21.5071 21.6066 22.3578 21.3695 22.6357C21.3695 22.6357 21.1274 21.4256 19.9692 20.8625C18.826 20.309 19.8594 14.9104 20.104 14.1076C21.2821 10.2546 24.7915 8.00453 28.8152 7.59718C30.837 7.39111 32.8388 6.88311 34.9055 7.02449C34.4562 7.33839 33.992 7.76012 33.6051 8.18425C34.7807 8.00214 35.8914 7.6475 37.1445 7.73856C36.4805 8.20581 36.785 8.91988 36.4531 9.61957C37.9082 9.5357 38.9865 11.2634 39.7378 12.2578C39.0414 12.0805 38.3825 11.7354 37.6911 11.5461C40.7562 12.392 39.6355 19.0199 38.7145 20.9009Z" fill="#40290F"/>
<path d="M23.4375 32.9633L21.0713 34.2237C21.0713 34.2237 25.2671 37.8947 29.5878 37.9139C29.6352 37.9139 29.6801 37.9139 29.7276 37.9139C34.0956 37.854 37.1258 36.6607 38.7632 33.7517L36.7414 32.9609C36.7414 32.9609 33.4242 35.7861 30.5787 35.7118C30.5787 35.7118 27.546 35.8555 23.44 32.9609L23.4375 32.9633Z" fill="#EDEEF0"/>
<path d="M13.5788 43.6023H44.8966C45.7153 43.6023 46.3792 44.2397 46.3792 45.0256V66.9533C46.3792 67.7392 45.7153 68.3766 44.8966 68.3766H13.5813C12.7626 68.3766 12.0986 67.7392 12.0986 66.9533V45.0256C12.0986 44.2397 12.7626 43.6023 13.5813 43.6023H13.5788Z" fill="#1F140F"/>
<path d="M12.5054 45.3276V57.5938C12.5054 63.1793 13.1519 67.7081 13.9506 67.7081H44.4997C45.2984 67.7081 45.9449 63.1793 45.9449 57.5938V45.3276H12.5029H12.5054Z" fill="#89878C"/>
<path d="M21.9635 68.0078H17.2285V69.0789H21.9635V68.0078Z" fill="#89878C"/>
<path d="M40.4059 68.0078H35.6709V69.0789H40.4059V68.0078Z" fill="#89878C"/>
<path d="M8.61328 69.5125H49.9677C49.9677 69.5125 49.3961 71.2497 48.3627 71.911H12.3573C12.3573 71.911 8.97521 71.5804 8.61328 69.5125Z" fill="#1F140F"/>
<path d="M50.8462 45.6687L50.5678 49.2738L50.311 52.6151L50.0057 56.5978L49.0503 68.9992C48.9748 69.975 48.1272 70.7302 47.1089 70.7302H11.3051C10.2868 70.7302 9.43917 69.975 9.36374 68.9992L8.92732 63.3355L7.56781 45.6687C7.48519 44.5843 8.37777 43.6619 9.50921 43.6619H48.9048C50.0362 43.6619 50.9288 44.5843 50.8462 45.6687Z" fill="#D1D3D4"/>
<path opacity="0.36" d="M50.8486 45.6685L50.5702 49.2736L16.8264 70.7299H11.3075C10.2892 70.7299 9.44153 69.9748 9.3661 68.9989L8.92969 63.3353L41.3032 43.6616H48.9072C50.0386 43.6616 50.9312 44.584 50.8486 45.6685Z" fill="#BCBEC0"/>
<path opacity="0.36" d="M50.3102 52.6145L50.0049 56.5972L29.1828 70.7296H21.5537L50.3102 52.6145Z" fill="#BCBEC0"/>
<path d="M29.2061 61.2006C31.5102 61.2006 33.3781 59.4075 33.3781 57.1955C33.3781 54.9836 31.5102 53.1904 29.2061 53.1904C26.902 53.1904 25.0342 54.9836 25.0342 57.1955C25.0342 59.4075 26.902 61.2006 29.2061 61.2006Z" fill="#BCBEC0"/>
<path d="M48.3929 71.9368H10.0192C9.67438 71.9368 9.39062 71.6662 9.39062 71.3334C9.39062 71.0024 9.67259 70.73 10.0192 70.73H48.3929C48.7377 70.73 49.0215 71.0024 49.0215 71.3334C49.0215 71.6662 48.7395 71.9368 48.3929 71.9368Z" fill="#BCBEC0"/>
<defs>
<linearGradient id="paint0_linear_193_959" x1="81.9508" y1="16.4214" x2="16.2517" y2="118.852" gradientUnits="userSpaceOnUse">
<stop stop-color="white"/>
<stop offset="1" stop-color="white" stop-opacity="0"/>
</linearGradient>
</defs>
</svg>
