<svg width="55" height="55" viewBox="0 0 55 55" fill="none" xmlns="http://www.w3.org/2000/svg">
<path d="M0.493164 30.3587L0.493164 42.6555C0.493164 43.2625 0.984639 43.7546 1.5909 43.7546L13.8719 43.7546C14.4781 43.7546 14.9696 43.2625 14.9696 42.6555L14.9696 30.3587C14.9696 29.7516 14.4781 29.2595 13.8719 29.2595L1.5909 29.2595C0.984639 29.2595 0.493164 29.7516 0.493164 30.3587Z" fill="white"/>
<path d="M19.2234 21.2825L21.0075 33.4489C21.0956 34.0495 21.6533 34.4649 22.2531 34.3767L34.4037 32.5903C35.0036 32.5021 35.4184 31.9437 35.3303 31.3431L33.5462 19.1767C33.4581 18.5761 32.9005 18.1607 32.3006 18.2489L20.15 20.0354C19.5502 20.1236 19.1353 20.6819 19.2234 21.2825Z" fill="white"/>
<path d="M0.395799 4.75252L3.36183 16.6853C3.50825 17.2744 4.10388 17.6331 4.6922 17.4865L16.6096 14.5166C17.1979 14.37 17.5562 13.7736 17.4097 13.1845L14.4437 1.25173C14.2973 0.662652 13.7017 0.303963 13.1133 0.450574L1.19592 3.42044C0.607605 3.56705 0.249377 4.16344 0.395799 4.75252Z" fill="white"/>
<path d="M41.2606 34.6622L31.114 41.5898C30.6131 41.9317 30.4839 42.6156 30.8255 43.1171L37.7441 53.2768C38.0857 53.7784 38.7686 53.9077 39.2695 53.5657L49.4161 46.6381C49.917 46.2961 50.0462 45.6123 49.7047 45.1108L42.786 34.9511C42.4444 34.4495 41.7615 34.3202 41.2606 34.6622Z" fill="white"/>
<path d="M41.2593 5.79328L34.7713 16.234C34.4511 16.7494 34.6087 17.4272 35.1235 17.7479L45.5507 24.2443C46.0654 24.565 46.7424 24.4071 47.0627 23.8917L53.5507 13.451C53.8709 12.9356 53.7133 12.2578 53.1985 11.9371L42.7713 5.44071C42.2566 5.12001 41.5796 5.27786 41.2593 5.79328Z" fill="white"/>
</svg>
