<svg width="132" height="109" viewBox="0 0 132 109" fill="none" xmlns="http://www.w3.org/2000/svg">
<g filter="url(#filter0_i_20_1568)">
<ellipse cx="53" cy="54.5" rx="52.5" ry="54" fill="white"/>
</g>
<path d="M89.846 49.054C89.6194 48.5659 89.2942 48.1299 88.891 47.7735C88.4877 47.4171 88.015 47.1481 87.5026 46.9833C86.9903 46.8185 86.4494 46.7615 85.914 46.816C85.3786 46.8704 84.8602 47.0351 84.3915 47.2996L82.4789 48.3776C81.5897 44.8553 80.0615 41.526 77.9703 38.5554C77.8339 38.3761 77.6331 38.2567 77.4104 38.2225C77.1877 38.1882 76.9604 38.2418 76.7764 38.3719C76.5924 38.502 76.4662 38.6985 76.4242 38.9198C76.3822 39.1412 76.4279 39.3702 76.5515 39.5587C78.6129 42.4831 80.095 45.7753 80.9175 49.2574L64.0863 58.7563C63.4885 59.0807 62.8324 59.2834 62.1558 59.3527C61.4792 59.4219 60.7956 59.3563 60.1445 59.1597C59.6184 59.0011 59.1575 58.6768 58.8307 58.235C58.5039 57.7932 58.3286 57.2576 58.331 56.708V54.5989C59.3109 54.0969 60.1339 53.335 60.7098 52.3965C61.2858 51.4581 61.5925 50.3794 61.5964 49.2783V41.6747C61.5877 39.8122 60.9098 38.0148 59.6864 36.6104C58.4629 35.206 56.7755 34.2882 54.9317 34.0242L42.5865 32.2993C42.4259 32.2767 42.2622 32.2995 42.1138 32.3652C41.9655 32.4308 41.8384 32.5366 41.7471 32.6706C41.6557 32.8047 41.6037 32.9616 41.5969 33.1237C41.59 33.2858 41.6287 33.4465 41.7085 33.5878L43.861 37.413H41.7311C41.5733 37.4131 41.4185 37.4561 41.2833 37.5375C41.1481 37.6188 41.0376 37.7354 40.9636 37.8748C40.8896 38.0142 40.855 38.1711 40.8633 38.3286C40.8717 38.4862 40.9229 38.6385 41.0112 38.7693L45.1669 44.9279V49.2922C45.1708 50.3933 45.4775 51.472 46.0534 52.4104C46.6293 53.3489 47.4523 54.1108 48.4322 54.6128V56.7219C48.4305 57.2685 48.2528 57.7999 47.9256 58.2377C47.5984 58.6755 47.1389 58.9963 46.6152 59.1527C45.9665 59.351 45.2847 59.4181 44.6097 59.35C43.9347 59.2819 43.28 59.0801 42.6839 58.7563L25.8388 49.2557C27.3481 43.0814 30.8791 37.5892 35.8699 33.6532C40.8608 29.7172 47.0247 27.5636 53.3808 27.5351C57.8139 27.524 62.1868 28.5625 66.1415 30.5658C66.3474 30.6698 66.5862 30.6877 66.8053 30.6157C67.0244 30.5436 67.206 30.3874 67.31 30.1815C67.4139 29.9756 67.4319 29.7368 67.3598 29.5177C67.2878 29.2986 67.1316 29.1171 66.9257 29.0131C62.7278 26.887 58.0863 25.7848 53.3808 25.7964C46.7197 25.8271 40.2553 28.057 34.9919 32.1394C29.7285 36.2219 25.9607 41.9284 24.2739 48.3724L22.37 47.2979C21.4906 46.7832 20.4447 46.6331 19.456 46.8798C18.4674 47.1264 17.6145 47.7502 17.0799 48.6176C16.5453 49.4851 16.3714 50.5273 16.5955 51.5213C16.8195 52.5153 17.4237 53.3822 18.2787 53.9364L23.335 57.327C23.448 59.729 23.8448 62.1091 24.5174 64.4177C24.5873 64.6329 24.7384 64.8124 24.9386 64.918C25.1388 65.0236 25.3723 65.0469 25.5894 64.9831C25.8066 64.9192 25.9903 64.7732 26.1014 64.5761C26.2126 64.3789 26.2425 64.1462 26.1848 63.9274C25.67 62.1723 25.3241 60.372 25.152 58.5511L41.1903 69.321L41.0947 81.4088C38.0707 79.965 35.3268 77.9964 32.9903 75.5944C32.9104 75.5125 32.8151 75.447 32.7099 75.4019C32.6047 75.3567 32.4917 75.3327 32.3772 75.3313C32.2627 75.3298 32.1491 75.3509 32.0428 75.3934C31.9364 75.4359 31.8395 75.4989 31.7576 75.5788C31.6756 75.6587 31.6101 75.754 31.565 75.8592C31.5198 75.9644 31.4959 76.0774 31.4944 76.1919C31.493 76.3064 31.5141 76.42 31.5565 76.5264C31.599 76.6327 31.662 76.7296 31.7419 76.8116C34.5381 79.7086 37.8877 82.0146 41.592 83.5927L41.625 83.6049C45.3427 85.1854 49.341 86 53.3808 86C57.4205 86 61.4188 85.1854 65.1365 83.6049L65.1695 83.5892C68.4342 82.2053 71.4251 80.2485 74.0007 77.8113C74.0838 77.733 74.1507 77.6391 74.1975 77.5349C74.2443 77.4308 74.2702 77.3184 74.2736 77.2043C74.2769 77.0901 74.2578 76.9764 74.2173 76.8696C74.1767 76.7629 74.1155 76.6652 74.0372 76.582C73.9589 76.4989 73.865 76.4321 73.7608 76.3852C73.6566 76.3384 73.5443 76.3126 73.4301 76.3092C73.316 76.3058 73.2023 76.3249 73.0955 76.3655C72.9887 76.406 72.891 76.4672 72.8079 76.5455C70.6932 78.5259 68.2842 80.1665 65.6668 81.4088L65.566 69.3158L81.6008 58.5476C81.4145 60.5604 81.0134 62.5475 80.4045 64.4751C80.3354 64.695 80.3564 64.9335 80.463 65.1379C80.5697 65.3424 80.7532 65.4961 80.9731 65.5653C81.1931 65.6344 81.4315 65.6134 81.636 65.5068C81.8404 65.4001 81.9941 65.2167 82.0633 64.9967C82.8454 62.5063 83.3035 59.9257 83.4265 57.3183L88.4828 53.9364C89.2573 53.4209 89.821 52.6445 90.0711 51.7484C90.3213 50.8523 90.2414 49.8962 89.846 49.054ZM46.8987 49.2783V44.648C46.8987 44.6202 46.8848 44.5958 46.883 44.5698C46.8776 44.5107 46.8659 44.4524 46.8482 44.3959C46.8318 44.3396 46.8091 44.2853 46.7804 44.2342C46.7722 44.2084 46.7618 44.1834 46.7491 44.1594L43.3603 39.1361H44.8382L44.913 39.2665C45.0326 39.454 45.2194 39.5885 45.4351 39.6425C45.6508 39.6964 45.8789 39.6657 46.0726 39.5566C46.2663 39.4474 46.4109 39.2683 46.4766 39.0559C46.5423 38.8435 46.5241 38.614 46.4257 38.4145L44.0801 34.2554L54.6866 35.7369C56.117 35.9418 57.4259 36.6544 58.3743 37.7446C59.3228 38.8348 59.8474 40.2297 59.8524 41.6747V49.2783C59.851 50.4128 59.3998 51.5004 58.5976 52.3026C57.7954 53.1047 56.7078 53.556 55.5733 53.5574H51.1743C50.041 53.5542 48.9552 53.1021 48.1545 52.3001C47.3538 51.4981 46.9035 50.4116 46.9021 49.2783H46.8987ZM87.5126 52.4898L64.2132 68.1386C64.0937 68.219 63.996 68.3278 63.9289 68.4553C63.8618 68.5827 63.8275 68.7249 63.829 68.8689L63.9402 82.1826C57.1648 84.8916 49.6071 84.8916 42.8317 82.1826L42.943 68.8689C42.9444 68.7249 42.9101 68.5827 42.843 68.4553C42.7759 68.3278 42.6783 68.219 42.5587 68.1386L19.2594 52.4898C18.8075 52.174 18.4933 51.6975 18.3812 51.1577C18.2692 50.6179 18.3676 50.0557 18.6563 49.5861C18.9451 49.1165 19.4024 48.775 19.9347 48.6315C20.467 48.488 21.034 48.5533 21.5197 48.8141L24.3278 50.3981H24.3383L41.8406 60.2829C42.6418 60.7174 43.5211 60.9887 44.4278 61.0812C45.3345 61.1737 46.2505 61.0856 47.123 60.8219C48.006 60.5559 48.7794 60.0116 49.3281 59.2703C49.8767 58.529 50.1711 57.6303 50.1675 56.708V55.1936C50.5018 55.2569 50.841 55.2912 51.1812 55.2962H55.5803C55.9205 55.2912 56.2597 55.2569 56.594 55.1936V56.708C56.5905 57.6305 56.8852 58.5294 57.4341 59.2707C57.9831 60.0121 58.7569 60.5562 59.6403 60.8219C60.5148 61.0856 61.4329 61.1731 62.3414 61.0794C63.2499 60.9857 64.1308 60.7126 64.9331 60.276L82.418 50.4068L82.4337 50.3981L85.2418 48.8141C85.5014 48.6673 85.7886 48.5759 86.0853 48.5457C86.382 48.5154 86.6817 48.5469 86.9656 48.6383C87.2495 48.7296 87.5114 48.8787 87.7348 49.0762C87.9583 49.2738 88.1383 49.5155 88.2637 49.786C88.4829 50.252 88.5277 50.7811 88.3898 51.2773C88.252 51.7734 87.9407 52.2037 87.5126 52.4898ZM28.6034 32.0281C28.4418 31.8637 28.3521 31.6418 28.3541 31.4113C28.3561 31.1807 28.4495 30.9604 28.6139 30.7988C31.41 28.0449 34.6411 25.7708 38.177 24.0681C38.3826 23.9815 38.6136 23.9774 38.8222 24.0564C39.0307 24.1354 39.201 24.2915 39.2977 24.4925C39.3944 24.6934 39.4101 24.9239 39.3417 25.1362C39.2732 25.3484 39.1258 25.5263 38.9299 25.6329C35.5666 27.2501 32.493 29.4108 29.8327 32.0281C29.6697 32.1911 29.4486 32.2826 29.2181 32.2826C28.9876 32.2826 28.7665 32.1911 28.6034 32.0281ZM24.8651 34.984C24.8651 34.812 24.9161 34.6439 25.0116 34.501C25.1072 34.358 25.2429 34.2466 25.4018 34.1808C25.5607 34.115 25.7355 34.0978 25.9041 34.1313C26.0727 34.1648 26.2276 34.2476 26.3492 34.3692C26.4708 34.4908 26.5536 34.6457 26.5872 34.8144C26.6207 34.983 26.6035 35.1578 26.5377 35.3167C26.4719 35.4755 26.3605 35.6113 26.2175 35.7068C26.0745 35.8024 25.9064 35.8534 25.7345 35.8534C25.5039 35.8534 25.2828 35.7618 25.1197 35.5987C24.9567 35.4357 24.8651 35.2146 24.8651 34.984ZM66.5397 33.2452C66.3091 33.2452 66.088 33.3368 65.9249 33.4999C65.7619 33.6629 65.6703 33.884 65.6703 34.1146C65.6703 34.3452 65.7619 34.5663 65.9249 34.7293C66.088 34.8924 66.3091 34.984 66.5397 34.984C67.1159 34.9375 67.6955 35.0117 68.2415 35.2018C68.7874 35.392 69.2877 35.6938 69.7105 36.0881C70.1333 36.4824 70.4692 36.9605 70.6968 37.4919C70.9245 38.0233 71.0389 38.5963 71.0326 39.1744V39.4769C71.0326 39.7075 71.1242 39.9286 71.2873 40.0917C71.4503 40.2547 71.6714 40.3463 71.902 40.3463C72.1326 40.3463 72.3537 40.2547 72.5168 40.0917C72.6798 39.9286 72.7714 39.7075 72.7714 39.4769C72.725 38.9007 72.7992 38.3211 72.9893 37.7751C73.1794 37.2292 73.4812 36.7289 73.8755 36.3061C74.2698 35.8833 74.7479 35.5474 75.2793 35.3198C75.8107 35.0921 76.3837 34.9778 76.9618 34.984H77.2574C77.488 34.984 77.7091 34.8924 77.8721 34.7293C78.0352 34.5663 78.1268 34.3452 78.1268 34.1146C78.1268 33.884 78.0352 33.6629 77.8721 33.4999C77.7091 33.3368 77.488 33.2452 77.2574 33.2452C76.681 33.2911 76.1013 33.2165 75.5554 33.026C75.0094 32.8354 74.5091 32.5333 74.0864 32.1387C73.6637 31.7441 73.3278 31.2658 73.1002 30.7343C72.8726 30.2027 72.7583 29.6295 72.7644 29.0513V28.7523C72.7644 28.5217 72.6728 28.3006 72.5098 28.1375C72.3468 27.9745 72.1256 27.8829 71.8951 27.8829C71.6645 27.8829 71.4434 27.9745 71.2803 28.1375C71.1173 28.3006 71.0257 28.5217 71.0257 28.7523C71.0719 29.3286 70.9974 29.9082 70.8071 30.4542C70.6168 31.0001 70.3148 31.5004 69.9204 31.9232C69.5259 32.3459 69.0477 32.6818 68.5162 32.9094C67.9848 33.1371 67.4117 33.2514 66.8335 33.2452H66.5397ZM71.9159 32.202C72.3795 32.9975 73.0376 33.6623 73.8286 34.1337C73.0321 34.5968 72.3667 35.255 71.8951 36.0464C71.4325 35.25 70.7741 34.5851 69.9824 34.1146C70.776 33.6501 71.4388 32.9921 71.909 32.202H71.9159ZM32.6513 71.8457C32.777 71.8578 32.9039 71.845 33.0246 71.8077C33.1453 71.7705 33.2574 71.7097 33.3545 71.6289C33.4515 71.548 33.5315 71.4487 33.5899 71.3367C33.6483 71.2246 33.6838 71.1021 33.6945 70.9763C33.6945 70.7457 33.6029 70.5246 33.4399 70.3615C33.2769 70.1985 33.0557 70.1069 32.8251 70.1069C32.3823 70.1423 31.9369 70.0853 31.5173 69.9395C31.0977 69.7936 30.713 69.5621 30.3876 69.2596C30.0622 68.9571 29.8033 68.5903 29.6273 68.1824C29.4512 67.7745 29.3619 67.3344 29.365 66.8902V66.645C29.365 66.4145 29.2734 66.1933 29.1104 66.0303C28.9473 65.8672 28.7262 65.7757 28.4956 65.7757C28.2651 65.7757 28.0439 65.8672 27.8809 66.0303C27.7179 66.1933 27.6263 66.4145 27.6263 66.645C27.6619 67.0874 27.6053 67.5324 27.4599 67.9518C27.3146 68.3711 27.0837 68.7557 26.782 69.0812C26.4802 69.4066 26.1141 69.6659 25.707 69.8424C25.2998 70.019 24.8603 70.1091 24.4165 70.1069H24.1696C23.939 70.1069 23.7179 70.1985 23.5549 70.3615C23.3918 70.5246 23.3002 70.7457 23.3002 70.9763C23.3002 71.2069 23.3918 71.428 23.5549 71.591C23.7179 71.7541 23.939 71.8457 24.1696 71.8457C24.6125 71.8099 25.058 71.8668 25.4777 72.0126C25.8975 72.1583 26.2823 72.3898 26.6077 72.6924C26.9332 72.9949 27.1921 73.3618 27.368 73.7699C27.544 74.1779 27.6331 74.618 27.6297 75.0624V75.3058C27.6297 75.5364 27.7213 75.7575 27.8844 75.9205C28.0474 76.0836 28.2685 76.1752 28.4991 76.1752C28.7297 76.1752 28.9508 76.0836 29.1139 75.9205C29.2769 75.7575 29.3685 75.5364 29.3685 75.3058C29.333 74.8624 29.3902 74.4164 29.5365 73.9963C29.6828 73.5762 29.9149 73.1911 30.2182 72.8656C30.5214 72.5402 30.8891 72.2814 31.2978 72.1058C31.7065 71.9302 32.1473 71.8416 32.5922 71.8457H32.6513ZM28.4939 72.2108C28.1723 71.7221 27.759 71.3005 27.2768 70.9693C27.7654 70.6478 28.1871 70.2344 28.5182 69.7522C28.8403 70.2405 29.2535 70.662 29.7354 70.9937C29.246 71.3151 28.8243 71.7274 28.4939 72.2108ZM83.4943 70.1069C82.8049 70.1624 82.1115 70.0733 81.4585 69.8455C80.8055 69.6176 80.2072 69.2559 79.702 68.7836C79.1968 68.3113 78.7957 67.7387 78.5245 67.1025C78.2532 66.4663 78.1178 65.7804 78.1268 65.0888V64.7411C78.1268 64.5105 78.0352 64.2894 77.8721 64.1263C77.7091 63.9633 77.488 63.8717 77.2574 63.8717C77.0268 63.8717 76.8057 63.9633 76.6426 64.1263C76.4796 64.2894 76.388 64.5105 76.388 64.7411C76.4429 65.4301 76.3536 66.1231 76.1256 66.7757C75.8976 67.4282 75.5361 68.0261 75.064 68.531C74.5919 69.036 74.0198 69.4369 73.384 69.7083C72.7482 69.9796 72.0629 70.1154 71.3717 70.1069H71.0239C70.7934 70.1069 70.5722 70.1985 70.4092 70.3615C70.2462 70.5246 70.1546 70.7457 70.1546 70.9763C70.1546 71.2069 70.2462 71.428 70.4092 71.591C70.5722 71.7541 70.7934 71.8457 71.0239 71.8457C71.7132 71.7899 72.4066 71.8787 73.0596 72.1064C73.7126 72.3341 74.3109 72.6956 74.8162 73.1678C75.3214 73.6399 75.7225 74.2124 75.9938 74.8486C76.2651 75.4847 76.4005 76.1705 76.3915 76.862V77.2097C76.3915 77.4403 76.4831 77.6614 76.6461 77.8245C76.8092 77.9875 77.0303 78.0791 77.2609 78.0791C77.4914 78.0791 77.7126 77.9875 77.8756 77.8245C78.0387 77.6614 78.1302 77.4403 78.1302 77.2097C78.0755 76.5202 78.1653 75.8269 78.3938 75.174C78.6223 74.5212 78.9845 73.9232 79.4573 73.4184C79.9301 72.9135 80.503 72.5129 81.1395 72.242C81.7759 71.9712 82.4619 71.8362 83.1535 71.8457H83.2213H83.4943C83.7249 71.8457 83.946 71.7541 84.1091 71.591C84.2721 71.428 84.3637 71.2069 84.3637 70.9763C84.3637 70.7457 84.2721 70.5246 84.1091 70.3615C83.946 70.1985 83.7249 70.1069 83.4943 70.1069ZM77.2348 73.4992C76.6648 72.4258 75.7925 71.5431 74.7258 70.9606C75.7996 70.3912 76.6824 69.5187 77.2643 68.4516C77.8333 69.5258 78.7059 70.4087 79.7734 70.9902C78.7024 71.5629 77.8228 72.437 77.2435 73.5044L77.2348 73.4992Z" fill="#8E8925"/>
<path d="M103.135 101.947C101.425 101.941 99.9531 101.52 98.7202 100.685C97.4938 99.8494 96.5492 98.6397 95.8864 97.0554C95.2301 95.4711 94.9053 93.5653 94.9119 91.3381C94.9119 89.1174 95.2401 87.2249 95.8963 85.6605C96.5592 84.0961 97.5038 82.9062 98.7301 82.0909C99.9631 81.2689 101.431 80.858 103.135 80.858C104.839 80.858 106.304 81.2689 107.53 82.0909C108.763 82.9129 109.711 84.1061 110.374 85.6705C111.036 87.2282 111.365 89.1174 111.358 91.3381C111.358 93.572 111.027 95.4811 110.364 97.0653C109.707 98.6496 108.766 99.8594 107.54 100.695C106.313 101.53 104.845 101.947 103.135 101.947ZM103.135 98.3778C104.302 98.3778 105.233 97.7912 105.929 96.6179C106.625 95.4446 106.97 93.6847 106.963 91.3381C106.963 89.7936 106.804 88.5076 106.486 87.4801C106.174 86.4527 105.73 85.6804 105.153 85.1634C104.583 84.6463 103.911 84.3878 103.135 84.3878C101.975 84.3878 101.047 84.9678 100.351 86.1278C99.6548 87.2879 99.3035 89.0246 99.2969 91.3381C99.2969 92.9025 99.4527 94.2083 99.7642 95.2557C100.082 96.2964 100.53 97.0786 101.107 97.6023C101.683 98.1193 102.359 98.3778 103.135 98.3778ZM121.955 101.778C120.47 101.778 119.148 101.523 117.988 101.013C116.834 100.496 115.923 99.7865 115.253 98.8849C114.59 97.9768 114.249 96.9295 114.229 95.7429H118.564C118.591 96.2401 118.753 96.6776 119.051 97.0554C119.356 97.4266 119.761 97.715 120.265 97.9205C120.768 98.1259 121.335 98.2287 121.965 98.2287C122.621 98.2287 123.201 98.1127 123.705 97.8807C124.209 97.6487 124.603 97.3272 124.888 96.9162C125.173 96.5052 125.316 96.0312 125.316 95.4943C125.316 94.9508 125.163 94.4702 124.858 94.0526C124.56 93.6283 124.129 93.2969 123.566 93.0582C123.009 92.8196 122.346 92.7003 121.577 92.7003H119.678V89.5384H121.577C122.227 89.5384 122.8 89.4257 123.297 89.2003C123.801 88.9749 124.192 88.6634 124.471 88.2656C124.749 87.8613 124.888 87.3906 124.888 86.8537C124.888 86.3433 124.766 85.8958 124.52 85.5114C124.282 85.1203 123.944 84.8153 123.506 84.5966C123.075 84.3778 122.571 84.2685 121.995 84.2685C121.411 84.2685 120.878 84.3745 120.394 84.5866C119.91 84.7921 119.522 85.0871 119.23 85.4716C118.939 85.8561 118.783 86.3068 118.763 86.8239H114.637C114.657 85.6506 114.991 84.6165 115.641 83.7216C116.291 82.8267 117.166 82.1274 118.266 81.6236C119.373 81.1132 120.623 80.858 122.015 80.858C123.42 80.858 124.65 81.1132 125.703 81.6236C126.757 82.134 127.576 82.8234 128.159 83.6918C128.749 84.5535 129.041 85.5213 129.034 86.5952C129.041 87.7353 128.686 88.6866 127.971 89.4489C127.261 90.2112 126.337 90.6951 125.196 90.9006V91.0597C126.694 91.2519 127.835 91.7723 128.617 92.6207C129.406 93.4626 129.797 94.5166 129.79 95.7827C129.797 96.9427 129.462 97.9735 128.786 98.875C128.116 99.7765 127.192 100.486 126.012 101.003C124.832 101.52 123.48 101.778 121.955 101.778Z" fill="#8E8925"/>
<defs>
<filter id="filter0_i_20_1568" x="0.5" y="0.5" width="105" height="108" filterUnits="userSpaceOnUse" color-interpolation-filters="sRGB">
<feFlood flood-opacity="0" result="BackgroundImageFix"/>
<feBlend mode="normal" in="SourceGraphic" in2="BackgroundImageFix" result="shape"/>
<feColorMatrix in="SourceAlpha" type="matrix" values="0 0 0 0 0 0 0 0 0 0 0 0 0 0 0 0 0 0 127 0" result="hardAlpha"/>
<feOffset/>
<feGaussianBlur stdDeviation="7.55"/>
<feComposite in2="hardAlpha" operator="arithmetic" k2="-1" k3="1"/>
<feColorMatrix type="matrix" values="0 0 0 0 0.556863 0 0 0 0 0.537255 0 0 0 0 0.145098 0 0 0 1 0"/>
<feBlend mode="normal" in2="shape" result="effect1_innerShadow_20_1568"/>
</filter>
</defs>
</svg>
