<svg width="138" height="127" viewBox="0 0 138 127" fill="none" xmlns="http://www.w3.org/2000/svg">
<circle cx="64" cy="63.5" r="63" stroke="white"/>
<g filter="url(#filter0_i_17_1549)">
<ellipse cx="64" cy="63.5" rx="52.5" ry="54" fill="white"/>
</g>
<path d="M114.135 110.947C112.425 110.941 110.953 110.52 109.72 109.685C108.494 108.849 107.549 107.64 106.886 106.055C106.23 104.471 105.905 102.565 105.912 100.338C105.912 98.1174 106.24 96.2249 106.896 94.6605C107.559 93.0961 108.504 91.9062 109.73 91.0909C110.963 90.2689 112.431 89.858 114.135 89.858C115.839 89.858 117.304 90.2689 118.53 91.0909C119.763 91.9129 120.711 93.1061 121.374 94.6705C122.036 96.2282 122.365 98.1174 122.358 100.338C122.358 102.572 122.027 104.481 121.364 106.065C120.707 107.65 119.766 108.859 118.54 109.695C117.313 110.53 115.845 110.947 114.135 110.947ZM114.135 107.378C115.302 107.378 116.233 106.791 116.929 105.618C117.625 104.445 117.97 102.685 117.963 100.338C117.963 98.7936 117.804 97.5076 117.486 96.4801C117.174 95.4527 116.73 94.6804 116.153 94.1634C115.583 93.6463 114.911 93.3878 114.135 93.3878C112.975 93.3878 112.047 93.9678 111.351 95.1278C110.655 96.2879 110.304 98.0246 110.297 100.338C110.297 101.902 110.453 103.208 110.764 104.256C111.082 105.296 111.53 106.079 112.107 106.602C112.683 107.119 113.359 107.378 114.135 107.378ZM134.287 90.1364V110.5H129.982V94.223H129.863L125.199 97.1463V93.3281L130.24 90.1364H134.287Z" fill="#8E8925"/>
<path d="M71.5 67.5H91.5V59.5H71.5V67.5ZM73.5 61.5H89.5V65.5H73.5V61.5Z" fill="#8E8925"/>
<path d="M87.5 51.5H75.5V53.5H87.5V51.5Z" fill="#8E8925"/>
<path d="M87.5 47.5H75.5V49.5H87.5V47.5Z" fill="#8E8925"/>
<path d="M92.5 55.5H91.5V40.328L88.059 43.272L84.824 41.334L81.492 43.334L78.16 41.334L74.932 43.272L71.5 40.322V55.5H71.042L70.427 47.5H65.5V42.5C65.5 36.435 60.565 31.5 54.5 31.5C48.435 31.5 43.5 36.435 43.5 42.5V47.5H36.578L33.5 85.5V87.5H67.5V90.5C67.5 92.154 68.846 93.5 70.5 93.5H92.5C94.154 93.5 95.5 92.154 95.5 90.5V58.5C95.5 56.846 94.154 55.5 92.5 55.5ZM73.5 44.678L74.724 45.729L78.16 43.667L81.492 45.667L84.825 43.667L88.266 45.729L89.5 44.672V55.5H73.5V44.678ZM45.5 42.5C45.5 37.537 49.538 33.5 54.5 33.5C59.462 33.5 63.5 37.537 63.5 42.5V47.5H45.5V42.5ZM93.5 90.5C93.5 91.052 93.051 91.5 92.5 91.5H70.5C69.949 91.5 69.5 91.052 69.5 90.5V85.5H35.503L38.422 49.5H43.5V51.5H41.5V53.5H47.5V51.5H45.5V49.5H63.5V51.5H61.5V53.5H67.5V51.5H65.5V49.5H68.574L69.064 55.867C68.133 56.377 67.5 57.366 67.5 58.5V83.5H69.5V58.5C69.5 57.948 69.949 57.5 70.5 57.5H92.5C93.051 57.5 93.5 57.948 93.5 58.5V90.5Z" fill="#8E8925"/>
<path d="M53.5 57.5C47.435 57.5 42.5 62.435 42.5 68.5C42.5 74.565 47.435 79.5 53.5 79.5C59.565 79.5 64.5 74.565 64.5 68.5C64.5 62.435 59.565 57.5 53.5 57.5ZM53.5 77.5C48.538 77.5 44.5 73.463 44.5 68.5C44.5 63.537 48.538 59.5 53.5 59.5C58.462 59.5 62.5 63.537 62.5 68.5C62.5 73.463 58.462 77.5 53.5 77.5Z" fill="#8E8925"/>
<path d="M53.5 65.5C54.051 65.5 54.5 65.948 54.5 66.5H56.5C56.5 65.198 55.661 64.098 54.5 63.684V61.5H52.5V63.684C51.339 64.098 50.5 65.198 50.5 66.5C50.5 68.154 51.846 69.5 53.5 69.5C54.051 69.5 54.5 69.948 54.5 70.5C54.5 71.052 54.051 71.5 53.5 71.5C52.949 71.5 52.5 71.052 52.5 70.5H50.5C50.5 71.802 51.339 72.902 52.5 73.316V75.5H54.5V73.316C55.661 72.902 56.5 71.802 56.5 70.5C56.5 68.846 55.154 67.5 53.5 67.5C52.949 67.5 52.5 67.052 52.5 66.5C52.5 65.948 52.949 65.5 53.5 65.5Z" fill="#8E8925"/>
<path d="M71.5 89.5H91.5V69.5H71.5V89.5ZM73.5 83.5H77.5V87.5H73.5V83.5ZM83.5 77.5V81.5H79.5V77.5H83.5ZM79.5 75.5V71.5H83.5V75.5H79.5ZM85.5 77.5H89.5V81.5H85.5V77.5ZM83.5 83.5V87.5H79.5V83.5H83.5ZM77.5 81.5H73.5V77.5H77.5V81.5ZM85.5 87.5V83.5H89.5V87.5H85.5ZM89.5 75.5H85.5V71.5H89.5V75.5ZM77.5 71.5V75.5H73.5V71.5H77.5Z" fill="#8E8925"/>
<defs>
<filter id="filter0_i_17_1549" x="11.5" y="9.5" width="105" height="108" filterUnits="userSpaceOnUse" color-interpolation-filters="sRGB">
<feFlood flood-opacity="0" result="BackgroundImageFix"/>
<feBlend mode="normal" in="SourceGraphic" in2="BackgroundImageFix" result="shape"/>
<feColorMatrix in="SourceAlpha" type="matrix" values="0 0 0 0 0 0 0 0 0 0 0 0 0 0 0 0 0 0 127 0" result="hardAlpha"/>
<feOffset/>
<feGaussianBlur stdDeviation="7.55"/>
<feComposite in2="hardAlpha" operator="arithmetic" k2="-1" k3="1"/>
<feColorMatrix type="matrix" values="0 0 0 0 0.556863 0 0 0 0 0.537255 0 0 0 0 0.145098 0 0 0 1 0"/>
<feBlend mode="normal" in2="shape" result="effect1_innerShadow_17_1549"/>
</filter>
</defs>
</svg>
