<svg width="130" height="109" viewBox="0 0 130 109" fill="none" xmlns="http://www.w3.org/2000/svg">
<g filter="url(#filter0_i_20_1552)">
<ellipse cx="52.5" cy="54.5" rx="52.5" ry="54" fill="white"/>
</g>
<path d="M63.6062 27.2626C60.8622 27.2626 58.3785 28.3743 56.5818 30.171C54.7851 31.9677 53.6734 34.4514 53.6734 37.1954C53.6734 39.9413 54.7851 42.427 56.5779 44.2237C58.3785 46.0184 60.8622 47.1301 63.6062 47.1301C66.3541 47.1301 68.8397 46.0204 70.6306 44.2276C72.4273 42.425 73.539 39.9394 73.539 37.1954C73.539 34.4514 72.4273 31.9677 70.6306 30.171C68.8378 28.3743 66.3521 27.2626 63.6062 27.2626ZM60.1341 36.849L62.06 38.7749L66.9197 32.1654L69.5443 34.0893L62.4397 43.754L57.8286 39.1428L60.1341 36.849ZM69.2644 49.1167V86H28.5V30.6975H34.3931H36.0235H44.138H52.1194C52.7105 29.6582 53.4366 28.7051 54.2763 27.8655C56.664 25.4777 59.9639 24 63.6062 24C67.2446 24 70.5425 25.4796 72.9303 27.8655C75.3239 30.2532 76.8016 33.5531 76.8016 37.1954C76.8016 40.8377 75.3239 44.1376 72.9361 46.5253C71.8734 47.5842 70.6345 48.4649 69.2644 49.1167ZM50.8101 33.9602H44.1399V49.193L39.2665 43.0083L34.3951 49.195V33.9621H31.7646V82.7393H66.0018V50.1755C65.2248 50.3184 64.4243 50.3928 63.6062 50.3928C59.9639 50.3928 56.664 48.9151 54.2763 46.5273C51.8904 44.1337 50.4108 40.8358 50.4108 37.1974C50.4108 36.0818 50.5498 34.9975 50.8101 33.9621V33.9602ZM39.382 55.3953H58.3844V58.658H39.382V55.3953ZM39.382 73.106H58.3844V76.3686H39.382V73.106ZM39.382 64.2517H58.3844V67.5143H39.382V64.2517ZM40.8773 33.9621H39.2665H37.6577V39.7887L39.2665 37.7454L40.8773 39.7887V33.9602V33.9621Z" fill="#8E8925"/>
<path d="M102.635 101.947C100.925 101.941 99.4531 101.52 98.2202 100.685C96.9938 99.8494 96.0492 98.6397 95.3864 97.0554C94.7301 95.4711 94.4053 93.5653 94.4119 91.3381C94.4119 89.1174 94.7401 87.2249 95.3963 85.6605C96.0592 84.0961 97.0038 82.9062 98.2301 82.0909C99.4631 81.2689 100.931 80.858 102.635 80.858C104.339 80.858 105.804 81.2689 107.03 82.0909C108.263 82.9129 109.211 84.1061 109.874 85.6705C110.536 87.2282 110.865 89.1174 110.858 91.3381C110.858 93.572 110.527 95.4811 109.864 97.0653C109.207 98.6496 108.266 99.8594 107.04 100.695C105.813 101.53 104.345 101.947 102.635 101.947ZM102.635 98.3778C103.802 98.3778 104.733 97.7912 105.429 96.6179C106.125 95.4446 106.47 93.6847 106.463 91.3381C106.463 89.7936 106.304 88.5076 105.986 87.4801C105.674 86.4527 105.23 85.6804 104.653 85.1634C104.083 84.6463 103.411 84.3878 102.635 84.3878C101.475 84.3878 100.547 84.9678 99.8509 86.1278C99.1548 87.2879 98.8035 89.0246 98.7969 91.3381C98.7969 92.9025 98.9527 94.2083 99.2642 95.2557C99.5824 96.2964 100.03 97.0786 100.607 97.6023C101.183 98.1193 101.859 98.3778 102.635 98.3778ZM113.928 101.5V98.3977L121.176 91.6861C121.793 91.0895 122.31 90.5526 122.728 90.0753C123.152 89.598 123.473 89.1307 123.692 88.6733C123.911 88.2093 124.02 87.7088 124.02 87.1719C124.02 86.5753 123.884 86.0616 123.613 85.6307C123.341 85.1932 122.97 84.8584 122.499 84.6264C122.028 84.3878 121.495 84.2685 120.898 84.2685C120.275 84.2685 119.731 84.3944 119.267 84.6463C118.803 84.8982 118.445 85.2595 118.194 85.7301C117.942 86.2008 117.816 86.7609 117.816 87.4105H113.729C113.729 86.0781 114.031 84.9214 114.634 83.9403C115.237 82.9593 116.082 82.2003 117.169 81.6634C118.257 81.1264 119.509 80.858 120.928 80.858C122.386 80.858 123.656 81.1165 124.736 81.6335C125.823 82.1439 126.668 82.8532 127.272 83.7614C127.875 84.6695 128.176 85.7102 128.176 86.8835C128.176 87.6525 128.024 88.4115 127.719 89.1605C127.421 89.9096 126.887 90.7415 126.118 91.6562C125.349 92.5644 124.266 93.6548 122.867 94.9276L119.894 97.8409V97.9801H128.445V101.5H113.928Z" fill="#8E8925"/>
<defs>
<filter id="filter0_i_20_1552" x="0" y="0.5" width="105" height="108" filterUnits="userSpaceOnUse" color-interpolation-filters="sRGB">
<feFlood flood-opacity="0" result="BackgroundImageFix"/>
<feBlend mode="normal" in="SourceGraphic" in2="BackgroundImageFix" result="shape"/>
<feColorMatrix in="SourceAlpha" type="matrix" values="0 0 0 0 0 0 0 0 0 0 0 0 0 0 0 0 0 0 127 0" result="hardAlpha"/>
<feOffset/>
<feGaussianBlur stdDeviation="7.55"/>
<feComposite in2="hardAlpha" operator="arithmetic" k2="-1" k3="1"/>
<feColorMatrix type="matrix" values="0 0 0 0 0.556863 0 0 0 0 0.537255 0 0 0 0 0.145098 0 0 0 1 0"/>
<feBlend mode="normal" in2="shape" result="effect1_innerShadow_20_1552"/>
</filter>
</defs>
</svg>
