<svg width="33" height="61" viewBox="0 0 33 61" fill="none" xmlns="http://www.w3.org/2000/svg">
<path d="M1.06582 59.9649C1.38602 60.2878 1.82113 60.4705 2.27581 60.4731C2.50147 60.4752 2.72518 60.4313 2.93324 60.3439C3.14131 60.2565 3.32933 60.1275 3.48581 59.9649L32.0175 31.4333C32.1777 31.2751 32.3049 31.0868 32.3918 30.879C32.4786 30.6713 32.5233 30.4484 32.5233 30.2233C32.5233 29.9982 32.4786 29.7753 32.3918 29.5676C32.3049 29.3598 32.1777 29.1714 32.0175 29.0133L3.48581 0.475611C3.32893 0.307904 3.13991 0.173471 2.93001 0.0803116C2.72011 -0.0128475 2.49361 -0.0628284 2.264 -0.0666566C2.03438 -0.0704848 1.80635 -0.0280821 1.59346 0.058028C1.38057 0.144138 1.18717 0.272196 1.02479 0.43458C0.862405 0.596964 0.734348 0.790356 0.648238 1.00325C0.562128 1.21614 0.519725 1.44417 0.523553 1.67379C0.527382 1.9034 0.577362 2.1299 0.670521 2.3398C0.76368 2.5497 0.898114 2.73872 1.06582 2.8956L28.3875 30.2233L1.06582 57.545C0.906313 57.7035 0.779729 57.892 0.69335 58.0997C0.606971 58.3073 0.562502 58.53 0.562502 58.7549C0.562502 58.9799 0.606971 59.2025 0.69335 59.4102C0.779729 59.6179 0.906313 59.8064 1.06582 59.9649Z" fill="white"/>
</svg>
