<svg width="89" height="87" viewBox="0 0 89 87" fill="none" xmlns="http://www.w3.org/2000/svg">
<path d="M49.2667 46.3121C39.3797 46.3121 20.6807 44.6761 20.6807 38.4881C20.6807 34.1901 29.4227 32.2421 36.7567 31.3661C37.5807 31.2681 38.3267 31.8551 38.4237 32.6771C38.5227 33.5001 37.9347 34.2461 37.1127 34.3441C26.9877 35.5541 23.6797 37.8371 23.6797 38.4881C23.6797 39.9311 32.3847 43.3121 49.2657 43.3121C66.1457 43.3121 74.8497 39.9311 74.8497 38.4881C74.8497 37.0451 66.1457 33.6631 49.2657 33.6631C48.3257 33.6631 47.3977 33.6741 46.4827 33.6961C45.6677 33.7521 44.9667 33.0611 44.9467 32.2331C44.9267 31.4051 45.5817 30.7171 46.4097 30.6971C47.3477 30.6741 48.3007 30.6631 49.2647 30.6631C59.1517 30.6631 77.8487 32.2981 77.8487 38.4881C77.8517 44.6761 59.1537 46.3121 49.2667 46.3121Z" fill="#58694B"/>
<path d="M49.2609 78.2923C33.4959 78.2923 20.6699 63.1573 20.6699 44.5543C20.6699 43.1303 20.7459 41.6983 20.8959 40.2983C20.9839 39.4733 21.7299 38.8863 22.5469 38.9663C23.3709 39.0543 23.9669 39.7943 23.8789 40.6173C23.7399 41.9113 23.6699 43.2363 23.6699 44.5543C23.6699 61.5033 35.1499 75.2923 49.2609 75.2923C63.3719 75.2923 74.8509 61.5033 74.8509 44.5543C74.8509 43.0423 74.7589 41.5203 74.5769 40.0313C74.4759 39.2093 75.0619 38.4613 75.8849 38.3613C76.7069 38.2583 77.4549 38.8453 77.5559 39.6683C77.7519 41.2773 77.8519 42.9213 77.8519 44.5553C77.8519 63.1573 65.0259 78.2923 49.2609 78.2923Z" fill="#58694B"/>
<path d="M49.344 86.9612C31.806 86.9612 13.167 82.6092 13.167 74.5462C13.167 72.4902 14.456 69.4772 20.594 66.7972C21.354 66.4682 22.237 66.8142 22.569 67.5722C22.901 68.3302 22.554 69.2152 21.795 69.5472C18.219 71.1082 16.168 72.9302 16.168 74.5462C16.168 78.9902 30.356 83.9612 49.345 83.9612C68.334 83.9612 82.522 78.9902 82.522 74.5462C82.522 72.9802 80.578 71.2042 77.187 69.6752C76.431 69.3352 76.095 68.4462 76.436 67.6922C76.776 66.9362 77.663 66.5972 78.419 66.9412C84.289 69.5872 85.522 72.5382 85.522 74.5462C85.521 82.6092 66.882 86.9612 49.344 86.9612Z" fill="#58694B"/>
<path d="M72.7656 64.2961C71.9376 64.2961 71.2656 63.6241 71.2656 62.7961C71.2656 61.9681 71.9376 61.2961 72.7656 61.2961C78.0436 61.2961 85.8316 56.2001 85.8316 51.6231C85.8316 46.7741 81.8886 42.8301 77.0406 42.8301C76.2126 42.8301 75.5406 42.1591 75.5406 41.3301C75.5406 40.5011 76.2126 39.8301 77.0406 39.8301C83.5426 39.8301 88.8316 45.1211 88.8316 51.6231C88.8316 58.4961 78.9636 64.2961 72.7656 64.2961Z" fill="#58694B"/>
<path d="M42.1394 36.805C41.7174 36.805 41.2964 36.627 41.0004 36.281C38.0934 32.89 40.4764 28.182 42.5784 24.028C44.5744 20.085 45.7694 17.416 44.2624 16.303C38.3164 11.914 39.9604 1.72099 40.0334 1.28899C40.1714 0.472991 40.9434 -0.0770096 41.7604 0.0599904C42.5764 0.19699 43.1274 0.96999 42.9914 1.78699C42.9764 1.87499 41.5824 10.597 46.0434 13.889C49.7044 16.591 47.3404 21.262 45.2554 25.382C43.4954 28.861 41.6744 32.458 43.2774 34.329C43.8174 34.958 43.7434 35.905 43.1144 36.444C42.8324 36.687 42.4844 36.805 42.1394 36.805Z" fill="#58694B"/>
<path d="M32.2966 28.9018C31.9076 28.9018 31.5176 28.7528 31.2226 28.4578C29.3186 26.5508 30.5486 22.8218 33.3166 17.0238C35.3466 12.7688 30.8346 9.69781 30.6416 9.56881C29.9536 9.11081 29.7646 8.1808 30.2196 7.4918C30.6766 6.8038 31.6006 6.6108 32.2916 7.0628C34.6886 8.6358 38.5546 13.0108 36.0236 18.3148C32.9526 24.7468 33.2086 26.0948 33.3596 26.3558C33.9446 26.9418 33.9376 27.8818 33.3506 28.4678C33.0606 28.7578 32.6786 28.9018 32.2966 28.9018Z" fill="#58694B"/>
<path d="M54.1827 28.3042C53.7937 28.3042 53.4047 28.1552 53.1087 27.8602C51.2057 25.9552 52.4347 22.2252 55.2017 16.4252C57.2327 12.1702 52.7227 9.09917 52.5287 8.97017C51.8407 8.51217 51.6507 7.58217 52.1067 6.89317C52.5637 6.20517 53.4857 6.01217 54.1787 6.46417C56.5747 8.03717 60.4407 12.4132 57.9077 17.7162C54.8397 24.1502 55.0947 25.4972 55.2457 25.7572C55.8317 26.3432 55.8227 27.2842 55.2367 27.8692C54.9467 28.1602 54.5647 28.3042 54.1827 28.3042Z" fill="#58694B"/>
<path d="M14.1577 61.4496C16.5357 62.684 18.8404 61.8708 19.6918 58.7196C21.2625 52.7948 16.7559 44.4885 7.84552 42.0489C7.59109 41.9819 7.32313 41.9838 7.06972 42.0545C6.81631 42.1251 6.58676 42.2619 6.40515 42.4505C6.22353 42.639 6.09653 42.8725 6.03744 43.1263C5.97836 43.3801 5.98936 43.6449 6.06931 43.8931C8.60885 51.7783 3.97015 56.1493 14.1577 61.4496ZM16.844 57.979C16.4917 59.2859 16.1981 59.2278 15.5229 58.8793C7.65469 54.7842 10.7961 51.8219 9.65109 45.8099C15.0531 48.3948 17.9156 53.942 16.844 57.979Z" fill="#58694B"/>
<path d="M14.406 62.5227C10.7926 59.6918 4.09614 60.6717 0.259591 66.6136C0.113717 66.8415 0.025701 67.109 0.00482894 67.388C-0.0160432 67.6669 0.0310016 67.947 0.141001 68.1987C0.251 68.4504 0.419876 68.6642 0.629815 68.8178C0.839755 68.9714 1.08298 69.0589 1.33382 69.0712C5.44939 69.289 5.99348 71 8.90926 71C12.4947 70.9689 19.0238 66.1314 14.406 62.5227ZM4.3333 66.3336C7.68156 63.2227 11.8948 63.6427 13.248 65.4003L13.1085 65.5403C8.8674 69.7245 7.5839 67.1891 4.3333 66.3336Z" fill="#58694B"/>
</svg>
