<svg width="44" height="62" viewBox="0 0 44 62" fill="none" xmlns="http://www.w3.org/2000/svg">
<path d="M0.250488 9.41992V59.2345C0.250488 60.7514 1.48244 61.9833 2.99934 61.9833H41.1229C42.6398 61.9833 43.8717 60.7514 43.8717 59.2345V9.41992H0.250488Z" fill="#806C53"/>
<path d="M43.8717 8.90863V2.74885C43.8717 1.23195 42.6398 0 41.1229 0H2.99934C1.48244 0 0.250488 1.23195 0.250488 2.74885V8.90863H43.8717Z" fill="#806C53"/>
<path d="M14.7657 11.7954V10.7812H19.5441V11.7954H17.7628V16.5994H16.5469V11.7954H14.7657ZM21.5185 14.0766V16.5994H20.3083V10.7812H21.4844V13.0056H21.5355C21.634 12.748 21.7931 12.5463 22.0128 12.4005C22.2325 12.2528 22.5081 12.1789 22.8395 12.1789C23.1426 12.1789 23.4068 12.2452 23.6321 12.3778C23.8594 12.5085 24.0355 12.6969 24.1605 12.9431C24.2874 13.1874 24.3499 13.48 24.348 13.821V16.5994H23.1378V14.0369C23.1397 13.7679 23.0715 13.5586 22.9333 13.409C22.7969 13.2594 22.6056 13.1846 22.3594 13.1846C22.1946 13.1846 22.0488 13.2196 21.9219 13.2897C21.7969 13.3598 21.6984 13.4621 21.6265 13.5965C21.5564 13.7291 21.5204 13.8891 21.5185 14.0766ZM27.2891 16.6846C26.8402 16.6846 26.4539 16.5937 26.13 16.4119C25.808 16.2282 25.5599 15.9687 25.3857 15.6335C25.2114 15.2963 25.1243 14.8977 25.1243 14.4374C25.1243 13.9886 25.2114 13.5946 25.3857 13.2556C25.5599 12.9166 25.8052 12.6524 26.1215 12.463C26.4397 12.2736 26.8128 12.1789 27.2408 12.1789C27.5287 12.1789 27.7967 12.2253 28.0448 12.3181C28.2948 12.409 28.5126 12.5463 28.6982 12.73C28.8857 12.9138 29.0315 13.1448 29.1357 13.4232C29.2399 13.6997 29.2919 14.0236 29.2919 14.3948V14.7272H25.6073V13.9772H28.1527C28.1527 13.803 28.1149 13.6486 28.0391 13.5141C27.9633 13.3797 27.8582 13.2746 27.7238 13.1988C27.5912 13.1211 27.4368 13.0823 27.2607 13.0823C27.077 13.0823 26.9141 13.1249 26.7721 13.2102C26.6319 13.2935 26.5221 13.4062 26.4425 13.5482C26.363 13.6884 26.3222 13.8446 26.3203 14.017V14.73C26.3203 14.946 26.3601 15.1325 26.4397 15.2897C26.5211 15.4469 26.6357 15.5681 26.7834 15.6533C26.9311 15.7386 27.1063 15.7812 27.309 15.7812C27.4435 15.7812 27.5666 15.7622 27.6783 15.7244C27.79 15.6865 27.8857 15.6297 27.9652 15.5539C28.0448 15.4782 28.1054 15.3854 28.1471 15.2755L29.2664 15.3494C29.2096 15.6183 29.0931 15.8532 28.9169 16.0539C28.7427 16.2528 28.5173 16.4081 28.2408 16.5198C27.9662 16.6297 27.6489 16.6846 27.2891 16.6846ZM26.7777 11.6732L27.38 10.3806H28.4993L27.6328 11.6732H26.7777Z" fill="white"/>
<path d="M12.9944 26.6704C12.6629 26.6704 12.3627 26.5852 12.0938 26.4147C11.8267 26.2424 11.6146 25.9895 11.4574 25.6562C11.3021 25.321 11.2245 24.91 11.2245 24.4232C11.2245 23.9232 11.305 23.5075 11.4659 23.1761C11.6269 22.8427 11.8409 22.5937 12.108 22.4289C12.3769 22.2622 12.6714 22.1789 12.9915 22.1789C13.2358 22.1789 13.4394 22.2206 13.6023 22.3039C13.7671 22.3854 13.8997 22.4876 14 22.6107C14.1023 22.7319 14.18 22.8513 14.233 22.9687H14.2699V20.7812H15.4773V26.5994H14.2841V25.9005H14.233C14.1762 26.0217 14.0957 26.142 13.9915 26.2613C13.8892 26.3787 13.7557 26.4763 13.5909 26.5539C13.4281 26.6316 13.2292 26.6704 12.9944 26.6704ZM13.3779 25.7073C13.573 25.7073 13.7377 25.6543 13.8722 25.5482C14.0086 25.4403 14.1127 25.2897 14.1847 25.0965C14.2586 24.9033 14.2955 24.677 14.2955 24.4175C14.2955 24.1581 14.2595 23.9327 14.1875 23.7414C14.1156 23.5501 14.0114 23.4024 13.875 23.2982C13.7387 23.1941 13.573 23.142 13.3779 23.142C13.179 23.142 13.0114 23.196 12.875 23.3039C12.7387 23.4119 12.6355 23.5615 12.5654 23.7528C12.4953 23.9441 12.4603 24.1657 12.4603 24.4175C12.4603 24.6713 12.4953 24.8958 12.5654 25.0908C12.6373 25.284 12.7406 25.4355 12.875 25.5454C13.0114 25.6533 13.179 25.7073 13.3779 25.7073ZM18.461 26.6846C18.0121 26.6846 17.6257 26.5937 17.3019 26.4119C16.9799 26.2282 16.7318 25.9687 16.5576 25.6335C16.3833 25.2963 16.2962 24.8977 16.2962 24.4374C16.2962 23.9886 16.3833 23.5946 16.5576 23.2556C16.7318 22.9166 16.9771 22.6524 17.2934 22.463C17.6115 22.2736 17.9846 22.1789 18.4127 22.1789C18.7006 22.1789 18.9685 22.2253 19.2167 22.3181C19.4667 22.409 19.6845 22.5463 19.8701 22.73C20.0576 22.9138 20.2034 23.1448 20.3076 23.4232C20.4117 23.6997 20.4638 24.0236 20.4638 24.3948V24.7272H16.7792V23.9772H19.3246C19.3246 23.803 19.2867 23.6486 19.211 23.5141C19.1352 23.3797 19.0301 23.2746 18.8956 23.1988C18.7631 23.1211 18.6087 23.0823 18.4326 23.0823C18.2488 23.0823 18.086 23.1249 17.9439 23.2102C17.8038 23.2935 17.6939 23.4062 17.6144 23.5482C17.5348 23.6884 17.4941 23.8446 17.4922 24.017V24.73C17.4922 24.946 17.532 25.1325 17.6115 25.2897C17.693 25.4469 17.8076 25.5681 17.9553 25.6533C18.103 25.7386 18.2782 25.7812 18.4809 25.7812C18.6153 25.7812 18.7384 25.7622 18.8502 25.7244C18.9619 25.6865 19.0576 25.6297 19.1371 25.5539C19.2167 25.4782 19.2773 25.3854 19.3189 25.2755L20.4382 25.3494C20.3814 25.6183 20.2649 25.8532 20.0888 26.0539C19.9146 26.2528 19.6892 26.4081 19.4127 26.5198C19.1381 26.6297 18.8208 26.6846 18.461 26.6846ZM17.9496 21.6732L18.5519 20.3806H19.6712L18.8047 21.6732H17.9496ZM23.5746 22.2357V23.1448H20.9468V22.2357H23.5746ZM21.5434 21.1903H22.7536V25.2585C22.7536 25.3702 22.7706 25.4573 22.8047 25.5198C22.8388 25.5804 22.8862 25.623 22.9468 25.6477C23.0093 25.6723 23.0812 25.6846 23.1627 25.6846C23.2195 25.6846 23.2763 25.6799 23.3331 25.6704C23.3899 25.659 23.4335 25.6505 23.4638 25.6448L23.6542 26.5454C23.5935 26.5643 23.5083 26.5861 23.3985 26.6107C23.2886 26.6372 23.1551 26.6533 22.9979 26.659C22.7062 26.6704 22.4506 26.6316 22.2309 26.5425C22.0131 26.4535 21.8435 26.3153 21.7223 26.1278C21.6011 25.9403 21.5415 25.7035 21.5434 25.4175V21.1903ZM26.2877 26.6846C25.8464 26.6846 25.4648 26.5908 25.1428 26.4033C24.8227 26.2139 24.5756 25.9507 24.4013 25.6136C24.2271 25.2746 24.1399 24.8816 24.1399 24.4346C24.1399 23.9838 24.2271 23.5899 24.4013 23.2528C24.5756 22.9138 24.8227 22.6505 25.1428 22.463C25.4648 22.2736 25.8464 22.1789 26.2877 22.1789C26.729 22.1789 27.1096 22.2736 27.4297 22.463C27.7517 22.6505 27.9998 22.9138 28.174 23.2528C28.3483 23.5899 28.4354 23.9838 28.4354 24.4346C28.4354 24.8816 28.3483 25.2746 28.174 25.6136C27.9998 25.9507 27.7517 26.2139 27.4297 26.4033C27.1096 26.5908 26.729 26.6846 26.2877 26.6846ZM26.2934 25.7471C26.4941 25.7471 26.6617 25.6903 26.7962 25.5766C26.9307 25.4611 27.032 25.3039 27.1002 25.105C27.1703 24.9062 27.2053 24.6799 27.2053 24.4261C27.2053 24.1723 27.1703 23.946 27.1002 23.7471C27.032 23.5482 26.9307 23.391 26.7962 23.2755C26.6617 23.16 26.4941 23.1022 26.2934 23.1022C26.0907 23.1022 25.9203 23.16 25.782 23.2755C25.6456 23.391 25.5424 23.5482 25.4723 23.7471C25.4042 23.946 25.3701 24.1723 25.3701 24.4261C25.3701 24.6799 25.4042 24.9062 25.4723 25.105C25.5424 25.3039 25.6456 25.4611 25.782 25.5766C25.9203 25.6903 26.0907 25.7471 26.2934 25.7471ZM30.0774 22.2357L30.8786 23.7613L31.6996 22.2357H32.9411L31.6769 24.4175L32.9752 26.5994H31.7394L30.8786 25.0908L30.032 26.5994H28.782L30.0774 24.4175L28.8274 22.2357H30.0774Z" fill="white"/>
<path d="M14.5814 38.2576C13.7936 41.2327 14.7071 44.057 16.6095 44.6772L19.8109 32.5671C18.9896 33.0867 15.2937 35.559 14.5814 38.2576Z" fill="#8FA364"/>
<path d="M21.797 40.1685C22.5094 37.4699 20.5232 33.4975 20.0622 32.6343L16.8608 44.7443C18.8219 45.155 21.0093 43.1436 21.7887 40.1685H21.797Z" fill="#8FA364"/>
<g style="mix-blend-mode:multiply">
<path d="M14.5814 38.2576C13.7936 41.2327 14.7071 44.057 16.6095 44.6772L19.8109 32.5671C18.9896 33.0867 15.2937 35.559 14.5814 38.2576Z" fill="#BAE0E0"/>
</g>
<path d="M24.9148 41.124C21.9564 41.9537 19.9786 44.1661 20.4144 46.1188L32.4657 42.7498C31.6025 42.3057 27.5966 40.3697 24.9148 41.124Z" fill="#8FA364"/>
<path d="M26.9178 48.323C29.5996 47.5688 32.0216 43.8478 32.5328 43.0181L20.4814 46.3871C21.1268 48.2895 23.9594 49.1527 26.9262 48.323H26.9178Z" fill="#EDE8AD"/>
<path d="M26.5656 32.4498C24.5627 34.0002 23.7497 36.3133 24.6884 37.6709L32.8344 31.3352C32.0298 31.2681 28.3759 31.0419 26.5656 32.4498Z" fill="#8FA364"/>
<path d="M30.3369 37.3107C32.1471 35.9028 32.8344 32.2991 32.9601 31.5029L24.8141 37.8387C25.8952 39.0874 28.334 38.8611 30.3369 37.3023V37.3107Z" fill="#EDE8AD"/>
<g style="mix-blend-mode:multiply">
<path d="M2.99934 0.00830078C1.48244 0.00830078 0.250488 1.24025 0.250488 2.75715V8.90854H22.0569V0.00830078H2.99096H2.99934Z" fill="#E2E1E1"/>
<path d="M0.250488 59.2428C0.250488 60.7597 1.48244 62 2.99934 62H22.0653V9.42822H0.258871V59.2428H0.250488Z" fill="#E2E1E1"/>
</g>
</svg>
