<svg width="44" height="62" viewBox="0 0 44 62" fill="none" xmlns="http://www.w3.org/2000/svg">
<path d="M0.250488 9.41992V59.2345C0.250488 60.7514 1.48244 61.9833 2.99934 61.9833H41.1229C42.6398 61.9833 43.8717 60.7514 43.8717 59.2345V9.41992H0.250488Z" fill="#806C53"/>
<path d="M43.8717 8.90863V2.74885C43.8717 1.23195 42.6398 0 41.1229 0H2.99934C1.48244 0 0.250488 1.23195 0.250488 2.74885V8.90863H43.8717Z" fill="#806C53"/>
<path d="M14.7657 11.7954V10.7812H19.5441V11.7954H17.7628V16.5994H16.5469V11.7954H14.7657ZM21.5185 14.0766V16.5994H20.3083V10.7812H21.4844V13.0056H21.5355C21.634 12.748 21.7931 12.5463 22.0128 12.4005C22.2325 12.2528 22.5081 12.1789 22.8395 12.1789C23.1426 12.1789 23.4068 12.2452 23.6321 12.3778C23.8594 12.5085 24.0355 12.6969 24.1605 12.9431C24.2874 13.1874 24.3499 13.48 24.348 13.821V16.5994H23.1378V14.0369C23.1397 13.7679 23.0715 13.5586 22.9333 13.409C22.7969 13.2594 22.6056 13.1846 22.3594 13.1846C22.1946 13.1846 22.0488 13.2196 21.9219 13.2897C21.7969 13.3598 21.6984 13.4621 21.6265 13.5965C21.5564 13.7291 21.5204 13.8891 21.5185 14.0766ZM27.2891 16.6846C26.8402 16.6846 26.4539 16.5937 26.13 16.4119C25.808 16.2282 25.5599 15.9687 25.3857 15.6335C25.2114 15.2963 25.1243 14.8977 25.1243 14.4374C25.1243 13.9886 25.2114 13.5946 25.3857 13.2556C25.5599 12.9166 25.8052 12.6524 26.1215 12.463C26.4397 12.2736 26.8128 12.1789 27.2408 12.1789C27.5287 12.1789 27.7967 12.2253 28.0448 12.3181C28.2948 12.409 28.5126 12.5463 28.6982 12.73C28.8857 12.9138 29.0315 13.1448 29.1357 13.4232C29.2399 13.6997 29.2919 14.0236 29.2919 14.3948V14.7272H25.6073V13.9772H28.1527C28.1527 13.803 28.1149 13.6486 28.0391 13.5141C27.9633 13.3797 27.8582 13.2746 27.7238 13.1988C27.5912 13.1211 27.4368 13.0823 27.2607 13.0823C27.077 13.0823 26.9141 13.1249 26.7721 13.2102C26.6319 13.2935 26.5221 13.4062 26.4425 13.5482C26.363 13.6884 26.3222 13.8446 26.3203 14.017V14.73C26.3203 14.946 26.3601 15.1325 26.4397 15.2897C26.5211 15.4469 26.6357 15.5681 26.7834 15.6533C26.9311 15.7386 27.1063 15.7812 27.309 15.7812C27.4435 15.7812 27.5666 15.7622 27.6783 15.7244C27.79 15.6865 27.8857 15.6297 27.9652 15.5539C28.0448 15.4782 28.1054 15.3854 28.1471 15.2755L29.2664 15.3494C29.2096 15.6183 29.0931 15.8532 28.9169 16.0539C28.7427 16.2528 28.5173 16.4081 28.2408 16.5198C27.9662 16.6297 27.6489 16.6846 27.2891 16.6846ZM26.7777 11.6732L27.38 10.3806H28.4993L27.6328 11.6732H26.7777Z" fill="white"/>
<path d="M4.79123 26.6704C4.45979 26.6704 4.1596 26.5852 3.89066 26.4147C3.62361 26.2424 3.41149 25.9895 3.25429 25.6562C3.09899 25.321 3.02134 24.91 3.02134 24.4232C3.02134 23.9232 3.10183 23.5075 3.26282 23.1761C3.4238 22.8427 3.63782 22.5937 3.90486 22.4289C4.1738 22.2622 4.46831 22.1789 4.78839 22.1789C5.0327 22.1789 5.2363 22.2206 5.39918 22.3039C5.56395 22.3854 5.69653 22.4876 5.79691 22.6107C5.89918 22.7319 5.97683 22.8513 6.02986 22.9687H6.06679V20.7812H7.27418V26.5994H6.081V25.9005H6.02986C5.97304 26.0217 5.89255 26.142 5.78839 26.2613C5.68611 26.3787 5.55259 26.4763 5.38782 26.5539C5.22494 26.6316 5.02608 26.6704 4.79123 26.6704ZM5.17475 25.7073C5.36983 25.7073 5.5346 25.6543 5.66907 25.5482C5.80543 25.4403 5.9096 25.2897 5.98157 25.0965C6.05543 24.9033 6.09236 24.677 6.09236 24.4175C6.09236 24.1581 6.05638 23.9327 5.98441 23.7414C5.91244 23.5501 5.80827 23.4024 5.67191 23.2982C5.53554 23.1941 5.36983 23.142 5.17475 23.142C4.97589 23.142 4.80827 23.196 4.67191 23.3039C4.53554 23.4119 4.43233 23.5615 4.36225 23.7528C4.29217 23.9441 4.25714 24.1657 4.25714 24.4175C4.25714 24.6713 4.29217 24.8958 4.36225 25.0908C4.43422 25.284 4.53744 25.4355 4.67191 25.5454C4.80827 25.6533 4.97589 25.7073 5.17475 25.7073ZM9.28341 20.7812V21.3948C9.28341 21.5691 9.24932 21.7471 9.18114 21.9289C9.11485 22.1088 9.02584 22.2793 8.9141 22.4403C8.80235 22.5994 8.68019 22.7348 8.54762 22.8465L8.01353 22.5312C8.10822 22.3816 8.19156 22.2158 8.26353 22.034C8.33739 21.8522 8.37432 21.641 8.37432 21.4005V20.7812H9.28341ZM10.0895 26.5994V22.2357H11.2997V26.5994H10.0895ZM10.6975 21.6732C10.5176 21.6732 10.3632 21.6136 10.2344 21.4943C10.1075 21.373 10.0441 21.2282 10.0441 21.0596C10.0441 20.8929 10.1075 20.7499 10.2344 20.6306C10.3632 20.5094 10.5176 20.4488 10.6975 20.4488C10.8774 20.4488 11.0308 20.5094 11.1577 20.6306C11.2865 20.7499 11.3509 20.8929 11.3509 21.0596C11.3509 21.2282 11.2865 21.373 11.1577 21.4943C11.0308 21.6136 10.8774 21.6732 10.6975 21.6732ZM13.4794 24.0766V26.5994H12.2692V22.2357H13.4226V23.0056H13.4738C13.5703 22.7518 13.7323 22.5511 13.9596 22.4033C14.1868 22.2537 14.4624 22.1789 14.7863 22.1789C15.0893 22.1789 15.3535 22.2452 15.5789 22.3778C15.8042 22.5103 15.9794 22.6997 16.1044 22.946C16.2294 23.1903 16.2919 23.4819 16.2919 23.821V26.5994H15.0817V24.0369C15.0836 23.7698 15.0154 23.5615 14.8772 23.4119C14.7389 23.2604 14.5486 23.1846 14.3061 23.1846C14.1433 23.1846 13.9993 23.2196 13.8743 23.2897C13.7512 23.3598 13.6546 23.4621 13.5846 23.5965C13.5164 23.7291 13.4813 23.8891 13.4794 24.0766ZM19.5924 22.2357V23.1448H16.8992V22.2357H19.5924ZM17.5157 26.5994V21.9204C17.5157 21.6041 17.5772 21.3418 17.7003 21.1335C17.8253 20.9251 17.9958 20.7689 18.2117 20.6647C18.4276 20.5605 18.6729 20.5085 18.9475 20.5085C19.1331 20.5085 19.3026 20.5227 19.456 20.5511C19.6113 20.5795 19.7268 20.605 19.8026 20.6278L19.5867 21.5369C19.5393 21.5217 19.4806 21.5075 19.4105 21.4943C19.3424 21.481 19.2723 21.4744 19.2003 21.4744C19.0223 21.4744 18.8982 21.516 18.8282 21.5994C18.7581 21.6808 18.723 21.7954 18.723 21.9431V26.5994H17.5157ZM23.13 24.7414V22.2357H24.3402V26.5994H23.1783V25.8068H23.1328C23.0344 26.0624 22.8705 26.2679 22.6414 26.4232C22.4141 26.5785 22.1366 26.6562 21.809 26.6562C21.5173 26.6562 21.2607 26.5899 21.0391 26.4573C20.8175 26.3247 20.6442 26.1363 20.5192 25.892C20.3961 25.6477 20.3336 25.355 20.3317 25.0141V22.2357H21.5419V24.7982C21.5438 25.0558 21.613 25.2594 21.7493 25.409C21.8857 25.5586 22.0685 25.6335 22.2976 25.6335C22.4435 25.6335 22.5798 25.6003 22.7067 25.534C22.8336 25.4658 22.9359 25.3655 23.0135 25.2329C23.0931 25.1003 23.1319 24.9365 23.13 24.7414ZM28.939 23.48L27.831 23.5482C27.8121 23.4535 27.7713 23.3683 27.7088 23.2925C27.6463 23.2149 27.564 23.1533 27.4617 23.1079C27.3613 23.0605 27.241 23.0369 27.1009 23.0369C26.9134 23.0369 26.7552 23.0766 26.6265 23.1562C26.4977 23.2338 26.4333 23.338 26.4333 23.4687C26.4333 23.5728 26.4749 23.6609 26.5583 23.7329C26.6416 23.8049 26.7846 23.8626 26.9872 23.9062L27.777 24.0653C28.2013 24.1524 28.5176 24.2925 28.7259 24.4857C28.9342 24.6789 29.0384 24.9327 29.0384 25.2471C29.0384 25.5331 28.9541 25.784 28.7855 25.9999C28.6189 26.2158 28.3897 26.3844 28.098 26.5056C27.8083 26.6249 27.474 26.6846 27.0952 26.6846C26.5176 26.6846 26.0573 26.5643 25.7145 26.3238C25.3736 26.0814 25.1738 25.7518 25.1151 25.3352L26.3054 25.2727C26.3414 25.4488 26.4285 25.5833 26.5668 25.6761C26.7051 25.767 26.8821 25.8124 27.098 25.8124C27.3102 25.8124 27.4806 25.7717 27.6094 25.6903C27.7401 25.6069 27.8064 25.4999 27.8083 25.3693C27.8064 25.2594 27.76 25.1694 27.6691 25.0994C27.5782 25.0274 27.438 24.9725 27.2486 24.9346L26.4929 24.784C26.0668 24.6988 25.7496 24.5511 25.5412 24.3408C25.3348 24.1306 25.2316 23.8626 25.2316 23.5369C25.2316 23.2566 25.3073 23.0151 25.4588 22.8124C25.6122 22.6098 25.8272 22.4535 26.1037 22.3437C26.3821 22.2338 26.7079 22.1789 27.081 22.1789C27.6321 22.1789 28.0658 22.2954 28.3821 22.5283C28.7003 22.7613 28.8859 23.0785 28.939 23.48ZM29.8005 26.5994V22.2357H31.0107V26.5994H29.8005ZM30.4084 21.6732C30.2285 21.6732 30.0741 21.6136 29.9453 21.4943C29.8185 21.373 29.755 21.2282 29.755 21.0596C29.755 20.8929 29.8185 20.7499 29.9453 20.6306C30.0741 20.5094 30.2285 20.4488 30.4084 20.4488C30.5883 20.4488 30.7417 20.5094 30.8686 20.6306C30.9974 20.7499 31.0618 20.8929 31.0618 21.0596C31.0618 21.2282 30.9974 21.373 30.8686 21.4943C30.7417 21.6136 30.5883 21.6732 30.4084 21.6732ZM33.9517 26.6846C33.5105 26.6846 33.1288 26.5908 32.8069 26.4033C32.4868 26.2139 32.2396 25.9507 32.0654 25.6136C31.8911 25.2746 31.804 24.8816 31.804 24.4346C31.804 23.9838 31.8911 23.5899 32.0654 23.2528C32.2396 22.9138 32.4868 22.6505 32.8069 22.463C33.1288 22.2736 33.5105 22.1789 33.9517 22.1789C34.393 22.1789 34.7737 22.2736 35.0938 22.463C35.4158 22.6505 35.6639 22.9138 35.8381 23.2528C36.0123 23.5899 36.0995 23.9838 36.0995 24.4346C36.0995 24.8816 36.0123 25.2746 35.8381 25.6136C35.6639 25.9507 35.4158 26.2139 35.0938 26.4033C34.7737 26.5908 34.393 26.6846 33.9517 26.6846ZM33.9574 25.7471C34.1582 25.7471 34.3258 25.6903 34.4603 25.5766C34.5947 25.4611 34.6961 25.3039 34.7642 25.105C34.8343 24.9062 34.8694 24.6799 34.8694 24.4261C34.8694 24.1723 34.8343 23.946 34.7642 23.7471C34.6961 23.5482 34.5947 23.391 34.4603 23.2755C34.3258 23.16 34.1582 23.1022 33.9574 23.1022C33.7548 23.1022 33.5843 23.16 33.4461 23.2755C33.3097 23.391 33.2065 23.5482 33.1364 23.7471C33.0682 23.946 33.0341 24.1723 33.0341 24.4261C33.0341 24.6799 33.0682 24.9062 33.1364 25.105C33.2065 25.3039 33.3097 25.4611 33.4461 25.5766C33.5843 25.6903 33.7548 25.7471 33.9574 25.7471ZM38.0966 24.0766V26.5994H36.8864V22.2357H38.0398V23.0056H38.0909C38.1875 22.7518 38.3495 22.5511 38.5767 22.4033C38.804 22.2537 39.0796 22.1789 39.4034 22.1789C39.7065 22.1789 39.9707 22.2452 40.1961 22.3778C40.4214 22.5103 40.5966 22.6997 40.7216 22.946C40.8466 23.1903 40.9091 23.4819 40.9091 23.821V26.5994H39.6989V24.0369C39.7008 23.7698 39.6326 23.5615 39.4944 23.4119C39.3561 23.2604 39.1658 23.1846 38.9233 23.1846C38.7605 23.1846 38.6165 23.2196 38.4915 23.2897C38.3684 23.3598 38.2718 23.4621 38.2017 23.5965C38.1336 23.7291 38.0985 23.8891 38.0966 24.0766Z" fill="white"/>
<path d="M14.5815 38.2576C13.7937 41.2327 14.7072 44.057 16.6096 44.6772L19.811 32.5671C18.9897 33.0867 15.2938 35.559 14.5815 38.2576Z" fill="#8FA364"/>
<path d="M21.7973 40.1685C22.5096 37.4699 20.5234 33.4975 20.0625 32.6343L16.8611 44.7443C18.8222 45.155 21.0095 43.1436 21.7889 40.1685H21.7973Z" fill="#8FA364"/>
<g style="mix-blend-mode:multiply">
<path d="M14.5815 38.2576C13.7937 41.2327 14.7072 44.057 16.6096 44.6772L19.811 32.5671C18.9897 33.0867 15.2938 35.559 14.5815 38.2576Z" fill="#BAE0E0"/>
</g>
<path d="M24.9148 41.124C21.9564 41.9537 19.9786 44.1661 20.4144 46.1188L32.4657 42.7498C31.6025 42.3057 27.5966 40.3697 24.9148 41.124Z" fill="#8FA364"/>
<path d="M26.9178 48.323C29.5996 47.5688 32.0216 43.8478 32.5328 43.0181L20.4814 46.3871C21.1268 48.2895 23.9594 49.1527 26.9262 48.323H26.9178Z" fill="#EDE8AD"/>
<path d="M26.5656 32.4498C24.5627 34.0002 23.7497 36.3133 24.6884 37.6709L32.8344 31.3352C32.0298 31.2681 28.3759 31.0419 26.5656 32.4498Z" fill="#8FA364"/>
<path d="M30.3369 37.3107C32.1471 35.9028 32.8344 32.2991 32.9601 31.5029L24.8141 37.8387C25.8952 39.0874 28.334 38.8611 30.3369 37.3023V37.3107Z" fill="#EDE8AD"/>
<g style="mix-blend-mode:multiply">
<path d="M2.99934 0.00830078C1.48244 0.00830078 0.250488 1.24025 0.250488 2.75715V8.90854H22.0569V0.00830078H2.99096H2.99934Z" fill="#E2E1E1"/>
<path d="M0.250488 59.2428C0.250488 60.7597 1.48244 62 2.99934 62H22.0653V9.42822H0.258871V59.2428H0.250488Z" fill="#E2E1E1"/>
</g>
</svg>
