<svg width="29" height="40" viewBox="0 0 29 40" fill="none" xmlns="http://www.w3.org/2000/svg">
<path d="M0 6.07739V38.2158C0 39.1945 0.794809 39.9893 1.77345 39.9893H26.3693C27.3479 39.9893 28.1427 39.1945 28.1427 38.2158V6.07739H0Z" fill="#806C53"/>
<path d="M28.1427 5.7475V1.77345C28.1427 0.794809 27.3479 0 26.3693 0H1.77345C0.794809 0 0 0.794809 0 1.77345V5.7475H28.1427Z" fill="#806C53"/>
<path d="M9.51101 8.4858V7.85192H12.4975V8.4858H11.3842V11.4883H10.6243V8.4858H9.51101ZM13.7315 9.91158V11.4883H12.9751V7.85192H13.7102V9.24219H13.7422C13.8037 9.0812 13.9032 8.95514 14.0405 8.86399C14.1778 8.77166 14.35 8.7255 14.5572 8.7255C14.7466 8.7255 14.9117 8.76693 15.0526 8.84979C15.1946 8.93146 15.3047 9.04924 15.3828 9.20312C15.4621 9.35582 15.5012 9.53871 15.5 9.75178V11.4883H14.7436V9.88672C14.7448 9.71863 14.7022 9.58783 14.6158 9.49432C14.5305 9.4008 14.411 9.35405 14.2571 9.35405C14.1541 9.35405 14.063 9.37595 13.9837 9.41974C13.9055 9.46354 13.844 9.52746 13.799 9.61151C13.7552 9.69437 13.7327 9.79439 13.7315 9.91158ZM17.3382 11.5415C17.0576 11.5415 16.8161 11.4847 16.6137 11.3711C16.4125 11.2563 16.2574 11.0941 16.1485 10.8846C16.0396 10.6739 15.9852 10.4247 15.9852 10.1371C15.9852 9.85653 16.0396 9.61032 16.1485 9.39844C16.2574 9.18655 16.4107 9.02143 16.6084 8.90305C16.8073 8.78468 17.0405 8.7255 17.308 8.7255C17.4879 8.7255 17.6554 8.7545 17.8105 8.8125C17.9667 8.86932 18.1028 8.95514 18.2188 9.06996C18.336 9.18478 18.4272 9.32919 18.4923 9.5032C18.5574 9.67602 18.5899 9.87843 18.5899 10.1104V10.3182H16.287V9.84943H17.8779C17.8779 9.74053 17.8543 9.64406 17.8069 9.56001C17.7596 9.47597 17.6939 9.41027 17.6098 9.36293C17.527 9.31439 17.4305 9.29013 17.3204 9.29013C17.2056 9.29013 17.1038 9.31676 17.015 9.37003C16.9274 9.42211 16.8588 9.49254 16.809 9.58132C16.7593 9.66892 16.7339 9.76657 16.7327 9.87429V10.32C16.7327 10.4549 16.7575 10.5715 16.8073 10.6697C16.8582 10.768 16.9298 10.8438 17.0221 10.897C17.1144 10.9503 17.2239 10.9769 17.3506 10.9769C17.4346 10.9769 17.5116 10.9651 17.5814 10.9414C17.6513 10.9177 17.711 10.8822 17.7607 10.8349C17.8105 10.7875 17.8483 10.7295 17.8744 10.6609L18.574 10.707C18.5384 10.8751 18.4656 11.0219 18.3556 11.1474C18.2467 11.2717 18.1058 11.3687 17.933 11.4386C17.7613 11.5072 17.5631 11.5415 17.3382 11.5415ZM17.0186 8.40945L17.395 7.60156H18.0946L17.553 8.40945H17.0186Z" fill="white"/>
<path d="M11.4064 15.4049L10.714 15.4475C10.7021 15.3883 10.6767 15.3351 10.6376 15.2877C10.5985 15.2392 10.5471 15.2007 10.4831 15.1723C10.4204 15.1427 10.3452 15.1279 10.2576 15.1279C10.1404 15.1279 10.0416 15.1528 9.96112 15.2025C9.88062 15.251 9.84038 15.3161 9.84038 15.3978C9.84038 15.4629 9.86642 15.518 9.9185 15.5629C9.97059 15.6079 10.06 15.644 10.1866 15.6713L10.6802 15.7707C10.9454 15.8251 11.1431 15.9127 11.2733 16.0335C11.4035 16.1542 11.4686 16.3128 11.4686 16.5093C11.4686 16.6881 11.4159 16.8449 11.3105 16.9798C11.2064 17.1148 11.0632 17.2201 10.8809 17.2959C10.6998 17.3705 10.4908 17.4078 10.2541 17.4078C9.89305 17.4078 9.60541 17.3326 9.39116 17.1823C9.17809 17.0307 9.05321 16.8248 9.01651 16.5644L9.76048 16.5253C9.78297 16.6354 9.83742 16.7194 9.92383 16.7774C10.0102 16.8343 10.1209 16.8627 10.2559 16.8627C10.3884 16.8627 10.495 16.8372 10.5755 16.7863C10.6571 16.7342 10.6986 16.6673 10.6998 16.5857C10.6986 16.517 10.6696 16.4608 10.6128 16.417C10.5559 16.372 10.4683 16.3377 10.35 16.314L9.87767 16.2199C9.61133 16.1666 9.41306 16.0743 9.28285 15.9429C9.15383 15.8115 9.08931 15.644 9.08931 15.4404C9.08931 15.2652 9.13666 15.1143 9.23136 14.9877C9.32724 14.861 9.46159 14.7633 9.63441 14.6947C9.80842 14.626 10.012 14.5917 10.2452 14.5917C10.5897 14.5917 10.8607 14.6645 11.0584 14.8101C11.2573 14.9557 11.3733 15.154 11.4064 15.4049ZM11.9449 17.3545V14.6272H12.7013V17.3545H11.9449ZM12.3248 14.2757C12.2124 14.2757 12.1159 14.2384 12.0354 14.1638C11.9561 14.088 11.9165 13.9975 11.9165 13.8921C11.9165 13.788 11.9561 13.6986 12.0354 13.624C12.1159 13.5483 12.2124 13.5104 12.3248 13.5104C12.4373 13.5104 12.5332 13.5483 12.6125 13.624C12.693 13.6986 12.7332 13.788 12.7332 13.8921C12.7332 13.9975 12.693 14.088 12.6125 14.1638C12.5332 14.2384 12.4373 14.2757 12.3248 14.2757ZM14.5359 18.434C14.2908 18.434 14.0807 18.4003 13.9055 18.3328C13.7315 18.2665 13.593 18.176 13.4901 18.0612C13.3871 17.9463 13.3202 17.8173 13.2894 17.6741L13.989 17.58C14.0103 17.6344 14.044 17.6853 14.0902 17.7327C14.1364 17.78 14.1973 17.8179 14.2731 17.8463C14.35 17.8759 14.4435 17.8907 14.5536 17.8907C14.7182 17.8907 14.8537 17.8505 14.9602 17.77C15.0679 17.6907 15.1218 17.5575 15.1218 17.3705V16.8715H15.0898C15.0567 16.9473 15.007 17.0189 14.9407 17.0864C14.8744 17.1539 14.7892 17.2089 14.685 17.2515C14.5808 17.2941 14.4566 17.3154 14.3121 17.3154C14.1074 17.3154 13.9209 17.2681 13.7528 17.1734C13.5859 17.0775 13.4528 16.9313 13.3533 16.7348C13.2551 16.5371 13.206 16.2874 13.206 15.9855C13.206 15.6766 13.2563 15.4185 13.3569 15.2114C13.4575 15.0042 13.5913 14.8492 13.7582 14.7462C13.9263 14.6432 14.1103 14.5917 14.3104 14.5917C14.4631 14.5917 14.5909 14.6177 14.6939 14.6698C14.7969 14.7207 14.8797 14.7847 14.9425 14.8616C15.0064 14.9374 15.0555 15.0119 15.0898 15.0853H15.1183V14.6272H15.8693V17.3811C15.8693 17.6131 15.8125 17.8073 15.6989 17.9635C15.5852 18.1198 15.4278 18.2369 15.2266 18.3151C15.0265 18.3944 14.7963 18.434 14.5359 18.434ZM14.5518 16.7472C14.6738 16.7472 14.7768 16.7171 14.8608 16.6567C14.946 16.5951 15.0111 16.5075 15.0561 16.3939C15.1023 16.2791 15.1254 16.1418 15.1254 15.982C15.1254 15.8222 15.1029 15.6837 15.0579 15.5665C15.0129 15.4481 14.9478 15.3564 14.8626 15.2913C14.7773 15.2262 14.6738 15.1936 14.5518 15.1936C14.4276 15.1936 14.3228 15.2274 14.2376 15.2948C14.1523 15.3611 14.0878 15.4535 14.044 15.5718C14.0002 15.6902 13.9783 15.8269 13.9783 15.982C13.9783 16.1394 14.0002 16.2755 14.044 16.3904C14.089 16.504 14.1535 16.5922 14.2376 16.6549C14.3228 16.7165 14.4276 16.7472 14.5518 16.7472ZM17.2276 15.7778V17.3545H16.4712V14.6272H17.1921V15.1084H17.2241C17.2844 14.9498 17.3857 14.8243 17.5277 14.732C17.6697 14.6385 17.842 14.5917 18.0444 14.5917C18.2338 14.5917 18.3989 14.6331 18.5398 14.716C18.6806 14.7989 18.7901 14.9172 18.8683 15.0711C18.9464 15.2238 18.9854 15.4061 18.9854 15.618V17.3545H18.2291V15.7529C18.2302 15.586 18.1876 15.4558 18.1012 15.3623C18.0148 15.2676 17.8958 15.2203 17.7443 15.2203C17.6425 15.2203 17.5526 15.2422 17.4744 15.286C17.3975 15.3298 17.3371 15.3937 17.2933 15.4777C17.2507 15.5606 17.2288 15.6606 17.2276 15.7778ZM8.70646 23.406C8.53245 23.406 8.37738 23.3758 8.24126 23.3154C8.10513 23.2539 7.99741 23.1633 7.9181 23.0438C7.83998 22.923 7.80092 22.7727 7.80092 22.5928C7.80092 22.4413 7.82873 22.314 7.88437 22.211C7.94 22.108 8.01576 22.0252 8.11164 21.9624C8.20752 21.8997 8.31642 21.8524 8.43835 21.8204C8.56145 21.7884 8.69048 21.766 8.82542 21.7529C8.98404 21.7364 9.11188 21.721 9.20894 21.7068C9.30601 21.6914 9.37644 21.6689 9.42023 21.6393C9.46403 21.6097 9.48593 21.5659 9.48593 21.5079V21.4972C9.48593 21.3848 9.45042 21.2978 9.3794 21.2362C9.30956 21.1747 9.21013 21.1439 9.0811 21.1439C8.94497 21.1439 8.83666 21.1741 8.75617 21.2345C8.67568 21.2936 8.62241 21.3682 8.59637 21.4582L7.8968 21.4014C7.93231 21.2356 8.00215 21.0924 8.10631 20.9717C8.21048 20.8498 8.34483 20.7562 8.50937 20.6911C8.67509 20.6249 8.86685 20.5917 9.08465 20.5917C9.23617 20.5917 9.38117 20.6095 9.51967 20.645C9.65934 20.6805 9.78304 20.7355 9.89076 20.8101C9.99966 20.8847 10.0855 20.9806 10.1482 21.0977C10.211 21.2137 10.2423 21.3528 10.2423 21.515V23.3545H9.52499V22.9763H9.50369C9.45989 23.0615 9.4013 23.1367 9.32791 23.2018C9.25451 23.2657 9.16633 23.316 9.06335 23.3527C8.96036 23.3882 8.8414 23.406 8.70646 23.406ZM8.92308 22.884C9.03434 22.884 9.13259 22.8621 9.21782 22.8183C9.30305 22.7733 9.36993 22.7129 9.41846 22.6372C9.46699 22.5614 9.49126 22.4756 9.49126 22.3797V22.0903C9.46758 22.1057 9.43503 22.1199 9.3936 22.1329C9.35335 22.1447 9.30778 22.156 9.25688 22.1666C9.20598 22.1761 9.15508 22.185 9.10418 22.1933C9.05328 22.2004 9.00712 22.2069 8.96569 22.2128C8.87691 22.2258 8.79938 22.2465 8.73309 22.2749C8.6668 22.3034 8.61531 22.3418 8.57862 22.3904C8.54192 22.4377 8.52357 22.4969 8.52357 22.5679C8.52357 22.6709 8.56086 22.7496 8.63543 22.8041C8.71119 22.8573 8.80707 22.884 8.92308 22.884ZM12.2798 20.6272V21.1954H10.6374V20.6272H12.2798ZM11.0103 19.9738H11.7666V22.5164C11.7666 22.5863 11.7773 22.6407 11.7986 22.6798C11.8199 22.7177 11.8495 22.7443 11.8874 22.7597C11.9264 22.7751 11.9714 22.7828 12.0223 22.7828C12.0578 22.7828 12.0934 22.7798 12.1289 22.7739C12.1644 22.7668 12.1916 22.7615 12.2105 22.7579L12.3295 23.3208C12.2916 23.3326 12.2384 23.3462 12.1697 23.3616C12.101 23.3782 12.0176 23.3882 11.9193 23.3918C11.7371 23.3989 11.5773 23.3746 11.4399 23.319C11.3038 23.2633 11.1979 23.1769 11.1221 23.0597C11.0464 22.9426 11.0091 22.7946 11.0103 22.6159V19.9738ZM14.5214 22.1933V20.6272H15.2778V23.3545H14.5516V22.8591H14.5232C14.4617 23.0189 14.3593 23.1473 14.216 23.2444C14.074 23.3415 13.9006 23.39 13.6958 23.39C13.5135 23.39 13.3531 23.3486 13.2146 23.2657C13.0761 23.1829 12.9678 23.0651 12.8897 22.9124C12.8128 22.7597 12.7737 22.5768 12.7725 22.3637V20.6272H13.5289V22.2288C13.5301 22.3898 13.5733 22.517 13.6585 22.6105C13.7437 22.704 13.858 22.7508 14.0012 22.7508C14.0923 22.7508 14.1776 22.7301 14.2569 22.6887C14.3362 22.646 14.4001 22.5833 14.4486 22.5004C14.4984 22.4176 14.5226 22.3152 14.5214 22.1933ZM15.8829 23.3545V20.6272H16.6162V21.1031H16.6446C16.6943 20.9338 16.7777 20.806 16.8949 20.7195C17.0121 20.632 17.1471 20.5882 17.2998 20.5882C17.3376 20.5882 17.3785 20.5905 17.4223 20.5953C17.4661 20.6 17.5045 20.6065 17.5377 20.6148V21.286C17.5022 21.2753 17.4531 21.2658 17.3903 21.2575C17.3276 21.2493 17.2702 21.2451 17.2181 21.2451C17.1068 21.2451 17.0074 21.2694 16.9198 21.3179C16.8334 21.3653 16.7647 21.4316 16.7138 21.5168C16.6641 21.602 16.6393 21.7003 16.6393 21.8115V23.3545H15.8829ZM19.0447 23.4078C18.7642 23.4078 18.5227 23.3509 18.3203 23.2373C18.119 23.1225 17.964 22.9603 17.8551 22.7508C17.7462 22.5401 17.6917 22.2909 17.6917 22.0033C17.6917 21.7227 17.7462 21.4765 17.8551 21.2646C17.964 21.0528 18.1173 20.8876 18.3149 20.7693C18.5138 20.6509 18.747 20.5917 19.0145 20.5917C19.1944 20.5917 19.3619 20.6207 19.517 20.6787C19.6733 20.7355 19.8094 20.8213 19.9254 20.9362C20.0426 21.051 20.1337 21.1954 20.1988 21.3694C20.2639 21.5422 20.2965 21.7446 20.2965 21.9767V22.1844H17.9936V21.7156H19.5845C19.5845 21.6067 19.5608 21.5103 19.5135 21.4262C19.4661 21.3422 19.4004 21.2765 19.3164 21.2291C19.2335 21.1806 19.137 21.1563 19.0269 21.1563C18.9121 21.1563 18.8103 21.183 18.7215 21.2362C18.634 21.2883 18.5653 21.3588 18.5156 21.4475C18.4659 21.5351 18.4404 21.6328 18.4392 21.7405V22.1862C18.4392 22.3211 18.4641 22.4377 18.5138 22.536C18.5647 22.6342 18.6363 22.71 18.7287 22.7632C18.821 22.8165 18.9305 22.8431 19.0571 22.8431C19.1412 22.8431 19.2181 22.8313 19.288 22.8076C19.3578 22.7839 19.4176 22.7484 19.4673 22.7011C19.517 22.6537 19.5549 22.5957 19.5809 22.5271L20.2805 22.5732C20.245 22.7413 20.1722 22.8881 20.0621 23.0136C19.9532 23.1379 19.8123 23.2349 19.6395 23.3048C19.4679 23.3734 19.2696 23.4078 19.0447 23.4078Z" fill="white"/>
<path d="M9.24615 24.6823C8.7379 26.6017 9.32725 28.4238 10.5546 28.8239L12.62 21.011C12.0902 21.3462 9.70573 22.9412 9.24615 24.6823Z" fill="#8FA364"/>
<path d="M13.9014 25.915C14.361 24.174 13.0796 21.6111 12.7822 21.0542L10.7168 28.8671C11.982 29.1321 13.3932 27.8344 13.896 25.915H13.9014Z" fill="#8FA364"/>
<g style="mix-blend-mode:multiply">
<path d="M9.24615 24.6823C8.7379 26.6017 9.32725 28.4238 10.5546 28.8239L12.62 21.011C12.0902 21.3462 9.70573 22.9412 9.24615 24.6823Z" fill="#BAE0E0"/>
</g>
<path d="M15.912 26.5315C14.0034 27.0668 12.7274 28.4942 13.0085 29.754L20.7836 27.5804C20.2267 27.2939 17.6422 26.0449 15.912 26.5315Z" fill="#8FA364"/>
<path d="M17.2042 31.176C18.9344 30.6893 20.497 28.2887 20.8268 27.7534L13.0518 29.927C13.4681 31.1543 15.2956 31.7112 17.2096 31.176H17.2042Z" fill="#EDE8AD"/>
<path d="M16.9776 20.9354C15.6854 21.9357 15.1609 23.428 15.7665 24.3039L21.0219 20.2163C20.5029 20.1731 18.1455 20.0271 16.9776 20.9354Z" fill="#8FA364"/>
<path d="M19.4108 24.0714C20.5787 23.1631 21.022 20.8381 21.1031 20.3245L15.8477 24.4121C16.5451 25.2177 18.1185 25.0717 19.4108 24.066V24.0714Z" fill="#EDE8AD"/>
<g style="mix-blend-mode:multiply">
<path d="M1.77345 0.00537109C0.794809 0.00537109 0 0.80018 0 1.77882V5.74746H14.0687V0.00537109H1.76805H1.77345Z" fill="#E2E1E1"/>
<path d="M0 38.2212C0 39.1998 0.794809 40 1.77345 40H14.0741V6.08276H0.00540802V38.2212H0Z" fill="#E2E1E1"/>
</g>
</svg>
