<svg width="41" height="40" viewBox="0 0 41 40" fill="none" xmlns="http://www.w3.org/2000/svg">
<rect x="0.666992" width="40" height="40" rx="5" fill="#596636"/>
<g clip-path="url(#clip0_413_905)">
<path d="M27.1242 25.5095V26.8371H29.783V25.5095L29.7832 25.5076L29.783 25.5058V24.1782H27.1242V25.5058L27.124 25.5076L27.1242 25.5095Z" fill="white"/>
<path d="M20.6663 26.8371C21.4005 26.8371 21.9957 26.2419 21.9957 25.5076C21.9957 24.7734 21.4005 24.1782 20.6663 24.1782C19.9321 24.1782 19.3369 24.7734 19.3369 25.5076C19.3369 26.2419 19.9321 26.8371 20.6663 26.8371Z" fill="white"/>
<path d="M12.8802 26.8371C13.6144 26.8371 14.2096 26.2419 14.2096 25.5076C14.2096 24.7734 13.6144 24.1782 12.8802 24.1782C12.146 24.1782 11.5508 24.7734 11.5508 25.5076C11.5508 26.2419 12.146 26.8371 12.8802 26.8371Z" fill="white"/>
<path d="M28.4534 19.0504C29.1877 19.0504 29.7829 18.4552 29.7829 17.721C29.7829 16.9868 29.1877 16.3916 28.4534 16.3916C27.7192 16.3916 27.124 16.9868 27.124 17.721C27.124 18.4552 27.7192 19.0504 28.4534 19.0504Z" fill="white"/>
<path d="M19.3371 17.7229V19.0504H21.9959V17.7229L21.9961 17.721L21.9959 17.7192V16.3916H19.3371V17.7192L19.3369 17.721L19.3371 17.7229Z" fill="white"/>
<path d="M12.8802 19.0504C13.6144 19.0504 14.2096 18.4552 14.2096 17.721C14.2096 16.9868 13.6144 16.3916 12.8802 16.3916C12.146 16.3916 11.5508 16.9868 11.5508 17.721C11.5508 18.4552 12.146 19.0504 12.8802 19.0504Z" fill="white"/>
<path d="M28.4534 11.2638C29.1877 11.2638 29.7829 10.6686 29.7829 9.9344C29.7829 9.20018 29.1877 8.60498 28.4534 8.60498C27.7192 8.60498 27.124 9.20018 27.124 9.9344C27.124 10.6686 27.7192 11.2638 28.4534 11.2638Z" fill="white"/>
<path d="M20.6663 11.2638C21.4005 11.2638 21.9957 10.6686 21.9957 9.9344C21.9957 9.20018 21.4005 8.60498 20.6663 8.60498C19.9321 8.60498 19.3369 9.20018 19.3369 9.9344C19.3369 10.6686 19.9321 11.2638 20.6663 11.2638Z" fill="white"/>
<path d="M11.551 8.60498V9.93254L11.5508 9.9344L11.551 9.93626V11.2638H14.2098V9.93626L14.21 9.9344L14.2098 9.93254V8.60498H11.551Z" fill="white"/>
</g>
<defs>
<clipPath id="clip0_413_905">
<rect width="18.2324" height="22.79" fill="white" transform="translate(11.5508 8.60498)"/>
</clipPath>
</defs>
</svg>
