<svg width="73" height="72" viewBox="0 0 73 72" fill="none" xmlns="http://www.w3.org/2000/svg">
<path d="M56.7494 23.1121C56.7494 22.9074 56.7441 22.8969 56.5289 22.9022C56.0094 22.9022 55.4951 22.8445 54.986 22.7657C53.1335 22.4876 47.1194 19.3336 46.1013 14.1749C46.0803 14.0752 45.8546 12.7947 45.8546 12.2489C45.8546 12.0075 45.8547 12.0022 45.6132 12.0022C45.5555 12.0022 45.503 12.0022 45.4453 12.0022C43.0942 12.0022 40.7379 12.0022 38.3868 12.0022C37.9145 12.0022 37.9775 11.9445 37.9775 12.4168C37.9775 22.6188 37.9775 32.8208 37.9775 43.0228C37.9775 43.4059 37.967 43.7837 37.8988 44.1563C37.5419 46.1295 36.5343 47.6777 34.8235 48.7325C33.3436 49.6457 31.7325 49.9081 30.0216 49.5669C29.5354 49.4725 29.079 49.2975 28.6255 49.1181C28.5249 49.0783 28.4293 49.0242 28.3528 48.9477V48.9477C28.1849 48.806 27.9959 48.6853 27.8123 48.5593C25.6344 47.0532 24.6005 44.9592 24.9154 42.3405C25.2355 39.6851 26.7627 37.8798 29.2817 36.9509C30.0321 36.6728 30.8246 36.5573 31.6275 36.6045C32.1471 36.6308 32.6613 36.699 33.1599 36.8407C33.3331 36.8879 33.4275 36.8302 33.438 36.6465C33.438 36.5836 33.438 36.5153 33.438 36.4523C33.438 35.3661 33.414 33.5175 33.3923 32.1907C33.3758 31.1793 33.3447 30.0428 33.3751 29.0318V29.0318C33.3751 28.8796 33.3016 28.8533 33.1756 28.8376C32.2258 28.7274 31.2759 28.7012 30.3208 28.7746C29.0035 28.8691 27.723 29.142 26.4793 29.5881C24.4956 30.3018 22.7585 31.4038 21.2576 32.8733C19.9666 34.138 18.9538 35.5969 18.2138 37.2448C17.5001 38.8192 17.096 40.4723 16.9805 42.1936C16.9333 42.9388 16.9385 43.6892 17.012 44.4397C17.1065 45.4735 17.3059 46.4864 17.6208 47.4783C18.5234 50.3226 20.1713 52.6527 22.5066 54.5052C22.6198 54.5958 22.7318 54.69 22.849 54.7768C23.1023 54.9646 23.376 55.1275 23.6139 55.3344V55.3344C23.9918 55.6178 24.3959 55.8645 24.8209 56.0691C27.4344 57.3601 30.1896 57.8849 33.0917 57.5333C36.8597 57.0715 39.998 55.4026 42.4645 52.5268C44.7893 49.8188 45.9176 46.6438 45.9386 43.091C45.9701 38.011 45.9439 32.931 45.9491 27.8457C45.9491 27.725 45.8809 27.5519 46.0121 27.4889C46.1171 27.4417 46.222 27.5781 46.3217 27.6463C48.211 28.8901 50.2524 29.7875 52.4618 30.2913C53.7475 30.5852 55.0438 30.7636 56.3663 30.7636C56.7808 30.7636 56.8386 30.7426 56.8386 30.328C56.8386 28.5227 56.7441 23.5897 56.7494 23.1121Z" fill="#6F7A39"/>
<path d="M57.9899 2H15.5599C8.59563 2 2.94995 7.64569 2.94995 14.61V57.04C2.94995 64.0043 8.59563 69.65 15.5599 69.65H57.9899C64.9542 69.65 70.5999 64.0043 70.5999 57.04V14.61C70.5999 7.64569 64.9542 2 57.9899 2Z" fill="url(#paint0_linear_48_1957)" stroke="#6F7A39" stroke-width="4" stroke-linecap="round" stroke-linejoin="round"/>
<defs>
<linearGradient id="paint0_linear_48_1957" x1="67" y1="4" x2="5.5" y2="66.5" gradientUnits="userSpaceOnUse">
<stop stop-color="#8E8925" stop-opacity="0.29"/>
<stop offset="0.491176" stop-color="white" stop-opacity="0.82"/>
<stop offset="0.885757" stop-color="#D9D9D9" stop-opacity="0"/>
</linearGradient>
</defs>
</svg>
