<svg width="41" height="40" viewBox="0 0 41 40" fill="none" xmlns="http://www.w3.org/2000/svg">
<rect x="0.333984" width="40" height="40" rx="5" fill="#596636"/>
<path d="M20.334 5C17.3673 5 14.4672 5.87973 12.0004 7.52796C9.5337 9.17618 7.61111 11.5189 6.4758 14.2597C5.34048 17.0006 5.04343 20.0166 5.62221 22.9263C6.20099 25.8361 7.6296 28.5088 9.72739 30.6066C11.8252 32.7044 14.4979 34.133 17.4076 34.7118C20.3173 35.2906 23.3333 34.9935 26.0742 33.8582C28.8151 32.7229 31.1578 30.8003 32.806 28.3335C34.4543 25.8668 35.334 22.9667 35.334 20C35.3264 16.0241 33.7436 12.2132 30.9322 9.40175C28.1208 6.59035 24.3099 5.00757 20.334 5ZM20.334 32.853C17.7919 32.853 15.3069 32.0992 13.1932 30.6869C11.0795 29.2746 9.43213 27.2672 8.45932 24.9186C7.4865 22.5701 7.23197 19.9857 7.72791 17.4925C8.22384 14.9992 9.44798 12.709 11.2455 10.9115C13.043 9.11399 15.3332 7.88985 17.8265 7.39391C20.3197 6.89798 22.904 7.15251 25.2526 8.12533C27.6012 9.09814 29.6086 10.7456 31.0209 12.8592C32.4332 14.9729 33.187 17.4579 33.187 20C33.1795 23.4065 31.8229 26.6713 29.4141 29.0801C27.0053 31.4889 23.7405 32.8455 20.334 32.853ZM19.2605 12.2817H21.4075V23.3993H19.2605V12.2817ZM19.2605 25.3173H21.4075V27.7183H19.2605V25.3173Z" fill="white"/>
</svg>
