<svg width="54" height="54" viewBox="0 0 54 54" fill="none" xmlns="http://www.w3.org/2000/svg">
<path d="M53.8099 51.3404L33.8099 31.3404C36.9338 27.5812 38.4887 22.7627 38.1515 17.8865C37.8143 13.0104 35.611 8.45181 31.9994 5.15832C28.3879 1.86483 23.646 0.0898277 18.7596 0.202302C13.8731 0.314777 9.21793 2.30607 5.76175 5.76224C2.30558 9.21841 0.314288 13.8736 0.201814 18.7601C0.0893394 23.6465 1.86434 28.3884 5.15783 31.9999C8.45132 35.6115 13.0099 37.8148 17.8861 38.152C22.7622 38.4892 27.5807 36.9343 31.3399 33.8104L51.3399 53.8104L53.8099 51.3404ZM19.1699 34.6604C16.1091 34.6584 13.1176 33.7491 10.5735 32.0474C8.02933 30.3457 6.04677 27.9279 4.87636 25.0997C3.70596 22.2715 3.40025 19.1599 3.99786 16.158C4.59548 13.1561 6.0696 10.3987 8.23392 8.23441C10.3982 6.07009 13.1556 4.59597 16.1575 3.99835C19.1594 3.40073 22.2711 3.70645 25.0993 4.87685C27.9274 6.04726 30.3452 8.02982 32.0469 10.574C33.7486 13.1181 34.6579 16.1096 34.6599 19.1704C34.6573 23.2778 33.0245 27.2162 30.1201 30.1206C27.2157 33.0249 23.2773 34.6578 19.1699 34.6604Z" fill="#1D1D1B"/>
</svg>
