<svg width="73" height="72" viewBox="0 0 73 72" fill="none" xmlns="http://www.w3.org/2000/svg">
<path d="M44.9106 35.9367C44.9173 35.9025 44.9132 35.9052 44.91 35.9399V35.9399C44.9102 35.9388 44.9104 35.9378 44.9106 35.9367Z" fill="#6F7A39"/>
<path d="M37.1901 18.7998C15.4501 18.7998 15.0701 20.7298 15.0701 35.8298C15.0701 50.9298 15.4501 52.8598 37.1901 52.8598C58.9301 52.8598 59.3101 50.9298 59.3101 35.8298C59.3101 20.7298 58.9301 18.7998 37.1901 18.7998ZM44.2401 36.9348C44.2401 36.9379 44.2383 36.9407 44.2356 36.942L34.2601 41.7598C33.4601 42.1498 32.5301 41.5598 32.5301 40.6698V31.2398C32.5301 30.3598 33.4401 29.7698 34.2401 30.1398L44.2201 34.7398C44.4983 34.8682 44.6849 35.073 44.7944 35.3105C44.8822 35.5007 44.9512 35.7143 44.9101 35.9198V35.9198C44.8802 36.3284 44.6715 36.7171 44.2446 36.9276C44.2418 36.9289 44.2401 36.9317 44.2401 36.9348V36.9348Z" fill="#6F7A39"/>
<path d="M57.69 2H15.26C8.29571 2 2.65002 7.64569 2.65002 14.61V57.04C2.65002 64.0043 8.29571 69.65 15.26 69.65H57.69C64.6543 69.65 70.3 64.0043 70.3 57.04V14.61C70.3 7.64569 64.6543 2 57.69 2Z" fill="url(#paint0_linear_48_1819)" stroke="#6F7A39" stroke-width="4" stroke-linecap="round" stroke-linejoin="round"/>
<defs>
<linearGradient id="paint0_linear_48_1819" x1="66" y1="4.5" x2="5.5" y2="68" gradientUnits="userSpaceOnUse">
<stop stop-color="#8E8925" stop-opacity="0.29"/>
<stop offset="0.480906" stop-color="white" stop-opacity="0.82"/>
<stop offset="1" stop-color="#D9D9D9" stop-opacity="0"/>
</linearGradient>
</defs>
</svg>
