<svg width="44" height="44" viewBox="0 0 44 44" fill="none" xmlns="http://www.w3.org/2000/svg">
<g id="Group">
<g id="Group_2">
<path id="Vector" d="M27.2244 21.8789C27.2368 21.941 27.243 22.0031 27.2368 22.0714C27.2492 22.0093 27.2492 21.941 27.2244 21.8789Z" fill="#6F7A39"/>
<path id="Vector_2" d="M22.444 11.4302C8.94686 11.4302 8.71094 12.6284 8.71094 22.0031C8.71094 31.3778 8.94686 32.5761 22.444 32.5761C35.9411 32.5761 36.177 31.3778 36.177 22.0031C36.177 12.6284 35.9411 11.4302 22.444 11.4302ZM26.8209 22.6923L20.6249 25.6847C20.1282 25.9268 19.5508 25.5606 19.5508 25.008V19.1535C19.5508 18.6071 20.1158 18.2408 20.6125 18.4705L26.8085 21.3264C27.0506 21.4382 27.181 21.643 27.2245 21.8665C27.2493 21.9286 27.2493 21.9969 27.2369 22.059C27.2183 22.3135 27.0879 22.5557 26.8209 22.6861V22.6923Z" fill="#6F7A39"/>
</g>
<path id="Vector_3" d="M35.1712 1H8.82883C4.50508 1 1 4.50508 1 8.82883V35.1712C1 39.4949 4.50508 43 8.82883 43H35.1712C39.4949 43 43 39.4949 43 35.1712V8.82883C43 4.50508 39.4949 1 35.1712 1Z" stroke="#6F7A39" stroke-width="2" stroke-linecap="round" stroke-linejoin="round"/>
</g>
</svg>
